<?xml version="1.0" encoding="UTF-8"?>
<svg id="Layer_2" data-name="Layer 2" xmlns="http://www.w3.org/2000/svg" viewBox="0 0 446.25 172.11">
  <defs>
    <style>
      .cls-1 {
        fill: none;
      }

      .cls-2 {
        fill: #5196b7;
      }

      .cls-2, .cls-3, .cls-4, .cls-5, .cls-6, .cls-7 {
        stroke: #000;
        stroke-miterlimit: 10;
        stroke-width: 5px;
      }

      .cls-3 {
        fill: #60c044;
      }

      .cls-4 {
        fill: #fbe470;
      }

      .cls-5 {
        fill: #5c70ff;
      }

      .cls-6 {
        fill: #50c89c;
      }

      .cls-8 {
        fill: #9e1b38;
      }

      .cls-9 {
        fill: #f62c50;
      }

      .cls-7 {
        fill: #db6cff;
      }

      .cls-10 {
        opacity: .5;
      }
    </style>
  </defs>
  <g id="Layer_1-2" data-name="Layer 1">
    <g id="Layer_2-2" data-name="Layer 2">
      <path d="M13.98.01h12.93v172H0V13.51C0,6.11,6.26.01,13.98.01Z"/>
      <rect x="430.6" y=".01" width="15.64" height="105.3"/>
      <path class="cls-9" d="M256.25,102.51h178c3.96,0,7.3-3.1,7.3-6.9l.94-86.2c0-3.9-3.23-7.1-7.3-7.1H9.8c-3.96,0-7.3,3.1-7.3,6.9l-.94,152.9c0,3.9,3.23,7,7.3,7h140.59c1.46,0,2.82-.4,3.96-1.1l98.87-64.4c1.15-.8,2.61-1.1,3.96-1.1h0Z"/>
      <g class="cls-10">
        <path class="cls-1" d="M50.69,60.21c.21,0,.52.2.73.2,1.04-.9,1.98-1.8,3.13-2.8-1.36-.3-2.29-.6-3.65-.9,0,1.1-.21,2.3-.31,3.5h.1Z"/>
        <path class="cls-1" d="M45.78,61.41c.21.5.94,1,1.46,1s1.56-.3,1.67-.7c.42-1.8.63-3.7.94-5.6-3.44.8-5.11,3.2-4.07,5.3Z"/>
        <path class="cls-1" d="M55.07,57.91c1.56,1.6,2.61,1.8,3.65.6.21-.3,0-1-.1-1.5-1.04.3-2.09.5-3.55.9Z"/>
        <path class="cls-1" d="M45.58,51.51c.31.8.52,1.7,1.15,2.3.31.3,1.25,0,2.71,0-.83-1.2-1.25-2.1-1.98-2.6-.31-.3-1.25.1-1.88.2v.1Z"/>
        <path class="cls-1" d="M47.66,49.11c2.61-1.2,3.02-3.6,1.15-5.5-.31-.3-.52-.6-.73-1-1.88-3.9-5.94-3.9-9.18-5.5-.1.2-.31.3-.42.5.21.6.52,1.3.63,1.7-.63.4-1.15.8-1.67,1.2.63.2,1.15.3,1.77.5.63.2,1.25.2,1.67.5,1.15.6,2.19,1.3,3.65,2.3.42.8,1.15,2.1,1.67,3.1-.31.8-.52,1.4-.73,2,.73,0,1.56.4,2.19.1v.1Z"/>
        <path class="cls-1" d="M51.52,63.11c-.94.3-1.56,1.1-2.4,1.7.1.2.31.5.42.7,1.25-.3,2.4-.6,4.28-1-1.15-.7-1.88-1.5-2.4-1.4h.1Z"/>
        <path class="cls-1" d="M25.13,102.11c.21-.9.73-2.4.52-2.5-1.15-.5-2.4-.7-3.65-1-.1.2-.21.5-.31.7.83.9,1.67,1.9,2.5,2.8h.94Z"/>
        <path class="cls-1" d="M7.3,156.01c0,.3.83.6,1.15.5.31,0,.83-.6.83-1,0-1.6-.21-3.1-.31-4.7-3.96.4-6.15,1.8-5.94,4,2.09-1.4,3.75-1.7,4.38,1.1l-.1.1Z"/>
        <path class="cls-8" d="M113.58,51.31c1.88-.8,3.23-1.8,4.69-1.9,4.17-.4,8.45-.5,12.72-.7,2.5-.1,5.01-.3,7.51-.4v-1.3c-2.4,0-4.9,0-7.2.3-4.07.6-7.93,1-11.99,0-.83-.2-1.88.2-2.82.3-.94.2-1.98.5-2.92.6-.63,0-1.36-.2-1.98,0-3.34,1-6.57,1.9-10.12,1.3-.94-.2-1.98,0-3.02.2-3.65.5-7.4,1.2-11.06,1.6-3.44.4-6.99.3-10.53.6-4.17.4-4.69,0-4.8-3.9,1.25-.3,2.5-.5,4.17-.9-2.82-2.6-5.01-4.6-7.3-6.7q-3.65,1-5.42-2.5c-.31-.6-.94-1-1.36-1.4l-.63.4c.52,1.7.94,3.4,1.36,5.1-3.55,1.2-4.38.7-4.28-2.6,0-.9-.1-1.8-.21-3.1-1.56,1.4-2.5,2.3-3.44,3.1-1.67-2-1.67-2.1,1.25-4.7h-2.09c.42-1,.83-1.8,1.04-2.3-1.67.6-3.34.9-4.69,1.8-2.82,1.8-4.8.4-6.57-1.3-1.04-1-1.88-.9-2.71,0-.42.4-.83.9-1.25,1.3-2.71-1.4-5.21-2.8-7.82-4-2.4-1.1-4.9-2.1-7.3-3.1-1.56-.7-3.23-1.1-4.69-2-1.67-1-3.13-2.3-4.69-3.4-1.88,1.4-3.65,2.7-4.9,3.6,3.65,1.9,7.3,3.8,11.47,6-1.04-.9-1.56-1.4-2.5-2.2,1.77,1,3.13,1.6,4.28,2.4.63.4.83,1.2,1.25,1.8.73.9,1.46,1.9,2.29,2.7.83.8,1.77,1.4,2.71,2.1.63.5,1.25,1,1.98,1.5.83.5,1.67,1,2.5,1.6,1.46,1,2.82,2.3,4.38,2.8,4.38,1.6,5.21,2.4,5.01,6.8,0,.7-.83,1.5-1.46,2-.31.2-1.56,0-1.56-.1,0-2.2-2.29-1.9-3.65-2.8.73-.5,1.25-.8,2.09-1.3-5.01-1.7-9.59-3.3-14.29-4.9,1.46,1.7,2.92,3.3,4.8,5.4-1.77.2-2.92.4-4.07.5.94,1.7.94,4.2,4.07,3.1.31,0,.94.7,1.36,1.1,1.98,2.2,3.65,4.8,6.57,6.3,2.09,1.1,3.86,1.4,6.05.3-.42.9-.94,1.8-1.67,2.4-1.25,1.1-1.36,2.1-.21,3.3,1.77,1.9,1.67,3-.31,4.8-.63.5-1.25,1-1.88,1.6,7.65-2.33,12.27-2.8,13.87-1.4-5.32,3.5-11.99,2.6-16.58,5.7-1.25-.9-1.88-1.5-2.61-2-.31.7-.52,1.3-.94,2.1-.52-.3-.94-.7-1.56-.9-.73-.3-1.56-.6-2.4-.9-.1.9-.21,1.8-.42,2.7-.21.9-.21,1.9-.63,2.6-.31.7-1.15,1.2-1.77,1.9.1.2.21.5.31.7,3.13-.6,6.36-1.2,9.49-1.8.42,0,.73-.6,1.15-.8,1.77-.9,3.65-1.9,5.53-2.7.21,0,1.15.6,1.15.9-.31,1.8-.63,3.7-1.25,5.4-.52,1.6-1.67,2.1-3.55,2.3-1.98.2-3.75,1.3-5.74,2.1.1.3.21.6.31.8,2.82-.9,5.63-1.8,8.45-2.6,2.29-.7,4.59-1.3,6.99-2,.1.2.31.4.42.6.52-1.2,1.04-2.4,1.77-3.8-.94.4-1.46.6-1.88.8v-3.2c-.52,0-.63.1-.83.1-.83.3-1.77.5-2.61.8-.31-.8-1.04-2-.73-2.3.52-.7,1.77-.9,2.71-1.2.73-.3,1.56-.3,2.29-.6,1.77-.7,3.55-1.6,5.21-2.4.21-1,.52-2.1.63-3-1.25-1-2.5-1.9-3.86-3,3.75-2.3,7.09-4.3,10.43-6.2,0,.2,0,.5.1.7,1.04,0,2.82.1,3.02-.3.94-2.3,2.61-2.1,4.28-1.4,1.67.7,3.23,1.8,4.8,2.8,1.98,1.3,3.86,2.6,5.63,4,1.67,1.3,3.13,2.7,4.69,4.1.1-.2.31-.3.42-.5-.63-.6-1.36-1.1-2.09-1.7.42-.6.73-1.1,1.25-1.8-1.15-.5-2.19-1.4-3.02-1.2-3.34.6-4.48-1.9-6.26-3.6-.42-.5-.1-1.7,0-2.6,0-1.2,1.04-2.5-.94-3.2-.42-.1-.94-1-.83-1.5,0-.4.83-1,1.36-1.1,4.59-.7,9.28-1.4,13.87-1.9,4.48-.4,9.07-.3,13.56-1,3.75-.5,7.3-1.3,10.01.7l.63-.4ZM44.53,43.91c-1.46-.9-2.5-1.6-3.65-2.3-.52-.3-1.15-.4-1.67-.5-.63-.2-1.15-.3-1.77-.5.52-.4,1.04-.8,1.67-1.2-.1-.4-.42-1-.63-1.7.1-.2.31-.3.42-.5,3.23,1.5,7.3,1.6,9.18,5.5.21.4.42.7.73,1,1.88,1.9,1.46,4.3-1.15,5.5-.52.3-1.46,0-2.19-.1.21-.6.52-1.3.73-2-.52-.9-1.25-2.2-1.67-3.1v-.1ZM49.44,53.91c-1.36,0-2.4.3-2.71,0-.63-.6-.73-1.5-1.15-2.3.63,0,1.56-.5,1.88-.2.73.5,1.04,1.4,1.98,2.6v-.1ZM47.24,62.41c-.52,0-1.15-.5-1.46-1-1.15-2.1.63-4.6,4.07-5.3-.31,2-.52,3.8-.94,5.6,0,.4-1.04.8-1.67.7ZM49.64,65.51c-.1-.2-.31-.5-.42-.7.73-.6,1.46-1.4,2.4-1.7.42-.1,1.25.7,2.4,1.4-1.88.4-3.02.7-4.28,1h-.1ZM51.42,60.51c-.21,0-.52-.2-.73-.2,0-1.2.21-2.4.31-3.5,1.25.3,2.29.6,3.65.9-1.15,1-2.09,1.9-3.13,2.8h-.1ZM58.72,58.51c-1.04,1.2-2.09,1-3.65-.6,1.46-.4,2.5-.6,3.55-.9,0,.5.31,1.2.1,1.5Z"/>
        <path class="cls-8" d="M198.89,96.91c-2.71.7-5.32,1.4-7.82,2-.83.6-1.46,1.2-2.09,1.5-1.67.8-3.34,1.5-5.01,2.3-.63.3-1.36.7-1.77.6-2.61-.9-4.48,0-6.36,1.7-1.36,1.3-2.61,1.2-4.07-.2-.83-.8-3.13-1.4-3.65-.9-2.82,2.3-5.21.8-7.61-.3-1.46-.7-2.82-1.4-4.28-2.1-.31-.2-.63-.5-.94-.8-.94-.8-1.88-1.8-2.92-2.5-4.69-2.7-9.49-5.3-14.29-7.7-2.09-1.1-4.38-1.7-6.57-2.6-.42-.2-.94-.4-1.36-.6-1.25-.6-2.5-1.2-3.75-1.9,2.19,2.2,4.17,5.2,6.67,5.7,4.07.8,6.05,4,9.39,5.4,1.46.6,3.02,1,4.48,1.8,1.77,1,3.34,2.2,4.9,3.3,1.98,1.3,4.07,2.5,6.05,3.8,2.29,1.6,4.38,4,6.88,4.6,3.23.8,4.8,3.2,7.2,4.8.21.1.21.4.63,1.3-.94-.3-1.56-.4-2.29-.6,3.44,3.2,6.26,3.9,8.24,2.4.21,1.6.42,3.2.63,4.7h.63c0-2.2.1-4.4.21-6.7-2.19.3-4.38.8-2.61-2.4-.83,0-1.56.1-2.4.2,0-4.5.63-5.5,3.75-5.7,0,.7,0,1.4.1,2.5.52-.6.83-.9.94-1.3,1.15-2.8,3.02-4.8,6.26-5.6,1.46-.4,2.71-1.4,4.07-2.2.63-.4,1.15-.8,1.88-1.1,2.4-.9,4.8-1.7,7.2-2.6,0-.3-.1-.6-.21-.8h-.1Z"/>
        <path class="cls-8" d="M26.18,108.71c-.42-.9-.73-2-1.46-2.8-.94-1.2-2.19-2.1-3.34-3.2.21-.2.42-.4.63-.6,5.11,1.4,6.67,7.4,11.89,8.6-1.25-1.4-2.82-2.6-4.07-3.9-1.25-1.4-2.5-3-3.23-4.7-.31-.8.21-2.5.94-2.9.83-.5,2.29-.2,3.44.2,1.25.5,2.29,1.4,3.55,2.1-1.04-1.6-1.98-3.1-3.13-4.8-.83-.3-2.19-.7-3.44-1.2.1.8.21,1.6.42,2.6-1.98-.2-3.65-.4-5.84-.6,1.04-1.3,1.67-2,2.19-2.7-.21-.2-.42-.4-.63-.6-.94.9-1.88,1.7-2.82,2.6-.83.9-1.88,1.6-2.61.3-.83-1.5-1.04-3.2-1.67-5.2-1.15-1.4-3.34,2.4-4.69-.2,1.15-1.1,2.19-2.1,3.75-3.5-4.38,1.3-7.93,2.3-9.59,6.3.31.2,1.15.9,1.46.7,2.71-1.7,4.07.6,6.05,1.5s2.29,2.1,1.67,4.1c-1.46,4.2,1.15,7.2,5.74,7.1.63,0,1.25.4,1.88.5.94.1,1.98.2,2.92.3ZM22.01,98.61c1.25.3,2.5.5,3.65,1,.21.1-.31,1.6-.52,2.5h-.94c-.83-.9-1.67-1.9-2.5-2.8.1-.2.21-.5.31-.7Z"/>
        <path class="cls-8" d="M50.79,149.71c.31.3.83.9,1.15.8,2.5-.8,3.86.5,5.21,2.2.31.4,1.15.6,1.67.9,1.15.4,2.19.8,3.86,1.4-.31-1.4-.52-2.8-.83-4.2.31,0,.52-.1.83-.2.63,1.3,1.15,2.6,1.77,3.9.31,0,.63-.2.83-.3-.21-1.3-.31-2.6-.83-3.8-.83-2.2-2.19-4.2-2.82-6.5-.63-2-1.46-3-3.86-2.4.73,1.9,1.56,3.7,2.09,5.6.21.8-.1,1.8-.31,2.6h-1.25c0-.9,0-1.8.1-2.7,0-.1,0-.3-.1-.6-1.67.4-3.23.8-5.01-.6-1.36-1.1-3.96-1.2-5.32.4-.73.9-.31,2.6-.21,3.9,0,.4.42.7.42,1.1,0,.5,0,1.2-.31,1.5-.21.2-1.04.2-1.46,0-1.36-.4-2.61-.9-4.38-1.6.42,1.2.42,2.4,1.04,2.9,1.98,1.6,2.71,3.6,3.13,6,.21,1,1.88,2.5,3.02,2.6,1.36.2,1.56-1.4,1.46-2.7,0-1.9.21-3.9.31-5.9h1.98l.31-.9c-1.25-.7-2.61-1.4-4.17-2.3-.1-.6-.42-1.7-.73-2.8.21-.1.42-.2.63-.3.52.6,1.04,1.3,1.56,1.8l.21.2Z"/>
        <path class="cls-8" d="M204.73,7.41c3.13,1.3,6.36,2.6,9.49,3.9.63.2,1.36.6,1.56,1.1,1.67,3.9,5.94,4.3,8.76,6.7.31-.3.63-.5.83-.8-1.25-1.7-2.61-3.4-3.65-4.8.42-.9,1.15-1.8.94-2.5-.21-.6-1.46-.8-2.4-1.3-.31-.5-.73-1.9-1.25-1.9-2.71-.2-2.82-2.1-3.34-3.7.94-.7,1.88-1.3,3.23-2.2-3.65-1-6.78,2.4-9.7-1.2-2.19,1.9-4.17,3.6-6.36,5.5.94.7,1.36,1.1,1.88,1.3v-.1Z"/>
        <path class="cls-8" d="M72.69,25.81c0-1,0-1.8-.1-2.6-1.56-.9-4.28,1.3-4.38-2.2-1.36,1.5-2.5,2.7-3.65,4,1.67.7,3.02,1.8,4.59,1.9,3.13.2,5.84,1.6,8.66,2.5,1.88.6,3.13,3.1,4.8,4.9-.42.2-.83.8-1.25.8-2.61,0-5.11.3-7.3,1.6-.42.2-1.04.5-1.04.8,0,.4.31,1.2.73,1.3.94.3,2.19.7,2.92.4,2.5-1.4,4.07,0,6.05,1,1.04.5,2.4.6,3.55.9-.94-1.6-3.13-2.3-1.46-4.1,1.46-1.6,1.67-3.1.73-4.8.52-.4,1.04-.7,1.25-.8-3.23-5.3-8.13-6.3-13.98-5.4l-.1-.2Z"/>
        <path class="cls-8" d="M51.1,1.91c-1.46-2.3-3.02-1.8-5.11-.5,2.29,2.6-1.46,5.9,1.25,8.5v.4c-1.77.8-1.15,2.2-.31,2.9.73.7,2.09.7,3.75,1.2-.73-1.6-1.15-2.4-1.77-3.8,1.56-.2,3.75-.7,3.86-.4.73,2,1.04,4.2,1.46,6.3,2.19-.6,2.4-5.1.21-7.3,1.04-1,2.09-2,3.02-2.9-1.56-2.4-5.01,1.9-5.63-2.1.42-.3.83-.7,1.36-1.1-.83-.5-1.77-.7-2.19-1.3l.1.1Z"/>
        <path class="cls-8" d="M17.73,108.81c-1.67-.5-3.44-.6-5.21-.9-.42.4-1.15,1.1-1.77,1.7-.63.5-1.25,1-1.88,1.5.63.6,1.04,1.4,1.88,1.8,1.98.9,3.44,2.1,3.55,4.5,3.86.9,5.42-2,7.3-3.7-.73-1.3-1.25-2.4-1.98-3.3-.42-.6-1.15-1.3-1.88-1.5v-.1Z"/>
        <path class="cls-8" d="M360.44,24.51c2.29,1.3,3.96,3,5.74,4.9,2.82,3,6.99,4.8,10.53,7.2.52.3.83.8,1.36,1.2.73.6,1.46,1.1,2.09,1.7l1.04-.8c-.52-.7-.94-1.5-1.46-2.1-1.36-1.7-3.13-3.1-4.17-4.9-1.25-2.2-2.29-4.2-5.42-3.3-.42.1-1.04-.2-1.46-.4-2.71-1.7-5.42-3.5-8.13-5.2-1.04-.7-2.29-1.1-3.44-1.6,1.04,1.4,1.98,2.8,3.23,3.5l.1-.2Z"/>
        <path class="cls-8" d="M21.38,60.31q1.46-3.4-1.56-3.6c-.73-1.1-1.36-1.9-1.98-2.8h-.73c0,3.4-1.88,2-3.02,1.7-1.46.7-2.5,1.3-3.75,2,4.17,2.1,4.59,2.8,2.4,4.8.73.2,1.46.2,2.09,0,1.56-.5,3.13-1.1,5.01-1.7-.42,1.5-.73,2.3-1.04,3.2.83.2,1.67.3,2.5.5,0-1.6-.42-3,0-4l.1-.1Z"/>
        <path class="cls-8" d="M36.61,140.91c1.77,2.1,3.23,1.9,4.48-1.2.94,1.9,1.67,3.3,2.4,4.6.31.5.63,1.2,1.15,1.3.52,0,1.46-.3,1.67-.7,1.56-3.2,4.9-4.2,8.03-6.3-.94-.2-1.77-.7-2.19-.5-.83.4-1.46,1.2-2.09,1.9-1.25-.6-2.5-1.1-4.59-2.1.42,1.5.63,2.4,1.04,3.8-1.04-.5-2.09-.8-2.92-1.3s-1.88-1.7-2.4-1.6c-2.71.9-3.65-1-5.11-2.3-.52-.5-1.25-.7-1.88-1.1-.21.1-.52.2-.73.3.21.8.31,1.7.83,2.3.73,1,1.67,1.8,2.5,2.7l-.21.2Z"/>
        <path class="cls-8" d="M37.55,148.31v2.8c2.29-2.1,4.38-2.3,6.78-.5-.21-.8-.52-1.3-.73-1.7-.21-.5-.42-1.1-.63-1.7q-3.96.8-5.84-2.6c-.31-.5-1.04-.7-1.46-1.2-.83-.8-1.67-1.7-2.4-2.6-3.02-1.5-3.44-1.4-4.59,1.3,1.15.7,2.29,1.4,3.55,2.2-.83.6-1.56,1.2-2.71,2,2.82.7,5.53,1.3,8.13,2h-.1Z"/>
        <path class="cls-8" d="M47.35,98.01c1.77,1.4,3.96,2.5,5.11,4.1,1.15,1.7,1.98,4,1.04,6.7-1.88-1.1-3.44-1.9-5.21-2.9.83,2.2,1.56,4.2,2.29,6.1.21,0,.42-.1.63-.2-.21-.8-.42-1.7-.73-2.8,1.04.2,1.88.4,2.82.5,1.98.2,3.34-1.4,2.71-3.2-.63-1.7-1.36-3.3-1.88-5.1-.42-1.6-.63-3.3-.83-5v-.6c-.94-1.4-1.88-2.8-3.13-4.7,0,1.4,0,2.5.21,3.6.42,3.1.31,3.2-2.92,3.5h-.1Z"/>
        <path class="cls-8" d="M25.03,90.81c1.98-1,3.96-2.1,5.84-3.1v-.7c-.63,0-1.36-.2-1.98,0-1.56.7-2.29.8-2.09-1.3,0-.8-1.15-2-1.98-2.5-.73-.4-2.29-.6-2.92-.2-1.56,1.1-2.92,2.7-4.28,4.1,1.15.3,2.61.5,3.23-.1,1.88-1.8,2.82-.4,4.69.8-1.88.8-3.34,1.5-4.8,2.1,1.36,1.1,2.4,1.9,3.34,2.6,1.25,1,2.61,1.9,3.86,2.9-1.25-1.3-2.5-2.5-3.75-3.8.42-.4.63-.8.83-.9v.1Z"/>
        <path class="cls-8" d="M74.99,169.11c-3.13-2.9-6.15-5.8-9.28-8.6-2.82.9.83,5.2-3.96,5.7,1.77,1.6,2.92,2.7,4.28,4,1.04-.9,2.29-1.9,3.75-3.2,1.46.4,2.5,3.3,5.11,2.1h.1Z"/>
        <path class="cls-8" d="M162.91,53.71c.42.8,1.15,1.4,1.77,2.1.21-.1.42-.2.63-.4v-1.1c.1-2.7,1.36-3.2,4.07-3,2.4.2,4.8-.5,7.2-1,.31,0,.52-.9.63-1.2-2.61-2.8-5.01,1.5-8.13-.1-1.98-1-5.42.6-7.72.9.52,1.3.83,2.6,1.56,3.9v-.1Z"/>
        <path class="cls-8" d="M293.38,51.01c-1.98,0-4.59-2-4.8,1.7,2.71,1.1,5.42,2.3,8.24,3.5.1-.3.31-.6.42-1-.63-.3-1.36-.5-1.77-.9-.73-.7-1.46-1.5-2.09-2.2.73-.6,1.46-1.1,1.98-1.8.42-.6.94-1.3.83-2,0-.3-1.15-.6-1.77-.9-1.56-.5-3.23-1-4.8-1.5-.63-.2-1.15-.7-2.19-1.3.21,4,4.07,3.9,5.84,6.4h.1Z"/>
        <path class="cls-8" d="M360.54,52.61c2.09-2.5,3.02-2.8,6.15-1.7.83.3,1.67.2,2.61.2v-.6c-1.46-.6-3.02-1.3-4.59-2,1.88-1.5,3.44-2.5,4.8-3.8.31-.3,0-1.2,0-1.9-.63.3-1.25.4-1.77.8-1.36,1.2-2.61,2.5-3.86,3.6-.52.5-1.56.6-1.88,1.1-1.04,2.2-2.19,1.3-3.02.5-.52,1.9-1.15,3.9-1.67,6,1.56.3,2.4-1.2,3.34-2.3l-.1.1Z"/>
        <path class="cls-8" d="M225.17,66.31c5.11,8.1,10.12,15.9,15.12,23.7.31-.2.73-.3,1.04-.5-2.61-4.1-5.32-8.1-7.61-12.3-2.09-3.8-6.88-10.8-8.45-10.9h-.1Z"/>
        <path class="cls-8" d="M130.58,131.91c2.09-1.7,4.17-3.3,6.67-5.3-.52-.4-1.04-1.1-1.77-1.4-1.56-.5-3.13-1-4.8-1.2-.73,0-1.67.3-2.19.8-.31.3-.42,1.6-.21,1.7,2.5.9,1.67,2.9,1.56,4.7.21.2.42.4.73.6v.1Z"/>
        <path class="cls-8" d="M36.29,27.91c-.63-.4-1.36-.7-1.98-1.1-.83-.6-1.36-1.5-2.19-2-2.5-1.5-5.11-3-7.72-4.4-.73-.4-1.67-.6-2.5-.8,0,.2-.1.3-.21.5,1.46.9,3.23,1.5,4.28,2.7,2.61,3.2,5.94,5.3,9.49,7.1.63.3,1.36.4,1.98.6,0,0,.52-.8.31-1-.42-.6-.94-1.1-1.46-1.5v-.1Z"/>
        <path class="cls-8" d="M104.5,101.81c.1-.7,0-2-.1-2.1-2.19-.5-2.71-2.7-4.38-3.8-.73-.5-1.15-1.5-1.46-2.4s-.52-1.8-1.67-.7c-.21.2-.63.2-.94.2-.63,0-1.36.1-1.98.1.31.7.52,1.5,1.04,2,2.61,2.3,5.21,4.4,8.13,6.8.42,0,1.46,0,1.46-.2l-.1.1Z"/>
        <path class="cls-8" d="M380.46,58.01c.94,2.6-.63,3.5-2.92,3.9-2.5.5-4.9.9-7.4,1.3-.42,0-.83.4-1.04.5,5.53-.3,11.16-.6,17.21-.9-.31-.7-.52-2.1-1.04-2.2-2.29-.5-3.75-1.4-4.07-3.9-.21,0-.42.2-.63.3,0,.4-.21.8-.1,1.1v-.1Z"/>
        <path class="cls-8" d="M176.05,123.41c-.31-.6-.52-1.4-1.04-1.6-2.29-1-4.59-1.8-6.88-2.6-1.15,3.8-.94,4.5,3.34,6.5,0-.8-.21-1.6-.31-2.6,1.15.3,2.09.7,3.02.8.63,0,1.25-.3,1.88-.4v-.1Z"/>
        <path class="cls-8" d="M40.88,26.71c-3.65-2.7-7.4-5.2-11.06-7.8.31,3.4,7.2,8.6,11.26,9.2,0-.5,0-1.1-.21-1.3v-.1Z"/>
        <path class="cls-8" d="M127.97,56.81c2.82-1.2,2.82-3.3,3.23-6.2-2.5,2-4.59,3.8-6.78,5.6.21.5.52,1.2.73,1.7-.63.7-1.04,1.2-1.56,1.6,1.88.4,3.65.8,5.32,1.2-2.4-2.1-2.71-3.3-.94-4v.1Z"/>
        <path class="cls-8" d="M28.05,63.81c-.1-.2-.31-.4-.42-.6-1.77.2-3.44.4-5.32.6.31.9.42,1.4.73,2.2-4.07,1.1-1.15,3-.52,5,1.88-2.4,3.75-4.8,5.63-7.2h-.1Z"/>
        <path class="cls-8" d="M343.23,61.41c-.73-3-1.56-5.9-2.19-8.9-.83-3.6-1.46-7.2-2.19-10.8-.31-1.6-.83-3.1-1.15-4.6h-.63c.63,4.1,1.15,8.2,1.98,12.3.73,3.3,1.77,6.6,2.82,9.9.21.7.94,1.4,1.36,2.1h0Z"/>
        <path class="cls-8" d="M139.23,135.51c.31,0,.63-1.2.42-1.7-.1-.4-.83-.7-1.46-.9-3.44-.9-5.21,1.8-8.03,3.5,3.55,1.3,6.26-.3,8.97-1l.1.1Z"/>
        <path class="cls-8" d="M171.56,47.11c1.98.2,4.8-1.8,5.53-4.3-1.46.6-2.5,1.1-3.55,1.5-.52.2-1.04.3-1.46.4-.1-.5-.31-1.1-.42-1.6,0-.3.1-.5.21-.6-1.36.7-2.71,1.3-4.38,2.1,0,2.6,2.19,2.4,4.07,2.5h0Z"/>
        <path class="cls-8" d="M93.55,23.11c-1.36-.3-3.02-1.2-3.86-.7-2.4,1.5-4.59.6-6.78-.3-.21.3-.31.5-.52.8,1.67,1.3,3.44,2.5,5.32,3.9.42-2.1,1.46-3.1,3.23-2,2.4,1.6,2.4,0,2.61-1.7Z"/>
        <path class="cls-8" d="M161.24.51c-.63-.5-2.4-.7-2.82-.3-1.04,1-2.4,2.2-1.36,4.2.83-.5,1.46-.9,1.98-1.1,1.46,1.2,2.71,2.3,3.96,3.3.1-1.4-.21-2.5-.52-3.5-.31-.9-.52-2.2-1.25-2.7v.1Z"/>
        <path class="cls-8" d="M80.2,2.91c.31,2.7.52,4.8.73,7.6,1.88-1.2,3.44-2.2,5.01-3.2-.1-.3-.21-.6-.31-.9-2.61.1-2.61-4.1-5.42-3.4v-.1Z"/>
        <path class="cls-8" d="M32.23,135.01c-.63-2.1-7.51-6.2-8.97-5.3,1.98,3.3,4.38,6.1,8.97,5.3Z"/>
        <path class="cls-8" d="M126.2,127.81c.52-.6.73-2.1.31-2.8-.31-.6-1.77-.6-3.23-1.1.63,1.8.94,3,1.15,3.7-1.77,1.8-3.23,3.4-4.69,4.9.31.3.63.5,1.04.8,1.88-1.8,3.75-3.6,5.42-5.6v.1Z"/>
        <path class="cls-8" d="M96.89,8.91c-4.48.2-3.55,4.8-6.26,6.6.1.2.31.3.42.5,1.88-1.1,3.86-2.1,5.63-3.1,0-1.2,0-2.6.1-4h.1Z"/>
        <path class="cls-8" d="M108.47,142.01c1.04.3,2.09.6,3.23.6,1.36,0,1.98-1.5,1.36-2.7-.83-1.4-1.56-2.8-2.5-4.6-.21,2.1-.21,4.4-2.61,5.4,0,0,.21,1.1.52,1.2v.1Z"/>
        <path class="cls-8" d="M65.7,14.31c0-.2.21-.4.21-.6-.63-1-1.56-2-1.77-3-.21-1.5,0-3,.21-5-3.34,2.2-3.44,3.5-.94,7.6.31.6,1.46.7,2.29,1Z"/>
        <path class="cls-8" d="M191.69,26.61c2.92.7,4.69.2,4.8-1.8.21-2.2-.21-4.4-.31-6.5h-1.04c0,1.4.31,2.8.1,4.2,0,.7-.94,2-1.25,1.9-1.98-.3-1.98,1-2.29,2.1v.1Z"/>
        <path class="cls-8" d="M3.34,54.31c.1.6.31,1.1.42,1.7,0,.3.1.7.1,1.1.42,0,.83,0,1.15-.3,1.88-1.1,3.86-2.2,5.63-3.3-1.04-.93-3.51-.7-7.4.7l.1.1Z"/>
        <path class="cls-8" d="M289.73,55.51c-2.71-2.7-5.32-5.3-7.93-7.9.73,3.8,5.01,8.2,7.93,7.9Z"/>
        <path class="cls-8" d="M90.74,11.01c-.52-.3-1.56-.5-1.98-.2-.63.4-1.04,1.2-1.36,2-.63,1.7-1.04,3.4-1.77,5.5,1.98-2.2,3.55-3.9,5.11-5.8.31-.3.21-1.4,0-1.6v.1Z"/>
        <path class="cls-8" d="M202.02,9.01c-.31-1.2-.63-2.4-1.15-4.1-1.56.3-2.61.5-3.65.6.31,1.1.31,2.6,1.04,3.1.94.6,2.4.3,3.65.4h.1Z"/>
        <path class="cls-8" d="M311.63,55.71c-3.96-1.5-8.03-2.9-11.99-4.4,3.55,2.7,7.3,4.7,11.68,5.1,0-.2.21-.5.21-.7h.1Z"/>
        <path class="cls-8" d="M245.92,33.41c.1-.4.31-.8.42-1.2-1.77-.8-3.44-1.9-5.32-2.3-.63-.2-1.67,1.2-2.92,2.2,3.13.6,5.42,1,7.72,1.4l.1-.1Z"/>
        <path class="cls-8" d="M140.38,124.71c-.21,3,1.98,4.2,5.63,3.7.42-4.7-3.86-2-5.63-3.7Z"/>
        <path class="cls-8" d="M106.59,25.41c1.25,0,3.02.4,3.75-.2,1.25-1,1.25-2.5-.52-3.6-.31-.2-.63-.9-.52-1.1.31-.4.83-.7,1.36-.9.52-.1,1.15,0,1.77,0v-.9c-.94,0-2.09,0-2.82.3-3.23,1.8,0,3.4.52,5.2h-3.34c0,.4,0,.7-.1,1.1l-.1.1Z"/>
        <path class="cls-8" d="M4.17,35.91c.52-.9.94-1.8,1.36-2.7.52,0,1.46,0,2.4-.1,0-.2.1-.4.21-.7-1.15-.7-2.29-1.4-3.96-2.5.1,2.5-3.34,3.7,0,6Z"/>
        <path class="cls-8" d="M7.51,11.91c-.1-.4-1.04-.6-1.56-.8-.1,0-.52.2-.63.3-.52,1.4-.94,2.8-1.36,4.2.21,0,.42.1.63.2.52-.9,1.04-1.8,1.98-3.4,1.15,1.6,1.98,2.9,2.92,4.2,2.61-2.6-1.36-3.2-1.98-4.8v.1Z"/>
        <path class="cls-8" d="M152.37,138.21c.52.2,1.46-.2,2.09-.3-2.19-2.2-4.17-4.1-6.36-6.3-.21,2.4,1.77,5.5,4.28,6.6Z"/>
        <path class="cls-8" d="M85.73,63.71c.52,2.2.94,4,1.36,5.8h.94l1.36-5.3h0c-1.36-.2-2.61-.4-3.75-.5h.1Z"/>
        <path class="cls-8" d="M40.15,1.51c-.31,0-.73.1-1.04.2.21,1.5,0,3.2.73,4.5.21.4,2.4,0,3.96-.1-1.46-1.9-2.5-3.2-3.55-4.6h-.1Z"/>
        <path class="cls-8" d="M92.4,103.31c-1.98-.5-2.61-2.3-3.75-3.5-.63-.7-1.98-.9-3.02-1.3,0,.2-.1.4-.21.5,2.09,2,4.07,4,6.67,6.5.21-1.1.42-2.2.31-2.2Z"/>
        <path class="cls-8" d="M52.77,142.31c.31,1,.63,1.9,1.04,3.3,1.25-.2,2.09-.3,2.92-.5-.31-1.1-.52-2.4-1.15-3.3-.21-.3-1.88.3-2.82.5Z"/>
        <path class="cls-8" d="M7.51,64.01v.9c1.36.2,2.71.5,4.17.7.21-.3.31-.5.52-.8-.63-1.2-1.25-2.4-1.98-3.6l-2.82,2.7.1.1Z"/>
        <path class="cls-8" d="M36.29,82.61c-.42-.2-1.36-.5-1.46-.3-.94,1.2-1.98,1.1-3.34.9-.31,0-.94.3-1.15.6-.21.2,0,.7,0,.9,1.25,1.1,5.42.3,6.15-1.1.1-.3,0-1-.1-1.1l-.1.1Z"/>
        <path class="cls-8" d="M316.95,3.31c2.19.3,4.28.6,6.57,1-.31-.8-.52-1.7-1.04-3.2-1.77.4-3.65.9-5.53,1.3v.9Z"/>
        <path class="cls-8" d="M440.3,47.31c0,.2,1.04.1,1.56.2,0-.2.21-.4.31-.6-1.67-2-3.23-3.9-4.9-5.9-.31.1-.63.3-.94.4,0,2.6,3.34,3.5,3.96,5.9h0Z"/>
        <path class="cls-8" d="M178.34,111.11c-.21.2-.42.4-.63.6.42.9.83,1.9,1.36,3.1,2.09-1.6,3.96-2.5,6.36-1-1.67-3.5-5.11-.7-7.09-2.7Z"/>
        <path class="cls-8" d="M25.24,127.81c0,.3,1.67.7,3.13,1.3.1-2.2,1.15-4.1-1.77-4.9-.52,1.2-1.15,2.4-1.25,3.6h-.1Z"/>
        <path class="cls-8" d="M396.21,101.11c-.94,0-2.09.5-2.82.2-1.67-.7-2.29,0-3.13,2.2,3.23-.7,31.26-1.3,34.08-1.8-.94-.6-27.09-.6-28.13-.6Z"/>
        <path class="cls-8" d="M62.26,117.51c.83.4,1.77,1.2,2.61,1.2.94,0,1.88-.6,2.82-.9.83-.3,1.67-.6,2.5-.9-.1-.3-.21-.5-.31-.8-2.5.3-5.01.6-7.61.9v.5Z"/>
        <path class="cls-8" d="M187.83,7.11c.52.1,1.36-1,2.09-1.6-.42-.4-.83-1.2-1.36-1.2-1.36,0-2.61.4-4.9.7,1.67.9,2.92,1.7,4.17,2v.1Z"/>
        <path class="cls-8" d="M33.17,123.01c-1.04,1.2-2.09,2.5-3.13,3.7.21.3.42.5.52.8,1.25-1,2.92,1.8,4.17-.7-.63-.6-1.25-1-1.88-1.6.31-.7.52-1.3.73-1.8-.21-.1-.31-.2-.52-.3l.1-.1Z"/>
        <path class="cls-8" d="M96.37,128.11c.31-.4.52-.7.83-1.1-1.04-.9-2.09-1.9-3.23-2.8-.31-.2-1.04,0-1.56,0,0,.5,0,1.2.21,1.4,1.15.9,2.5,1.6,3.75,2.4v.1Z"/>
        <path class="cls-8" d="M111.91,125.71c-.21-.1-.31-.2-.52-.3-1.25,1.3-2.5,2.5-3.96,4,.73.7,1.36,1.4,2.09,2.1.94-2.2,1.67-4,2.4-5.8Z"/>
        <path class="cls-8" d="M178.65,50.01h3.44c1.25-.1,2.92-.1,1.88-2.2-3.69.33-5.49,1.07-5.42,2.2h.1Z"/>
        <path class="cls-8" d="M358.87,36.61c1.04,2.7,2.19,5.5,3.34,8.2,1.15-2.8-.42-6.6-3.34-8.2Z"/>
        <path class="cls-8" d="M159.78,15.11c2.09,1.1,3.55,1.8,5.11,2.6.21-2.5-1.25-3.4-2.82-4-.42-.2-1.15.7-2.29,1.4Z"/>
        <path class="cls-8" d="M62.05,165.91c.52-1.5-2.19-4.9-3.86-4.7-.31,0-.63.3-.73.5,0,.3,0,.9.21,1,1.36,1,2.82,2,4.38,3.1v.1Z"/>
        <path class="cls-8" d="M212.97,37.91h.94c.42-1.2.83-2.3,1.46-3.7-1.46-.2-2.4-.3-4.28-.5.83,1.8,1.36,3,1.88,4.2h0Z"/>
        <path class="cls-8" d="M179.7,130.51c-.21,0-.42.1-.63.2.94,1.8-1.56,4.1,1.36,5.6,0,0,.31,0,.52-.2-.21-.5-.42-1.1-.63-1.7.73-.2,1.25-.3,1.88-.5-.83-1.2-1.67-2.2-2.5-3.3v-.1Z"/>
        <polygon class="cls-8" points="89.48 64.31 89.59 64.21 89.48 64.31 89.48 64.31"/>
        <path class="cls-8" d="M89.48,64.21c.94-1.6,1.88-3.1,2.82-4.7-3.44.9-4.28,3-2.82,4.7Z"/>
        <path class="cls-8" d="M143.09,49.21c1.98-.7,4.07-1.4,6.36-2.1-3.23-1.7-6.26-1-6.36,2.1Z"/>
        <path class="cls-8" d="M149.56,110.01c-.94-.5-1.98-.8-2.5-1.5-.42-.5,0-1.6,0-2.4-.52.5-.52,1.3-.94,1.6-1.25.9-1.56,1.9-.31,2.7,1.15.8,2.61,1.1,3.65-.4h.1Z"/>
        <path class="cls-8" d="M37.55,15.81c-.21,0-.42.7-.73,1.1,1.77.6,3.55,1.2,5.74,2-.94-3.3-3.23-2.8-5.11-3.1h.1Z"/>
        <path class="cls-8" d="M84.79,130.91c.42-1.2.73-2.3,1.36-4.1-1.98.7-3.34,1.1-5.11,1.7,1.46.9,2.4,1.5,3.75,2.3v.1Z"/>
        <path class="cls-8" d="M131.83,97.31c-.83-1.2-1.15-2.3-1.67-2.3-.83-.1-1.77.4-2.61.6.21.6.21,1.6.52,1.7.94.2,1.98,0,3.75,0Z"/>
        <path class="cls-8" d="M102.31,74.81c1.98-3.1-2.29-3.8-1.67-6-1.67,2.4-.1,3.9,1.67,6Z"/>
        <path class="cls-8" d="M85.52,1.81c.31,1.2.31,2,.73,2.6.21.3.94.5,1.46.4,1.25-.2,2.5-.6,3.96-1-1.98-.6-3.75-1.3-6.15-2.1v.1Z"/>
        <path class="cls-8" d="M66.33,146.71c1.15,2.1,2.19,4.2,3.34,6.4.31-.2.73-.4,1.04-.5-1.15-2.1-2.29-4.2-3.44-6.3-.31.2-.63.3-.94.5v-.1Z"/>
        <path class="cls-8" d="M379.11,53.01c-2.71-.5-5.42-1-8.13-1.5,0,.3-.1.6-.21,1,2.71.5,5.42,1,8.13,1.5,0-.3.1-.6.21-.9v-.1Z"/>
        <path class="cls-8" d="M190.54,48.91c1.46,1.2,2.92,2.5,4.8,4,.1-3.7-2.29-3.9-4.8-4Z"/>
        <path class="cls-8" d="M438.63,86.01c-.21-.1-.42-.2-.73-.3-1.15,2.1-2.4,4.2-3.55,6.2l.83.4c1.15-2.1,2.29-4.2,3.34-6.3h.1Z"/>
        <path class="cls-8" d="M158.32,109.11c-1.15.1-2.19.3-3.96.5,1.98,1.2,3.23,2,4.9,3-.42-1.4-.63-2.4-.94-3.5Z"/>
        <path class="cls-8" d="M276.59,65.61c-.73.4-1.36.7-2.19,1.1v-2.3c-.83,1.3-1.36,2.1-2.19,3.3,1.77-.5,4.07,1.3,4.38-2.1Z"/>
        <path class="cls-8" d="M245.72,97.41c-1.25-2-2.5-4-3.75-6.1-.21.1-.52.3-.73.4,1.25,2,2.4,4.1,3.65,6.1l.83-.5v.1Z"/>
        <path class="cls-8" d="M19.92,11.11c-.83,2.1-1.46,3.7-2.19,5.3,2.29.2,2.71-.7,2.19-5.3Z"/>
        <path class="cls-8" d="M119.83,109.31c.21-.2.42-.3.63-.5-.31-1-.63-2.1-.94-3.1-.42,0-.73,0-1.15.1-.31.8-.94,1.7-.73,2.3.21.6,1.36.8,2.09,1.2h.1Z"/>
        <path class="cls-8" d="M290.98,56.81c-2.09,1.6-2.19,4.4-.94,5.8.31-1.9.63-3.9.94-5.8Z"/>
        <path class="cls-8" d="M84.69,110.01c2.4,1,4.38,1.9,6.36,2.8-1.88-2.5-4.38-3.5-6.36-2.8Z"/>
        <path class="cls-8" d="M213.8,24.91c-.31,1.7-.52,2.6-.63,3.5.21.2.42.3.63.5.73-.6,1.46-1.2,2.19-1.9-.63-.6-1.15-1.2-2.19-2.1Z"/>
        <path class="cls-8" d="M317.26,92.71c-.52.2-1.25.3-1.36.5-.21,1-.21,2-.31,3,.52-.2,1.04-.4,1.98-.7-.1-1.1-.21-2-.31-2.9v.1Z"/>
        <path class="cls-8" d="M62.58,75.11c1.36.8,2.61,1.6,3.96,2.4.1-.2.31-.5.42-.7-1.04-1.2-2.09-2.5-4.38-1.7Z"/>
        <path class="cls-8" d="M12.41,40.11c-.52-1.6-1.04-2.9-1.56-4.5-2.09,2-1.77,2.7,1.56,4.5Z"/>
        <path class="cls-8" d="M4.48,46.31c-1.04,1-1.77,1.8-2.82,2.9,1.67.1,2.82.2,4.38.3-.52-1.2-.94-2.1-1.46-3.2h-.1Z"/>
        <path class="cls-8" d="M292.54,69.91c.42,0,.83.1,1.25.2.21-1.7.42-3.4.63-5.2-.31,0-.63,0-.94-.1-.31,1.7-.63,3.4-.94,5.1h0Z"/>
        <path class="cls-8" d="M112.74,148.31c.31-.4.63-.7.83-1.1l-2.5-2.2c-.21.4-.83,1.1-.73,1.3.73.8,1.56,1.4,2.4,2Z"/>
        <path class="cls-8" d="M187.94,10.81c1.67-.3,3.44-.6,5.11-.9,0-.3-.1-.6-.21-.9-1.77.3-3.44.5-5.21.8,0,.4.21.7.31,1.1v-.1Z"/>
        <path class="cls-8" d="M209.73,13.11c1.67.9,2.82,1.4,4.28,2.2,0-3.2-1.46-3.2-4.28-2.2Z"/>
        <path class="cls-8" d="M118.16,61.51c-3.02-1.5-3.55.5-4.59,1.7.1.2.31.4.42.7,1.25-.7,2.61-1.4,4.17-2.3v-.1Z"/>
        <path class="cls-8" d="M189.08,65.31c1.36-.8,2.4-1.4,3.44-2-.1-.3-.21-.6-.31-.9-.83-.2-1.67-.3-2.82-.5-.1,1.2-.21,2.1-.31,3.4Z"/>
        <path class="cls-8" d="M142.78,22.61c-1.15-1.5-2.29-2.9-3.44-4.4-.31.2-.63.4-.94.7,1.15,1.4,2.4,2.8,3.55,4.2l.73-.5h.1Z"/>
        <path class="cls-8" d="M61.43,19.01c-.42-1.2-.52-2.2-.94-2.3-.63-.2-1.46.2-2.19.3.21.5.31,1.3.73,1.5.42.3,1.25.2,2.4.4v.1Z"/>
        <path class="cls-8" d="M2.19,107.61c.63,1.4,1.15,2.5,1.67,3.7,1.88-2.1,1.46-3.2-1.67-3.7Z"/>
        <path class="cls-8" d="M58.4,88.41c-.63-.4-1.67-1.2-1.98-1-.83.5-1.36,1.4-2.4,2.6,1.77-.5,2.92-.8,3.96-1.1.1-.2.31-.4.42-.6v.1Z"/>
        <path class="cls-8" d="M139.23,72.21c-.83,1.3-1.56,2.3-2.4,3.6,2.92-.6,3.55-1.4,2.4-3.6Z"/>
        <path class="cls-8" d="M170.83,76.91c-.21.2-.42.3-.52.5l2.4,2.3c1.04-2.1.94-2.3-1.77-2.8h-.1Z"/>
        <path class="cls-8" d="M31.08,63.21c1.46,0,2.82.2,4.38.3-1.36-2.1-2.92-2.2-4.38-.3Z"/>
        <path class="cls-8" d="M100.96,15.21c.21.2.52.3.73.5.73-1,1.36-2,2.09-3.1-.21-.2-.52-.3-.73-.5l-2.09,3.1Z"/>
        <path class="cls-8" d="M238.94,102.41c-.42-.1,13.25-.2,12.83-.4l-1.15,4.1,1.04.3c.52-1.3-13.25-2.7-12.72-4h0Z"/>
        <path class="cls-8" d="M210.88,123.61c.31-2,.42-3.3.63-4.7h-.83c0,.6,0,1.2-.21,1.8-.21.5-.94.9-1.04,1.5,0,.3.73.7,1.56,1.5l-.1-.1Z"/>
        <path class="cls-8" d="M326.44,39.51c-.83-1.4-1.36-2.3-1.77-3.1-.31,0-.63.2-.83.2.1.9.21,1.8.52,2.6,0,.2,1.04.1,2.19.3h-.1Z"/>
        <path class="cls-8" d="M121.71,67.11c0-1.8,0-2.8-.21-4.5-1.04,1.1-1.77,1.8-2.5,2.5.83.6,1.46,1.1,2.71,1.9v.1Z"/>
        <path class="cls-8" d="M92.4,42.51c-1.46-1.2-2.61-2.1-4.28-3.3.73,2.3,1.04,4.1,4.28,3.3Z"/>
        <path class="cls-8" d="M85.52,96.61c-1.36-.9-2.19-1.4-3.02-1.9-.21.2-.42.3-.63.5.42.6.73,1.5,1.36,1.8.42.2,1.25-.2,2.29-.4Z"/>
        <path class="cls-8" d="M320.29,14.41c-.52-1.3-.94-2.3-1.46-3.6-1.56,3.2-1.36,3.7,1.46,3.6Z"/>
        <path class="cls-8" d="M79.58,92.81c-.83-.6-1.56-1.3-2.4-1.9l-.73.7c.52.7,1.04,1.5,1.67,2.1,0,0,.94-.6,1.46-.9Z"/>
        <path class="cls-8" d="M253.54,29.01c-.63-.3-1.04-.6-1.46-.8-.42,1-.94,1.9-1.36,2.9.21.1.42.2.73.4.63-.8,1.36-1.5,2.19-2.4l-.1-.1Z"/>
        <path class="cls-8" d="M31.08,166.01c.83-1.5,1.36-2.5,1.98-3.6-2.29.2-2.82,1.1-1.98,3.6Z"/>
        <path class="cls-8" d="M360.75,68.51c1.98-.3,3.96-.6,5.94-.9v-.7c-1.98.2-3.86.4-5.84.7v.9h-.1Z"/>
        <path class="cls-8" d="M249.47,39.61c-2.19.9-4.17,1.7-6.15,2.5,2.09,1,5.74-.8,6.15-2.5Z"/>
      </g>
      <g>
        <path d="M153.73,157.61H22.94c-2.71,0-5.21-1-7.09-2.8s-2.92-4.2-2.82-6.8l1.77-123.9c0-5.2,4.48-9.4,9.91-9.4h398.48c2.71,0,5.21,1,7.09,2.8s2.92,4.2,2.82,6.8l-.73,60.7c0,5.2-4.48,9.4-9.91,9.4h-168.41c-.94,0-1.77.3-2.61.7l-92.3,60.8c-1.67,1-3.55,1.6-5.42,1.6v.1ZM24.82,19.71c-2.5,0-4.69,2-4.69,4.4l-1.77,123.9c0,1.2.42,2.4,1.36,3.2.94.9,2.09,1.3,3.34,1.3h130.78c.94,0,1.77-.3,2.61-.7l92.3-60.8c1.56-1,3.44-1.6,5.42-1.6h168.41c2.5,0,4.69-2,4.69-4.4l.73-60.7c0-1.2-.42-2.4-1.36-3.2-.94-.9-2.09-1.3-3.34-1.3H24.82v-.1Z"/>
        <path d="M150.5,172.11H9.91c-2.61,0-5.11-1-6.99-2.8C1.04,167.51,0,165.11,0,162.51L.94,9.51C1.04,4.31,5.42.01,10.85.01h425.49c2.71,0,5.21,1,7.09,2.8,1.88,1.8,2.92,4.2,2.82,6.8l-.94,86.3c0,5.2-4.48,9.4-9.91,9.4h-178c-.94,0-1.77.3-2.61.7l-98.97,64.4c-1.67,1-3.55,1.6-5.42,1.6l.1.1ZM10.85,5.01c-2.61,0-4.69,2-4.69,4.5l-.94,153c0,1.2.52,2.3,1.36,3.2.94.9,2.09,1.3,3.34,1.3h140.59c.94,0,1.77-.3,2.61-.7l98.87-64.4c.83-.5,1.77-1,2.82-1.2v-.3h180.61c2.5,0,4.69-2,4.69-4.5l.94-86.3c0-1.2-.42-2.4-1.36-3.2-.94-.9-2.09-1.3-3.34-1.3H10.85v-.1Z"/>
        <g>
          <ellipse class="cls-5" cx="92.72" cy="87.11" rx="51.63" ry="49.5"/>
          <ellipse class="cls-4" cx="93.24" cy="86.61" rx="38.59" ry="37"/>
        </g>
        <g>
          <ellipse class="cls-3" cx="244.67" cy="45.91" rx="6.47" ry="6.2"/>
          <ellipse class="cls-7" cx="277.32" cy="45.91" rx="6.47" ry="6.2"/>
          <ellipse class="cls-4" cx="309.86" cy="45.91" rx="6.47" ry="6.2"/>
          <ellipse class="cls-2" cx="342.4" cy="45.91" rx="6.47" ry="6.2"/>
          <ellipse class="cls-6" cx="374.93" cy="45.91" rx="6.47" ry="6.2"/>
        </g>
      </g>
    </g>
  </g>
</svg>