<?xml version="1.0" encoding="UTF-8"?>
<svg preserveAspectRatio="none" xmlns="http://www.w3.org/2000/svg" version="1.1" viewBox="0 0 403.7 171.9">
  <defs>
    <style>
      .cls-1 {
        fill: none;
      }

      .cls-2 {
        fill: #5196b7;
      }

      .cls-2, .cls-3, .cls-4, .cls-5, .cls-6, .cls-7 {
        stroke: #000;
        stroke-miterlimit: 10;
        stroke-width: 5px;
        filter: brightness(1.5);
      }

      .cls-3 {
        fill: #60c044;
      }

      .cls-4 {
        fill: #fbe470;
      }

      .cls-5 {
        fill: #5c70ff;
      }

      .cls-6 {
        fill: #50c89c;
      }

      .cls-8 {
        fill: #9e1b38;
      }

      .cls-9 {
        fill: #f62c50;
      }

      .cls-7 {
        fill: #db6cff;
      }

      .cls-10 {
        opacity: .5;
      }
    </style>
  </defs>
  <!-- Generator: Adobe Illustrator 28.7.2, SVG Export Plug-In . SVG Version: 1.2.0 Build 154)  -->
  <g>
    <g id="Layer_2">
      <path d="M13.4-.2h12.4v172H0V13.3C0,5.9,6-.2,13.4-.2Z"/>
      <rect x="388.7" y="-.2" width="15" height="98.7"/>
      <path class="cls-9" d="M259.3,95.7h132.9c3.8,0,7-3.1,7-6.9l.9-79.6c0-3.9-3.1-7.1-7-7.1H9.4c-3.8,0-7,3.1-7,6.9l-.9,152.9c0,3.9,3.1,7,7,7h134.8c1.4,0,2.7-.4,3.8-1.1l108.4-71c1.1-.8,2.5-1.1,3.8-1.1h0Z"/>
      <g class="cls-10">
        <path class="cls-1" d="M48.6,60c.2,0,.5.2.7.2,1-.9,1.9-1.8,3-2.8-1.3-.3-2.2-.6-3.5-.9,0,1.1-.2,2.3-.3,3.5Z"/>
        <path class="cls-1" d="M43.9,61.2c.2.5.9,1,1.4,1,.5,0,1.5-.3,1.6-.7.4-1.8.6-3.7.9-5.6-3.3.8-4.9,3.2-3.9,5.3Z"/>
        <path class="cls-1" d="M52.8,57.7c1.5,1.6,2.5,1.8,3.5.6.2-.3,0-1-.1-1.5-1,.3-2,.5-3.4.9Z"/>
        <path class="cls-1" d="M43.7,51.3c.3.8.5,1.7,1.1,2.3.3.3,1.2,0,2.6,0-.8-1.2-1.2-2.1-1.9-2.6-.3-.3-1.2.1-1.8.2Z"/>
        <path class="cls-1" d="M45.7,48.9c2.5-1.2,2.9-3.6,1.1-5.5-.3-.3-.5-.6-.7-1-1.8-3.9-5.7-3.9-8.8-5.5-.1.2-.3.3-.4.5.2.6.5,1.3.6,1.7-.6.4-1.1.8-1.6,1.2.6.2,1.1.3,1.7.5.6.2,1.2.2,1.6.5,1.1.6,2.1,1.3,3.5,2.3.4.8,1.1,2.1,1.6,3.1-.3.8-.5,1.4-.7,2,.7,0,1.5.4,2.1.1Z"/>
        <path class="cls-1" d="M49.4,62.9c-.9.3-1.5,1.1-2.3,1.7.1.2.3.5.4.7,1.2-.3,2.3-.6,4.1-1-1.1-.7-1.8-1.5-2.3-1.4Z"/>
        <path class="cls-1" d="M101.4,166.8c-.1.4-.3.7-.2.7,3.1,2.5,6.2,4.9,9.3,7.3.2.1.8-.3,1.2-.4-.2-.4-.3-.9-.6-1.1-1.8-1.1-3.6-2.1-5.3-3.2-1.5-1-2.8-2.1-4.3-3.3Z"/>
        <path class="cls-1" d="M24.1,101.9c.2-.9.7-2.4.5-2.5-1.1-.5-2.3-.7-3.5-1-.1.2-.2.5-.3.7.8.9,1.6,1.9,2.4,2.8.3,0,.6,0,.9,0Z"/>
        <path class="cls-1" d="M7,155.8c0,.3.8.6,1.1.5.3,0,.8-.6.8-1,0-1.6-.2-3.1-.3-4.7-3.8.4-5.9,1.8-5.7,4,2-1.4,3.6-1.7,4.2,1.1Z"/>
        <path class="cls-8" d="M108.9,51.1c1.8-.8,3.1-1.8,4.5-1.9,4-.4,8.1-.5,12.2-.7,2.4-.1,4.8-.3,7.2-.4,0-.4,0-.9,0-1.3-2.3,0-4.7,0-6.9.3-3.9.6-7.6,1-11.5,0-.8-.2-1.8.2-2.7.3-.9.2-1.9.5-2.8.6-.6,0-1.3-.2-1.9,0-3.2,1-6.3,1.9-9.7,1.3-.9-.2-1.9,0-2.9.2-3.5.5-7.1,1.2-10.6,1.6-3.3.4-6.7.3-10.1.6-4,.4-4.5,0-4.6-3.9,1.2-.3,2.4-.5,4-.9-2.7-2.6-4.8-4.6-7-6.7-3.5,1-3.5,1-5.2-2.5-.3-.6-.9-1-1.3-1.4l-.6.4c.5,1.7.9,3.4,1.3,5.1-3.4,1.2-4.2.7-4.1-2.6,0-.9-.1-1.8-.2-3.1-1.5,1.4-2.4,2.3-3.3,3.1-1.6-2-1.6-2.1,1.2-4.7-.7,0-1.3,0-2,0,.4-1,.8-1.8,1-2.3-1.6.6-3.2.9-4.5,1.8-2.7,1.8-4.6.4-6.3-1.3-1-1-1.8-.9-2.6,0-.4.4-.8.9-1.2,1.3-2.6-1.4-5-2.8-7.5-4-2.3-1.1-4.7-2.1-7-3.1-1.5-.7-3.1-1.1-4.5-2-1.6-1-3-2.3-4.5-3.4-1.8,1.4-3.5,2.7-4.7,3.6,3.5,1.9,7,3.8,11,6-1-.9-1.5-1.4-2.4-2.2,1.7,1,3,1.6,4.1,2.4.6.4.8,1.2,1.2,1.8.7.9,1.4,1.9,2.2,2.7.8.8,1.7,1.4,2.6,2.1.6.5,1.2,1,1.9,1.5.8.5,1.6,1,2.4,1.6,1.4,1,2.7,2.3,4.2,2.8,4.2,1.6,5,2.4,4.8,6.8,0,.7-.8,1.5-1.4,2-.3.2-1.5,0-1.5-.1,0-2.2-2.2-1.9-3.5-2.8.7-.5,1.2-.8,2-1.3-4.8-1.7-9.2-3.3-13.7-4.9,1.4,1.7,2.8,3.3,4.6,5.4-1.7.2-2.8.4-3.9.5.9,1.7.9,4.2,3.9,3.1.3,0,.9.7,1.3,1.1,1.9,2.2,3.5,4.8,6.3,6.3,2,1.1,3.7,1.4,5.8.3-.4.9-.9,1.8-1.6,2.4-1.2,1.1-1.3,2.1-.2,3.3,1.7,1.9,1.6,3-.3,4.8-.6.5-1.2,1-1.8,1.6q11-3.5,13.3-1.4c-5.1,3.5-11.5,2.6-15.9,5.7-1.2-.9-1.8-1.5-2.5-2-.3.7-.5,1.3-.9,2.1-.5-.3-.9-.7-1.5-.9-.7-.3-1.5-.6-2.3-.9-.1.9-.2,1.8-.4,2.7-.2.9-.2,1.9-.6,2.6-.3.7-1.1,1.2-1.7,1.9.1.2.2.5.3.7,3-.6,6.1-1.2,9.1-1.8.4,0,.7-.6,1.1-.8,1.7-.9,3.5-1.9,5.3-2.7.2,0,1.1.6,1.1.9-.3,1.8-.6,3.7-1.2,5.4-.5,1.6-1.6,2.1-3.4,2.3-1.9.2-3.6,1.3-5.5,2.1.1.3.2.6.3.8,2.7-.9,5.4-1.8,8.1-2.6,2.2-.7,4.4-1.3,6.7-2,.1.2.3.4.4.6.5-1.2,1-2.4,1.7-3.8-.9.4-1.4.6-1.8.8,0-1.2,0-2.1,0-3.2-.5,0-.6.1-.8.1-.8.3-1.7.5-2.5.8-.3-.8-1-2-.7-2.3.5-.7,1.7-.9,2.6-1.2.7-.3,1.5-.3,2.2-.6,1.7-.7,3.4-1.6,5-2.4.2-1,.5-2.1.6-3-1.2-1-2.4-1.9-3.7-3,3.6-2.3,6.8-4.3,10-6.2,0,.2,0,.5.1.7,1,0,2.7.1,2.9-.3.9-2.3,2.5-2.1,4.1-1.4,1.6.7,3.1,1.8,4.6,2.8,1.9,1.3,3.7,2.6,5.4,4,1.6,1.3,3,2.7,4.5,4.1.1-.2.3-.3.4-.5-.6-.6-1.3-1.1-2-1.7.4-.6.7-1.1,1.2-1.8-1.1-.5-2.1-1.4-2.9-1.2-3.2.6-4.3-1.9-6-3.6-.4-.5-.1-1.7,0-2.6,0-1.2,1-2.5-.9-3.2-.4-.1-.9-1-.8-1.5,0-.4.8-1,1.3-1.1,4.4-.7,8.9-1.4,13.3-1.9,4.3-.4,8.7-.3,13-1,3.6-.5,7-1.3,9.6.7ZM42.7,43.7c-1.4-.9-2.4-1.6-3.5-2.3-.5-.3-1.1-.4-1.6-.5-.6-.2-1.1-.3-1.7-.5.5-.4,1-.8,1.6-1.2-.1-.4-.4-1-.6-1.7.1-.2.3-.3.4-.5,3.1,1.5,7,1.6,8.8,5.5.2.4.4.7.7,1,1.8,1.9,1.4,4.3-1.1,5.5-.5.3-1.4,0-2.1-.1.2-.6.5-1.3.7-2-.5-.9-1.2-2.2-1.6-3.1ZM47.4,53.7c-1.3,0-2.3.3-2.6,0-.6-.6-.7-1.5-1.1-2.3.6,0,1.5-.5,1.8-.2.7.5,1,1.4,1.9,2.6ZM45.3,62.2c-.5,0-1.1-.5-1.4-1-1.1-2.1.6-4.6,3.9-5.3-.3,2-.5,3.8-.9,5.6,0,.4-1,.8-1.6.7ZM47.6,65.3c-.1-.2-.3-.5-.4-.7.7-.6,1.4-1.4,2.3-1.7.4-.1,1.2.7,2.3,1.4-1.8.4-2.9.7-4.1,1ZM49.3,60.3c-.2,0-.5-.2-.7-.2,0-1.2.2-2.4.3-3.5,1.2.3,2.2.6,3.5.9-1.1,1-2,1.9-3,2.8ZM56.3,58.3c-1,1.2-2,1-3.5-.6,1.4-.4,2.4-.6,3.4-.9,0,.5.3,1.2.1,1.5Z"/>
        <path class="cls-8" d="M190.7,96.7c-2.6.7-5.1,1.4-7.5,2-.8.6-1.4,1.2-2,1.5-1.6.8-3.2,1.5-4.8,2.3-.6.3-1.3.7-1.7.6-2.5-.9-4.3,0-6.1,1.7-1.3,1.3-2.5,1.2-3.9-.2-.8-.8-3-1.4-3.5-.9-2.7,2.3-5,.8-7.3-.3-1.4-.7-2.7-1.4-4.1-2.1-.3-.2-.6-.5-.9-.8-.9-.8-1.8-1.8-2.8-2.5-4.5-2.7-9.1-5.3-13.7-7.7-2-1.1-4.2-1.7-6.3-2.6-.4-.2-.9-.4-1.3-.6-1.2-.6-2.4-1.2-3.6-1.9,2.1,2.2,4,5.2,6.4,5.7,3.9.8,5.8,4,9,5.4,1.4.6,2.9,1,4.3,1.8,1.7,1,3.2,2.2,4.7,3.3,1.9,1.3,3.9,2.5,5.8,3.8,2.2,1.6,4.2,4,6.6,4.6,3.1.8,4.6,3.2,6.9,4.8.2.1.2.4.6,1.3-.9-.3-1.5-.4-2.2-.6,3.3,3.2,6,3.9,7.9,2.4.2,1.6.4,3.2.6,4.7.2,0,.4,0,.6,0,0-2.2.1-4.4.2-6.7-2.1.3-4.2.8-2.5-2.4-.8,0-1.5.1-2.3.2,0-4.5.6-5.5,3.6-5.7,0,.7,0,1.4.1,2.5.5-.6.8-.9.9-1.3,1.1-2.8,2.9-4.8,6-5.6,1.4-.4,2.6-1.4,3.9-2.2.6-.4,1.1-.8,1.8-1.1,2.3-.9,4.6-1.7,6.9-2.6,0-.3-.1-.6-.2-.8Z"/>
        <path class="cls-8" d="M25.1,108.5c-.4-.9-.7-2-1.4-2.8-.9-1.2-2.1-2.1-3.2-3.2.2-.2.4-.4.6-.6,4.9,1.4,6.4,7.4,11.4,8.6-1.2-1.4-2.7-2.6-3.9-3.9-1.2-1.4-2.4-3-3.1-4.7-.3-.8.2-2.5.9-2.9.8-.5,2.2-.2,3.3.2,1.2.5,2.2,1.4,3.4,2.1-1-1.6-1.9-3.1-3-4.8-.8-.3-2.1-.7-3.3-1.2.1.8.2,1.6.4,2.6-1.9-.2-3.5-.4-5.6-.6,1-1.3,1.6-2,2.1-2.7-.2-.2-.4-.4-.6-.6-.9.9-1.8,1.7-2.7,2.6-.8.9-1.8,1.6-2.5.3-.8-1.5-1-3.2-1.6-5.2-1.1-1.4-3.2,2.4-4.5-.2,1.1-1.1,2.1-2.1,3.6-3.5-4.2,1.3-7.6,2.3-9.2,6.3.3.2,1.1.9,1.4.7,2.6-1.7,3.9.6,5.8,1.5,1.9.9,2.2,2.1,1.6,4.1-1.4,4.2,1.1,7.2,5.5,7.1.6,0,1.2.4,1.8.5.9.1,1.9.2,2.8.3ZM21.1,98.4c1.2.3,2.4.5,3.5,1,.2.1-.3,1.6-.5,2.5-.3,0-.6,0-.9,0-.8-.9-1.6-1.9-2.4-2.8.1-.2.2-.5.3-.7Z"/>
        <polygon class="cls-8" points="26.8 95.3 26.9 95.3 26.9 95.3 26.8 95.3"/>
        <path class="cls-8" d="M48.7,149.5c.3.3.8.9,1.1.8,2.4-.8,3.7.5,5,2.2.3.4,1.1.6,1.6.9,1.1.4,2.1.8,3.7,1.4-.3-1.4-.5-2.8-.8-4.2.3,0,.5-.1.8-.2.6,1.3,1.1,2.6,1.7,3.9.3,0,.6-.2.8-.3-.2-1.3-.3-2.6-.8-3.8-.8-2.2-2.1-4.2-2.7-6.5-.6-2-1.4-3-3.7-2.4.7,1.9,1.5,3.7,2,5.6.2.8-.1,1.8-.3,2.6,0,0-1.2,0-1.2,0,0-.9,0-1.8.1-2.7,0-.1,0-.3-.1-.6-1.6.4-3.1.8-4.8-.6-1.3-1.1-3.8-1.2-5.1.4-.7.9-.3,2.6-.2,3.9,0,.4.4.7.4,1.1,0,.5,0,1.2-.3,1.5-.2.2-1,.2-1.4,0-1.3-.4-2.5-.9-4.2-1.6.4,1.2.4,2.4,1,2.9,1.9,1.6,2.6,3.6,3,6,.2,1,1.8,2.5,2.9,2.6,1.3.2,1.5-1.4,1.4-2.7,0-1.9.2-3.9.3-5.9.4,0,1.2,0,1.9,0l.3-.9c-1.2-.7-2.5-1.4-4-2.3-.1-.6-.4-1.7-.7-2.8.2-.1.4-.2.6-.3.5.6,1,1.3,1.5,1.8Z"/>
        <path class="cls-8" d="M196.3,7.2c3,1.3,6.1,2.6,9.1,3.9.6.2,1.3.6,1.5,1.1,1.6,3.9,5.7,4.3,8.4,6.7.3-.3.6-.5.8-.8-1.2-1.7-2.5-3.4-3.5-4.8.4-.9,1.1-1.8.9-2.5-.2-.6-1.4-.8-2.3-1.3-.3-.5-.7-1.9-1.2-1.9-2.6-.2-2.7-2.1-3.2-3.7.9-.7,1.8-1.3,3.1-2.2-3.5-1-6.5,2.4-9.3-1.2-2.1,1.9-4,3.6-6.1,5.5.9.7,1.3,1.1,1.8,1.3Z"/>
        <path class="cls-8" d="M69.7,25.6c0-1,0-1.8-.1-2.6-1.5-.9-4.1,1.3-4.2-2.2-1.3,1.5-2.4,2.7-3.5,4,1.6.7,2.9,1.8,4.4,1.9,3,.2,5.6,1.6,8.3,2.5,1.8.6,3,3.1,4.6,4.9-.4.2-.8.8-1.2.8-2.5,0-4.9.3-7,1.6-.4.2-1,.5-1,.8,0,.4.3,1.2.7,1.3.9.3,2.1.7,2.8.4,2.4-1.4,3.9,0,5.8,1,1,.5,2.3.6,3.4.9-.9-1.6-3-2.3-1.4-4.1,1.4-1.6,1.6-3.1.7-4.8.5-.4,1-.7,1.2-.8-3.1-5.3-7.8-6.3-13.4-5.4Z"/>
        <polygon class="cls-8" points="329.1 61.2 329.1 61.2 329.1 61.2 329.1 61.2"/>
        <polygon class="cls-8" points="329.1 61.2 329.1 61.2 329.1 61.2 329.1 61.2"/>
        <path class="cls-8" d="M49,1.7c-1.4-2.3-2.9-1.8-4.9-.5,2.2,2.6-1.4,5.9,1.2,8.5,0,0,0,.4,0,.4-1.7.8-1.1,2.2-.3,2.9.7.7,2,.7,3.6,1.2-.7-1.6-1.1-2.4-1.7-3.8,1.5-.2,3.6-.7,3.7-.4.7,2,1,4.2,1.4,6.3,2.1-.6,2.3-5.1.2-7.3,1-1,2-2,2.9-2.9-1.5-2.4-4.8,1.9-5.4-2.1.4-.3.8-.7,1.3-1.1-.8-.5-1.7-.7-2.1-1.3Z"/>
        <path class="cls-8" d="M17,108.6c-1.6-.5-3.3-.6-5-.9-.4.4-1.1,1.1-1.7,1.7-.6.5-1.2,1-1.8,1.5.6.6,1,1.4,1.8,1.8,1.9.9,3.3,2.1,3.4,4.5,3.7.9,5.2-2,7-3.7-.7-1.3-1.2-2.4-1.9-3.3-.4-.6-1.1-1.3-1.8-1.5Z"/>
        <path class="cls-8" d="M345.6,24.3c2.2,1.3,3.8,3,5.5,4.9,2.7,3,6.7,4.8,10.1,7.2.5.3.8.8,1.3,1.2.7.6,1.4,1.1,2,1.7l1-.8c-.5-.7-.9-1.5-1.4-2.1-1.3-1.7-3-3.1-4-4.9-1.2-2.2-2.2-4.2-5.2-3.3-.4.1-1-.2-1.4-.4-2.6-1.7-5.2-3.5-7.8-5.2-1-.7-2.2-1.1-3.3-1.6,1,1.4,1.9,2.8,3.1,3.5Z"/>
        <path class="cls-8" d="M20.5,60.1c1.4-3.4,1.4-3.4-1.5-3.6-.7-1.1-1.3-1.9-1.9-2.8h-.7c0,3.4-1.8,2-2.9,1.7-1.4.7-2.4,1.3-3.6,2,4,2.1,4.4,2.8,2.3,4.8.7.2,1.4.2,2,0,1.5-.5,3-1.1,4.8-1.7-.4,1.5-.7,2.3-1,3.2.8.2,1.6.3,2.4.5,0-1.6-.4-3,0-4Z"/>
        <path class="cls-8" d="M35.1,140.7c1.7,2.1,3.1,1.9,4.3-1.2.9,1.9,1.6,3.3,2.3,4.6.3.5.6,1.2,1.1,1.3.5,0,1.4-.3,1.6-.7,1.5-3.2,4.7-4.2,7.7-6.3-.9-.2-1.7-.7-2.1-.5-.8.4-1.4,1.2-2,1.9-1.2-.6-2.4-1.1-4.4-2.1.4,1.5.6,2.4,1,3.8-1-.5-2-.8-2.8-1.3-.8-.5-1.8-1.7-2.3-1.6-2.6.9-3.5-1-4.9-2.3-.5-.5-1.2-.7-1.8-1.1-.2.1-.5.2-.7.3.2.8.3,1.7.8,2.3.7,1,1.6,1.8,2.4,2.7Z"/>
        <path class="cls-8" d="M36,148.1c0,1.1,0,1.7,0,2.8,2.2-2.1,4.2-2.3,6.5-.5-.2-.8-.5-1.3-.7-1.7-.2-.5-.4-1.1-.6-1.7-3.8.8-3.8.8-5.6-2.6-.3-.5-1-.7-1.4-1.2-.8-.8-1.6-1.7-2.3-2.6-2.9-1.5-3.3-1.4-4.4,1.3,1.1.7,2.2,1.4,3.4,2.2-.8.6-1.5,1.2-2.6,2,2.7.7,5.3,1.3,7.8,2Z"/>
        <path class="cls-8" d="M45.4,97.8c1.7,1.4,3.8,2.5,4.9,4.1,1.1,1.7,1.9,4,1,6.7-1.8-1.1-3.3-1.9-5-2.9.8,2.2,1.5,4.2,2.2,6.1.2,0,.4-.1.6-.2-.2-.8-.4-1.7-.7-2.8,1,.2,1.8.4,2.7.5,1.9.2,3.2-1.4,2.6-3.2-.6-1.7-1.3-3.3-1.8-5.1-.4-1.6-.6-3.3-.8-5,0-.2,0-.5,0-.6-.9-1.4-1.8-2.8-3-4.7,0,1.4,0,2.5.2,3.6.4,3.1.3,3.2-2.8,3.5Z"/>
        <path class="cls-8" d="M26.8,95.3s0,0,0,0c0,0,0,0,0,0,0,0,0,0,0,0Z"/>
        <path class="cls-8" d="M24,90.6c1.9-1,3.8-2.1,5.6-3.1,0-.2,0-.5,0-.7-.6,0-1.3-.2-1.9,0-1.5.7-2.2.8-2-1.3,0-.8-1.1-2-1.9-2.5-.7-.4-2.2-.6-2.8-.2-1.5,1.1-2.8,2.7-4.1,4.1,1.1.3,2.5.5,3.1-.1,1.8-1.8,2.7-.4,4.5.8-1.8.8-3.2,1.5-4.6,2.1,1.3,1.1,2.3,1.9,3.2,2.6,1.2,1,2.5,1.9,3.7,2.9-1.2-1.3-2.4-2.5-3.6-3.8.4-.4.6-.8.8-.9Z"/>
        <path class="cls-8" d="M71.9,168.9c-3-2.9-5.9-5.8-8.9-8.6-2.7.9.8,5.2-3.8,5.7,1.7,1.6,2.8,2.7,4.1,4,1-.9,2.2-1.9,3.6-3.2,1.4.4,2.4,3.3,4.9,2.1Z"/>
        <path class="cls-8" d="M156.2,53.5c.4.8,1.1,1.4,1.7,2.1.2-.1.4-.2.6-.4,0-.4,0-.8,0-1.1.1-2.7,1.3-3.2,3.9-3,2.3.2,4.6-.5,6.9-1,.3,0,.5-.9.6-1.2-2.5-2.8-4.8,1.5-7.8-.1-1.9-1-5.2.6-7.4.9.5,1.3.8,2.6,1.5,3.9Z"/>
        <path class="cls-8" d="M281.3,50.8c-1.9,0-4.4-2-4.6,1.7,2.6,1.1,5.2,2.3,7.9,3.5.1-.3.3-.6.4-1-.6-.3-1.3-.5-1.7-.9-.7-.7-1.4-1.5-2-2.2.7-.6,1.4-1.1,1.9-1.8.4-.6.9-1.3.8-2,0-.3-1.1-.6-1.7-.9-1.5-.5-3.1-1-4.6-1.5-.6-.2-1.1-.7-2.1-1.3.2,4,3.9,3.9,5.6,6.4Z"/>
        <path class="cls-8" d="M345.7,52.4c2-2.5,2.9-2.8,5.9-1.7.8.3,1.6.2,2.5.2,0-.2,0-.4,0-.6-1.4-.6-2.9-1.3-4.4-2,1.8-1.5,3.3-2.5,4.6-3.8.3-.3,0-1.2,0-1.9-.6.3-1.2.4-1.7.8-1.3,1.2-2.5,2.5-3.7,3.6-.5.5-1.5.6-1.8,1.1-1,2.2-2.1,1.3-2.9.5-.5,1.9-1.1,3.9-1.6,6,1.5.3,2.3-1.2,3.2-2.3Z"/>
        <path class="cls-8" d="M215.9,66.1c4.9,8.1,9.7,15.9,14.5,23.7.3-.2.7-.3,1-.5-2.5-4.1-5.1-8.1-7.3-12.3-2-3.8-6.6-10.8-8.1-10.9Z"/>
        <path class="cls-8" d="M125.2,131.7c2-1.7,4-3.3,6.4-5.3-.5-.4-1-1.1-1.7-1.4-1.5-.5-3-1-4.6-1.2-.7,0-1.6.3-2.1.8-.3.3-.4,1.6-.2,1.7,2.4.9,1.6,2.9,1.5,4.7.2.2.4.4.7.6Z"/>
        <path class="cls-8" d="M34.8,27.7c-.6-.4-1.3-.7-1.9-1.1-.8-.6-1.3-1.5-2.1-2-2.4-1.5-4.9-3-7.4-4.4-.7-.4-1.6-.6-2.4-.8,0,.2-.1.3-.2.5,1.4.9,3.1,1.5,4.1,2.7,2.5,3.2,5.7,5.3,9.1,7.1.6.3,1.3.4,1.9.6,0,0,.5-.8.3-1-.4-.6-.9-1.1-1.4-1.5Z"/>
        <path class="cls-8" d="M100.2,101.6c.1-.7,0-2-.1-2.1-2.1-.5-2.6-2.7-4.2-3.8-.7-.5-1.1-1.5-1.4-2.4-.3-.9-.5-1.8-1.6-.7-.2.2-.6.2-.9.2-.6,0-1.3.1-1.9.1.3.7.5,1.5,1,2,2.5,2.3,5,4.4,7.8,6.8.4,0,1.4,0,1.4-.2Z"/>
        <path class="cls-8" d="M364.8,57.8c.9,2.6-.6,3.5-2.8,3.9-2.4.5-4.7.9-7.1,1.3-.4,0-.8.4-1,.5,5.3-.3,10.7-.6,16.5-.9-.3-.7-.5-2.1-1-2.2-2.2-.5-3.6-1.4-3.9-3.9-.2,0-.4.2-.6.3,0,.4-.2.8-.1,1.1Z"/>
        <path class="cls-8" d="M168.8,123.2c-.3-.6-.5-1.4-1-1.6-2.2-1-4.4-1.8-6.6-2.6-1.1,3.8-.9,4.5,3.2,6.5,0-.8-.2-1.6-.3-2.6,1.1.3,2,.7,2.9.8.6,0,1.2-.3,1.8-.4Z"/>
        <path class="cls-8" d="M39.2,26.5c-3.5-2.7-7.1-5.2-10.6-7.8.3,3.4,6.9,8.6,10.8,9.2,0-.5,0-1.1-.2-1.3Z"/>
        <path class="cls-8" d="M122.7,56.6c2.7-1.2,2.7-3.3,3.1-6.2-2.4,2-4.4,3.8-6.5,5.6.2.5.5,1.2.7,1.7-.6.7-1,1.2-1.5,1.6,1.8.4,3.5.8,5.1,1.2-2.3-2.1-2.6-3.3-.9-4Z"/>
        <path class="cls-8" d="M26.9,63.6c-.1-.2-.3-.4-.4-.6-1.7.2-3.3.4-5.1.6.3.9.4,1.4.7,2.2-3.9,1.1-1.1,3-.5,5,1.8-2.4,3.6-4.8,5.4-7.2Z"/>
        <path class="cls-8" d="M329.1,61.2c-.7-3-1.5-5.9-2.1-8.9-.8-3.6-1.4-7.2-2.1-10.8-.3-1.6-.8-3.1-1.1-4.6-.2,0-.4,0-.6,0,.6,4.1,1.1,8.2,1.9,12.3.7,3.3,1.7,6.6,2.7,9.9.2.7.9,1.4,1.3,2.1,0,0,0,0,0,0,0,0,0,0,0,0Z"/>
        <polygon class="cls-8" points="329.1 61.2 329.1 61.2 329.1 61.2 329.1 61.2"/>
        <path class="cls-8" d="M133.5,135.3c.3,0,.6-1.2.4-1.7-.1-.4-.8-.7-1.4-.9-3.3-.9-5,1.8-7.7,3.5,3.4,1.3,6-.3,8.6-1Z"/>
        <path class="cls-8" d="M164.5,46.9c1.9.2,4.6-1.8,5.3-4.3-1.4.6-2.4,1.1-3.4,1.5-.5.2-1,.3-1.4.4-.1-.5-.3-1.1-.4-1.6,0-.3.1-.5.2-.6-1.3.7-2.6,1.3-4.2,2.1,0,2.6,2.1,2.4,3.9,2.5Z"/>
        <path class="cls-8" d="M89.7,22.9c-1.3-.3-2.9-1.2-3.7-.7-2.3,1.5-4.4.6-6.5-.3-.2.3-.3.5-.5.8,1.6,1.3,3.3,2.5,5.1,3.9.4-2.1,1.4-3.1,3.1-2,2.3,1.6,2.3,0,2.5-1.7Z"/>
        <path class="cls-8" d="M154.6.3c-.6-.5-2.3-.7-2.7-.3-1,1-2.3,2.2-1.3,4.2.8-.5,1.4-.9,1.9-1.1,1.4,1.2,2.6,2.3,3.8,3.3.1-1.4-.2-2.5-.5-3.5-.3-.9-.5-2.2-1.2-2.7Z"/>
        <path class="cls-8" d="M76.9,2.7c.3,2.7.5,4.8.7,7.6,1.8-1.2,3.3-2.2,4.8-3.2-.1-.3-.2-.6-.3-.9-2.5.1-2.5-4.1-5.2-3.4Z"/>
        <path class="cls-8" d="M30.9,134.8c-.6-2.1-7.2-6.2-8.6-5.3,1.9,3.3,4.2,6.1,8.6,5.3Z"/>
        <path class="cls-8" d="M121,127.6c.5-.6.7-2.1.3-2.8-.3-.6-1.7-.6-3.1-1.1.6,1.8.9,3,1.1,3.7-1.7,1.8-3.1,3.4-4.5,4.9.3.3.6.5,1,.8,1.8-1.8,3.6-3.6,5.2-5.6Z"/>
        <path class="cls-8" d="M92.9,8.7c-4.3.2-3.4,4.8-6,6.6.1.2.3.3.4.5,1.8-1.1,3.7-2.1,5.4-3.1,0-1.2,0-2.6.1-4Z"/>
        <path class="cls-8" d="M104,141.8c1,.3,2,.6,3.1.6,1.3,0,1.9-1.5,1.3-2.7-.8-1.4-1.5-2.8-2.4-4.6-.2,2.1-.2,4.4-2.5,5.4,0,0,.2,1.1.5,1.2Z"/>
        <path class="cls-8" d="M63,14.1c0-.2.2-.4.2-.6-.6-1-1.5-2-1.7-3-.2-1.5,0-3,.2-5-3.2,2.2-3.3,3.5-.9,7.6.3.6,1.4.7,2.2,1Z"/>
        <path class="cls-8" d="M183.8,26.4c2.8.7,4.5.2,4.6-1.8.2-2.2-.2-4.4-.3-6.5-.3,0-.7,0-1,0,0,1.4.3,2.8.1,4.2,0,.7-.9,2-1.2,1.9-1.9-.3-1.9,1-2.2,2.1Z"/>
        <path class="cls-8" d="M3.2,54.1c.1.6.3,1.1.4,1.7,0,.3.1.7.1,1.1.4,0,.8,0,1.1-.3,1.8-1.1,3.7-2.2,5.4-3.3q-1.5-1.4-7.1.7Z"/>
        <path class="cls-8" d="M277.8,55.3c-2.6-2.7-5.1-5.3-7.6-7.9.7,3.8,4.8,8.2,7.6,7.9Z"/>
        <path class="cls-8" d="M87,10.8c-.5-.3-1.5-.5-1.9-.2-.6.4-1,1.2-1.3,2-.6,1.7-1,3.4-1.7,5.5,1.9-2.2,3.4-3.9,4.9-5.8.3-.3.2-1.4,0-1.6Z"/>
        <path class="cls-8" d="M193.7,8.8c-.3-1.2-.6-2.4-1.1-4.1-1.5.3-2.5.5-3.5.6.3,1.1.3,2.6,1,3.1.9.6,2.3.3,3.5.4Z"/>
        <path class="cls-8" d="M298.8,55.5c-3.8-1.5-7.7-2.9-11.5-4.4,3.4,2.7,7,4.7,11.2,5.1,0-.2.2-.5.2-.7Z"/>
        <path class="cls-8" d="M235.8,33.2c.1-.4.3-.8.4-1.2-1.7-.8-3.3-1.9-5.1-2.3-.6-.2-1.6,1.2-2.8,2.2,3,.6,5.2,1,7.4,1.4Z"/>
        <path class="cls-8" d="M134.6,124.5c-.2,3,1.9,4.2,5.4,3.7.4-4.7-3.7-2-5.4-3.7Z"/>
        <path class="cls-8" d="M102.2,25.2c1.2,0,2.9.4,3.6-.2,1.2-1,1.2-2.5-.5-3.6-.3-.2-.6-.9-.5-1.1.3-.4.8-.7,1.3-.9.5-.1,1.1,0,1.7,0,0-.3,0-.6,0-.9-.9,0-2,0-2.7.3-3.1,1.8,0,3.4.5,5.2-1.2,0-2.2,0-3.2,0,0,.4,0,.7-.1,1.1Z"/>
        <path class="cls-8" d="M4,35.7c.5-.9.9-1.8,1.3-2.7.5,0,1.4,0,2.3-.1,0-.2.1-.4.2-.7-1.1-.7-2.2-1.4-3.8-2.5.1,2.5-3.2,3.7,0,6Z"/>
        <path class="cls-8" d="M7.2,11.7c-.1-.4-1-.6-1.5-.8-.1,0-.5.2-.6.3-.5,1.4-.9,2.8-1.3,4.2.2,0,.4.1.6.2.5-.9,1-1.8,1.9-3.4,1.1,1.6,1.9,2.9,2.8,4.2,2.5-2.6-1.3-3.2-1.9-4.8Z"/>
        <path class="cls-8" d="M146.1,138c.5.2,1.4-.2,2-.3-2.1-2.2-4-4.1-6.1-6.3-.2,2.4,1.7,5.5,4.1,6.6Z"/>
        <path class="cls-8" d="M82.2,63.5c.5,2.2.9,4,1.3,5.8.3,0,.6,0,.9,0l1.3-5.3h0s0,0,0,0c-1.3-.2-2.5-.4-3.6-.5Z"/>
        <path class="cls-8" d="M38.5,1.3c-.3,0-.7.1-1,.2.2,1.5,0,3.2.7,4.5.2.4,2.3,0,3.8-.1-1.4-1.9-2.4-3.2-3.4-4.6Z"/>
        <path class="cls-8" d="M88.6,103.1c-1.9-.5-2.5-2.3-3.6-3.5-.6-.7-1.9-.9-2.9-1.3,0,.2-.1.4-.2.5,2,2,3.9,4,6.4,6.5.2-1.1.4-2.2.3-2.2Z"/>
        <path class="cls-8" d="M50.6,142.1c.3,1,.6,1.9,1,3.3,1.2-.2,2-.3,2.8-.5-.3-1.1-.5-2.4-1.1-3.3-.2-.3-1.8.3-2.7.5Z"/>
        <path class="cls-8" d="M7.2,63.8c0,.3,0,.6,0,.9,1.3.2,2.6.5,4,.7.2-.3.3-.5.5-.8-.6-1.2-1.2-2.4-1.9-3.6l-2.7,2.7Z"/>
        <path class="cls-8" d="M34.8,82.4c-.4-.2-1.3-.5-1.4-.3-.9,1.2-1.9,1.1-3.2.9-.3,0-.9.3-1.1.6-.2.2,0,.7,0,.9,1.2,1.1,5.2.3,5.9-1.1.1-.3,0-1-.1-1.1Z"/>
        <path class="cls-8" d="M303.9,3.1c2.1.3,4.1.6,6.3,1-.3-.8-.5-1.7-1-3.2-1.7.4-3.5.9-5.3,1.3,0,.3,0,.6,0,.9Z"/>
        <path class="cls-8" d="M398,47.1c0,.2,1,.1,1.5.2,0-.2.2-.4.3-.6-1.6-2-3.1-3.9-4.7-5.9-.3.1-.6.3-.9.4,0,2.6,3.2,3.5,3.8,5.9Z"/>
        <path class="cls-8" d="M171,110.9c-.2.2-.4.4-.6.6.4.9.8,1.9,1.3,3.1,2-1.6,3.8-2.5,6.1-1-1.6-3.5-4.9-.7-6.8-2.7Z"/>
        <path class="cls-8" d="M24.2,127.6c0,.3,1.6.7,3,1.3.1-2.2,1.1-4.1-1.7-4.9-.5,1.2-1.1,2.4-1.2,3.6Z"/>
        <path class="cls-8" d="M379.9,94.3c-.9,0-2,.5-2.7.2-1.6-.7-2.2,0-3,2.2,3.1-.7,5.8-1.3,8.5-1.8-.9-.6-1.8-.6-2.8-.6Z"/>
        <path class="cls-8" d="M59.7,117.3c.8.4,1.7,1.2,2.5,1.2.9,0,1.8-.6,2.7-.9.8-.3,1.6-.6,2.4-.9-.1-.3-.2-.5-.3-.8-2.4.3-4.8.6-7.3.9,0,.2,0,.3,0,.5Z"/>
        <path class="cls-8" d="M180.1,6.9c.5.1,1.3-1,2-1.6-.4-.4-.8-1.2-1.3-1.2-1.3,0-2.5.4-4.7.7,1.6.9,2.8,1.7,4,2Z"/>
        <path class="cls-8" d="M31.8,122.8c-1,1.2-2,2.5-3,3.7.2.3.4.5.5.8,1.2-1,2.8,1.8,4-.7-.6-.6-1.2-1-1.8-1.6.3-.7.5-1.3.7-1.8-.2-.1-.3-.2-.5-.3Z"/>
        <path class="cls-8" d="M92.4,127.9c.3-.4.5-.7.8-1.1-1-.9-2-1.9-3.1-2.8-.3-.2-1,0-1.5,0,0,.5,0,1.2.2,1.4,1.1.9,2.4,1.6,3.6,2.4Z"/>
        <path class="cls-8" d="M107.3,125.5c-.2-.1-.3-.2-.5-.3-1.2,1.3-2.4,2.5-3.8,4,.7.7,1.3,1.4,2,2.1.9-2.2,1.6-4,2.3-5.8Z"/>
        <path class="cls-8" d="M171.3,49.8c1.1,0,2.2,0,3.3,0,1.2-.1,2.8-.1,1.8-2.2q-5.3.5-5.2,2.2Z"/>
        <path class="cls-8" d="M344.1,36.4c1,2.7,2.1,5.5,3.2,8.2,1.1-2.8-.4-6.6-3.2-8.2Z"/>
        <path class="cls-8" d="M153.2,14.9c2,1.1,3.4,1.8,4.9,2.6.2-2.5-1.2-3.4-2.7-4-.4-.2-1.1.7-2.2,1.4Z"/>
        <path class="cls-8" d="M59.5,165.7c.5-1.5-2.1-4.9-3.7-4.7-.3,0-.6.3-.7.5,0,.3,0,.9.2,1,1.3,1,2.7,2,4.2,3.1Z"/>
        <path class="cls-8" d="M204.2,37.7h.9c.4-1.2.8-2.3,1.4-3.7-1.4-.2-2.3-.3-4.1-.5.8,1.8,1.3,3,1.8,4.2Z"/>
        <path class="cls-8" d="M172.3,130.3c-.2,0-.4.1-.6.2.9,1.8-1.5,4.1,1.3,5.6,0,0,.3,0,.5-.2-.2-.5-.4-1.1-.6-1.7.7-.2,1.2-.3,1.8-.5-.8-1.2-1.6-2.2-2.4-3.3Z"/>
        <polygon class="cls-8" points="85.8 64.1 85.9 64 85.8 64.1 85.8 64.1"/>
        <path class="cls-8" d="M85.9,64s0,0,0,0c0,0,0,0,0,0,0,0,0,0,0,0Z"/>
        <path class="cls-8" d="M85.8,64c.9-1.6,1.8-3.1,2.7-4.7-3.3.9-4.1,3-2.7,4.7Z"/>
        <path class="cls-8" d="M85.8,64.1h0s0,0,0,0c0,0,0,0,0,0Z"/>
        <path class="cls-8" d="M137.2,49c1.9-.7,3.9-1.4,6.1-2.1-3.1-1.7-6-1-6.1,2.1Z"/>
        <path class="cls-8" d="M143.4,109.8c-.9-.5-1.9-.8-2.4-1.5-.4-.5,0-1.6,0-2.4-.5.5-.5,1.3-.9,1.6-1.2.9-1.5,1.9-.3,2.7,1.1.8,2.5,1.1,3.5-.4Z"/>
        <path class="cls-8" d="M36,15.6c-.2,0-.4.7-.7,1.1,1.7.6,3.4,1.2,5.5,2-.9-3.3-3.1-2.8-4.9-3.1Z"/>
        <path class="cls-8" d="M81.3,130.7c.4-1.2.7-2.3,1.3-4.1-1.9.7-3.2,1.1-4.9,1.7,1.4.9,2.3,1.5,3.6,2.3Z"/>
        <path class="cls-8" d="M126.4,97.1c-.8-1.2-1.1-2.3-1.6-2.3-.8-.1-1.7.4-2.5.6.2.6.2,1.6.5,1.7.9.2,1.9,0,3.6,0Z"/>
        <path class="cls-8" d="M98.1,74.6c1.9-3.1-2.2-3.8-1.6-6-1.6,2.4-.1,3.9,1.6,6Z"/>
        <path class="cls-8" d="M82,1.6c.3,1.2.3,2,.7,2.6.2.3.9.5,1.4.4,1.2-.2,2.4-.6,3.8-1-1.9-.6-3.6-1.3-5.9-2.1Z"/>
        <path class="cls-8" d="M63.6,146.5c1.1,2.1,2.1,4.2,3.2,6.4.3-.2.7-.4,1-.5-1.1-2.1-2.2-4.2-3.3-6.3-.3.2-.6.3-.9.5Z"/>
        <path class="cls-8" d="M363.5,52.8c-2.6-.5-5.2-1-7.8-1.5,0,.3-.1.6-.2,1,2.6.5,5.2,1,7.8,1.5,0-.3.1-.6.2-.9Z"/>
        <path class="cls-8" d="M182.7,48.7c1.4,1.2,2.8,2.5,4.6,4,.1-3.7-2.2-3.9-4.6-4Z"/>
        <path class="cls-8" d="M396.4,79.2c-.2-.1-.4-.2-.7-.3-1.1,2.1-2.3,4.2-3.4,6.2l.8.4c1.1-2.1,2.2-4.2,3.2-6.3Z"/>
        <path class="cls-8" d="M151.8,108.9c-1.1.1-2.1.3-3.8.5,1.9,1.2,3.1,2,4.7,3-.4-1.4-.6-2.4-.9-3.5Z"/>
        <path class="cls-8" d="M265.2,65.4c-.7.4-1.3.7-2.1,1.1,0-.8,0-1.3,0-2.3-.8,1.3-1.3,2.1-2.1,3.3,1.7-.5,3.9,1.3,4.2-2.1Z"/>
        <path class="cls-8" d="M235.6,97.2c-1.2-2-2.4-4-3.6-6.1-.2.1-.5.3-.7.4,1.2,2,2.3,4.1,3.5,6.1l.8-.5Z"/>
        <path class="cls-8" d="M19.1,10.9c-.8,2.1-1.4,3.7-2.1,5.3,2.2.2,2.6-.7,2.1-5.3Z"/>
        <path class="cls-8" d="M114.9,109.1c.2-.2.4-.3.6-.5-.3-1-.6-2.1-.9-3.1-.4,0-.7,0-1.1.1-.3.8-.9,1.7-.7,2.3.2.6,1.3.8,2,1.2Z"/>
        <path class="cls-8" d="M279,56.6c-2,1.6-2.1,4.4-.9,5.8.3-1.9.6-3.9.9-5.8Z"/>
        <path class="cls-8" d="M81.2,109.8c2.3,1,4.2,1.9,6.1,2.8-1.8-2.5-4.2-3.5-6.1-2.8Z"/>
        <path class="cls-8" d="M205,24.7c-.3,1.7-.5,2.6-.6,3.5.2.2.4.3.6.5.7-.6,1.4-1.2,2.1-1.9-.6-.6-1.1-1.2-2.1-2.1Z"/>
        <path class="cls-8" d="M304.2,85.9c-.5.2-1.2.3-1.3.5-.2,1-.2,2-.3,3,.5-.2,1-.4,1.9-.7-.1-1.1-.2-2-.3-2.9Z"/>
        <path class="cls-8" d="M60,74.9c1.3.8,2.5,1.6,3.8,2.4.1-.2.3-.5.4-.7-1-1.2-2-2.5-4.2-1.7Z"/>
        <path class="cls-8" d="M11.9,39.9c-.5-1.6-1-2.9-1.5-4.5-2,2-1.7,2.7,1.5,4.5Z"/>
        <path class="cls-8" d="M4.3,46.1c-1,1-1.7,1.8-2.7,2.9,1.6.1,2.7.2,4.2.3-.5-1.2-.9-2.1-1.4-3.2Z"/>
        <path class="cls-8" d="M280.5,69.7c.4,0,.8.1,1.2.2.2-1.7.4-3.4.6-5.2-.3,0-.6,0-.9-.1-.3,1.7-.6,3.4-.9,5.1Z"/>
        <path class="cls-8" d="M108.1,148.1c.3-.4.6-.7.8-1.1l-2.4-2.2c-.2.4-.8,1.1-.7,1.3.7.8,1.5,1.4,2.3,2Z"/>
        <path class="cls-8" d="M180.2,10.6c1.6-.3,3.3-.6,4.9-.9,0-.3-.1-.6-.2-.9-1.7.3-3.3.5-5,.8,0,.4.2.7.3,1.1Z"/>
        <path class="cls-8" d="M201.1,12.9c1.6.9,2.7,1.4,4.1,2.2,0-3.2-1.4-3.2-4.1-2.2Z"/>
        <path class="cls-8" d="M113.3,61.3c-2.9-1.5-3.4.5-4.4,1.7.1.2.3.4.4.7,1.2-.7,2.5-1.4,4-2.3Z"/>
        <path class="cls-8" d="M181.3,65.1c1.3-.8,2.3-1.4,3.3-2-.1-.3-.2-.6-.3-.9-.8-.2-1.6-.3-2.7-.5-.1,1.2-.2,2.1-.3,3.4Z"/>
        <path class="cls-8" d="M136.9,22.4c-1.1-1.5-2.2-2.9-3.3-4.4-.3.2-.6.4-.9.7,1.1,1.4,2.3,2.8,3.4,4.2l.7-.5Z"/>
        <path class="cls-8" d="M58.9,18.8c-.4-1.2-.5-2.2-.9-2.3-.6-.2-1.4.2-2.1.3.2.5.3,1.3.7,1.5.4.3,1.2.2,2.3.4Z"/>
        <path class="cls-8" d="M2.1,107.4c.6,1.4,1.1,2.5,1.6,3.7,1.8-2.1,1.4-3.2-1.6-3.7Z"/>
        <path class="cls-8" d="M56,88.2c-.6-.4-1.6-1.2-1.9-1-.8.5-1.3,1.4-2.3,2.6,1.7-.5,2.8-.8,3.8-1.1.1-.2.3-.4.4-.6Z"/>
        <path class="cls-8" d="M133.5,72c-.8,1.3-1.5,2.3-2.3,3.6,2.8-.6,3.4-1.4,2.3-3.6Z"/>
        <path class="cls-8" d="M163.8,76.7c-.2.2-.4.3-.5.5.7.7,1.5,1.5,2.3,2.3,1-2.1.9-2.3-1.7-2.8Z"/>
        <path class="cls-8" d="M29.8,63c1.4,0,2.7.2,4.2.3-1.3-2.1-2.8-2.2-4.2-.3Z"/>
        <path class="cls-8" d="M96.8,15c.2.2.5.3.7.5.7-1,1.3-2,2-3.1-.2-.2-.5-.3-.7-.5l-2,3.1Z"/>
        <path class="cls-8" d="M242.7,102.2c-.4-.1-.9-.2-1.3-.4l-1.1,4.1,1,.3c.5-1.3.9-2.7,1.4-4Z"/>
        <path class="cls-8" d="M202.2,123.4c.3-2,.4-3.3.6-4.7-.3,0-.6,0-.8,0,0,.6,0,1.2-.2,1.8-.2.5-.9.9-1,1.5,0,.3.7.7,1.5,1.5Z"/>
        <path class="cls-8" d="M313,39.3c-.8-1.4-1.3-2.3-1.7-3.1-.3,0-.6.2-.8.2.1.9.2,1.8.5,2.6,0,.2,1,.1,2.1.3Z"/>
        <path class="cls-8" d="M116.7,66.9c0-1.8,0-2.8-.2-4.5-1,1.1-1.7,1.8-2.4,2.5.8.6,1.4,1.1,2.6,1.9Z"/>
        <path class="cls-8" d="M88.6,42.3c-1.4-1.2-2.5-2.1-4.1-3.3.7,2.3,1,4.1,4.1,3.3Z"/>
        <path class="cls-8" d="M82,96.4c-1.3-.9-2.1-1.4-2.9-1.9-.2.2-.4.3-.6.5.4.6.7,1.5,1.3,1.8.4.2,1.2-.2,2.2-.4Z"/>
        <path class="cls-8" d="M307.1,14.2c-.5-1.3-.9-2.3-1.4-3.6-1.5,3.2-1.3,3.7,1.4,3.6Z"/>
        <path class="cls-8" d="M76.3,92.6c-.8-.6-1.5-1.3-2.3-1.9l-.7.7c.5.7,1,1.5,1.6,2.1,0,0,.9-.6,1.4-.9Z"/>
        <path class="cls-8" d="M243.1,28.8c-.6-.3-1-.6-1.4-.8-.4,1-.9,1.9-1.3,2.9.2.1.4.2.7.4.6-.8,1.3-1.5,2.1-2.4Z"/>
        <path class="cls-8" d="M29.8,165.8c.8-1.5,1.3-2.5,1.9-3.6-2.2.2-2.7,1.1-1.9,3.6Z"/>
        <path class="cls-8" d="M345.9,68.3c1.9-.3,3.8-.6,5.7-.9,0-.2,0-.4,0-.7-1.9.2-3.7.4-5.6.7,0,.3,0,.6,0,.9Z"/>
        <path class="cls-8" d="M239.2,39.4c-2.1.9-4,1.7-5.9,2.5,2,1,5.5-.8,5.9-2.5Z"/>
      </g>
      <g>
        <path d="M147.4,157.4H22c-2.6,0-5-1-6.8-2.8-1.8-1.8-2.8-4.2-2.7-6.8l1.7-123.9c0-5.2,4.3-9.4,9.5-9.4h357.9c2.6,0,5,1,6.8,2.8,1.8,1.8,2.8,4.2,2.7,6.8l-.7,54.1c0,5.2-4.3,9.4-9.5,9.4h-123.7c-.9,0-1.7.3-2.5.7l-102.1,67.4c-1.6,1-3.4,1.6-5.2,1.6ZM23.8,19.5c-2.4,0-4.5,2-4.5,4.4l-1.7,123.9c0,1.2.4,2.4,1.3,3.2.9.9,2,1.3,3.2,1.3h125.4c.9,0,1.7-.3,2.5-.7l102.1-67.4c1.5-1,3.3-1.6,5.2-1.6h123.7c2.4,0,4.5-2,4.5-4.4l.7-54.1c0-1.2-.4-2.4-1.3-3.2-.9-.9-2-1.3-3.2-1.3H23.8Z"/>
        <path d="M144.3,171.9H9.5c-2.5,0-4.9-1-6.7-2.8-1.8-1.8-2.8-4.2-2.8-6.8L.9,9.3C1,4.1,5.2-.2,10.4-.2h383.8c2.6,0,5,1,6.8,2.8s2.8,4.2,2.7,6.8l-.9,79.7c0,5.2-4.3,9.4-9.5,9.4h-130.4s-2.5,0-2.5,0c-.9,0-1.7.3-2.5.7l-108.5,71c-1.6,1-3.4,1.6-5.2,1.6ZM10.4,4.8c-2.5,0-4.5,2-4.5,4.5l-.9,153c0,1.2.5,2.3,1.3,3.2.9.9,2,1.3,3.2,1.3h134.8c.9,0,1.7-.3,2.5-.7l108.4-71c.8-.5,1.7-1,2.7-1.2v-.3h2.5s132.9,0,132.9,0c2.4,0,4.5-2,4.5-4.5l.9-79.7c0-1.2-.4-2.4-1.3-3.2-.9-.9-2-1.3-3.2-1.3H10.4Z"/>
        <g>
          <ellipse class="cls-5" cx="88.9" cy="86.9" rx="49.5" ry="49.5"/>
          <ellipse class="cls-4" cx="89.4" cy="86.4" rx="37" ry="37"/>
        </g>
        <g>
          <circle class="cls-3" cx="234.6" cy="45.7" r="6.2"/>
          <circle class="cls-7" cx="265.9" cy="45.7" r="6.2"/>
          <circle class="cls-4" cx="297.1" cy="45.7" r="6.2"/>
          <circle class="cls-2" cx="328.3" cy="45.7" r="6.2"/>
          <circle class="cls-6" cx="359.5" cy="45.7" r="6.2"/>
        </g>
      </g>
    </g>
  </g>
</svg>