<?xml version="1.0" encoding="UTF-8"?>
<svg id="Layer_2" xmlns="http://www.w3.org/2000/svg" version="1.1" viewBox="0 0 35.1 868.9">
  <!-- Generator: Adobe Illustrator 29.1.0, SVG Export Plug-In . SVG Version: 2.1.0 Build 142)  -->
  <defs>
    <style>
      .st0 {
        fill: #f62c50;
      }
    </style>
  </defs>
  <g id="Layer_1-2">
    <g>
      <rect class="st0" x="2.5" y="5.8" width="30.1" height="857.4" rx="12.3" ry="12.3"/>
      <path d="M0,6.7v862.2h20.1c8.3,0,15-6.7,15-15V11.7c0-6.4-2.6-11.7-6-11.7H6.7C3,0,0,3,0,6.7ZM16.1,857.4H5V15.6c0-2.3,1.8-4.1,4.1-4.1h16c2.7,0,5,2.2,5,5v834.2c0,2.8-5.3,6.7-8.1,6.8h-5.9Z"/>
    </g>
  </g>
  <g>
    <rect x="2.3" y="832.9" width="30.1" height="5"/>
    <rect x="2.3" y="818.3" width="30.1" height="5"/>
  </g>
  <g>
    <rect x="2.3" y="47" width="30.1" height="5"/>
    <rect x="2.3" y="32.4" width="30.1" height="5"/>
  </g>
</svg>