<?xml version="1.0" encoding="UTF-8"?>
<svg xmlns="http://www.w3.org/2000/svg" version="1.1" viewBox="0 0 449 526.9">
  <defs>
    <style>
      .cls-1 {
        fill: #f62c50;
      }

      .cls-1, .cls-2 {
        stroke: #000;
        stroke-miterlimit: 10;
        stroke-width: 5px;
      }

      .cls-2 {
        fill: none;
        stroke-linecap: round;
      }
    </style>
  </defs>
  <!-- Generator: Adobe Illustrator 28.7.2, SVG Export Plug-In . SVG Version: 1.2.0 Build 154)  -->
  <g>
    <g id="Layer_2">
      <g id="Layer_1-2">
        <path class="cls-1" d="M445.5,82.8c0-3.9-3.1-7-7-7h-134.9c-1.4,0-2.7-.4-3.8-1.1L191.4,3.6c-1.1-.8-2.5-1.1-3.8-1.1H2.5v521.9h437c3.9,0,7-3.1,7-7l-1-434.6h0Z"/>
      </g>
      <g>
        <line class="cls-2" x1="606.3" y1="411.9" x2="619.5" y2="411.9"/>
        <line class="cls-2" x1="601.9" y1="404.3" x2="623.9" y2="404.3"/>
        <line class="cls-2" x1="597.4" y1="396.6" x2="628.4" y2="396.6"/>
        <line class="cls-2" x1="593" y1="388.9" x2="632.8" y2="388.9"/>
        <line class="cls-2" x1="588.6" y1="381.2" x2="637.3" y2="381.2"/>
        <line class="cls-2" x1="584.1" y1="373.5" x2="641.7" y2="373.5"/>
        <line class="cls-2" x1="579.7" y1="365.8" x2="646.2" y2="365.8"/>
      </g>
      <g>
        <g>
          <line class="cls-2" x1="310.5" y1="427.7" x2="310.5" y2="445.2"/>
          <line class="cls-2" x1="318.2" y1="421.8" x2="318.2" y2="451.1"/>
          <line class="cls-2" x1="325.9" y1="415.9" x2="325.9" y2="457"/>
          <line class="cls-2" x1="333.6" y1="410" x2="333.6" y2="462.9"/>
          <line class="cls-2" x1="341.2" y1="404.1" x2="341.2" y2="468.8"/>
          <line class="cls-2" x1="348.9" y1="398.2" x2="348.9" y2="474.7"/>
          <line class="cls-2" x1="356.6" y1="392.3" x2="356.6" y2="480.6"/>
        </g>
        <g>
          <line class="cls-2" x1="402.7" y1="445.2" x2="402.7" y2="427.7"/>
          <line class="cls-2" x1="395" y1="451.1" x2="395" y2="421.8"/>
          <line class="cls-2" x1="387.4" y1="457" x2="387.4" y2="415.9"/>
          <line class="cls-2" x1="379.7" y1="462.9" x2="379.7" y2="410"/>
          <line class="cls-2" x1="372" y1="468.8" x2="372" y2="404.1"/>
          <line class="cls-2" x1="364.3" y1="474.7" x2="364.3" y2="398.2"/>
          <line class="cls-2" x1="356.6" y1="480.6" x2="356.6" y2="392.3"/>
        </g>
      </g>
      <g>
        <line class="cls-2" x1="713.6" y1="446.9" x2="713.6" y2="460.1"/>
        <line class="cls-2" x1="721.3" y1="442.5" x2="721.3" y2="464.6"/>
        <line class="cls-2" x1="729" y1="438.1" x2="729" y2="469"/>
        <line class="cls-2" x1="736.6" y1="433.6" x2="736.6" y2="473.4"/>
        <line class="cls-2" x1="744.3" y1="429.2" x2="744.3" y2="477.9"/>
        <line class="cls-2" x1="752" y1="424.7" x2="752" y2="482.3"/>
        <line class="cls-2" x1="759.7" y1="420.3" x2="759.7" y2="486.8"/>
      </g>
      <g>
        <line class="cls-2" x1="805.8" y1="460.1" x2="805.8" y2="446.9"/>
        <line class="cls-2" x1="798.1" y1="464.6" x2="798.1" y2="442.5"/>
        <line class="cls-2" x1="790.5" y1="469" x2="790.5" y2="438.1"/>
        <line class="cls-2" x1="782.8" y1="473.4" x2="782.8" y2="433.6"/>
        <line class="cls-2" x1="775.1" y1="477.9" x2="775.1" y2="429.2"/>
        <line class="cls-2" x1="767.4" y1="482.3" x2="767.4" y2="424.7"/>
        <line class="cls-2" x1="759.7" y1="486.8" x2="759.7" y2="420.3"/>
      </g>
    </g>
  </g>
</svg>