<?xml version="1.0" encoding="UTF-8"?>
<svg id="Layer_2" data-name="Layer 2" xmlns="http://www.w3.org/2000/svg" xmlns:xlink="http://www.w3.org/1999/xlink" viewBox="0 0 446.05 526.9">
  <defs>
    <style>
      .cls-1 {
        fill: none;
      }

      .cls-2 {
        clip-path: url(#clippath-1);
      }

      .cls-3 {
        fill: #9e1b38;
      }

      .cls-4 {
        fill: #f62c50;
      }

      .cls-5 {
        opacity: .5;
      }

      .cls-6 {
        stroke: #000;
        stroke-miterlimit: 10;
        stroke-width: 3px;
      }

      .cls-7 {
        clip-path: url(#clippath);
      }
    </style>
    <clipPath id="clippath">
      <rect class="cls-1" width="446.05" height="526.9"/>
    </clipPath>
    <clipPath id="clippath-1">
      <polygon class="cls-1" points="-446.35 72.2 -305.05 68 -187.35 2.5 184.75 2.5 296.95 74.6 446.05 76.1 442.25 526.9 -441.35 526.3 -446.35 72.2"/>
    </clipPath>
  </defs>
  <g id="Layer_1-2" data-name="Layer 1">
    <g class="cls-7">
      <g id="Layer_11" data-name="Layer 11">
        <path class="cls-4" d="M296.95,74.6L188.55,3.6c-1.1-.8-2.5-1.1-3.8-1.1H-185.85c-1.4,0-2.7.4-3.8,1.1l-108.4,71c-1.1.8-2.5,1.1-3.8,1.1h-135c-3.9,0-7,3.1-7,7l1,434.6c0,3.9,3.1,7,7,7H436.65c3.9,0,7-3.1,7-7l-1-434.6c0-3.9-3.1-7-7-7h-134.8c-1.4,0-2.7-.4-3.8-1.1h-.1Z"/>
        <rect class="cls-3" x="-.36" y="2.5" width="25.4" height="521.9"/>
        <path class="cls-6" d="M436.65,526.9H-435.85c-5.2,0-9.5-4.3-9.5-9.5l-1-434.6c0-5.2,4.3-9.5,9.5-9.5h134.8c.9,0,1.7-.3,2.5-.7L-191.15,1.5c1.6-1,3.4-1.5,5.2-1.5H184.65c1.9,0,3.7.5,5.2,1.6l106.7,69.9h0l1.7,1.1c.7.5,1.6.7,2.5.7h134.8c5.2,0,9.5,4.3,9.5,9.5l1,434.6c0,5.2-4.3,9.5-9.5,9.5h.1ZM-436.85,78.3c-2.5,0-4.5,2-4.5,4.5l1,434.6c0,2.5,2,4.5,4.5,4.5H436.65c2.5,0,4.5-2,4.5-4.5l-1-434.6c0-2.5-2-4.5-4.5-4.5h-134.8c-1.1,0-2.3-.2-3.3-.6l-.2.2-1.7-1.1L187.15,5.7c-.7-.5-1.6-.7-2.5-.7H-185.95c-.9,0-1.7.3-2.5.7l-108.4,71c-1.5,1-3.3,1.5-5.2,1.5h-134.8v.1Z"/>
        <path d="M422.65,511.87H-421.85c-5.1,0-9.2-4.03-9.2-8.89l-.9-408.57c0-4.96,4.1-8.99,9.2-8.99h130.5c.9,0,1.7-.21,2.4-.72L-184.85,17.95c1.5-.93,3.3-1.45,5-1.45H178.85c1.8,0,3.5.52,5,1.45l103.3,65.72h0l1.6,1.03c.7.41,1.5.72,2.4.72h130.5c5.1,0,9.2,4.03,9.2,8.89l.9,408.57c0,4.96-4.1,8.99-9.2,8.99h.1ZM-422.85,90.17c-2.4,0-4.4,1.86-4.4,4.24l.9,408.57c0,2.38,2,4.24,4.4,4.24H422.55c2.4,0,4.4-1.86,4.4-4.24l-.9-408.57c0-2.38-2-4.24-4.4-4.24h-130.5c-1.1,0-2.2-.21-3.2-.52l-.2.21-1.7-1.03L181.05,22.08c-.7-.41-1.5-.72-2.4-.72H-180.05c-.8,0-1.7.21-2.4.72l-105,66.75c-1.5.93-3.2,1.45-5,1.45h-130.4v-.1Z"/>
        <rect class="cls-3" x="84.85" y="132.2" width="324.6" height="210" rx="24.3" ry="24.3"/>
        <g class="cls-5">
          <g class="cls-2">
            <g id="EKzZlK">
              <g>
                <path class="cls-3" d="M164.25,252.1c-.2.8-.5,1.5-.7,2.3-.7,2.5-.2,3.5,2.2,4.2,1.6.5,2,1.3,1.6,2.9-.3.9-.2,1.9,0,2.9,1.2-2.1,2.8-2.7,5.1-2.8,3.2-.2,5.8,1.2,8.6,2.1.6.2,1.5.5,1.7.3,2-2.6,3.4-.4,5,.6-.9.7-1.7,1.4-3.1,2.5,2.6.9,4.7,1.5,6.8,2.2-4.7,1-9.3,2-14.3,3,.4-.9.7-1.5,1-2.2-1.6-.2-3.3,1.2-4.5-.6,0,0-1.2.3-1.3.6-.3.8-.5,1.8-.2,2.4,2.1,3.8,3.3,4.1,7.6,3.2,1.6-.3,3.4.1,5.1.2h2.8c.8,0,1.6.2,2.3.3,1.1.1,2.2.2,3.3.4,1.1.3,2.2.7,3.3,1.1.7.3,1.3.8,2,.9,1.4.1,2.7,0,4.7-.1-1.3-.3-1.9-.4-3.2-.6,4.5-.3,8.5-.5,12.5-.7-.5,1.4-1.3,3.4-2.1,5.5-1.9-.2-3.8-.6-5.6-.6s-3.2.5-4.8.7c-2.5.4-5.1.8-7.6,1-2.8.3-5.6.4-8.5.6,0,.5-.2,1.1-.3,1.7-.3,1.2-.8,1.7-2.2,1.4-2.4-.6-4.7-.8-6.1,2.2-.6,1.4-1.9,2.5-2.9,3.9,0-.6-.2-1.4-.4-2.5-.6.4-1.1.7-1.7,1,1.1-3.7,1-3.8-1.4-4.6-.3,1.2-.6,2.4-1.2,4.4-.8-1.1-1.4-1.8-1.8-2.5-1.6-2.8-2.6-2.9-4.8,0,1.3,1.2,2.6,2.4,3.9,3.7,0,.2-.2.4-.3.6-.6-.2-1.3-.2-1.9-.5-2.2-1.4-4.1-1.2-5.8.6-3-.6-5.8-1.3-9.4-2,1.2-1.2,2.1-2.1,2.9-2.9-2.2-3.3-2.7-3.3-5.9-.9-2.7,2-5.6,3.8-8.3,5.8-2.8,2.2-5.5,4.6-8.2,7-.7.6-1.5,1.4-2.3,1.7-3.2,1.2-5.4,3.7-7.6,6.2-.4.4-1.1.6-1.6.9-.7.6-1.4,1.4-2.1,2-.7.6-1.3,1.5-2.1,1.7-3.8,1.2-6.8,3.5-9.8,6.1-1.7,1.5-3.8,2.6-5.7,3.9l-.7-1.1c2-1.4,4-2.8,5.9-4.1,3.3-2.3,6.8-4.5,10-7,1.1-.9,1.7-2.4,2.9-4,3.3.3,5.8-2.1,8.5-4.5,3.3-2.8,7.1-5,10.6-7.7s6.9-5.7,10.3-8.6c.4-.3.7-1.2.5-1.6s-1.1-.9-1.5-.8c-2,.4-1.9-1.2-2.4-2.2-.4-.8-.8-2-1.4-2.2-2.3-.6-4.6-2.1-6.9,0-.6.6-2,.3-3.2.5v-2.2c-.8-.2-1.7-.3-2.5-.5v-.7c2,.4,4,.8,6,1.1,2.2.3,4.5.4,6.7.5,1.8,0,3.7.2,5.4,0,1.8-.2,3.2-.9,2.8-3.3,0-.4,1.5-1.2,2.3-1.8.2.2.3.4.5.5,1.7-3.4,3.3-6.8,5.2-10.6-1.7-.2-3.2-.4-4.7-.6-.3-.9-.7-1.9-1-2.9,1-1.5,2-3.1,3-4.6.4-.6,1.1-1.1,1.6-1.7.6-.8,1.4-1.5,1.5-2.4,0-.5-1.2-1.1-1.8-1.7-.6.7-1.1,1.3-1.7,2,0,.1-.2.2-.6.5-.5-.9-1-1.7-1.6-2.7-.3.4-.6.8-1.1,1.6-.2-1.6-.4-2.9-.6-4.1l.7.3c1.5-1.7,3.1-3.5,4.6-5.2,1.9-2.2,3.7-4.3,5.5-6.5.2.2.5.4.7.5-1.2,1.6-2.1,3.5-3.6,4.6-1.4,1.1-2.1,2.1-1.7,3.7.5,1.8,1.1,3.5,1.8,5.2,0,.2,1.3.4,1.4.2,1.1-1.6,2.1-3.3,3.1-5,.2-.4.2-1,.5-1.3,2.2-2.1,4.5-4.2,6.8-6.3.2.1.4.3.6.4-.2.8-.5,1.7-.4,2.5,0,.9.6,1.7.9,2.6.3.8.7,1.7,1.1,2.5-.8.2-1.6.4-2.4.5h-1.8c0,.9.3,1.6.4,2.3-.9-.1-1.7-.2-3.2-.4-2.1,5-8,7.6-10.5,13.2,2,.4,5.5-2.3,10.6-8.2h.2v.1ZM182.25,279.6c.3-.7.5-1.3.7-1.9-.6.2-1.1.3-1.7.5-.6.1-1.1.4-1.7.4h-4.2c-.8-.5-2.1-1.2-3-1.7-.2-.8-.3-1.5-.5-2.1-.6.3-1.5.5-1.8,1-1.5,2.3-.6,4.5,2,5.2.4,0,.8.3,1.1.5,3.6,2.4,6.9.3,10.4,0v-.6c-.5-.4-1-.8-1.4-1.1v-.2h.1ZM164.65,270.8c2.4-2.4,2.5-5.3.5-6.6-.5-.3-1.3-.4-1.7-.1-.5.2-1.1,1.1-1,1.4.6,1.8,1.4,3.5,2.2,5.3h0ZM159.95,271.9c1.3-.4,2.2-.7,3.4-1.1-.5-1-1.1-2-1.6-3.1-.2,0-.5.1-.7.2-.3,1.3-.7,2.6-1.1,4h0ZM166.15,272.4c1.4.6,2.1,1.2,3,1.3.4,0,.9-.7,1.4-1.1-.7-.5-1.4-1.2-2.2-1.4-.4-.1-1.1.6-2.2,1.3h0v-.1ZM159.35,271.9c-2.1-.6-3.1-.2-3.3,1.3,0,.4.6.8.9,1.2.7-.7,1.4-1.5,2.4-2.5h0ZM156.95,265.7c1.3,0,2.4.3,2.7,0,.6-.7.7-1.7,1-2.6-.2-.1-.5-.2-.7-.3-.8.9-1.7,1.7-3,3h0v-.1Z"/>
                <path class="cls-3" d="M83.95,179.9c-5,1.6-9.7,3.1-12.5,7.8,1.1.4,2.5.9,3.9,1.5,0,.3,0,.6-.2.9-1.4,0-3.2.5-4.3-.2-2.6-1.6-4-.4-5.4,1.7.9.5,1.9.9,2.9,1.4,1.4-1,2.6-2.7,4.6-1.1.7.5,1.3,1.2,1.8,1.9.9,1.3,1.6,2.4,3.5,1.1,1.5-1.1,5.4,1.9,5.3,4.2-1.3-.6-2.5-1.2-3.7-1.7-1.3-.5-2.6-1.2-3.2,1-2.1-.5-4-2.9-5.9,0-.5-1.4-.9-2.5-1.3-3.7-1.1.6-1.9,1-2.7,1.5-1.6-1.8-3.4-1.7-5.4.2,2.9,1,5.4,2,8,2.8,1.7.5,3.7.3,3.5,2.9,0,0,.7.2,1.3.3-.4-1.1-.7-1.9-1-2.7.2-.1.3-.2.5-.4.5.6,1,1.2,1.5,1.8.8.9,1.5,1.8,2.3,2.8.3.5.6,1,.8,1.5-.5.2-1.1.7-1.6.6-1.7-.2-3.3-.8-5-.9-1.4,0-2.8.4-4.3.7-1.2-.7-2.6-1.5-4-2.3-.2.2-.3.5-.5.7.8,1.3,4.1.9,2.6,4-.8-.7-1.6-1.4-2.7-2.2-1.3,1.6-4.2,1.8-3.7,5,0,.2-1.3.6-2.1,1,.7,3.4-2.9,1.3-4.1,3.2,1.5.6,2.9,1.1,4.3,1.7,2.8-6,4.7-7.1,8.7-5.2,0,.3-.2.6-.4.8-1.8.9-3.7,1.8-5.5,2.6-1.1.5-1.8,3.8-1.6,5.5.1,1.1-.2,2.7-1,3.5-1.5,1.6-3.4,2.8-5.2,4-1,.7-2.2,1.4-3.2,2-.1-.2-.3-.3-.4-.5.3-.7.7-1.4,1.3-2.7-2.2.8-4,1.4-6.3,2.1,1.1-1.8,1.8-3.1,2.8-4.6,1-.6,2.4-1.5,3.8-2.3-.7-1.2-4.5-1.6-6.3-.5-.6.4-.9,1.5-1.2,2.2-1.7.9-3.6,2-5.5,3,0,.3.2.6.3.9.9.1,1.8.2,2.7.4-3.2.3-6.4.7-8.1,4.3,1.2,1.3,2.2,2.4,3.9.6,1.4-1.5,3-.5,4.5,0,.4.1.8,1.2.6,1.6-.2.6-.9,1-1.9,1.9,1.6.6,3,1.1,4.9,1.7-1,0-1.7.3-2.3.2-2.2-.5-3.3.4-3.8,2.5,0,.3,0,.6-.2.9-1.1,2.5-1,2.7,1.8,3.2-.1,1.7-2.8,2.4-4.7,1.3-3.4-2.1-6.1-1.9-8.8.8-.7.7-.9,1.8-1.3,2.7-.8-1.6-2.1-.9-3.6-.1-1.3.7-2.7,1-4.8,1.8,2,1.7,3.4,2.9,4.9,4.1.4.3.9.6,1,1,.4,1.3.6,2.6.9,3.9-1.2-.2-2.5-.4-3.5-.6.7-1.4,1.2-2.4,1.6-3.3-1.6-.2-3.1-.4-4.7-.7-.1.8-.2.9-.1,1.1.4.9,1.3,2.3,1.1,2.6-.8.8-2,1.5-3,1.5-2.2,0-4.6.3-6.2-1.8-.5-.7-.7-1.5-1.1-2.6-.4,0-1.1,0-2.2-.2.2-1.3.4-2.5.6-3.8,2.9-.7,5.7-1.3,8.7-1.9-1.3-3.2,3-3.2,3.7-5.2-.6-1.2-1-2.1-1.5-3.1,1.1-.5,2.2-1.2,3.3-1.5,1.4-.4,3-.2,4.4-.8,1.2-.5,2.4-1.5,3.3-2.6,1-1.2,1.7-2.7,2.4-4.2.4-.8.7-1.6.7-2.4-.1-2.4,1-4.5,3.2-4.9,4.4-.9,6.7-3.8,8.1-7.8.2-.5.6-.9,1.4-1.2,0,.7,0,1.3-.2,2.6,2.6,0,5.1-.1,7.6-.2v-1.1c-1.3-.3-2.7-.6-3.9-.8,1.9-2.3,3.6-4.5,5.3-6.7-1-1.3-1.9-2.4-2.8-3.6.3-.2.7-.6,1-.9v-.7c-1.7-.1-3.5-.4-5.2-.2-.8,0-2.2,1.1-2.2,1.8,0,1.8.6,3.5.9,5-2.7,2.1-5.3,4-8.3,6.3-.4-.4-1.7-.9-1.8-1.7-.1-.8.7-2.1,1.4-2.7,1.7-1.3,3.5-2.4,5.3-3.6.4-.3.8-.7,1.2-1.1,0-.3,0-.6-.1-.8-1.3,0-2.6.2-4.4.3-.8-1.2-2.2-1.5-4.2-.7-1.8.8-2.8-.5-3-3.5,2.9-.6,6.2.4,8.8-2.6-2.1-.2-4.1-.5-6.5-.8,1.7-1.3,3.1-2.4,4.9-3.7.6.7,1.7,1.7,2.3,3,1.5,3.6,2.3,4.1,6.2,2.8-.1-1-.2-2-.3-2.8,2.2-.3,4.4-.1,6.2-1,1.9-.9,4.1-1.6,5.4-3.8.5-.9,2.3-1,3.8-1.5-.5-.9-.9-1.8-1.4-2.8-1.6.4-3.1.7-4.9,1.1-.1-1-.2-1.6-.3-2.2.2-.2.2-.3.3-.3,3.9.8,5.4-4.4,9.3-3.8.8.1,1.7-.7,2.7-1.2-2.7-2.9-5.5-3.8-7.2-2.9-.8-1.4-1.9-2.6-2.4-4-.2-.7.6-1.8,1.1-2.6.3-.5,1-.7,1.4-1,.9-.1,1.9,0,2.4-.4.9-.8,1.4-2,2.1-3,.7-.9,1.4-1.9,2-2.7.7,1.3,0,4.1-2.1,8.2,2.5,1.5,5,3.3,7.7,4.4,1.4.6,3.2-.1,4.9-.3.6,0,1.3-.2,1.8-.5,1.8-.9,3.6-.7,5.9,0v-.5h-.1ZM60.75,204.6c-.1-.4-.1-.7-.2-.7-3.9-.5-7.9-.9-11.8-1.3-.2,0-.5.6-.8,1,.4.2.7.6,1.1.6,2.1,0,4.2-.1,6.2,0,1.8,0,3.5.3,5.4.5h0l.1-.1Z"/>
                <path class="cls-3" d="M138.55,168.1c0-1.4-.3-2.8-.5-4.3.9.3,1.6.5,2.4.7-.7-2.5-6.3-4.7-10.8-4.2-.6,0-1.1.4-1.5.9-4.3,1.1-7.5-1-10.5-4.1-1.2-1.3-3.2-2-4.8-2.9-.6-.3-1.5-.3-2-.7-.6-.5-.9-1.2-1.4-1.9.8-.2,1.6-.8,2.3-.7,2.8.7,5.5,1.6,8.2,2.5,1.5.5,1.9.4,2.2-1.4.4-1.9,2-3.6,3.3-5.7-.8-.2-1.9-.7-3-.7-3,0-6.1.2-9.1,0-1.4,0-2.8-.7-4.2-1.1,0-.4,0-.7.2-1.1l10.7.2c-.7-1.3-1.1-1.8-1.8-3,1.2,0,2.1-.2,2.8.1,1.6.7,3.2,1.7,4.8,2.6,0,0,0,.2.2.2,3.4-.2,5.5,2.7,8.3,3.9,1.8.8,3.2,2.4,4.8,3.6-.2.3-.3.7-.5,1-.9-.3-2-.3-2.7-.9-2.1-1.4-4.2-1.6-6.6-.8,1.9,4.5,1.4,5.6-3.6,6.7,2.3,1.5,4.5,1.5,6.6,1.5s4.1-.6,6.3-1c-.2-.7-.2-.9-.3-1-.6-.7-1.3-1.3-1.9-2,0,0,.4-.6.6-.9.8.6,1.9,1,2.3,1.7,1.1,2.1,2.4,3.2,4.8,3.4,3,.2,3.8-.5,2.9-3.4,1.7-.9,2.6.4,3.6,1.4.8.8,1.5,1.8,2.4,2.4.6.4,1.5.2,2.2.3,0-.3.2-.5.3-.8-1.7-1.3-3.3-2.5-5-3.8.9-1.4,1.6-.8,2.6,0,1.4,1.2,2.9,2.4,4.5,3.3.4.2,1.5-.4,1.9-.9.6-.8.9-1.8,1.5-3.1,1.8,3,3.8.5,6,.3.3,2.7-1.7,3.4-3.4,4.4,0,.2.2.4.4.6.6-.3,1.3-.4,1.9-.8,4.1-2.6,8.5-4.8,13.4-5.7,0,1.1-2.4,2.7-7.3,5,0,.8,0,1.7.2,3.2-1.4-.2-2.6-.5-3.8-.6-.8,0-1.6.2-2.4.3.2,1.1.3,3.2.7,3.3,3,.4,6,.5,9.1.5s.8-.9,1.1-1.4c.4-.7.8-1.5,1.1-2.3.3,0,.5.2.8.3-.3,1.1-.6,2.2-1,3.2,4.9.3,10.3,2.3,14.1-3.3.5.3,1,.6,1.7,1,.3-1.5,4.2-1.7,1.4-4.4-.9.5-1.6.9-2.4,1.4,0-1.5,1.6-2.7,4.7-3.6-.8-.4-1.3-.7-1.9-.9.4-2.6,1.4-3,3.4-1.7.5.4,1.3.6,1.9.5,1.8-.5,2.6.6,2.4,1.9-.2,1.7.3,2.3,2,2.5.6,0,1.1,1,1.8,1.6-3.3,1.8-5.6-.2-8.5-1.6l-.2,7.9c-1.2-1.6-2-2.5-3-3.8-.5,1.9-.7,3.1-1.2,4.2-.2.5-.9,1.4-1.2,1.3-2.1-.3-2.9.9-3.2,2.7,0,.2-.6.4-.9.6-.4-.7-.8-1.4-1.1-2-2.5,0-5.1-.3-7.7-.1-2.3.1-4.5.7-6.2.9-.8-.8-1.2-1.5-1.7-1.7-4.2-1.3-7.2.8-10,4-.5-2.7-2.3-2.6-4.3-2.3,1.1,2.5,5.3,3.8,2.2,7.6.3,0,.5.2.8.3,1.2-.5,2.4-.9,3.7-1.4.2,1.7,1.6,2.2,3.4,2.7,1,.3,1.6,2.2,2.7,3.7.5,0,1.5-.2,2.5-.4,0,1.6-.9,2.3-2.5,1.9-3.4-.9-6.5.5-9.5,1.8-.4.2-.5,1.2-1,2.4-.8-.5-1.7-1.4-2.8-1.7-2.5-.7-5.1-1.2-7.6-1.7,0,0-.7,1.4-.6,2,0,.6.8,1.4,1.3,1.5,2.4.4,4.8.5,7.2.8,0,1.3.3,2.7-.2,3.8-.7,1.5,0,2.1,1,2.3,1.1.2,2.3,0,3.4-.2,1.6-.4,3.1-1.1,4.7-1.5.2,0,.9.9.8,1.1-.8,2.1.6,2.7,2.2,3.2.6.2,1.1.6,1.6,1.4-1,0-2,.3-3,.1-3-.4-6-.9-9.1-1.4-1.6-.2-2.8-.2-2.7,2.1,0,1-1.2,2-1.9,3-.2-.1-.5-.2-.7-.3-.3-.9-.6-1.8-.9-2.9,1.9-.3,1.8-1.2,1.2-2.7-.4-.9-.3-2.1,0-3.1.2-1.5-.8-2.6-2.4-2.3-1.9.4-3.8.7-5.6,1.1,0-.3-.2-.6-.3-.9,1.2-.7,2.3-1.4,4-2.4-2.5-.8-5.1-.4-5.8-3.2,1.3-.8,2.6-1.6,4-2.5,0-.2-.2-.5-.3-.7-.6,0-1.5,0-1.7.3-.9,1.4-1.8,1-2.8.2-1.8-1.4-3.6-2.8-5.7-4.4,2.4-.5,3.6.5,5.1,1.2,2.3,1,5.3,2.6,8.4.7-.2-.8-.4-1.6-.7-2.6-.6.3-1.1.5-1.9.9v-4.2c-1.3-1.9-2.6-3.7-3.9-5.5-.4-.6-1-1.1-1.6-1.4-1.6-.8-3,0-3.5,1.9-4,1.1-6,4.3-7.7,7.8-.2-.2-.5-.3-.7-.5,1.2-2.4,2.4-4.8,3.7-7.1,1.1-1.9.9-3.3-.8-4.7-.4-.3-.6-.9-1-1.3.6-.1,1.1-.4,1.6-.3.5,0,1.4.7,1.3.8-.7,2.1,1.3,2.2,2.1,3.1.3,0,.6-.1.9-.2v.4h-.1ZM150.95,163c-1,2.3-2.2,3.4-4.1,1.3-.2-.2-1-.1-1.2.1-.2.2-.3.9,0,1.2.8,1.3,1.8,2.5,2.7,3.8,3-2.4,4.1-4.6,2.8-6.4h-.2Z"/>
                <path class="cls-3" d="M297.85,290.2c-1,.3-1.6.4-2.6.7,1.1.9.8,4.3,3.1,1,.2-.2,1.1-.3,1.2-.1.3.3.4.9.3,1.4,0,.6-.4,1.1-.7,1.7.2.2.4.3.6.5,1-1.1,1.9-2.6,3.2-3.1s3.1,0,5.4,0c-.9,1.1-1.2,1.8-1.6,2-2.2,1.1-3.2,2.5-3.1,5.1,0,2.4-1.2,4.8.6,7.2.3.3-.3,1.3-.4,2,0,1.1-.2,2.3-.3,3.1,2.8-.3,5.1-.6,7.9-.9-2.5,2.2-4.6,4-6.6,5.9-1.2,1.1-1.2,2.3-.7,4,.7,2.3.6,4.9.6,7.3s-1.4.9-2.5,1.7c-.2-2.4-.3-4.2-.6-6,0-.8-.9-1.4-1.4-2.1-.7.6-1.5,1.2-2.1,1.9-.4.4-.5.9-1,1.7-.4-1-.6-1.8-1-2.8-1.3,1.4-2.5,2.5-3.5,3.6-2.1-4-5.2-.7-8.1-1,.2-.6,0-1.5.5-1.8,2.2-1.9,2.2-4.3,1.9-6.9,0-.9.5-1.8.6-2.8,0-.9-.3-1.7-.5-3.1,1.1.8,2,1.4,3,2.1.6-1.4,1.2-2.8,1.8-4.3-1-.1-2.1-.2-3.3-.4,0-3.9,4.9-4,5.5-6.8-1-.8-2.4-1.6-2.3-2.1.2-1,1.1-1.9,2.1-3.3-.5-1.7-2.4-.4-3.7-.7-1.4-.3-2.6.3-3,1.8-.3,1.4-1.1,2.3-2.5,2-1.2-.2-2.4-.9-3.6-1.4,0-.3.2-.6.2-1,.9,0,1.8-.3,2.7-.2,2.1.3,3-.9,3.5-2.5.6-1.9,1.8-2.2,3.5-1-.2-.8-.4-1.3-.3-1.7,0-.8.3-2,.7-2.1,2.9-.6,3.6-3.4,5.2-5.2.4-.5.8-1,1.5-1.8.5,3.1-4,5-.5,8l.3.4h0ZM292.05,314.7c.4-.2,1.1-.3,1.6-.7,1.2-1.1,2.2-2.5,3.6-3.3,1.7-1,2.5-2.1,2.6-4,0-.3.3-.8.6-1,2-1.3,1.5-3.2,1.5-5s-.9-1.6-1.9-.8c-.8.7-1.5,1.4-2.1,2.3-1.6,2.4-3.3,4.8-4.5,7.3-.8,1.5-.9,3.3-1.3,5.1h0l-.1.1ZM296.55,316.5c1.6.5,3.2-.7,3.4,1.3.5-.1,1.2-.2,1.3-.4.8-2.3,2.1-4.6.4-7.3-1.7,2.1-3.3,4.1-5.1,6.4h0Z"/>
                <path class="cls-3" d="M270.55,400.6c-1.7-.3-3.6-.5-5.5-.8-1.9,1.4-4,3-6.2,4.4-.6.4-1.5.4-2.3.5,0-.7,0-1.5.4-2.2.3-.7.9-1.2,1.4-1.8-1.3-.6-2.6.3-3.6,2.5-.9,2-.4,3.3,2.2,4.8-.7,0-1.1.3-1.5.2-1.6-.4-2.2.2-2.2,1.8s-.6,1.5-.9,2.2c-.4-.1-.8-.2-1.2-.4.7-3.4,1.4-6.9,2.1-10.3,0-.3.2-.6.4-.8,2.4-2.6,2.5-3.2,0-5.5-1.7-1.5-3.4-3.4-6.1-1.8-.3.2-1.2-.6-1.8-1,.5-.6.9-1.3,1.7-2.4-.8-.8-1.9-1.9-3.1-3.1-1-1.1-1.9-2.3-3-3.2-.7-.5-1.7-.6-3-1-.3-1.6-.5-3.9-3.3-4.5-.8-.2-1.6-.6-2.1-1.1-1.4-1.3-3-2.5-4.1-4-1.6-2.2,2.2-2.8,1.3-4.9h.8c.4,1.4.8,2.9,1.2,4.3,3.1.2,4.9,1.8,5.4,5.2,2.3-1.2,3.9-.9,4.7,1.9.4,1.3,1.4,1.2,2.2.2.4-.5.8-1.1,1.2-1.6.3.1.6.2.8.3-.3.8-.7,1.7-.7,2.5s0,2.9.7,3.2c.9.5,2.4,0,3.5-.4.6-.3.9-1.4,1.5-2.5h-3.1c.4-1.8,2.7-3,4.4-2.1,2,1,3.6,1,5.6.3,1.2-.4,2.6,0,3.9,0v.6c-.6.5-1.1,1-2,1.7.7.5,1.2.8,1.6,1.1.9-.9,1.6-1.7,2.4-2.3,0,0,1.2.7,1.1.9-.2.7-.7,1.3-.9,1.7,1,1.8,1.9,3.5,2.9,5.3-1.2.5-2.5,0-4-1.5-1,1.3-1.9,2.6-2.9,3.8l.4.4c.5-.2,1-.4,1.6-.7-.3,1.3-.5,2.4-.8,3.6-2.6.4-2.6,2.3,0,5.7.3-.8.6-1.6,1-2.2.5-.6,1.2-1.5,1.8-1.5,2.3,0,3.4-1.6,4.9-2.9-.2-.7-.4-1.4-.5-2.2,2-.3,3,.5,2.8,2.3-.3,2.3-.6,4.6-1,7.1v.2h-.1ZM254.55,392.2c.4.8.8,1.6,1.5,3,1.1-1.3,2.1-2.2,2.7-3.4.8-1.6,1.1-3.5,1.9-5.1.9-1.7.4-2.7-1.1-3.5-2-1-3.4.4-4.6,1.6-.4.4.3,1.9.5,3v3.4c-.2.2-.6.6-1.1,1h.2,0Z"/>
                <path class="cls-3" d="M219.65,363c.6.3,1.2.5,2.4,1,1.1-3,2-5.8,3.1-8.6.2-.5.5-1.3.9-1.5,2-.8,2.9-2,3.2-4.3.3-2,1.8-3.8,2.8-5.7,1.3-2.4,2.7-4.8,3.9-7.3.3-.6-.5-1.6-.8-2.5-1.1.4-2.7.5-3.3,1.4-1.3,1.7-2.3,3.6-3.2,5.6-.7,1.4-.9,3-1.6,4.4-.8,1.5-1.9,2.9-2.9,4.3-.8,1.2-2.5,2.2-1.5,3.6-.9,1.3-1.7,2.5-2.5,3.5-1.2,1.5-2.3,3.1-4.9,3.1.7-.7,1.1-1.2,1.8-2-3.3-.3-6.4-.6-9.4-.9v-.9c2.7.2,5.4.2,8,.6,1.7.2,2.8,0,3.8-1.6,1.1-2,2.5-3.8,3.7-5.6.2-.4.5-.8.6-1.2,0-1.8.7-2.9,2.1-4.3,1.5-1.5,2.2-4,3.2-6,.6-1.2,1.2-2.5,1.9-4-2.1-1.3-4.6-2.8-7-4.3v-.5c.7.1,1.4.2,2.1.3,1.6.3,3.1.7,4.7,1,1.6.3,2.7-.2,3.4-1.9.9-2,2.1-3.9,3.2-5.8.2.1.5.2.7.4-1.3,2.8-2.7,5.6-4.1,8.5,1.6.5,3.1,2.4,4.8.3.2-.3-.8-1.6-1.4-2.8,0,0,.6-.5,1.3-.6,2.9-.7,3.9-2.7,2.6-5.5-.3-.8-.7-1.5-1.3-2.6,2.6-1.1,3-4,3.5-6.9,0-.6,1-1.1,1.5-1.6.2.6.5,1.3.5,1.9,0,.9,0,1.9-.2,3.1,1.2.3,2.5.6,4,1,0,2.1.9,4-2.3,5.2-1.5.6-3.4,2.9-3.2,5.7.2,2.1-.6,4.3-1.2,6.4,0,.4-1.3.6-2,.8-.6.2-1.6,0-1.8.4-1.2,2.1-2.2,4.3-3.2,6.4-.4.9-1,1.8-1.4,2.7-.3.6-.3,1.4-.4,2.1.6,0,1.4.4,1.9.2,1.5-.5,3-1.1,4.8-1.8-.9,3.6-4,3.3-5.9,4.5-1.5-1.5-3.1-.1-5,4,1.5,0,3,.6,4,0,2.5-1.3,4-.3,5.8,1.8h-4.1v.3c1.5.6,3,1.2,5.3,2.1-1.6,1.2-2.6,1.9-3.6,2.7-.2,0-.4-.2-.6-.3.8-2.6-.7-3.3-2.7-3.5-.2,0-.5,0-.7-.2-4.6-1.2-7.1,0-8.9,4.5-.3.8-.7,1.8-1.3,2.3-.7.6-1.8.9-2.7,1.3-.4-.9-.7-1.9-1.1-2.8.2-.1.5-.2.7-.4v.5h0Z"/>
                <path class="cls-3" d="M199.25,227.2c-2,.1-3.9.2-5.9.3,3.2-4.3,7.6-3.2,11.8-2.8.3-2.7,1.9-4.1,4.7-4.2.7,0,1.7-.2,1.9-.6,1.4-2.5,4.3-2.8,6.3-4.4.7-.6,1.2-1.5,1.8-2.2.3-.4.8-.6,1.4-.6-1.4,3.9-4.4,6.4-8.1,8.7,1.4,1.2,2.5,2.2,3.9,3.4l-.2.5c1.1,1.4,2,2.5,2.9,3.6-.2.2-.4.4-.7.7-1.1-.7-2.3-1.2-3.3-2-3.2-2.5-6.2-2.7-9.5-.4-.5.4-.6,1.4-1.2,2.7-.4-.1-1.4-.6-2.4-.7-.8,0-1.9.2-2.2.7-.4.6-.3,1.7-.4,3-1.2.3-2.9.8-4.4,1.2-.3,1.3-.6,2.7-1,4.3-2.7-1.6-1.4-3.2-.6-5.2-1.9.2-3.6,0-4.9.5-.7.3-1,1.8-1.1,2.8,0,.5.7,1,1.1,1.5.7.8,1.3,1.7,2,2.5-1.3,1-2.7,1.9-4,2.9-.2-.2-.3-.4-.5-.6.5-.7,1-1.4,1.7-2.3-1.4.4-2.4.7-3.5,1,0-.2-.2-.3-.3-.5.6-.7,1.1-1.4,1.7-2.1-1.9-3.4-3.1-4.1-5.5-2.9,1.2,2.4,0,4.9-2.4,5.2-1.6-6.5-1.8-9.7-.6-11.8.6.1,1.3.3,1.9.5,0-.1.2-.3.4-.4-.6-.7-1.2-1.5-1.9-2.4.4,0,1-.3,1.1-.2,1.2,1.9,2.8,1.3,4.4.8,2-.6,3.7-.3,5.1,1.5.7.9,1.7,1.7,2.7,2.4.5.3,1.4.6,1.8.3,2.1-1.3,4-2.7,6-4v-.7h0Z"/>
                <path class="cls-3" d="M26.95,305.5c-1.7,1.8-3.5,3.8-5.3,5.7l-.6-.6c1.5-1.9,3-3.8,4.5-5.8.4-.5.6-1.2.9-1.9.7-1.3,1.2-2.9,2.2-4,2.2-2.3,2.7-4.9,2.1-7.9,0-.4,0-.7.1-1.5.6.9,1,1.5,1.4,2,2.4-1.7,2.4-2.9,0-6.7-.6.4-1.1.8-1.8,1.3-.2-3.6-1.8-2.1-3.4-.7-1.1-2-2.2-3.9-3.4-5.8.2-.1.3-.2.5-.4,1,1.2,2,2.4,3,3.7.9-2.3,3.6-3.1,8-2.1-.6.2-1.3.4-2.2.6.8.6,1,.8,1.2.8,2.8.1,5.3,1.4,8.4.4,2.4-.8,5.4.3,8.1.5,2.3.1,4.6.1,7,.2,1.9,0,3.8.3,5.8.3s3.1-.5,4.6-.7c3.4-.5,6.8,1.2,10.5-.1,2.3-.9,5.5.7,8.4,1.5-1.4.1-2.7.2-4.1.3-.5,0-1,0-1.4.2-2.2.4-4.5,1-6.7,1.2-5.2.3-10.5.5-15.7.6-1.2,0-2.5-.4-3.7-.6-.4,0-.8-.2-1.2-.2-1.5,0-3.1.2-4.6.3-2.6.3-5.3.2-6.4,3.6-.2.7-2.4,1.3-3.5,1-1.9-.4-3,.1-3.4,1.9-.6,2.3-1.7,4.1-4.3,4.6-.5,0-.8.9-1.2,1.4-1,1.5-2,2.9-2.9,4.4-.4.6-.6,1.4-.9,2.3v.2h0Z"/>
                <path class="cls-3" d="M398.15,302.8c.2-1.1.3-2.2.5-3.6,1.8-.6,4-1.3,6.4-2,0-.8.3-1.6.4-2.4.9-.4,1.7-.8,2.6-1.1v-.8c-1-.2-2-.6-3-.7-1.1,0-2.1.2-3.2.3,0-.2,0-.5-.2-.7.9-.4,1.9-1,2.9-1,3.7-.3,5.1-1.6,5.5-5.3,0-.6.4-1.3.6-1.9,1.6,1.5,2.9,2.8,4.1,4-.6,1.1-1.4,2.4-2.3,4-.9,0-2.3.1-3.8.2v1c.8.2,1.8.7,2.6.5,2.3-.4,4,.3,5.2,2.3,1.3,2.1,3.2,2.5,5.4,2.3.6,0,1.3-.1,1.9,0,1.3.3,3.2.6,2.4,2.4-.4,1-2,1.7-3.3,2-.9.2-2.3-1.2-2.6,1,0,.1-.9.2-1.3.1-1.2-.3-2.4-.7-3.7-1.1,0,.2-.2.4-.3.6,0-.5-.2-1-.3-1.4-.9.6-1.8,1.2-2.6,1.7-.2,0-.5-.2-.7-.2,0,2,.2,4,.3,6.7-1.2,1.3-3.1-.8-4.9-.6-.2,0-.5-.4-.8-.5-3.1-1-3.2-1.1-1.8-3.9-1.8-1.1-4.3.4-7.5,4.5-.4-3-.7-5.6-1.1-8.9.6,1.1,1,1.8,1.4,2.4h1.2v.1ZM407.15,299.5c-1,.9-2,1.7-3.2,2.9,1.6,1.1,3,2,4.8,3.3,0-1.5,0-2.4-.3-3.2-.2-.8-.7-1.5-1.3-2.9h0v-.1Z"/>
                <path class="cls-3" d="M214.65,256.6c-.4-2-.7-3.3-.9-4.6v-.5c.2-.3.4-.8.7-.9,2.3-.6,1.9-4.5,5-4.1,1,.1,1.9,0,2.9.1,3.6.4,7.3.8,10.9,1.3.6,0,1.1.5,1.6.7.6.2,1.2.3,1.9.5,0-.7.3-1.3.3-2s-.2-1.2-.4-2c3.4.3,2.6,4.2,4.7,5.6.8.9,1.7,1.9,2.7,2.9-3.2,2.1-6.2,2.3-9-1.3,0,.2-.2.4-.3.6,0,.6.2,1.2.3,1.8h-2.8c.6.5,1.2,1,1.8,1.4.4.3.9.4,1.2,1.2-1.3-.3-2.5-.9-3.8-.8-1,0-1.9.9-3.2,1.5.6-2.3-.4-3.3-2.5-3.1-.9.1-1.9-.2-2.8-.3-1.7-.2-3.3-.9-4.6,1.2-.5.8-2.6.6-3.7.8h0Z"/>
                <path class="cls-3" d="M263.45,331.7c.5-1.5.8-2.8,1.2-4.1-.4-.1-1.1-.5-1.2-.3-.5.4-.8,1.1-1.4,2-2.5.6-2.8,1.1-2,4.5,0,.5-.4,1.1-.6,1.7h-.6c-.2-2.2-.5-4.3-.8-6.8-1.5,1.5-2.5,2.5-3.5,3.6-.3-.2-.5-.4-.8-.6.3-.8.7-1.7,1.1-2.6-1.5-.3-2.8-.7-4.2-1,0-.2,0-.4-.2-.6,3.6-.9,7.1-2,8.2-6.7,2.7,1.1,5.5,2.2,8.8,3.6,1.1-.7,2.1-3.4,5.2-2.6-.5.9-.8,1.7-1.3,2.7,1.9,0,2.6-.9,2.1-2.1-.7-2.1.6-2.9,2-4.1.3.5.7,1,.8,1.2,1.8-.7,3.5-1.3,5.3-2,.2.3.4.6.6.8-1.2,1.6-2.4,3.2-3.5,4.7-.5.7-1,1.5-1.6,2.2-.3.4-.9,1-1.2.9-3.2-.6-3.3,2.2-4.7,3.5,0,.2.3.4.4.6.5-.3,1-.5,1.6-.8.2.6.5,1.3.8,2.1,1-.7,1.7-1.2,2.5-1.8,0,.1.2.2.4.3-.8,1.5-1.5,3.1-2.6,5.1-.8-1.1-1.4-2-2.1-3.1-.4.4-.9,1-1.8,1.9v-2.9c-1.6.8-3,2.7-4.8.9,1.7-1.7,3.3-3.2,4.9-4.8-.3-.3-.5-.6-.8-.9-2,1.7-4,3.4-6,5.2l-.2.3h0Z"/>
                <path class="cls-3" d="M388.15,160.5c-.4,1.3-.6,2-.8,2.7,1.4.5,2.6.9,3.9,1.3.2-.1.3-.2.5-.3-1.9-2.5-3.8-5-5.7-7.6.3-.2.5-.4.8-.6.7.8,1.4,1.5,2,2.4.9,1.2,1.7,2.6,2.6,3.8,1.2,1.6,2.6,2.8,4.9,2.1.9-.3,2,.2,3.1.6-2.3,0-4,3.1-6.6.9-.2-.1-.5-.1-.7,0-7,1.4-13.9-.2-20.9-.9-2.2-.2-4.5.3-7.1.5-1.4-3.5-4.5-.9-7.3-.5v-5.3c2.5,0,5.3.1,8.2.2h.7c3.2-3.1,5.4.2,8,1.2.7.3,1.6,0,2.2.4.7.3,1.2,1,2.1,1.7,1.2-2.2,2.6-4.3,5.4-3.9,1.6.2,3.1.9,4.8,1.5v-.2h-.1Z"/>
                <path class="cls-3" d="M85.05,179.1c3.7-.7,8-.6,7-6.5l.7.2c0,.8.3,1.7.5,2.8,2.2.3,4.6.7,7,1.1.4,0,1,0,1.1-.2,1.5-2.5,3.7-1.6,5.8-1.3,1.3.2,2.6.3,3.8.2.6,0,1.3-.5,1.5-.9.2-.3-.3-1.1-.7-1.5-1.2-1.4-2.5-2.7-3.8-4-.5-.5-1.3-.6-2.1-1.5,2.2-.3,4.4-.5,6.6-.8,3.2,5.3,6,6.9,8.6,4.9.2,1.1.3,2.1.5,3.4,1.1-.4,1.9-.7,2.7-1,.6,1.5,1.2,3,1.8,4.5.8-.3,1.5-.6,2-.8v6.6c-3.4-2-6.9-4.2-10.4-6.3-.8,1.3-1.3,2.1-2,3.2-.5-4.3-.7-4.9-4.9-3.7-4.5,1.2-8.9,0-13.4,1.2-3.9,1-8.1.8-12.1,1.1v-.6h-.2v-.1Z"/>
                <path class="cls-3" d="M404.25,366.5c4.5.3,8.8.7,13,1v.9c-.5.1-.9.3-1.4.3-2.6.3-5.2.7-7.8.7s-2.5-.3-3.6-.9c-1.3-.7-2.2-.8-3.4.2-2.3,2.1-7.9,1.2-10.1-1.1-.9-1-2.5-1.5-4.1-2.4.8,0,1.4-.3,2-.2,1.6.3,3.2.5,4.7,1.2,3.1,1.3,5.5,0,7.7-1.9s2.2-2-.2-4.8c.8,0,1.4-.2,1.9-.1,4.1.5,7.7-1.1,11.2-3,.9-.5,1.7-1.7,2-2.8.8-2.4,4-4.6,6.5-4.1,1.8.4,2.2,2.1.8,3.8-2.5-1-3.9,0-5.1,2.6-.6,1.3-1.8,2.3-2.9,3.6l2.8,1.4v.6c-1.4,0-2.8,0-4.2.2-1.1.1-2.3.4-3.3.9-1.9.9-3,3.1-5.6,2.8-.3,0-.7.6-1.1,1h.2v.1Z"/>
                <path class="cls-3" d="M161.75,226.2c-1.3.3-2.6.5-3.4.7-1.8-.9-3.3-1.7-5.1-2.6,1.4,0,2.7.3,4,0,1.1-.2,2.5-.7,2.9-1.5.4-.7,0-2.5-.8-3-1.5-1.1-3.3-1.8-5.1-2.3-1.7-.5-3.6-.7-5.3-1.3,4.9-1.6,9.3,2.7,14.2,1.3,0-.3,0-.6.2-.8-1.5-.3-3-.5-4.4-1-.9-.3-1.7-1.1-2.6-1.6.8-.4,1.7-.9,2.5-1.2.6-.2,1.3-.2,1.7-.5,3.7-2.4,7.4-1.1,8.4,3.1s1.4,2.9,3.5,2.7c2-.2,4.4,1.1,5.7-1.7,0-.3,1.2-.1,1.5-.1.7,4.2-1.7,6.9-4.5,10.2.5-2,.9-3.4,1.3-4.9-2.5-1.5-2.3,2.8-3.9,2.1-1.5-1.4-2.7-2.7-4.1-3.6-1.3-.7-1.8.4-2,1.6-.2,1.2-.6,2.4-.9,3.7-.3,0-.5-.1-.8-.2,0-.9.2-1.8.4-3.4-1.9.9-3.4,1.6-5.1,2.4.7.8,1.2,1.4,1.7,2h0v-.1ZM161.45,218.7c-.3.1-.5.3-.8.4.3.8.7,2.4.9,2.4,1.2,0,2.3-.6,3.5-1v-.8c-1.3-.4-2.5-.7-3.6-1.1h0v.1Z"/>
                <path class="cls-3" d="M102.25,193.1c1.6-.3,2.7-.5,3.8-.7.6-.1,1.3-.3,1.8-.1,2,.8,3.8,1.2,5.4-.8.2-.2.9,0,1.3.1.8.2,1.5.5,2.3.8,0-.2.2-.4.4-.6-.8-.8-1.6-1.6-2.1-2-1.8,0-3.2,0-4.7.1,0-.3,0-.6-.2-.9.6-.4,1.3-.8,1.6-1-1-1.7-1.8-3.5-2.9-5.1-.8-1.1-1.4-2.5-.2-3.1s3.2-.1,3.9.7c1.6,1.9,3.2,3.2,5.7,3.6.8.1,1.4,1.1,2.4,1.9-1.8.3-3.1.5-4.4.8-.4.1-1.1.4-1.2.7,0,.4.3,1,.6,1.4.2.3.8.4,1,.7.7,1.1,2,2.4,1.9,3.5-.2,2.1-2.4,3.3-4.1,3-2.2-.3-3.2.8-4.4,2-.2-.2-.4-.3-.4-.4-.4-.8-.8-1.6-1.3-2.3,0,0-1.1.5-1.1.6.3.8.5,1.8,1.1,2.4,1.5,1.3,3.1,2.5,4.7,3.7-1.6,1.8-2.9,1.4-4.4,0-1.7-1.6-3.9-2.6-5.7-4.1-1-.8-1.8-1.9-2.6-2.8.2-.2.4-.4.6-.7,1.1.8,2.3,1.6,3.4,2.4.2-.2.4-.4.6-.6-1-1.1-1.9-2.1-2.9-3.2h.1Z"/>
                <path class="cls-3" d="M354.75,324.8c-5.3,1.5-10,2.9-14.7,4.3,0,0,0-.2-.2-.3,2.5-1.8,5-3.6,7.5-5.4,6.2,2.7,5.6-3.5,8-6,.5.2,1.1.4,1.7.7,1.2-3.5,4.3-3.9,7.1-3.8,2.7.1,4,2.7,5.8,5-1.5.5-2.6.8-3.7,1.1v-.5c-1-.4-2.2-1.3-2.9-1-1.2.5-2.7,1.7-2.8,2.7-.2,2.9-1.6,4-4.2,4.1-.2,0-.4.2-.9.6,2.6.6,5,1.1,7.4,1.6v.8c-4.8,1.2-9.7.9-14.8,1.1,1.4-3.5,5.6-1,6.7-5h0Z"/>
                <path class="cls-3" d="M302.75,227.7c-1.8-.3-3.4-.7-5.5-1.1,1-.6,2-.9,2.2-1.5.4-1,.9-2.3.5-3.2-.6-1.6-1.6-.5-2.5,0-2.1,1.3-4.2,2.6-6.4,3.9-.4.2-.9.3-1.3.3-1.6,0-3.3-.3-4.7.3-2.3.9-2.8-1-4.7-2.2,2.4-.4,4.3-.8,6.7-1.2-1-.5-1.7-.8-2.3-1.1v-.7c1.1-.4,2.2-.9,3.3-1.2,2.7-.8,4.6-3,5.1-5.7.2-1,.9-1.8,1.4-2.7.3.1.7.3,1,.4-.5,1.6-1,3.1-1.4,4.3,1.6,0,3.6.2,5.4,0,.8,0,1.4-.9,2.2-1.3,1.4-.8,2.9-1.5,4.8-2.5-.4,2.7-2.8,5-4.7,5.4-.8.1-1.5.7-2.2,1.1.9.2,1.7.5,2.6.7.3,0,.6-.1.7-.1-.6,1.2-1.6,2.4-1.6,3.6s.9,2.7,1.5,4.5h-.1Z"/>
                <path class="cls-3" d="M201.55,359.6v-1.7c0-1-.2-1.9-.4-2.9,1,0,1.9.2,3.2.3-.9,2.2-2.1,4.1-.3,6.1.3.3-.2,1.5-.5,2.2-.4.7-1.5,1.4-1.4,1.9.3,1.5,1.1,2.9,1.7,4.3h.7c.7-1.4,1.4-2.9,1.9-4,1.3-1.3,2.5-2.4,3.7-3.6.2,0,.4.1.6.2-.5,1.5-1,2.9-1.5,4.4-.3,1.1-.4,2.4-.9,3.4s-1.2,2.1-2.1,2.5c-.7.3-2.1,0-2.8-.6-.9-.6-1.6-1.7-1.9-2.7-.7-2.3-2.1-3.6-4.4-3.4-1.1-2.5,0-4.8-1.5-7.5-2.6-4.7-6.1-8.7-8.7-13.2-.7-1.2-1.3-2.4-1.9-3.6.3-.2.6-.4.9-.6,2.8,3.7,5.5,7.5,8.3,11.2.8,1.1,1.6,2.1,2.4,3.1.2.3.8.6.8.8-.4,3.1,2.1,2.8,4.2,3.5h0l-.1-.1Z"/>
                <path class="cls-3" d="M55.25,402.2c.6-1.5,1-2.4,1.4-3.5-1.3-1.1-2.4-2.7-4.7-1.5-.4.2-1.4-.7-2-1-1,0-2.2.5-2.6.1s-.4-1.7-.5-2.6c-1.7-.7-3.6-1.5-5.6-2.3.1-.4.2-.7.3-1.1,3.5.7,7.2-1.1,10.6,1.3.4.3,1.3.2,1.9,0,3.3-.5,6.5-1,9.8-1.5.5,0,1.1,0,2.2.2-.8,2.7-1.5,5.2-2.3,7.9-4.2-1.6-5,2.9-8.5,3.9h0v.1Z"/>
                <path class="cls-3" d="M357.75,179.3c-3,.3-5.9-2.5-8.5-.5-1.1-.6-1.9-1.5-2.7-1.5-6.4-.5-12.8-.9-19.3-1.2-.9,0-2.1.6-2.6,1.4-.7.9-.9,2.7-2.4,2-1.6-.7-.6-2,0-3.1v-.9c-3.5-.9-6.9-1.8-10.3-2.7v-.6c.9,0,1.7-.3,2.6-.2,2.8.2,5.6.5,8.4.6.8,0,1.6-.6,2.3-1s1.2-.9,1.8-1.3c.3.7.6,1.5,1,2.5,1.1,0,2.4.1,3.8,0,5.6-.3,10.9.5,16,3,2,1,4.3,1.2,6.5,1.8,1.2.3,2.5.7,3.7,1.1,0,.2,0,.4-.2.6h-.2.1Z"/>
                <path class="cls-3" d="M147.75,310.5c0-.2.3-.7.6-1.3-1.6-1-2.3-2.4-1.9-4.5.4-2.4-1.7-1.9-3.3-2.8,1.1-.4,2.2-1,3.4-1,2.1-.2,4.2.3,5.5-2.1.4-.7,1.6-.9,2.5-1.1.4,0,1,.3,1.2.7,0,.2-.3.8-.5,1.2-1.1,2.3-3,3.8-5.1,5.1-.4.2-.5.9-.7,1.3,2.3.7,4.7,2.2,6.5,1.7,2.8-.7,5.7-.9,8.4-2.3,1.3-.7,3-.5,4.7-.7-.3,1.6-.5,3.2-.9,5.2-1.9-2.9-3,.4-4.8.4-.4-.6-.9-1.3-1.5-2.2-4.2,3.7-8.8,5.3-14.2,2.4h.1Z"/>
                <path class="cls-3" d="M266.05,355.7c-.9-2.7-1.8-5-2.6-7.4-1-3.2-3.1-4.7-6.4-5-2.8-.2-5.5-.6-8.7-.9.7-1.9,1.3-3.5,2-5.2.2,0,.4-.2.6-.3.2.6.6,1.2.5,1.8-.2.8-.7,1.6-1.4,2.9,3.2.6,6.1,1.1,9,1.5.4,0,1-.9,1.7-1.5,1.7,2.3,3.6,4.8,5.7,7.5.6-1.1,1-1.8,1.5-2.7,1.5,1.7.7,3.3.3,4.8-.3,1.2-.4,2.5,0,3.6.4,1.9,1.3,3.7,1.8,5.5.2.9,0,2-.2,2.8,1.4.3,2.5.5,3.5.7v.7c-.6.4-1.3.6-1.7,1.1-.5.7-1.3,1.9-1.1,2.4,1.4,2.9-1.1,4.4-1.7,6.5h-.7c0-.9,0-1.7.2-2.5.2-2.3.5-4.6.6-6.9,0-3-2.1-4.6-5.2-4.1-5,.7-10,1.2-15,1.8-.5,0-1-.1-1.5-.5,6.7-.9,13.4-1.9,20.1-2.6,0-.3,0-.6-.2-.9-1.1-.3-2.3-.5-3.3-1.1-.5-.3-.7-1.2-1.1-1.9.7-.2,1.4-.4,2-.4s.9.1,1.6.2h-.3v.1Z"/>
                <path class="cls-3" d="M373.35,136c1.8-2.3,3.7-4.7,5.4-7,1.2-1.6,2.6-2.3,5.3-1.6-1.3,1-2.2,1.8-3.2,2.5h.2c-.7,1-1.5,1.8-2.2,2.6-.2.2-.7.5-.6.7.6,1.8-.9,2-1.9,2.5-2.6,1.4-2.7,2.1-.9,4.3,1.7,2.2,3.1,4.6,4.6,6.8-.3.2-.6.4-.8.6-.7-1-1.5-2-2.2-3.1-3-4.2-3.8-4.2-7.1.4-1-1.6-1.9-2.9-2.7-4.3,0-.2.3-.4.4-.7,2,2.4,3.6.7,5.4,0-.6-2.1-1.3-3.7-3.3-4.8-2.2-1.2-4-3.1-6.1-4.5-1.2-.8-2.5-1.3-3.8-2,1.4-.8,4.1-.1,4.8.9.7,1.1,1.7,2.1,2.5,3.1.3-.2.7-.5,1-.7-1.4-2.4-2.7-4.8-4.1-7.1-.9-1.4-1.8-2.8-2.8-4.2.2-.2.5-.3.7-.5,1,1.5,1.9,2.9,2.9,4.4.2,0,.4-.2.5-.3,0-1.4-.3-2.7-.4-4.1h.7c1.1,2.9,2.1,5.7,3.2,8.6,0,.4.3.9.6,1,2.7.9,3.2,2.9,2.7,5.4,0,.2,0,.5.3.7,0,.2.4.2.8.5h0l.1-.1Z"/>
                <path class="cls-3" d="M274.95,312.5c.9-2.1.3-3.6-1.6-4.5-.7-.3-1.5-1-1.5-1.6s.9-1.1,1.4-1.6.8-.4,1.6-.7c-1.5-2.1-2.8-4-4.5-6.5,3.3-.7,6.6-1.5,9.8-2.2,0,.3.3.6.4.9-.6,1-1.3,2.1-2.1,3.4,1,.4,1.8.6,2.7.9,0,0-.3.1-.4.2,1.3,2.1,2.5,4.1,3.5,5.8-1.6.5-3.4.5-4.1,1.4-.8,1-.6,2.9-.8,4.6h-4.4v-.1Z"/>
                <path class="cls-3" d="M240.35,216.2c3.2,0,6.3.1,9.3.2,2.9,0,3.1.3,3.3,3.4,2.3.3,4.7.7,7.2,1,0,.3-.3.9-.6,1.6.5.2,1.1.3,1.5.7.3.3.4.9.5,1.3-.5.1-1.1.4-1.6.4-1-.1-2-.4-3-.7-.9-.3-1.8-.5-2.7-.9-1.1-.6-2-1.4-3.1,0,0,.2-.7.4-.9.3-2.6-1.3-5.1-2.7-7.7-4.1-.7-.3-1.4-.7-2.1-.7-2.4,0-4.6-.4-6.2-2.4-.3-.3-.5-.7-.7-1,.4-.2.7-.6,1.1-.6,2.1.2,4.6-.8,5.6,1.6h.1v-.1Z"/>
                <path class="cls-3" d="M104.75,378c1.2-.5,2.3-.9,3.7-1.5-.2-.6-.4-1.1-.5-1.3,1.8-.4,3.7-.5,5.3-1.3s3-2.2,4.8-3.7c-1.8-.6-3-1-4.1-1.3,0-.2,0-.4.2-.6,1.2.3,2.5.4,3.6.9,2.2.8,3.9.2,5.4-1.5,1-1.2,1.8-2.5,2.9-3.6,1.1-1,2.5-1.7,3.8-2.6.6-.4,1-1,1.5-1.4.7-.6,1.5-1,2.4-1.3-.3,1.9-4.1,2.5-1.1,5.3-1.4.5-2.6,1.2-3.9,1.4-2.2.4-3.5,1.4-2.9,3.6-2,.9-3.9,1.8-6.1,2.7.8.5,1.3.8,2.1,1.3-.8.4-1.3.9-1.7.8-2.8-.5-4.5,1.2-6.2,2.9-2.7,2.7-6,1.9-9.1,2,0-.2,0-.5-.2-.7h0l.1-.1Z"/>
                <path class="cls-3" d="M254.65,229.8c3.4-.5,6.5-.9,9.6-1.4,3.5-.5,6.9-1.1,10.4-1.5,1.8-.2,3.7,0,5.5.2.4,0,.9,1.1.9,1.7,0,.9-.5,1.8-.6,2.2-4.1.5-8.1,1.1-12.1,1.3-2.2.1-4.5-.5-6.7-.7-1.2,0-2.5,0-3.7.2-1.3.2-2.6.4-3.2-2.2v.2h-.1Z"/>
                <path class="cls-3" d="M193.15,397.3c-2,.6-3.9,1.2-5.8,1.7v1c1.5.6,3,1.1,4.5,1.7,0,.3,0,.6-.2.8-1.6-.4-3.5-.3-4.6-1.3-1.4-1.3-1.2-3.2.9-4.3-.6-.8-1.1-1.4-1.6-2.1,3.6.5,3.7.3,2.6-2.9.6.4,1.1.8,1.5,1.1,1.4-1.4.8-2.1-.4-3.1-2.2-1.7-4.2-3.7-6.3-5.6.2-.2.3-.4.5-.6,2.5,2.1,4.9,4.2,7.4,6.4.7-1.3,1.1-2.1,1.6-3-1.1-1.3-1.2-2.8,0-4.7.8-1.5.7-3.5.8-5.3,0-2.1.6-3.9,3.2-5.4v2.7c-.6,3.4-1.4,6.7-2,10.1-.2,1.6.2,3.2,0,4.8,0,.8-.4,1.9-1,2.3-3.4,2.7-3.5,2.7-1.2,5.7h.2-.1Z"/>
                <path class="cls-3" d="M184.55,317c.3-1.2.6-2.6.9-4-2.9-.7-5.2-4.7-3.7-6.3,1.5,1.6,2.9,3.2,4.5,4.6.2.2,1.8-1.4,2.9-2.3-1.2-.8-2-1.4-3.4-2.4,1.7-.4,2.8-1.1,3.7-.9,1.1.2,2.3,1,1.3,2.6v.4c3.7.8,2.3,5.5,5.5,6.6-1,2.2-2.1,3.4-4.4,2.2-.6-.3-1.5,0-2.4,0,.2-.6.4-1.1.6-1.6-2.6-3.2-3.1,2.3-5.7,1h.2v.1Z"/>
                <path class="cls-3" d="M329.75,258.7c-1.7-1.2-1.7-3.7-4.2-3.9-.7,0-1.4-1.3-1.8-2.2,0-.3.8-1.1,1.3-1.6.3-.3.6-.5,1.1-.8-.6-1.2-1.3-2.4-1.7-3.6,0-.4.2-1.1.5-1.3.2-.2.9.2,1.3.4.7.3,1.3.7,2,1.1.6.3,1.7.4,1.9.8,1.4,2.9,4,2.8,6.6,2.9,1.2,0,2.5.2,3.7.7-3.2,2.8-7.5,1.9-11.2,3.6.9.7,1.6,1.4,2.5,2.1-.8.8-1.4,1.4-1.9,2v-.2h-.1Z"/>
                <path class="cls-3" d="M134.05,372c1.3-.7,2.5-1.5,3.8-2.1,1.8-.8,3.8-1.3,5.6-2.3,1.8-.9,3.4-2,3.3-4.5,0-.9.8-1.9,1.3-2.8.5-1.1,1.1-2.3,1.7-3.3.2-.4.7-.8,1-1.2.2.1.3.3.5.4,0,.3-.2.7-.3,1-1.3,3.3-1,3.9,2.4,4.5.8.2,1.6.5,2.4.7,0,.3.2.6.3.9-3,1.7-6.1,3.4-9.1,5-.8.5-1.6,1.1-2.4,1.5-1,.5-2.1,1-3.1,1.4-.5.2-1.3.1-1.5.5-1.7,2-3.6,1-5.7.1l-.2.2h0Z"/>
                <path class="cls-3" d="M358.25,128.4h-3.1c-2.4,0-4.9.2-7.3.2s-2.7-.4-4.1-.4c-2.5.1-5,.5-7.5.7-.7,0-1.3,0-2-.1-.2,0-.4-.4-.6-.3-2.3.3-4.8.3-6.9,1-2.2.8-2.5,1.2-4.9,0,.8-1.9,1.4-2.1,3.4-1.3,1.8-.6,3.1-1.1,4.3-1.4,3.9-1,7.7-.7,11.7-.6,2.4,0,5.1.6,7.9-.3,2.7-.8,6.1,1,9.3,1.6v1h-.2v-.1Z"/>
                <path class="cls-3" d="M319.35,203.2v4.3h-3.3c.4,1.3.8,2.5,1.3,4.1-1.4-.4-2.4-.9-3.5-.8-.7,0-1.4.9-2,1.4.5.6.9,1.6,1.6,1.8.8.3,1.9.2,2.9.2,1.9,0,3.5.1,5.2,1.2,1.3.8,3.4.4,4.8.5-.7.5-1.9,1.1-2.6,2.1-.7,1-1,2.4-1.7,3.7-.4-3.4-2.4-4.3-5.2-3.8-.2,0-.5,0-.7-.1-1.8-1.3-3.7-2.5-5.2-4-.5-.6-.4-2.5.2-3.3,1.1-1.8,2.7-3.4,4.2-4.9,1.1-1.1,2.4-1.9,3.5-2.8.2.2.4.5.7.7l-.2-.3h0Z"/>
                <path class="cls-3" d="M344.25,198.7c.4-.9.7-1.7,1.2-2.8-1.5-.7-3-1.3-4.5-2,0-.3.2-.6.3-1,1.8.6,3.6,1.1,5.3,1.7.6.2,1.1.6,1.7.7,1.8.3,3.7.4,5.6.7,2.3.4,4.7.9,7,1.4.9.2,1.8.7,2.9,1.1-2.6,2.1-16.4,2-19.5.1h0v.1Z"/>
                <path class="cls-3" d="M157.45,207.6c.6-2.4.3-5.7,4-6.8,1.3,1.9,3.2,2.2,5.3,2,.8,0,1.6.4,2.4.6-.3.8-.5,1.5-.8,2.3-.2.8-.4,1.7-.6,2.3-1.6.6-3.1,1.4-4.7,1.9-.7.2-1.6,0-2.3-.3-1.1-.5-2.1-1.1-3.3-1.8v-.2h0Z"/>
                <path class="cls-3" d="M47.15,132.1c-.8,2.4-1.4,4.9-2.3,7.2-.6,1.6-.1,2.2,1.3,2.6.5.1,1.1.3,1.7.3,3.9.4,7.9.3,11.2,3.1,1,.8,2.4.9,4,1.5-1.1.6-1.9,1.1-2.1,1.2-2.6-.5-4.7-.8-6.8-1.3-2.2-.5-4.4-1.4-6.6-1.8-1.3-.2-2.8.4-4.1.2-2-.4-3.8-1.2-5.8-1.9.1-.3.2-.7.3-1,1.4.4,2.8.9,3.8,1.2.6-.9,1.3-1.6,1.8-2.4.4-.6.6-1.2.8-1.9.6-2.4,1.2-4.8,1.8-7.2.3,0,.6.1,1,.2h0Z"/>
                <path class="cls-3" d="M168.55,53.6c-4.8,12.9-11.3,24.9-20.9,35.7,0-1.2-.2-2.5,0-2.6,2.6-1.1,2.7-3.8,4.2-5.6,1.7-2.1,3.3-4.2,4.9-6.3,1.6-2.2,2.6-4.7,2.8-7.5,0-1,1.3-2,2.1-2.8,2.3-2.4,4.4-4.8,3.9-8.5,0-.9,1.3-1.9,2-2.9.3.2.6.4,1,.6h0v-.1Z"/>
                <path class="cls-3" d="M44.55,56.5c.8,0,1.6-.4,2,0,2.9,2.1,6.7,2.7,9,5.6.1.2.2.5.4.6,2.3,1.1,4.7,2.1,7,3.2.4.2.7.6,1.1.9-.4.3-.8.9-1.3,1-4.5,1.2-7.3-1.4-10-4.3-.5-.5-1.3-.9-2-.9-1.9,0-5.8-3.5-6.2-5.9h0s0-.2,0-.2Z"/>
                <path class="cls-3" d="M147.45,131.1c-3-1.2-5.9-2.4-8.9-3.6-.2.2-.4.4-.5.6l3,3c-1.5.9-3.5-2.3-4.4.7-1.1-1.3-2.2-2.5-3.4-4,0-.3.3-1,.6-1.7-1.8-1.9-1.9-3.2-.3-3.9,2.6,1.2,5.3,2.2,7.7,3.7,2.2,1.4,5.8.8,6.7,4.2-.2.3-.3.6-.5,1h0Z"/>
                <path class="cls-3" d="M238.95,300.8c1.5,1.7,2.9,3.4,4.5,4.8.5.4,1.6.1,2.5.1,1.8,0,3.9-1,5.1,1.3-1.9,1.5-2,3.5-.3,5.8-.8.3-1.7.8-2.2.6-.6-.2-.8-1.2-1.4-1.5-1.2-1.3-2.4-2.7-3.7-3.9-1.2-1.1-2.4-2.1-3.7-3.1-.3-.2-.9-.1-1.1-.4-1.6-2.2-3.6-1.7-5.7-1-.5-.8-.9-1.6-1.7-2.8l7.8.2h0l-.1-.1Z"/>
                <path class="cls-3" d="M186.45,415.9c-2.1,0-3.7-.3-5.3,0-2.9.4-5.1-.9-7.2-2.6-.6-.5-1-1.5-1-2.3,0-1.4,1.2-1.1,2.1-1,.9,0,1.9,0,2.9-.1.4,0,1.1-.2,1.2,0,1.6,2.7,3.4.2,5.4.1.6,1.9,1.2,3.9,1.9,6.1v-.2h0Z"/>
                <path class="cls-3" d="M123.65,446.7c-.4-.4-.8-.8-1.2-1.2,3.5-1.8,6.8-3.7,11-2.5.6.2,1.5-.7,2.5-1.1.2.3.4.9.8,1.8-3,1.1-5.8,2.1-8.8,3.2.8.5,1.8,1.1,2.8,1.7-3.1,1.9-8.7,1.6-12-.7,1.8-.4,3.2-.8,4.9-1.2h0Z"/>
                <path class="cls-3" d="M232.25,399.7c-1.8.8-3.7,1.6-5.5,2.4v.7c-.8-.4-1.7-.9-3.1-1.5,1.2-1.2,2.2-2.2,3.1-3.2-1.7-1.8-1.5-2.4,1-3.1,1.2-.4,2.4-1,3.6-1.4,3.2-1.2,3.7-1,5.7,2,.6-.2,1.1-.3,1.8-.5v.7c-1.6,2.4-3.3,2.7-5.5,1-.6-.4-1.7-.1-2.5-.2.3.9.6,1.7.9,2.6.2.2.3.4.5.6h0v-.1Z"/>
                <path class="cls-3" d="M290.45,401.9c.6-1.8,1.3-3.7,2-5.7,2.7-.2,3,.1,2.6,2.7-.7,4.5,1.2,8.3,3.6,11.8.5.7,1.6.9,2.6,1.4-.3.7-.6,1.3-1.2,2.8-1.6-1.9-3.2-3.4-4.2-5.1s-1.6-3.2-3.8-2.1c-.5-1.9-1.1-3.7-1.6-5.8h0Z"/>
                <path class="cls-3" d="M79.85,26.9c-1-1.1-1.6-1.8-2.4-2.6,1.1-3.9,2.3-8,3.3-11.8,3-.5,5.3,0,6.3,2.6.5,1.4,0,3.1-.2,4.8-2.1-.5-4.4-1.5-4.7-1.2-1.2,1.9-3.4,3.7-2.3,6.5v1.7h0Z"/>
                <path class="cls-3" d="M423.05,172c-1.6-1.2-3.2-1.8-3.6,1.4,0,.3-2.1.5-3.2.4-1.2,0-2.3-.6-3.5-.9.4-.9,2.6-1.8,4.1-2,1.7-.2,3.3-1,4.8-1.4,1.5-4,2.9-7.6,4.3-11.3.6,1.2,1.3,2.6,2.1,4.3h-2.6c0,.2-.3.4-.4.7,1.7,1.2,3.4,2.5,5.2,3.8-2,.4-3.8.3-5,1.1-1.1.7-1.5,2.5-2.2,3.9h0Z"/>
                <path class="cls-3" d="M196.15,249.6c-.7,1.2-1.3,2.2-2,3.6-1.1.3-3.4,0-1.5,3.1-.2,0-.4.2-.6.2-1-.4-1.9-.8-3.1-1.4-2.6,1.4-2.6,1.3-3.2-2.3-.2-1.1-1.2-2.1-2.1-3.5.8-.3,1.6-.6,2.3-.8.2.9.5,1.8.9,3.2,1.2-1.5,2.2-2.8,3.2-4,.4-.5,1-.9,1.7-1.1-.7,2.8,0,3.3,4.5,2.9h-.1v.1Z"/>
                <path class="cls-3" d="M3.35,155.4c.2,1.3.3,1.9.4,2.9,1.2-.9,2.2-1.7,3.4-2.6v-.7c.2-.7.4-1.4.7-2.1,0-.1,1.2,0,1.2.3.2.7.5,1.9.2,2.2-2.1,2-2,4.6-2.1,7.2,0,.2-.2.4-.4.7-3.8-.5-1.2-3-1.3-5.4-1.4,1-2.4,1.7-3.4,2.5-.8.6-1.5,1.3-2.2,1.9-.6-.7-1.2-1.5-1.9-2.3.8-.3,1.2-.5,1.7-.7-.4-3.4-4.6-.8-5.5-3.8,3.1-2,5.9,2.4,9.1,0h0l.1-.1Z"/>
                <path class="cls-3" d="M127.85,195.3c-.6-3.3.5-4.1,3-3.3,1.1.4,2.3.5,3.4,1,.7.3,1.3,1,1.9,1.6,0,.2-.3.4-.4.7-.7,0-1.4.2-2.1,0-1.9-.4-3.7-1.5-5.4.6-.3.4-1.8-.2-2.8-.1-1,0-1.9.2-3,.4,1.1,1,1.7,1.7,2.8,2.8-2.2.2-3.5.4-4.8.5-.2.9-.3,1.9-.7,2.7-.2.4-1.1.4-2,.7,1.4-3.3,3.7-5.9,3.3-9.4,0-.5.5-1.3,1-1.4.4-.2,1.1.3,1.6.5,1.3.8,2.6,1.6,4.4,2.7h-.2Z"/>
                <path class="cls-3" d="M229.65,304.4c-2-.7-4-1.5-6.1-2-.9-.2-1.9,0-2.9.1-1,.2-2,.5-3,.8-.5.6-1.2,1.3-1.8,2-.3.3-.5.8-.5,1.2-.7,3.6-4,5.2-7.6,3.4,1.7-1.4,2.6-3.4,5.3-3.7,1.2-.1,2.2-2.3,3.4-3.5,1.5-1.4,1.5-2.8.4-4.6,4.6,1.8,8.9,3.4,13.2,5.1l-.4,1.2h0Z"/>
                <path class="cls-3" d="M349.65,450.1c3.9.6,6.1,3.3,8.2,6.3,1.4,1.9,3.4,3.2,5.1,4.9.5.5.8,1.1,1.6,2.2-1.9-.3-3-.5-4.1-.7,0-.1.2-.2.3-.3-.8-.7-1.6-1.5-2.5-2.2-2.8-2.2-5.7-4.2-8.3-6.6-.7-.6-.2-2.4-.2-3.7h0l-.1.1Z"/>
                <path class="cls-3" d="M122.35,189.8c-.5-.4-1-.8-1.4-1.1s-.9-.5-1.5-1.1c2.8.3,4.5-.9,5.2-3.9.6.9,1,1.5,1.6,2.4,2.5-.8,5-1.6,7.7-2.4-.5,1.3-.8,2.2-1.2,3.1h4c.5,3,.2,3.3-3.1,3.5-1.1-.3-2.2-.7-3.3-1-.6-.2-1.3,0-1.8-.3-2.1-1.3-4.2-1-6.1.8h-.1Z"/>
                <path class="cls-3" d="M146.15,241.2c-2-.9-3.5-1.6-5-2.4-.2,0-.3-.3-.4-.5-1.1-1.3-2.1-2.6-3.3-3.8-1.3-1.2-2.8-2.2-4.2-3.4-1.5-1.2-1.2-3.3.5-4.1.8-.4,1.6-.6,2.5-1-.8-.8-1.4-1.4-2.1-2,0-.2.3-.3.4-.5,1.6,1.3,3.2,2.5,5.1,4-1.9,0-3.6,0-5.8.1.7,2.7,2.5,4.3,4.4,5.1,1.8.9,4.1.7,6.3,1-2.5,1.8-2.5,2-.5,4.4.7.9,1.3,1.8,2,3h0l.1.1Z"/>
                <path class="cls-3" d="M195.25,187.8c.5-1,.6-1.5.8-1.5,3.1-.2,4.3-3.2,6.7-4.5,1.7-1,3.1-2.5,4.7-3.6,1.3-.9,2.7-1.7,4.1-2.3.4-.2,1,.2,1.5.3,0,.5,0,1.1-.4,1.4-2.1,1.8-3.9,3.9-6.7,5-2,.9-3.3,3.5-5.3,4.7-1.3.8-3.2.4-5.3.6h0l-.1-.1Z"/>
                <path class="cls-3" d="M279.85,235.3v.2c-1.8,4.5-3.5,9-5.3,13.4-.3-.1-.6-.2-.9-.3.7-1.9,1.4-3.8,2-5.6-2.8-3.7-6.4-1.7-9.9-.7,0-.3-.2-.7-.3-1,1.1-.8,2.1-1.8,3.3-2.2,2.2-.7,4.5-1.3,6.8-1.6,1.8-.2,3.2-.7,4.3-2.2h0Z"/>
                <path class="cls-3" d="M161.75,226.2c1.6.2,3.2.3,4.7.5,1.2.1,2.4.3,4.1.6-.9,1.3-1.7,2.6-2.8,4.3,2.1.2,3.7.8,4.2-1.7.2-.8,1.5-1.4,2.6-1.7-.4,1.9-.7,3.9-1.4,5.7-.3.7-1.6,1.3-2.5,1.3s-2.6-.4-3-1.1c-1-1.9-1.5-1.5-2.4,0-.3.5-1,.7-1.5,1.1,0-.2-.2-.4-.4-.6,1.1-1.9,2.1-3.7,3.2-5.6,0-.3,0-.6.2-1.2-1.7-.5-3.4-.9-5.1-1.3h0v-.3h.1Z"/>
                <path class="cls-3" d="M224.05,474.5c2.2-10.1,7.2-19.2,10.6-28.8.2-.6.6-1.3,1.3-1.7-1.6,4.2-3.1,8.5-4.8,13,2.6.1,4.3.8,4.2,3.9-1.4-.7-2.5-1.3-4.3-2.2-1.4,3.5-2.8,7.1-4.3,10.6-.8,1.8-1.9,3.5-2.8,5.2h.1Z"/>
                <path class="cls-3" d="M394.65,43.3c-6.1.2-12,.4-18.6.6,2.6-1.7,4.6-3,6.9-4.4,0,0,.5.8.9,1.3,3.9,0,8.2-2.9,10.8,2.5h0Z"/>
                <path class="cls-3" d="M96.85,190c-4-.9-8-1.8-12.1-2.7,1.5-2.3,3.9-.4,5.3-.8.6-1.9,1-3.4,1.4-4.7,1.8.4,3.3.7,5.6,1.2-3.6,2.9,1.6,4.6-.2,6.9h0v.1Z"/>
                <path class="cls-3" d="M370.05,322.9s.5.1,1.3.3c-.3-1-.6-1.7-.9-2.6,1.5.5,2.8.8,4,1.3.5.2,1.2.8,1.2,1.2,0,2.1,1.4,2.5,3.7,2.4-3.7,1.8,0,3.5-.7,5.5-1.4-1.8-2.7-3.4-4-5-2.7.4-5.3.8-8,1.2-.7-1.4-.7-2.3,1.2-2.7.7-.1,1.2-.9,2.1-1.7h.1v.1Z"/>
                <path class="cls-3" d="M208.35,165.9c.8-1.7,3.4-3.3,2.4-5.5,1.7-2.2,3.5-4,4.8-6.1,1.5-2.4,2.8-4.7,6.2-4.8,1.8,0,3.6-1,5.4-1.3,1.3-.2,2.8,0,4.1,0v.7c-.7.1-1.3.3-2,.4-3.1.6-6.2,1-9.3,1.7-.8.2-1.8.6-2.2,1.3-1.7,2.4-3.2,5-4.8,7.7,1.2.5,2,.8,2.7,1.1v.6c-1.5.6-3,1-4.4,1.7-1.2.7-2.3,1.7-3.2,2.4h.3v.1Z"/>
                <path class="cls-3" d="M42.25,510.2c-1.5-.1-3.3.3-4.4-.4-3.2-2-7.8-1.6-10.3-6.2,2,0,3.9-.4,5.3.2,3.4,1.5,6.6,3.4,9.9,5.2-.2.4-.3.8-.5,1.2h0Z"/>
                <path class="cls-3" d="M130.55,89.4c1.3,5.5-3.5,14.9-8.8,15.9,1.6-2.8,3-5.2,4.3-7.7.6-1.1.9-2.3,1.4-3.4.8-1.8,1.5-3.5,2.3-5.3.3,0,.5.2.8.3v.2Z"/>
                <path class="cls-3" d="M113.05,118.1c.5,1.6,0,2.4-1.6,2.3h-4.3c-1.4,0-2.6.2-3.5-1.4-.3-.6-1.6-.6-2.4-.9-.8-.2-1.7-.2-2.4-.6-.2,0-.2-1.6,0-1.7.8-.3,1.8-.6,2.6-.4,3.9.8,7.8,1.8,11.6,2.8h0v-.1Z"/>
                <path class="cls-3" d="M285.85,241.5c1.2,0,2.4-.1,3.6,0,.6,0,1.2.3,1.9.4,1.2.2,2.6.2,2.6,2s-1.1,3.4-2.6,4.6c-.3.2-1-.2-1.5-.4-.8-.4-1.6-.8-2.2-1.4-.5-.5-.8-1.3-1-2.1-.2-.7-.3-1.5-.5-2.2,0-.3-.2-.6-.3-.8h0v-.1Z"/>
                <path class="cls-3" d="M250.05,138.7c.3.1,1,.5,1.8.8-.5.7-.9,1.6-1.6,2.2-1.2,1.1-2.7,1.8-3.7,3-1.8,2.1-4.4,2.6-6.7,3.4-1.9.7-4.1.8-6.2.8,1.9-1.9,4-3,6.6-3.4,1.6-.3,3.3-.9,4.8-1.6,1.1-.5,2-1.4,2.8-2.3.7-.7,1.2-1.5,2.2-2.8h0v-.1Z"/>
                <path class="cls-3" d="M283.45,197.5c-.6,1.7-1.3,3.3-3.1,4.3-.7.4-1.2,1.1-1.7,1.7-.8,1.1-1.6,2.3-2.4,3.5-.3,0-.6-.2-.9-.3-.2-.8-.3-1.6-.6-2.8-.9-.4-2.2-1-3.9-1.7,1.8-1.6,3.4-3.1,5-4.5.2.1.3.3.5.4-.6,1.6-2.7,2.9-.7,5,1.2-1.4,3.2-1.8,3.9-4,.3-1,2-1.5,3-2.3.3.2.5.5.8.7h.1Z"/>
                <path class="cls-3" d="M71.15,328.9c.8.3,1.8.4,2.5.9,1.2.8,2.2,1.7,3.3,2.5-1.7,1.4-3.7,4.6-5.8,4.7-3.4.2-3.1,5-6.7,4,0-.4-.3-1.2-.1-1.4,1.7-1.6,3.3-3.4,5.3-4.5,2.3-1.2,3.1-2.3,1.8-4.6-.2-.3-.4-.7-.6-1,0-.2.2-.4.3-.6Z"/>
                <path class="cls-3" d="M321.75,362.3c-1.5,2.2-5.1,3-4.4,7.2-1.3-.7-2.2-1.2-3.3-1.8,2.4-2,4.3-3.6,6.5-5.4-.5-.6-1.1-1.1-1.8-1.9-1.5,1.8-2.5,3.8-4.1,4.8-1.5.9-3.7.8-5.6,1.2.8-1.2,1-2.7,3.3-2.9,1.1,0,2.5-1.4,3.1-2.5,1-1.9,2-2.3,3.7-1,.9.7,1.7,1.4,2.7,2.3h-.1Z"/>
                <path class="cls-3" d="M381.05,260.7c-2.8-1.4-3.9,3.1-6.9,1.6.7-1.4,1.7-2.5,1.6-3.5,0-.7-1.6-1.3-2.6-2.1.2-.1.8-.7,1.2-.6,2.4.6,2.2-1.2,2.4-2.6,0-.5-.3-1.2-.2-1.7.3-.9.5-2.1,1.2-2.6.5-.4,1.6.2,2.5.4-1,1.3-1.9,2.4-2.7,3.4,1.2.1,2.4.2,4.2.4-.8.6-1.5,1.3-2.2,1.6-1,.5-2.7,0-2.4,2,.3,1.7,1.1,2.8,3.1,2.6.2,0,.4.1.6.2l.2.8h0v.1Z"/>
                <path class="cls-3" d="M382.45,235.6c-1.9-.2-3.9-.5-5.8-.5s-4.9.3-7.3.3-3-.1-4.6-.3c-.4,0-1-.5-1-.8,0-.5.2-1.2.6-1.4.7-.4,1.7-.8,2.4-.7,4.7.5,9.4,1.2,14.1,1.9.6,0,1.1.5,1.7.8v.7h-.1Z"/>
                <path class="cls-3" d="M184.05,329.6c0,.7.3,1.3.2,2,0,.6-.4,1.1-.6,1.7-.6-.4-1.3-.8-1.9-1.3-.2-.1,0-.6,0-.9-.7-3.1.2-5.4,2.8-7,1.9,2.7,1.4,7.1,5.3,8.5-.9.6-1.8.4-2.7-.7-.8-.9-1.5-1.8-2.3-2.7-.3.1-.5.2-.8.4Z"/>
                <path class="cls-3" d="M183.45,217c.7-.7,1.2-1.5,2-1.9,1.9-1,4.5-.7,5.6-3.2,0-.2.9-.2,1.3-.2,2.4.1,4.3,1.9,4.6,4.2-4.7-1.9-8.5,1.5-12.9,1.9l-.6-.8h0Z"/>
                <path class="cls-3" d="M194.35,332.5c-1.7-1-3.6-1.7-4.8-3-1.3-1.6-2-3.7-2.8-5.7,0-.2,1-1.2,1.5-1.2,1.7.2,3.4.8,5.5,1.3-1.1.6-1.7,1-2.7,1.6.6.5,1.1.9,1.5,1.2.5.4,1,.8.9.8.4,2.1.6,3.5.9,4.9h0v.1Z"/>
                <path class="cls-3" d="M412.05,422.1c.6-1.2,1.1-2.3,1.7-3.3.8-1.3,1.5-2.7,2.5-3.7.6-.6,1.7-.7,2.6-1v2.4c-.7,1.8-1.6,3.5-2.4,5.3-.2.4-.2.8-.4,1.1-.7.8-1.5,1.5-2.3,2.3-.5-1-1-2-1.6-3.1h-.1Z"/>
                <path class="cls-3" d="M227.15,285.6c.6.5,1.1,1,1.8,1.6,2.1-2.9,5-1.4,7.7-1.1,1.9.2,2.2,1.5,1.3,4.9-.8-.4-1.5-.9-2.2-1.1-1.1-.3-2.2-.6-3.3-.5-1.9.2-5.4-2.1-5.3-3.9h0v.1Z"/>
                <path class="cls-3" d="M70.55,404.7c.6-1.4,1.1-2.5,1.5-3.5.2,0,.5.2.7.2-.8-1.3-1.5-2.5-2.5-4.1,5.1,0,4-3.7,4.5-6.4,1.6,1.8,1.5,2.5.6,4.4-.3.6,0,1.9.5,2.6.4.6,1.5.8,2.2,1.2l-.9,1c-.7-.1-1.5-.3-2.3-.4-.6,1.8-1.2,3.6-2,5.2,0,.2-1.3,0-2.4-.2h.1Z"/>
                <path class="cls-3" d="M181.65,186.2h3c.5-.7,1.2-1.8,1.6-2.4,2.9,1,5.4,1.9,8.1,2.8-.6,1.5-1,2.7-1.6,4.2-3-3.6-7.3-3.2-11.3-3.8,0-.3,0-.6.2-.9h0v.1Z"/>
                <path class="cls-3" d="M-8.45,337.9c8.2,4.1,16.3,8.3,24.7,12.6-1.3.6-8.9-2.9-12.6-5-4.1-2.4-8.4-4.4-12.7-6.6.2-.3.4-.6.6-.9h0v-.1Z"/>
                <path class="cls-3" d="M59.85,247.1c.8,1.6,1.2,3.7,3.7,3.2.2,0,.8,1.1.7,1.6-.2.7-.8,1.5-1.4,1.8-1.4.6-3,1.1-4.5,1.4-.7.1-1.5-.2-2.1-.3,1-2.9,1.8-5.4,2.7-7.9.3,0,.6.1.9.2h0Z"/>
                <path class="cls-3" d="M227.95,210.1c.8-1,1.6-2,2.7-3.4,0-.3,0-1.3-.2-2.9-1.3,1.1-2.2,2-3.3,2.6-1,.6-2.2.8-2.9,1,1.1-1.1,2.2-2.2,3.4-3.3.6-.5,1.6-1.4,2.1-1.2,2.5.9,4.3-.3,6.3-1.3.5-.2,1-.3,1.8-.6-.3,1.2-.5,2.1-.7,3l-.5-.5c-1.5,1.1-3,2.2-4.4,3.4-1.3,1.1-2.5,2.5-3.7,3.7-.2-.2-.5-.4-.7-.7v.2h.1Z"/>
                <path class="cls-3" d="M206.75,287.8c-.8.2-1.6.5-2.5.5-2.9.1-5.8.2-8.6.2s-1.9-.5-2.9-.6c-.7,0-1.5.1-2.2,0-.7,0-1.4-.2-2-.5-.2,0-.3-1-.2-1,.6-.2,1.3-.5,1.9-.5,3.9-.3,7.7-.2,11.5,1.3,1.5.6,3.3.2,4.9.2v.5h0l.1-.1Z"/>
                <path class="cls-3" d="M210.15,394.7c.2.6.7,1.2.7,1.8-.3,2.6.8,5.5-1.2,7.9-.3.4,0,1.3-.3,1.8-.2.6-.6,1-1,1.5-.5-.5-1.2-.8-1.6-1.4-.3-.4-.2-1.1,0-1.6.8-3.3,1.7-6.6,2.5-9.9h.9v-.1Z"/>
                <path class="cls-3" d="M280.95,272.6c1.7-2.1,3.4-4.1,5.1-6.3-1.7-1-3.3-2.4-5.1,0-.2.3-1.4.2-1.6,0-.6-.8-.9-1.7-1.4-2.6l.6-.9c3.4.8,6.8,1.6,10.2,2.4,0,.4.2.8.2,1.2-1.4,1-2.8,2.1-4.1,3.1-1.4,1-1.7,3.3-4,3.2h0l.1-.1Z"/>
                <path class="cls-3" d="M97.15,258.5c3.6.6,7,1.1,10.2,1.7.7.1,1.2.8,1.9,1.2-.5.4-1,.7-1.5,1.1-.2.2-.6.4-.7.6-.4,1.5-1,.8-1.8.2-.7-.6-1.6-1.2-2.5-1.3-1.9-.1-3.5-1.7-5.6-1-.2,0-.9-1-1.2-1.7,0-.1.8-.7,1.1-.9h0l.1.1Z"/>
                <path class="cls-3" d="M432.65,388.9c2.2.4,4.3.8,6.5,1.3-1.2,1.9-2.2,3.9-3.6,5.5-1,1-2.6,1.5-4,2.1-.3.1-1.2-.5-1.2-.8,0-.6,0-1.5.5-1.9.9-.8,2.1-1.2,3-2,2-1.6,1.8-2.5-.5-3.4-.3-.1-.5-.3-.8-.4v-.4h.1Z"/>
                <path class="cls-3" d="M193.65,152.8c-1.7-1.1-3-2-4.5-3,0-.3-.5-1.1-.5-1.8,0-1.2.4-2.4.6-3.6.8.4,1.8.7,2.4,1.3,1.1,1.1,2.2,2.4,3.1,3.7,1,1.5.3,2.7-1.1,3.3h0v.1Z"/>
                <path class="cls-3" d="M224.55,335.1c0,.5,0,1-.2,1.5-.9,2.7-1.7,5.5-2.8,8.1-.4,1-1.4,1.7-2,2.6-.6,1.1-1,2.3-1.1,3.5-1.2.9-2.5,1.7-3.7,2.6-.2,0-.3-.2-.5-.2,3.3-6,6.6-12,9.9-18,0,0,.3,0,.4-.1h0Z"/>
                <path class="cls-3" d="M227.35,229.7c1.8-.8,3.6-1.9,5.6-2.1.8-.1,1.9,1.5,3,2.4-1.4,2-2.6,3.7-3.8,5.5-1.8-1.9-1.2-5-4.3-5,0-.2-.3-.5-.4-.7h0l-.1-.1Z"/>
                <path class="cls-3" d="M21.35,182.7c1,.8,1.9,1.6,3,2.4,1.6-3.8,5.3-4.4,10-1.8-1.3.2-2.9.9-3.8.4-2.2-1.1-2.3.4-3,1.7-.4.8-1.1,1.4-1.7,2.1l-.7-.3c.3.6.6,1.2.9,1.8l-.5.3c-1.5-2.1-3-4.2-4.5-6.3,0,0,.2-.2.3-.3h0Z"/>
                <path class="cls-3" d="M285.65,191.5c-2.8-.2-3.2-1-3-3.5.2-2.2-.4-4.5-.6-6.8,0-1.1,0-2.2.5-3.3,1.4,2.8,3.3,5.3,2.2,8.7-.5,1.4.6,3.3,1,4.9h-.1Z"/>
                <path class="cls-3" d="M289.25,407.3c-2.4,0-4.5.1-7.3.2,1.7-3.6,3.2-6.7,4.6-9.7.3,0,.6.1.9.2,0,1.1,0,2.3-.5,3.3-.8,2-.7,3.5,1.3,4.6.4.2.5.7,1,1.4Z"/>
                <path class="cls-3" d="M187.15,79.1c-2.3-4.5-4.5-9-6.8-13.5-.3-.6-.3-1.4-.4-2.4,3.4,1.8,2.3,6.9,6.2,7.7.6,2.7,1.2,5.4,1.8,8.1l-.8.2h0v-.1Z"/>
                <path class="cls-3" d="M315.55,351.6c0,.6,0,1.3.2,1.7.6.8,1.3,1.6,2.1,2.1.3.2,1.3-.5,1.8-1,2.1-2.1,4.1-.4,6.3.4-.5.3-1.2,1-1.4.8-1.7-1-2.4.1-3.3,1.2-.4.4-1.4.3-2,.2-1.5-.3-3.1-.5-4.5-1.1-.8-.3-1.6-1.3-1.7-2.1-.3-1.7,1.1-2,2.6-2.1h0l-.1-.1Z"/>
                <path class="cls-3" d="M305.75,96.1c-4.7,3.7-9.1,1.4-10.4-2.7,1.7.5,3.2,1.1,4.8,1.4.8.2,1.7,0,2.6-.2,1.4-.2,2.6-.4,3,1.6h0v-.1Z"/>
                <path class="cls-3" d="M361.95,383.9c1.7-3.1,3.9-3.9,8.1-2.8-.5.7-1,1.3-1.7,2.3h2.8v.9c-2,.4-4.1.7-6.5,1.1-.6-.3-1.7-.9-2.8-1.5h.1Z"/>
                <path class="cls-3" d="M302.75,331c1.1-.1,2.4-.6,2.8-.2.7.8,2.6,1.4,1.3,3.2-.3.4.2,1.5.4,2.2.3,1.3.7,2.6,1,3.9,0,.2-.6.8-1,.8-.6,0-1.4-.2-1.6-.6-.2-.3.3-1,.3-1-1.1-2.9-2.1-5.3-3.3-8.3h.1Z"/>
                <path class="cls-3" d="M195.25,445.3c-2.3,0-4.9,1.1-5.8-2.3-.3-1.1-2.6-1.5-4-2.3,1.9-2.8,3.7-2.7,5.9.4,1.1,1.5,2.6,2.8,3.9,4.2h0Z"/>
                <path class="cls-3" d="M30.55,275c-.7-.8-1.1-1.4-1.7-2.1,4.5-.3,5.1,0,6.1,3.9-2.3.4-4.6.9-7,1.2-.5,0-1.1-.5-1.7-.9.4-.5.8-1.1,1.3-1.3.8-.4,1.8-.5,2.9-.9h.1v.1Z"/>
                <path class="cls-3" d="M335.25,185.1c1.5-.9,4.5-.7,9,.5-2,1.1-2.4,4.1-5.5,2.7-.4-.2-1.3.9-1.9,1.4-.6-1.7-1.1-3.1-1.6-4.6h0Z"/>
                <path class="cls-3" d="M200.55,292.3c-4.4-.4-8.8-.7-13.1-1.1-.3,0-.6-.6-.9-1,3.7-1.6,12-.6,14.1,2.1h-.1Z"/>
                <path class="cls-3" d="M101.25,316.4c-1.2-2.6-2.3-4.4-.6-6.9,1.1-1.5,0-2.4-2.9-2.9,1.6-.5,3.2-1.1,5-1.6,0,.6-.2,1.3-.4,2.2.5.3,1,.7,1.5,1.1-.8,2.7-1.6,5.2-2.6,8.2h0v-.1Z"/>
                <path class="cls-3" d="M218.65,325.3c0,.4.3.8.2,1.1-.8,1.5-1.3,3.2-2.5,4.4-1.7,1.7-3.5,3.2-4,5.8,0,.3-.9.5-1.4.8-.2-.8-.8-1.8-.5-2.3.8-1.2,2-2.2,3-3.3.2-.2.4-.5.6-.8,1.3-2,2.5-4,3.8-6.1l1,.4h-.2,0Z"/>
                <path class="cls-3" d="M236.55,189.2c-1.8,4-3.7,7.9-5.8,12.4,0-4.2-2.9-7.7-6.9-9.2.7-.3,1.6-1.1,2.1-.9,1.4.5,2.7,1.5,4.2,2.4,0,0-.4.4-.3.7,0,.7,0,1.5.4,2.1.2.4,1.2.7,1.4.6.5-.4,1.1-1.2,1-1.7-.2-1.6.6-2.2,1.6-3.1.9-.8,1.2-2.3,1.7-3.5.2.1.4.2.6.3h0v-.1Z"/>
                <path class="cls-3" d="M8.35,151.5c-1.1.9-1.9,1.9-3,2.4-.6.3-1.9,0-2.4-.4-.4-.4-.3-1.6-.1-2.3.5-1.7,1.3-3.4,2.2-5.8,1.3,2.3,2.2,4.1,3.3,6.1Z"/>
                <path class="cls-3" d="M187.35,362.3c-.3-.6-.7-1.1-.8-1.7-.4-1.8-1.4-2.5-3.3-2.2-2.8.3-5.6.4-8.5.5-.3,0-.7-.3-1.4-.6,4.4-1.6,9.1-.3,12.7-3.7.7,2.6,1.4,5,2,7.4-.2,0-.5.2-.7.3h0Z"/>
                <path class="cls-3" d="M432.85,365.6c-1.1-4.1-4.9-4.8-7.3-7.2.4-1.6,1.4-1.6,2.7-1.1,5.4,2.2,5.9,2.9,4.6,8.3h0Z"/>
                <path class="cls-3" d="M320.65,317.5l-4,.9c0-.3,0-.5-.2-.8.6-.3,1.3-.6,1.9-.9,0-.2,0-.4-.2-.7-1.2.3-2.3.7-3.5.8-.9,0-1.7-.2-2.6-.4.4-.7.8-1.6,1.4-2.2,1-1.1,2.2-2,3.3-3.1.3,1,.3,2.4,1,3.4s2,1.5,3,2.2v.7h-.1v.1Z"/>
                <path class="cls-3" d="M252.85,453.5c-2.7.9-5-3.4-4.3-8.6,1.8.4,3,1.1,3.3,3.1.3,1.8.6,3.5.9,5.5h.1Z"/>
                <path class="cls-3" d="M246.05,198.2c-.4-.1-1.1-.3-1.8-.6,0-.3,0-.5-.2-.8.9-.2,1.9-.8,2.6-.5,2.4,1,2.4,1.1,5.1,0,0,1.2.5,2.8,0,3.1-1.4,1-3.1,1.4-4.7,2.1-.3-1-.6-2.1-1-3.4h0v.1Z"/>
                <path class="cls-3" d="M172.55,404.6h2c1.3-2.6,2.8-3.6,4.3-3v5c0,.3-.2.8-.4,1-.8.6-5.5-1.3-5.9-2.4v-.6h0Z"/>
                <path class="cls-3" d="M259.45,75.7c-1.6,2.1-3.1,4.1-4.8,6-.3.3-1.7.3-1.9,0-.5-1-1.2-2.3-.9-3.1.5-1.4,6-3.2,7.6-2.9h0Z"/>
                <path class="cls-3" d="M78.95,3.8c.2.7.4,1,.3,1.1-1.8,2-3.2,4.7-6.3,5-1.2.1-2.1-.4-1.3-1.6.7-1.2.8-3.5,3.3-2.8.6-2.6,2.8-.5,4-1.7Z"/>
                <path class="cls-3" d="M181.35,248.7c.6.5,1,.9,1.7,1.5-1.4,1.1-2.7,2.2-4,3.2-.2,0-.4-.2-.7-.3.3-3,.5-6,.8-8.9,1.5,1.3,5,1.5,2.2,4.5Z"/>
                <path class="cls-3" d="M287.25,278.8c-.6-1.7-1.5-4.1-2.5-6.6,1.3-1.3,1.8-.1,2.3,1.4.4-3,2.5-3.2,4.5-3.6-1.6,3.3-3.2,6.5-4.4,8.8h.1Z"/>
                <path class="cls-3" d="M208.95,347.1c-1.4.8-2.8,1.5-4.2,2.3s-1.5.8-2.1,1.4c-.5.5-.7,1.3-1.2,1.8-.8.7-2,1.6-2.7,1.4-.8-.2-1.4-1.6-1.7-2.1,2.2-1.2,4.1-2.2,5.9-3.1,1.8-1,3.7-1.9,5.5-2.8.2.4.4.8.6,1.1h-.1Z"/>
                <path class="cls-3" d="M215.75,54.8c3.5,4.2,7,8.3,10.6,12.5l-1,.9c-3.6-4.1-7.1-8.3-10.7-12.4l1.2-1h-.1Z"/>
                <path class="cls-3" d="M3.45,164.9c2.9,2.4,1.4,9.7-2.3,12.3.8-4.3,1.5-8,2.3-12.3Z"/>
                <path class="cls-3" d="M56.85,242.9c-1.4,2.9-1.3,6.1-4.7,7-.5.1-1.3.2-1.6,0-.4-.4-.7-1.4-.5-1.7,1.9-2,3.2-4.7,6.8-5.3h0Z"/>
                <path class="cls-3" d="M74.75,339.8c-.9,1.5-1.7,2.7-2.5,4,0,0,0-.4-.2-.6-.4-.4-.8-.8-1.2-1.2-.3.4-.7.7-1,1.1-.6.9-1.2,1.8-2.1,3-.7-2.5.6-5.6,2.3-6.4,1.6-.8,3.3-2.1,4.6.1h.1Z"/>
                <path class="cls-3" d="M215.65,501.8c.9.2,1.4.3,1.9.4-3.3.9-2.7,4.1-4.1,6.1,1.3-7,3.2-13.7,6.2-20.1.2,0,.4.1.6.2-1.5,4.4-3,8.8-4.6,13.4h0Z"/>
                <path class="cls-3" d="M155.65,316.4c-2.3.3-4.5.7-5.7,3.2-.4.8-2.2.9-3.5,1.3-.7-1.6-1.6-2.9,1.3-2.8,2.1,0,2.4-1.3,1.6-3.3,2.3.2,4.3.5,6.4.7v1h0l-.1-.1Z"/>
                <path class="cls-3" d="M395.95,298.9c-1-2.7-2-5.4-3.1-8.3,2.3-.8-.2-2.6.3-4,2.9-.3,2.2,2.3,2.5,3.5.7,2.8.7,5.8,1,8.8-.2,0-.5.1-.7.2v-.2Z"/>
                <path class="cls-3" d="M103.35,370.7c.2-.5.6-1.1,1-1.9,1.9,1.1,1.4,2.9,1.1,4.2,0,.6-1.6,1.3-2.4,1.2-.9-.1-1.7-1-2.4-1.7-.8-.7-1.6-1.4-2.3-2.7,1.6.3,3.2.5,5,.8h0v.1Z"/>
                <path class="cls-3" d="M388.95,292.8h2.6c0,.2-.2.4-.3.5.5.5,1.2.9,1.5,1.5.4.7.5,1.6.7,2.4-.2,0-.4.1-.6.2-.3-.3-.5-.7-.9-1-.5-.5-1-.9-1.5-1.3-.4.5-.9,1-1.1,1.6-.7,1.8-3.1,2.6-4.6,1.3-.3-.3-.6-1.1-.5-1.2.5-.4,1-.7,1.6-.8,2.7-.4,2.9-.6,3.1-3.3h0v.1Z"/>
                <path class="cls-3" d="M332.55,159.4c-.9-.7-1.5-1.3-2.6-2.1.7,0,1.1.1,1.3.2.3,0,.6.2.8.3,1.1-1.2,2.2-2.4,3.7-3.9.2,1.2.5,1.8.3,2.3-.8,2.1-1.6,4.2-2.8,6.1-.3.5-1.8.4-2.7.6.3-.6.5-1.3.8-1.9.3-.5.6-.9,1.1-1.5h.1v-.1Z"/>
                <path class="cls-3" d="M213.15,347.9c0-2-2.6-4.1.2-5.9,1.4-.9,3-1.4,4.9-1.8-1.5,2.7-3,5.3-4.5,8-.2,0-.4-.2-.6-.3h0Z"/>
                <path class="cls-3" d="M172.15,140.9c-.2-1.3-.4-2.6-.6-4,.2-.1.3-.3.5-.4,1.5,1.9,3,3.7,4.5,5.6.5.6,1.2,1.1,1.9,1.7.7.6,1.5,1,2,1.7.2.3,0,1.1,0,1.6-.5-.1-1.2-.1-1.5-.5-1.5-1.6-2.9-3.4-4.4-4.9s-1.5-.6-2.2-.8h-.2Z"/>
                <path class="cls-3" d="M29.95,105.5c.3-2,.6-4.1,1-6.6.6,0,1.8,0,2.8.4,1.3.4,1.7,1.3.8,2.6-.8,1.2-1.4,2.5-2,3.6h-2.6,0Z"/>
                <path class="cls-3" d="M250.25,303.9c1.7-2.9,1.7-6.7,4.6-8.6.3,0,.6.2,1,.3-.3,2.7-.7,5.4-1,8.2-.3-.1-.5-.1-.6-.2-.4-.8-.7-1.6-1-2.4-.5.6-.9,1.3-1.4,1.8-.4.4-1,.6-1.5.9h-.1Z"/>
                <path class="cls-3" d="M160.85,330.5c.7-1.6,1.4-3.2,2.4-5.2,1.7,2.2,3,3.9,4.6,6-1.9,2-4.2-1.6-6.2-.2-.3-.2-.5-.4-.8-.6h0Z"/>
                <path class="cls-3" d="M78.85,170.2c-.3,1.6-.5,3.2-.8,4.9,1.3.1,2.7.3,4.2.5,0,.2,0,.5.2.7-.6.4-1.2,1.2-1.8,1.2-1.6,0-3.1-.1-4.7-.4-.3,0-.9-1-.7-1.4.5-1.5,1.1-3,1.8-4.4.2-.5.7-.9,1.1-1.3.2,0,.5.2.7.3h0v-.1Z"/>
                <path class="cls-3" d="M137.55,194.8c3.4-3,6.8-1.8,10.1,0-.8,1.5-8.5,1.5-10.1,0Z"/>
                <path class="cls-3" d="M341.25,385.4c-1,.5-1.9,1.2-2.9,1.3-3.8.3-7.2,3.6-11.5,1.2,3.7.4,6.8-.7,8.5-3.1h5.9v.6Z"/>
                <path class="cls-3" d="M126.25,509.2c2.8,1.5,5.3,2.8,8,4.1-.5,1.3-1.2,2.3-3,1.5-1.6-.7-3.2-1.6-5.1-2.5v-3.1h.1Z"/>
                <path class="cls-3" d="M360.75,299.2c1.6-1.7,3.1-3.3,4.7-5,.6,1.4,1.2,2.6,1.8,4-1.5,2.2-2.8,2.5-6.5,1Z"/>
                <path class="cls-3" d="M420.35,88.2c.9,2.4-3.6,7.9-8.5,9.1.8-1.1,1.3-2.6,2.4-3.3,1.2-.8,2.2-1.3,2.9-2.8.5-1.2,2.1-2,3.2-3h0Z"/>
                <path class="cls-3" d="M346.15,277.3c2.4-1,4.5-1.9,6.6-2.8.2.4.5.7.7,1.1-1.8,1.7-3.6,3.5-5.5,5.1,0,.1-1.3-.7-1.6-1.3-.3-.6,0-1.4-.2-2.2h0v.1Z"/>
                <path class="cls-3" d="M.25,246.7c-.6-.2-1.6-.6-2.9-1,2.3-2.9,2.4-6.9,6.5-7.7-1.2,2.9-2.3,5.6-3.6,8.7Z"/>
                <path class="cls-3" d="M93.65,25.3c-.6-1.3-.8-1.8-.9-2,.4-1.3.6-2.4,1.1-3.3.6-1,1.4-1.8,2.3-2.5.2-.2,1.4.2,1.4.3,0,1,0,2.1-.3,2.9-1,1.6-2.3,2.9-3.6,4.6Z"/>
                <path class="cls-3" d="M67.55,241c-.4,2.1-.8,4.2-1.3,6.6.5.5,1.5,1.3,2.9,2.6-1.4.4-2.6,1-3.2.7-.7-.4-1.3-1.7-1.2-2.5.3-2.5,1-5,1.5-7.5.4,0,.8.1,1.2.2h0l.1-.1Z"/>
                <path class="cls-3" d="M388.25,301.7c-2.7,1.4-5.9-2.5-7.7,1.3-1-.6-1.8-1-2.6-1.4,4.5-3.2,7.4-3.2,10.2.1h.1Z"/>
                <path class="cls-3" d="M321.65,255.3c-.8,1.9-1.6,3.8-2.7,6.2-1-1.4-2.1-2.7-2.8-4.2-.6-1.3.8-2.3,2.5-2.1.9.1,1.8,0,3,0h0v.1Z"/>
                <path class="cls-3" d="M247.35,236c-1.2-.7-2.3-1.2-3-2-.6-.7-1.1-1.7-1.2-2.6,0-.6.8-1.3,1-1.6,1.3.7,2.2,1.2,3.1,1.6,1.8.8,1.8,2.6,0,4.6h.1Z"/>
                <path class="cls-3" d="M186.75,19.1c-2.2.4-4.1.8-6.2,1.1,0-.9-.3-1.6-.4-2.1,3.1-.4,6-.7,9.5-1.2,0,1.2-.3,2.1-.4,3-1-.3-1.9-.6-2.5-.8h0Z"/>
                <path class="cls-3" d="M330.05,49.4v3.4c-1.1,0-2.2.2-3.2.3.2-.2.3-.4.5-.6-2-2.2-4-4.3-6.1-6.5.2-.2.4-.5.6-.7,1.3,1.1,2.9,2,3.9,3.3,1.1,1.4,2,2.5,3.8.2,0,.2.2.5.3.7h.2v-.1Z"/>
                <path class="cls-3" d="M40.95,46.8c.4,4,.8,7.8,1.2,11.6-.2,0-.4,0-.6.2-.2-.7-.4-1.5-.7-2.2-.6-1.4-1.1-2.9-2-4.2-1.1-1.6-.3-4.2,2-5.4h.1Z"/>
                <path class="cls-3" d="M191.05,32.5c2.6-1.9,5.2-3.7,7.8-5.5.2.2.4.3.6.5-.4.9-.7,2.2-1.4,2.6-2.3,1-3.3,5.6-7,2.5h0v-.1Z"/>
                <path class="cls-3" d="M233.05,440.1c.5,0,1.1-.1,1.6,0,2.1.4,2.9-.7,3.6-2.5,1.5-4,3.2-7.8,4.9-11.7.2,0,.5.2.7.3-.7,1.9-1.3,3.8-2.1,5.7-1,2.2-2.2,4.3-3.1,6.5-1.6,3.5-1.9,3.6-5.6,1.8h0v-.1Z"/>
                <path class="cls-3" d="M407.65,129.1c-1.9-2.1-3.8-4.1-5.9-6.5-.4,0-1.3.4-2.5.8.6-1.4,1.1-2.5,1.9-4.3,2.5,3.3,4.8,6.4,7.2,9.5-.2.2-.4.3-.6.5h-.1Z"/>
                <path class="cls-3" d="M295.85,376.7c1.2,1.9,2.2,3.7,3.4,5.7-.8.4-1.3.7-2,1.1.3.6.6,1.2.9,1.9-2.6-.8-3.8-5.6-2.3-8.6h0v-.1Z"/>
                <path class="cls-3" d="M425.05,85.8c-.7-2.5,3-7.4,6.8-9.1-2.9,2.5-2.6,7.2-6.8,9.1Z"/>
                <path class="cls-3" d="M149.05,331.2c1-1.8,2-3.6,3-5.5.2,0,.4.1.6.2-1.2,2.8,2,6.3-1.6,8.7-.7-1.2-1.4-2.4-2-3.4h0Z"/>
                <path class="cls-3" d="M416.25,384.2c.3,2.2-.6,3.1-2.5,3-3.8-.2-7.7-.4-11.5-.6-.7,0-1.4-.4-2.1-.9,5.4-.6,10.9,2.4,16.2-1.5h-.1Z"/>
                <path class="cls-3" d="M202.75,314.1c2.8-2.3,10-3,12.1-1-4.4.4-8.2.7-12.1,1Z"/>
                <path class="cls-3" d="M423.05,222.2c.7,1.5,1.5,3,2.2,4.5-2,.4-3.8.7-5.7,1,0-1.6-.9-3.3,1.8-3.7.5,0,1-1,1.7-1.8Z"/>
                <path class="cls-3" d="M73.55,233.9c-1.7-1-3-1.8-4.4-2.6-1.2-.7-1.4-2.3-.4-3,.9-.5,1.9-.9,2.9-1.1.3,0,1.1.7,1.1.8-1.4,2.1-.2,4.1.7,5.9h.1Z"/>
                <path class="cls-3" d="M356.25,408.2c2.2-.9,3.9-1.6,5.6-2.1.4-.1,1.3.3,1.5.7.2.3-.2,1.2-.6,1.6-2.1,2.1-3.6,2.2-6.6-.2h.1Z"/>
                <path class="cls-3" d="M320.15,101.5c3.3-1.2,6.4-2.4,9.5-3.5,0,.7.2.9.2,1-1.9,1.3-3.7,2.7-5.7,3.8-1.2.7-2.8.8-4-1.3Z"/>
                <path class="cls-3" d="M421.85,215c-.9-.2-1.4-.3-1.9-.5,0,.6,0,1.2.2,1.7.5,1.1,1.2,2.2,1.6,3.4-2.6-2.1-3-5.5-4.2-8.3-.2-.4,1-1.3,1.7-2.2,1,2.3,1.8,3.9,2.7,5.9h-.1Z"/>
                <path class="cls-3" d="M402.15,244.6c-.9-.5-1.6-.6-1.7-1-.7-2.5-1.4-5-1.9-7.6,0-.3.5-.8.8-1.2.4.3,1,.5,1.1.9.6,2.8,1.1,5.6,1.7,8.8h0v.1Z"/>
                <path class="cls-3" d="M224.25,88c-2.3,0-3.6-1.5-3.3-3.4,0-.7,1.1-1.2,1.7-1.8,1,1.2,2.2,2.3,3,3.5,0,.2-1.1,1.3-1.5,1.6h0l.1.1Z"/>
                <path class="cls-3" d="M173.75,314.3c.8-.1,1.8-.6,2.4-.3,4.2,2.3,4.7,3.4,3.2,7-1-1.7-1.5-3.2-2.5-4.3-.7-.8-2-1.2-3-1.7v-.6h-.1v-.1Z"/>
                <path class="cls-3" d="M252.45,183.4c-1.9-1.7-1-5,1.8-6.9,1.6,3.2,1.2,4.5-1.8,6.9Z"/>
                <path class="cls-3" d="M321.25,285.8c.6.9,1,1.6,1.6,2.5-2.1,1.6-5.7,2-5,6-1.8-.6-2.2-1.7-1.2-3.2,1.2-1.6,2.5-3.1,3.7-4.7.2-.2.5-.3.8-.5h.1v-.1Z"/>
                <path class="cls-3" d="M332.65,407.8c1.3-.1,2.7-.2,4-.3,2.1,2.3,2.4,4.9.2,8.1,0-1.5-.4-2.6-.3-3.6.2-1.7-.2-2.6-2.1-2.6s-1.4-.6-2.1-.9c0-.2.2-.4.3-.7h0Z"/>
                <path class="cls-3" d="M187.35,436.2c-2.8,1.1-5.4,0-8.1-.7,2.8-2.7,6.7-2.3,8.1.7Z"/>
                <path class="cls-3" d="M34.55,86c1.9.3,3.5.4,5,.9.3,0,.6,1.4.4,1.8-.7,1.3-1.5,2.8-3.4,2-.6-1.4-1.1-2.7-1.9-4.7,0,0-.1,0-.1,0Z"/>
                <path class="cls-3" d="M289.65,236.1c1.5.5,3,1.1,4.6,1.6.8.3,1.6.6,2.4.8,1.1.3,2.1.7,3.2,1v.8c-.6.2-1.5.8-1.8.6-1.6-1.2-4.1-.1-5.4-2.3-.5-.8-2.1-1-3.2-1.4,0-.3.2-.7.3-1h0l-.1-.1Z"/>
                <path class="cls-3" d="M302.85,93.2c-3.2.5-5.4-1.2-5.9-4.3,2.5-.8,5,1,5.9,4.3Z"/>
                <path class="cls-3" d="M272.55,120.7c0,2.5-1.2,3.1-2.8,3.1s-4.7-.8-6.3,1.7c1.7-4.2,5.7-3.6,9.1-4.8Z"/>
                <path class="cls-3" d="M65.15,376.7c-1.3-1.8-2.7-3.5-3.7-5.4-.9-1.8.2-3.1,3-4,.3,1.1,1,2.2-.8,3-.3.1-.3,1.6,0,2.3.6,1.3,1.5,2.4,2.3,3.5-.3.2-.5.4-.8.6Z"/>
                <path class="cls-3" d="M345.15,160.9c3.2-2.6,2.3-7.7,6.5-9.8-.3.6-.8,1.2-1,1.9-.7,1.9-2.5,3.5-1.6,6,.2.5-2,1.8-3.1,2.7-.2-.2-.5-.5-.7-.7h-.1v-.1Z"/>
                <path class="cls-3" d="M291.45,457.6c-4.1-3.7-5.8-6.8-5.1-9.5,1.8,3.4,3.5,6.4,5.1,9.5Z"/>
                <path class="cls-3" d="M250.15,192.7c-.8-1.2-1.4-2.3-2.2-3.7,1-.3,2.4-1.2,3.4-.9,1.2.3,2.2,1.5,3.2,2.8-2.6-1.9-3.1,1.2-4.4,1.8h0Z"/>
                <path class="cls-3" d="M169.95,89.3c0,2.5-2.9,4.2-4.5,3.3-.3,0-.3-1.1,0-1.6.3-.6.8-1.2,1.2-1.7.5-.6,1.4-1.7,1.6-1.6.8.4,1.4,1.2,1.8,1.5h0l-.1.1Z"/>
                <path class="cls-3" d="M338.45,319c.9-.3,1.5-.5,2.1-.8,1.1-.5,2.1-1.1,3.1-1.5.5-.2,1.1-.3,1.6-.4,0,.6.3,1.2,0,1.7-1,2.7-3.3,3.1-6.9,1.1h.1v-.1Z"/>
                <path class="cls-3" d="M389.75,237.9c.4,1.1.8,2,1.2,3-2.1,1-2.5-.7-2.4-1.7.2-1.6.8-3.2,1.5-4.7.3-.6,1.1-1,1.8-1.2.3-.1,1.1.5,1.1.6-.2.6-.4,1.3-.9,1.8-.7.8-1.5,1.4-2.3,2.1h0v.1Z"/>
                <path class="cls-3" d="M260.05,247.1c-.3-1.5-.5-2.2-.6-2.9-.3-1.7,1.6-3.6,3.2-3.1.5.2,1,1.7.7,2.2-.8,1.3-1.9,2.3-3.4,3.8h.1Z"/>
                <path class="cls-3" d="M393.25,231.3c-3.5.4-5-4.5-8.8-1.9.2-.8.3-1.9.8-2.3.5-.4,1.6,0,2.3.2,1.3.5,2.5,1,3.7,1.8.7.5,1.2,1.3,2,2.3h0v-.1Z"/>
                <path class="cls-3" d="M143.05,513.5c-.5-3.5-.3-3.7,3-3.2.6,0,1.3-.3,1.9-.5.4,2.4-.2,2.9-4.9,3.8h0v-.1Z"/>
                <path class="cls-3" d="M197.95,253.2c.9-1.8,1.9-3.7,2.9-5.6.2-.3.5-.5.8-.8.2.3.4.6.7.8.4.4.9.8,1.3,1.3-2.4,3.2-4.3,4.6-5.6,4.3h-.1Z"/>
                <path class="cls-3" d="M277.15,416c-.6-3.2,1.2-4.9,2.9-6.8,1.7,2,0,5.8-2.9,6.8Z"/>
                <path class="cls-3" d="M388.55,123.5c-1.8.6-3.4,1.1-4.9,1.5,1.5-3.4,4-5,7.4-4.7-.8,1.1-1.7,2.1-2.5,3.1h0v.1Z"/>
                <path class="cls-3" d="M92.95,169.6c-.9-1-1.7-2.1-2.9-3.4,3.3-.7,3.2-3,2.3-6,2.2,3,2.2,7.7.6,9.4h0Z"/>
                <path class="cls-3" d="M279.95,235.4c.5-3.6,2.9-6,5.2-8.8.5.8.9,1.3,1.3,2-2.2,1.7-5,2.9-4.5,6.5-.8.1-1.5.2-2.1.3h.1Z"/>
                <path class="cls-3" d="M195.65,205.6c-3.2-.6-6.1-1.7-8.5-4.9,3.8.9,6.8,1.8,8.5,4.9Z"/>
                <path class="cls-3" d="M194.95,445.7c1.7,1.4,3.4,2.7,5.2,4-3.1,2.8-5.3-1.1-8-.6.9-.2,2-.1,2.7-.6.4-.3,0-1.5,0-2.8h.1Z"/>
                <path class="cls-3" d="M155.25,320.9c.6,2.2,1.1,3.9,1.5,5.6.2.8.2,1.7,0,2.3-.2.5-1.1.8-1.7.8s-.9-.9-.8-1.3c.3-2.3.7-4.6,1.1-7.4h-.1Z"/>
                <path class="cls-3" d="M68.35,390.4c-1.3-1.2-2.2-2-3.1-2.9,1.1-.6,2.1-1.6,3.2-1.5.9,0,1.7,1.3,2.5,2.1-.7.7-1.5,1.3-2.6,2.4h0v-.1Z"/>
                <path class="cls-3" d="M23.75,386.2c-.5,1.5-.6,3.1-1.2,3.3-1.8.5-3.7.5-5.6.7,0-.4-.2-.8-.3-1.3,2.1-.8,4.2-1.6,7.1-2.7Z"/>
                <path class="cls-3" d="M330.85,195.6h-6.4c-.3-.8-.8-1.7-1.3-2.7,3.2-1.3,5.3,1,7.8,2v.7h-.1Z"/>
                <path class="cls-3" d="M54.75,258c-2.4-.5-4.5,3.9-6.5-.3,2.7-2.3,5.2-2.4,6.5.3Z"/>
                <path class="cls-3" d="M436.15,249.3c-.5-.8-.8-1.4-.9-1.6,1.3-2.1,2.4-3.9,3.6-5.7,1.9,2.8.8,3.5-2.7,7.3h0Z"/>
                <path class="cls-3" d="M70.65,441.3c-.3.5-.4,1.3-.8,1.6-1.8,1.1-3.6,2-5.5,2.9-.4.2-1.1-.2-1.6-.3.3-.6.5-1.5.9-1.7,1.4-.7,2.9-1.1,4.4-1.7.7-.3,1.4-.7,2.1-1.1l.6.3h-.1Z"/>
                <path class="cls-3" d="M327.15,320c1.4,2.9,3.8,2.8,6.8,2.1-1.2,1.7-1.6,3.6-3.6,1.9-.2-.2-.6-.2-.9-.2-2-.1-2.7-1.4-2.2-3.7h0l-.1-.1Z"/>
                <path class="cls-3" d="M366.75,312.1c1.8-1.4,3.4-2.7,5.1-4.1.6,1.5.5,2.9-.7,4.2-1.4,1.5-2.8,1-4.4,0h0v-.1Z"/>
                <path class="cls-3" d="M8.85,238.6c.8-1.6,1.5-2.9,2.2-4.3,2.4,1.9,2.7,2.7,1.2,4.5-1.3,1.6-2.5.9-3.5-.2h.1Z"/>
                <path class="cls-3" d="M442.05,427.5c-1.3.9-2.5,2.1-3.9,2.5s-3.1,0-4.6,0v-.6c2.7-.9,5.5-1.8,8.2-2.8,0,.3.3.6.4.9h-.1Z"/>
                <path class="cls-3" d="M134.95,326.5c-.9.5-1.7,1-2.8,1.6,1.3,1.4,4.8,1.1,3.1,4.2-.4.7-1.4,1.1-2.1,1.7-.2-.2-.3-.5-.5-.7.5-.3,1.1-.5,1.5-.9.3-.4.6-.9.6-1.4s-.6-.7-1-.7c-2,0-2.8-1.3-2.3-2.8.3-.9,2-1.4,3-2,.2.3.3.7.5,1h0Z"/>
                <path class="cls-3" d="M310.85,135.2c-4.2,1.2-7.7,2.2-11.7,3.3,2-2.2,9.5-4.5,11.7-3.3Z"/>
                <path class="cls-3" d="M215.75,270h-4.6c0-.3,0-.6-.2-.8.7-.5,1.5-1,1.9-1.3,0-1.1-.2-2-.3-3,3.9.2,1.8,3.1,3.2,5.1h0Z"/>
                <path class="cls-3" d="M218.35,284c1.5.7,2.8,1.3,4.6,2.2v-3.9c.2,0,.4,0,.6-.1.4,1.4.8,2.9,1.1,4.3,0,.2-.2.6-.3.6-.6.1-1.4.4-1.7.1-1.3-1.1-4.9.5-4.1-3.1h-.2v-.1Z"/>
                <path class="cls-3" d="M272.65,383.6c-1.1,1.7-1.5,4.1-3.9,2.9s-1-1.1-1.5-1.6c.5-.5,1-1.2,1.6-1.3,1.2-.2,2.5,0,3.7,0h.1Z"/>
                <path class="cls-3" d="M44.85,256c-2.9-.7-5.5-1.4-8.5-2.1.5-.4,1-1.2,1.6-1.3,2.6-.4,5.9,1.3,6.9,3.4h0Z"/>
                <path class="cls-3" d="M81.15,436.5c-2.7,1.5-5.4,3-8.6,4.7,1.1-2.7,6.6-6,8.3-5.5,0,.3.2.5.4.8h-.1Z"/>
                <path class="cls-3" d="M248.25,94.7c0-1.8-2.5-3.3-.2-4.8.6-.4,2.6,0,2.6.3.2,1.7,0,3.5-2.4,4.5h0Z"/>
                <path class="cls-3" d="M384.35,244c3,.5,3.6,2.1,3.9,4,.4,2.5-1.9,2.2-3.3,3.1,1.2-2.3,1.9-4.5-.6-7.1h0Z"/>
                <path class="cls-3" d="M184.95,194.8c.4.2,1,.5,2.1,1-.7.4-1.2.9-1.5.8-1-.3-2.1-.7-3-1.3-.5-.4-.7-1.3-1.1-2,.5,0,1.1-.1,1.6-.2.3,0,.7,0,.7-.1.4-1.1,1-1.9,2-.7.3.4-.4,1.5-.8,2.5Z"/>
                <path class="cls-3" d="M382.65,525.5c.2,3,1.9,5.5.4,8.4-2.1-2-2.4-6.4-.4-8.4Z"/>
                <path class="cls-3" d="M226.55,171.6c1.1,0,2.3-.1,3.2.4.8.4,1.3,1.5,1.6,2.3,0,.3-.4,1.2-.8,1.3-.6,0-1.4-.1-1.9-.5-.8-.7-1.4-1.7-2-2.5v-1h-.1Z"/>
                <path class="cls-3" d="M317.45,185c.3-2,1.7-3.4,3.3-4.4.4-.2,1.3.4,2.7,1-2.3,1.7-3.8,2.9-5.4,4.1-.2-.2-.4-.5-.6-.7h0Z"/>
                <path class="cls-3" d="M288.45,334.9c-.3-.5-.9-1.5-1.7-3,1.1.4,1.7.6,1.8.6,1.2-.7,2.1-1.5,3.1-1.5s1.3,1.1,1.9,1.7c-1.8.8-3.2,1.5-5,2.2h-.1Z"/>
                <path class="cls-3" d="M128.05,283.8l-1.7-5.2c.3-.2.5-.3.8-.5,1.3,1.3,2.6,2.6,4.2,4.2-1,.4-2.2,1-3.4,1.5h.1Z"/>
                <path class="cls-3" d="M341.35,87.1c3-1.2,4,1.8,6,2.6-2.3,1.7-5.2.5-6-2.6Z"/>
                <path class="cls-3" d="M201.25,312.4c-1.6-.6-3.1-1.2-5.3-2.1,1.3-.9,2.8-2.3,3.2-2.1,1.2.8,2,2.3,2.9,3.5-.3.2-.5.5-.8.7h0Z"/>
                <path class="cls-3" d="M104.25,250.1c3.4.9,6.1,1.5,8.9,2.2v.6c-1.1.2-2.2.7-3.2.4-1.6-.5-3-1.7-4.9-1.1,0,0-.5-1-.9-2h.1v-.1Z"/>
                <path class="cls-3" d="M313.45,246.5c3.3.4,6.5.7,10.4,1.2-.7.7-1,1.4-1.3,1.3-3.1-.5-6.2-1-9.3-1.6,0-.3,0-.6.2-.9h0Z"/>
                <path class="cls-3" d="M301.15,39c-.3-2.6-.7-5.2-1.1-8.1,1.7,1.5,3.4,2.9,5,4.4,0,.2-.2.3-.3.5-1-.6-1.9-1.3-3.3-2.2.4,2.1.7,3.7,1,5.2-.4,0-.9,0-1.3.2h0Z"/>
                <path class="cls-3" d="M114.35,196.7c1.1.9,1.8,1.6,2.6,2.3-.7.7-1.7,2-2,1.9-1-.4-1.8-1.4-2.7-2.2.6-.5,1.2-1.1,2.2-1.9h0l-.1-.1Z"/>
                <path class="cls-3" d="M68.35,71.1s.6-1.1.7-1.1c2.3,1,4.5,2.1,6.7,3.2,0,.4-.2.7-.4,1.1-1-.2-2-.3-2.9-.7-1.3-.6-2.6-1.5-4.2-2.4h.1v-.1Z"/>
                <path class="cls-3" d="M195.05,242.7c-.3,1.2-.6,2.5-.8,3.7-1.2-.7-2.3-1.4-3.5-2v-.9c1.2-.5,2.5-1,3.7-1.5.2.2.4.5.5.7h.1Z"/>
                <path class="cls-3" d="M268.55,179.2c.5-.7.9-1.3,1.2-1.9.5.6,1.3,1.1,1.4,1.8.2,1.2,0,2.4-.2,3.6,0,0-1,.2-1,0-.5-1.1-.9-2.3-1.4-3.6h0v.1Z"/>
                <path class="cls-3" d="M141.55,528.3c.3-1.2.4-2.5,1-3.4.4-.6,1.7-.7,2.6-1,0,.8.3,1.7,0,2.2-.8,1.1-2,1.9-3,2.8-.2-.2-.3-.4-.5-.6h-.1Z"/>
                <path class="cls-3" d="M186.55,151.4c0,.3.5,1.3.9,2.2-.2.2-.3.3-.5.5-2.1-1.8-4.1-3.6-6.2-5.4l.8-.9c1.5,1.1,2.9,2.1,5,3.6h0Z"/>
                <path class="cls-3" d="M371.45,379.9c3-.6,6-1.2,9.5-1.9-3,2.4-6,3.2-9.3,2.7,0-.3,0-.5-.2-.8h0Z"/>
                <path class="cls-3" d="M191.55,216.7c1.3,1.2,2.6,2.4,4,3.5,0,.3-.3.5-.4.8-1.6-.5-3.3-.9-4.8-1.6-.3-.1.2-1.8.4-2.7h.9-.1Z"/>
                <path class="cls-3" d="M165.55,236.5c0,.2.5.5.5.8s-.3,1-.6,1.1c-1.2.4-2.2,1-2.3,2.4,0,.2-.9.5-1.4.5s-.6-.5-.6-.8c-.2-1.5,2.8-4.3,4.4-4h0Z"/>
                <path class="cls-3" d="M313.45,282c0-.2-.7-.8-1.2-1.5,2.9-2.2,4.8-1.6,5.8,1.6h-4.6v-.1Z"/>
                <path class="cls-3" d="M304.15,465.6c1.2,1.7,2.4,3.3,3.8,5.2-2.9.3-4.5-1.6-4.6-4.7.2-.2.5-.4.7-.6h0l.1.1Z"/>
                <path class="cls-3" d="M375.25,183.9c4,1.2,7.9,2.4,11.9,3.6,0,.3-.2.6-.3.8-4-1.2-7.9-2.5-11.9-3.7,0-.2.2-.5.3-.7h0Z"/>
                <path class="cls-3" d="M292.65,394.8c.3-1.8.5-2.8.7-4.4,1.5,1,2.6,1.7,3.7,2.5v.9c-1.3.3-2.6.6-4.4,1Z"/>
                <path class="cls-3" d="M30.95,288.7c-2.6-.7-3.9,3.4-7.2,1.3,2.7.1,3.7-1.6,4.6-4,1.1.8,1.9,1.4,2.7,2,0,.3-.1.5-.2.8h.1v-.1Z"/>
                <path class="cls-3" d="M244.05,114c.5,3.6,0,4.1-4.2,3.4,1.4-1.5,2.4-2.8,3.5-4,.2.2.5.4.7.6Z"/>
                <path class="cls-3" d="M143.85,197.8c1.4-.2,3.1-.7,3.2-.4.5,1.1.6,2.4.8,3.7-2.8.8-3-1.3-4-3.3Z"/>
                <path class="cls-3" d="M294.25,359.6c1.1-1.3,1.9-2.1,3-3.4.3,1.6.7,2.8.8,4,0,.4-1.1,1.2-1.4,1.1-.9-.3-1.6-1.1-2.4-1.7h0Z"/>
                <path class="cls-3" d="M258.55,310.2c-.3-.8-.6-1.8-1-2.7,2.6-1.7,3.3-1.4,4.3,1.6-1,.3-2.1.7-3.3,1.1Z"/>
                <path class="cls-3" d="M318.85,128.6c-2.4,3.5-6.1,1.2-8.9,3,0-.4-.2-.8-.3-1.3,3-.6,6.1-1.2,9.1-1.8h.1v.1Z"/>
                <path class="cls-3" d="M191.15,179.9h4.4s.2.5.6,1.2c1.2-1.4,2.3-2.7,3.4-3.9,0,.2.3.3.4.5-2.8,4.8-6.4,5.7-8.8,2.3h0v-.1Z"/>
                <path class="cls-3" d="M345.55,216.3c-3.2.1-6.3.6-8.6-1.3,1.6-.2,3.6-.8,5.6-.7,1,0,2,1.3,3,2Z"/>
                <path class="cls-3" d="M288.55,213.2c-.3-.7-.6-1.3-.8-1.8-.3-.7-.5-1.3-.7-2,.5-.1,1.1-.5,1.5-.3.8.4,1.9,1,2,1.6.3,1.3,0,2.7-2,2.5Z"/>
                <path class="cls-3" d="M311.65,170.3c.9-2.5,4.1-2.8,6.3-.4-2,.1-4,.2-6.3.4Z"/>
                <path class="cls-3" d="M156.25,370.5c2.3,1.1,3.8,2,2.6,4.8-1.1-.6-2.4-1-3.1-1.8-.4-.5.3-1.7.5-3Z"/>
                <path class="cls-3" d="M261.75,304.9h3.6c.4.6,1,1.5,1.9,2.6-1.4,0-2.9.2-4.3-.2-.6-.2-.8-1.6-1.2-2.4Z"/>
                <path class="cls-3" d="M122.45,225.3l-5.7,4.6-.7-.5c.5-.7,1-1.4,1.5-2,.6-.8,1.1-1.8,1.8-2.2.8-.4,1.8-.2,2.8-.3,0,.1,0,.3.2.4h.1Z"/>
                <path class="cls-3" d="M314.75,320.7h6.6c-.8.9-1.4,1.8-2.1,2-1.6.4-3.4.6-4.5-2Z"/>
                <path class="cls-3" d="M239.95,521.3c.2-2.4,1.6-2.7,3.4-2.2.4,0,1,1.2.8,1.4-1,1.9-2.5,1.9-4.2.8Z"/>
                <path class="cls-3" d="M171.75,333.8c.3-1.2.5-2.4.8-3.7.8.3,2.1.4,2.4.9,1.1,2.3-1.3,2.2-2.2,3-.3,0-.6-.2-.9-.3h0l-.1.1Z"/>
                <path class="cls-3" d="M168.95,365.6c3.7-3.6,7.8-2.8,9.2,1.4-2.4-2.9-5.5-2.5-9.2-1.4Z"/>
                <path class="cls-3" d="M193.95,200.5c1.2.1,2.6,0,3.7.5.6.2.8,1.3,1.2,2-.6.1-1.4.5-1.8.3-1.2-.5-2.3-1.3-3.4-1.9,0-.3.3-.6.4-.9h-.1Z"/>
                <path class="cls-3" d="M82.25,381.6c-1.7,1.5-2.6,2.4-3.6,3.1-.3.2-1.1-.2-1.7-.3.3-.8.3-2.2.8-2.4,1.2-.4,2.6-.3,4.5-.4h0Z"/>
                <path class="cls-3" d="M142.15,203.4c-.8-.2-1.5-.3-2.4-.4-.3-2.8,2.6-1.2,3-2.7.3.1.6.2.9.4-.2,1.6-.4,3.2-.6,4.7h-.6c0-.6-.2-1.2-.3-1.9h0v-.1Z"/>
                <path class="cls-3" d="M223.95,474.5c-.9,4-1.9,8-2.8,11.9-.4,0-.7-.2-1.1-.3,1.3-3.9,2.6-7.8,3.9-11.6h0Z"/>
                <path class="cls-3" d="M330.45,402.5c-1.8-.8-3.5-1.7-5.6-2.6,1.7-1.1,3.6-.5,5.9,1.8l-.3.8h0Z"/>
                <path class="cls-3" d="M15.15,231.8c-1,.6-1.3,2.8-3.1,1.3-.5-.4,0-1.8,0-2.7,1,.1,2.1.2,3.1.3v1h0v.1Z"/>
                <path class="cls-3" d="M88.95,233c1.4,0,2.9,0,4.3.1.3,0,.6.7.9,1.1-.4.3-.9.8-1.2.8-1.4-.1-2.7-.5-4.1-.7v-1.3h.1Z"/>
                <path class="cls-3" d="M76.35,236.7c.9.2,1.8.5,2.8.7-.4,2-.7,3.7-1.1,5.4h-.6c-.3-1.9-.7-3.8-1.1-6.1h0Z"/>
                <path class="cls-3" d="M136.15,434.6c2.3.9,1.8,2.7,1.7,4.5-2.7,0-3.2-1.5-1.7-4.5Z"/>
                <path class="cls-3" d="M150.65,378.7c-1-.1-2.1,0-3-.4-.6-.2-.9-1-1.3-1.6.6-.3,1.2-.9,1.6-.7,1.1.4,2.2,1.1,3.2,1.7-.2.3-.3.7-.5,1Z"/>
                <path class="cls-3" d="M62.75,340.9c.7.9-.4,2.5-3.2,4.6-1.9-1.2-.5-2.1.4-2.8.9-.7,1.8-1.2,2.8-1.8h0Z"/>
                <path class="cls-3" d="M225.85,405.4c-.8,1.9-1.6,3.6-2.7,5.9-1.3-3.4-.9-5.4,2.7-5.9Z"/>
                <path class="cls-3" d="M90.95,361.4c1.8-.1,3.3-.2,5.6-.4-.5,1.2-.7,2.3-1.1,2.4-1.6.3-3.3.2-4.4-2h-.1Z"/>
                <path class="cls-3" d="M170.05,49.1c0-2.3,0-4.6.2-7,0-.3.9-.6,1.4-.9.2.4.6.9.5,1.3-.5,2.2-1.1,4.3-1.7,6.5h-.5l.1.1Z"/>
                <path class="cls-3" d="M96.95,183.6c1.8.1,3.5.2,5.2.4.3,0,.6.5.7.8,0,.2,0,.7-.3.8-1.2,1-5.2-.5-5.6-2h0Z"/>
                <path class="cls-3" d="M331.05,408.9c2,2.9.5,3.8-1,4.4-.4.2-1-.2-1.6-.3.8-1.2,1.5-2.5,2.5-4.1h.1Z"/>
                <path class="cls-3" d="M248.25,230.6c.7-1.8-1.1-4.3,1.6-5.5,1.6,1.8,1.2,3.2-1.6,5.5Z"/>
                <path class="cls-3" d="M353.35,331c.8,1,1.3,1.6,1.8,2.2-.7.6-1.4,1.5-2.3,1.7-.4.1-1.2-1-1.8-1.5.6-.7,1.2-1.4,2.2-2.4h.1Z"/>
                <path class="cls-3" d="M386.15,379.9c-2.7,0-2.6-2.1-3-3.8,3.2,0,4.3,1.3,3,3.8Z"/>
                <path class="cls-3" d="M374.05,122.2c-1.6-.9-3.5-1.9-5.7-3.1,1.7-.6,2.8-1.1,3.7-1.4.7,1.5,1.4,3.1,2,4.5Z"/>
                <path class="cls-3" d="M41.15,368.4c1.1.8,2.2,1.5,3.8,2.6-1.6.7-2.5,1.1-3.8,1.7-.3-1.4-.5-2.6-.7-3.8l.7-.5h0Z"/>
                <path class="cls-3" d="M78.75,387.2c.9.8,1.9,1.5,2.7,2.4.3.3.2,1.5,0,1.6-.5.2-1.6.3-1.8,0-.7-1.1-1.1-2.3-1.6-3.5.2-.2.5-.3.7-.5h0Z"/>
                <path class="cls-3" d="M273.75,290.3c-.6-1.7,0-2.3,1.7-2.1,1.5.2,2.9.5,4.3.7v.9c-2,.2-4,.3-6,.5h0Z"/>
                <path class="cls-3" d="M19.65,272.9c-1.2-.5-2.4-1-3.8-1.5.4-.5.8-.9,1.2-1.4-.5-.4-1-.8-1.4-1.2.1-.2.2-.4.3-.4,3.2-.3,2.3,3,4.1,4-.1.2-.3.3-.4.5h0Z"/>
                <path class="cls-3" d="M373.85,282c-1.1-.1-2.2-.3-3.3-.4.5-.9,1-1.8,1.5-2.7.8.6,1.7,1.3,2.5,1.9-.2.4-.4.8-.6,1.3h-.1v-.1Z"/>
                <path class="cls-3" d="M201.85,89.4c-3.1,2.3-4.6,2.7-6.7,1,2.5-.7,4.6-1.2,6.6-1.8v.8h.1Z"/>
                <path class="cls-3" d="M127.95,283.9c2.2.7,2.6,2.9.2,5.4,0-1.8,0-3.7-.2-5.5h0v.1Z"/>
                <path class="cls-3" d="M226.45,316.8c-1.8,1.8-3.1,3.2-4.6,4.7-.7-2.6,1.1-4.6,4.6-4.7Z"/>
                <path class="cls-3" d="M88.15,328.7c1.4-1.8,2.8-3.4,4.1-5,1.6,2.7-.6,4.8-4.1,5Z"/>
                <path class="cls-3" d="M381.15,148.2c1.5,1.9,3,3.9,4.5,5.8-.3.2-.6.5-1,.7l-4.4-5.9.9-.7h0v.1Z"/>
                <path class="cls-3" d="M54.95,275.1c.1-1.9,1.5-2.3,2.8-2.2,1.4.1,1.7,1.1,1.1,2.5-.2.4.3,1.1,0,1.8-.4-.7-.6-1.8-1.2-2.1-.7-.3-1.8,0-2.8,0h.1Z"/>
                <path class="cls-3" d="M383.85,394.3l.8-9.7c1.7,3.4.2,6.6-.8,9.7Z"/>
                <path class="cls-3" d="M142.45,118.4c1-1.3,2.1-2.7,3.2-4,0-.2.8,0,1,0,.2.2.3.9,0,1.1-1.1,1.2-2.2,2.4-3.4,3.6-.3-.3-.6-.5-1-.8h.2v.1Z"/>
                <path class="cls-3" d="M253.55,169c.7-.7,1.3-1.4,2.1-1.9.2-.1,1.5,1.3,1.5,1.4-.6.9-1.3,1.8-2.1,2.3-.3.2-1.2-.5-1.9-.7.2-.4.3-.7.5-1.1h-.1Z"/>
                <path class="cls-3" d="M190.05,298.8c2.2-.5,4-.9,5.7-1.2,0,.4.2,1.2,0,1.3-1.6.7-3.2,2.3-5.7,0h0v-.1Z"/>
                <path class="cls-3" d="M97.85,228.9c-.5-1.8-.7-2.9-1.1-4.1h4.3c-1.1,1.5-2,2.5-3.2,4.1Z"/>
                <path class="cls-3" d="M76.15,277.1c1.4-.9,2.2-1.6,3.1-1.9.3,0,.9.8,1.3,1.2-.6.6-1.1,1.5-1.9,1.8-.4.2-1.2-.5-2.5-1.2h0v.1Z"/>
                <path class="cls-3" d="M11.55,112.6c-1.2,1.4-2.2,2.5-3.9,1.3-.3-.2-.6-1.3-.3-1.5,1.4-1.4,2.7-.6,4.2.2h0Z"/>
                <path class="cls-3" d="M223.85,242.3c2.2-.3,4-.6,6-.8-1.4,2.5-3.9,2.8-6,.8Z"/>
                <path class="cls-3" d="M112.85,504.3c-1.2-.2-2.4-.2-3.6-.6-.4-.1-.6-.9-.9-1.4.6-.2,1.2-.7,1.6-.6,1.1.4,2.1,1.1,3.1,1.6,0,.3-.2.6-.2.9h0v.1Z"/>
                <path class="cls-3" d="M112.05,281.3c2.6.9,4.6,1.4,4.5,4.3-.6-2.2-4.5-.7-4.5-4.3Z"/>
                <path class="cls-3" d="M176.15,126.4c0-2.3,1.6-3.5,3.5-5.3.5,3.4-2.4,3.7-3.5,5.3Z"/>
                <path class="cls-3" d="M158.05,336.3c1-1.1,1.8-2,2.7-2.8.3-.3,1.1-.6,1.4-.4.7.4,1.1,1.1,2,1.9-2.4.5-4.1.9-6.1,1.3h0Z"/>
                <path class="cls-3" d="M359.55,371.4c-1.5.4-3,.9-4.5,1.3-.2-.2-.4-.3-.5-.5.4-.7.8-1.8,1.3-1.9,1.2-.2,2.5,0,3.7.2v.9Z"/>
                <path class="cls-3" d="M227.65,137.5c.6-1.1,1.2-2.1,1.9-3.2.4,1,1,1.9,1,2.9s-1.3.8-2,1.2c-.3-.3-.6-.6-.9-.9Z"/>
                <path class="cls-3" d="M238.75,208.6h-4c.6-1.4,1-2.1,1.6-3.3,1,1,1.9,1.8,2.8,2.6,0,.2-.2.5-.3.7h-.1Z"/>
                <path class="cls-3" d="M186.75,134.5c-.8-.3-1.5-.6-2.2-.9-.8-1.5-1.6-3.1-2.4-4.6.2-.1.4-.3.7-.4,1.4,1.9,2.8,3.8,4.3,5.7,0,0-.2.2-.3.3h0l-.1-.1Z"/>
                <path class="cls-3" d="M310.65,351.5c-1.7-.7-2.2-1.9-1.8-3.5,0-.2,1.5-.5,1.8-.2,1.4,1.1,1.3,2.4,0,3.7Z"/>
                <path class="cls-3" d="M239.95,198.5c1.1.3,2.2.7,3.3,1-.3.9-.6,1.7-1.1,3.2-1.2-1.6-1.9-2.5-2.7-3.5.2-.2.3-.5.5-.7Z"/>
                <path class="cls-3" d="M206.05,414.7l1.5-5.9h.7c.9,2.3,0,4.3-1.3,6.1-.3,0-.6-.1-.8-.2h-.1Z"/>
                <path class="cls-3" d="M137.45,112.7c-.6,1-1.2,2-1.9,2.9-.2.2-.9.3-1,.2-.3-.4-.7-1-.6-1.4,0-.5.4-1.3.8-1.5.7-.4,1.5-.4,2.3-.5.2,0,.3.3.5.4h0l-.1-.1Z"/>
                <path class="cls-3" d="M254.85,171.5c1.9,2.4.6,3.2-.5,3.9-.3.2-1.1-.2-1.6-.4.7-1.1,1.3-2.2,2.1-3.6h0v.1Z"/>
                <path class="cls-3" d="M210.75,325.8c-.9.8-1.9,1.6-2.8,2.3-.3-.5-1-1.5-.9-1.5.9-.8,1.8-1.4,2.8-2.1.3.4.6.8,1,1.2h0l-.1.1Z"/>
                <path class="cls-3" d="M74.15,171.4c-1.2.2-2.2.3-3.3.5-.5-.7-.9-1.4-1.4-2.2,2.5-.4,3.7,0,4.7,1.7Z"/>
                <path class="cls-3" d="M97.55,198.2c2,1.2,4,2.5,6.1,3.7-.2.3-.4.6-.5.9-2-1.2-4.1-2.4-6.1-3.6.2-.3.4-.7.6-1h-.1Z"/>
                <path class="cls-3" d="M419.25,251.5c.3-.8.5-1.7.8-2.6,2.1.7,4,1.4,5.8,2-2,1-4.4-1.9-6.1,1.6-.2-.3-.4-.6-.6-.9h0l.1-.1Z"/>
                <path class="cls-3" d="M307.55,222.1c.5,1.5.8,2.5,1.3,3.8-1.4,0-2.5-.2-4.5-.3,1.3-1.4,2.1-2.3,3.2-3.4h0v-.1Z"/>
                <path class="cls-3" d="M303.65,380.4c-1.3-1.8-2.6-3.6-3.8-5.3,2.8,0,3.8,1.3,3.8,5.3Z"/>
                <path class="cls-3" d="M320.25,199.4c2-2.6,2.7-2.9,4.6-1.7-1.8,1.7-3.3,2.2-4.6,1.7Z"/>
                <path class="cls-3" d="M263.35,224.8c.7-.2,1.4-.8,2-.6.7.2,1.1,1,1.7,1.5-.5.4-1.1,1.2-1.6,1.1-.8-.1-1.5-.8-2.3-1.3v-.7h.2,0Z"/>
                <path class="cls-3" d="M10.45,385.4c-.6-1.6,1.5-5,3.7-5.2-1.2,1.7-2.4,3.4-3.7,5.2Z"/>
                <path class="cls-3" d="M352.15,407.1c-1,.4-2,1-3,1.3-.4.1-1-.4-1.6-.7.4-.5.8-1.4,1.3-1.5.9-.2,2,0,3,0,0,.3.2.6.3.9h0Z"/>
                <path class="cls-3" d="M98.85,60.4c1.1.2,2.3.3,3.4.5,0,.6,0,1.5-.3,1.7-1.4.7-2.5.2-3.3-1l.2-1.2h0Z"/>
                <path class="cls-3" d="M113.75,61.6c-2.8.7-5.6,1.5-8.4,2.2,0-.3-.2-.6-.2-1,2.8-.6,5.7-1.2,8.5-1.9v.6h.1v.1Z"/>
                <path class="cls-3" d="M409.65,261.4c.8.7,1.7,1.3,1.6,1.4-.9,2,.8,3.3,1.4,4.9-1.9-.2-3-2.5-3.1-6.3h.1Z"/>
                <path class="cls-3" d="M323.55,292.1c1.1,1.7,2.1,3.2,3.2,4.7,0,.2-.2.4-.4.6-.6-.4-1.4-.7-1.9-1.2-1.1-1.2-1.4-2.5-.9-4h0v-.1Z"/>
                <path class="cls-3" d="M66.95,174.7c.8-.8,1.5-1.6,2.6-2.8.4.9.8,1.7,1.1,2.5-1.1.4-2.2.8-3.4,1.3l-.4-.9h.1v-.1Z"/>
                <path class="cls-3" d="M47.65,346.8c2.3.4,4.1.7,6,1-2.1,1.2-4.1,2.2-6-1Z"/>
                <path class="cls-3" d="M437.25,274.9c-1.7,1.1-3.5,2.1-5.2,3.2-.2-.3-.4-.6-.6-.9,1.7-1.1,3.5-2.2,5.2-3.3.2.3.4.7.6,1h0Z"/>
                <path class="cls-3" d="M53.45,423.5c.2,3.7.5,7.4.7,11.1h-.8l.3-11.2h-.2v.1Z"/>
                <path class="cls-3" d="M440.05,254.2c.8,1.4,1.4,2.3,1.9,3.3,0,.2-.5.9-.5.9-1-.5-1.9-1-3-1.6.5-.8.9-1.4,1.6-2.5h0v-.1Z"/>
                <path class="cls-3" d="M224.85,171.6c-1.9,1.7-3.3.4-4.8-.4,1.6-1.5,3-1.4,4.8.4Z"/>
                <path class="cls-3" d="M163.95,95.8c-1.2,0-2.5.3-3.7.4-.3,0-.8-.4-1-.8,0-.2.3-1,.5-1,1.4,0,2.9,0,4.3.2v1.2h-.1Z"/>
                <path class="cls-3" d="M316.05,396.7c-1.4.4-2.8.8-4.2,1-.2,0-.5-1.1-.8-1.6,1.8,0,3.3-.2,4.7-.2,0,.3.2.6.3.9h0v-.1Z"/>
                <path class="cls-3" d="M305.75,473.6c.9-.7,1.6-1.5,1.7-1.4.8.6,1.6,1.4,2.3,2.2,0,0-.8,1.1-1,1-.9-.4-1.8-1-3-1.8h0Z"/>
                <path class="cls-3" d="M349.75,450.1c-1.5-1-3-2-4.5-2.9,2.1-.6,3.6.4,4.5,3,1.4,3.9,0,0,0,0h0v-.1Z"/>
                <path class="cls-3" d="M48.35,280.4c-.9-.8-1.6-1.5-2.6-2.5h5.6c-1.3,1.2-2.1,1.9-2.9,2.5h-.1Z"/>
                <path class="cls-3" d="M206.85,340.4c1.1-.7,1.7-1.4,2-1.3.6.2,1.3.8,1.4,1.4,0,.4-.5,1.1-.8,1.6-.7-.5-1.4-1-2.6-1.8h0v.1Z"/>
                <path class="cls-3" d="M149.85,519.3c-1.4-.2-2.4-.3-3.4-.6-.4,0-.7-.6-1.1-1,.4-.3.7-.8,1.2-.8,1.5-.3,2.6.3,3.3,2.4h0Z"/>
                <path class="cls-3" d="M270.45,242.1c.2.8.4,1.5.6,2.2-1,.7-1.9,1.3-2.7,1.9.8-1.4-1.3-4.1,2.1-4.1h0Z"/>
                <path class="cls-3" d="M218.55,378.9c3-.7,3.8,0,4,3.6-1.4-1.3-2.6-2.4-4-3.6Z"/>
                <path class="cls-3" d="M180.65,385.6c0,2.9-.2,3.3-3.3,2.6,1-1.2,1.8-2.2,2.7-3.1.2.2.5.4.7.5h-.1Z"/>
                <path class="cls-3" d="M373.65,145c.3,1.7.6,3.3,1,5.1-2.2-1.3-2.6-2.5-1.8-4.9.3,0,.6-.2.9-.2h-.1Z"/>
                <path class="cls-3" d="M213.35,461.8c.9.6,1.7,1.1,2.6,1.7-.6.6-1.3,1.2-1.9,1.8-.5-.9-1-1.8-1.6-2.7l.9-.9h0v.1Z"/>
                <path class="cls-3" d="M351.35,337.5c-.9.7-1.7,1.4-2.7,1.9s-1.2-.5-1.2-.7c.2-.7.4-1.6.9-1.9.7-.3,1.7,0,2.6,0,0,.2.2.4.4.6h0v.1Z"/>
                <path class="cls-3" d="M335.85,333.6c-3.8,0-4.1-.3-3.7-4.2,1.3,1.5,2.3,2.6,3.7,4.2Z"/>
                <path class="cls-3" d="M246.45,440.8c3.4-.3,3.9.4,2.9,4-1-1.4-1.8-2.5-2.9-4Z"/>
                <path class="cls-3" d="M321.05,210c1.5-1.7,2.9-3.5,4.4-5.2.3.2.5.4.8.7-1.5,1.7-3,3.4-4.5,5-.2-.2-.5-.3-.7-.5Z"/>
                <path class="cls-3" d="M273.85,279.7c2.1-2.9,3.1-3,5.3-1.1-1.7.4-3.2.7-5.3,1.1Z"/>
                <path class="cls-3" d="M216.35,362.2c-.8,2.3-1.4,4.1-2.2,6.2-1.2-2.1-.4-4.3,2.2-6.2Z"/>
                <path class="cls-3" d="M401.95,340.8c1.9.9,2.3,1.9,1.1,2.8-.5.4-1.5.2-2.2.2.4-.9.7-1.9,1.2-3h-.1Z"/>
                <path class="cls-3" d="M194.75,172.8c-1.6,1.9-2.8,3.2-4.1,4.7-.4-2.5,1-4.2,4.1-4.7Z"/>
                <path class="cls-3" d="M378.65,227.2c-1.2,0-2.4,0-3.6-.1-.2,0-.2-.9-.3-1.4h3.9v1.6h0v-.1Z"/>
                <path class="cls-3" d="M119.05,120.4c-.8.4-1.7.7-2.5,1.1-.3-.7-.6-1.4-.9-2.1h3.1c0,.4.2.7.3,1.1h0v-.1Z"/>
                <path class="cls-3" d="M205.65,237.5c.3,1.5-.5,2.5-2,2.9-.3,0-.8-.3-1.1-.5.8-1,1.6-2,2.4-3,.2.2.5.4.7.6h0Z"/>
                <path class="cls-3" d="M92.75,113.5c2.6-1.5,3.3.4,4.5,1.1-.3.4-.8,1.1-.9,1-1.1-.5-2.1-1.2-3.5-2.1h-.1Z"/>
                <path class="cls-3" d="M286.35,208.3c0-3.1.7-3.5,4.2-2.8-1.6,1.1-2.7,1.8-4.2,2.8Z"/>
                <path class="cls-3" d="M390.55,518.4c1.9.3,4,0,4.9,2.7-1.7-.7-3.5-1.3-5.2-2,0-.2.2-.5.3-.7Z"/>
                <path class="cls-3" d="M211.65,288.4c.3,1.7.6,3.4,1.1,5.6-2.9-3.7-3-4.6-1.1-5.6Z"/>
                <path class="cls-3" d="M191.15,179.9c-2.2.3-4.2.1-6.5-1.4,2.7-.5,4.7,0,6.4,1.5h0l.1-.1Z"/>
                <path class="cls-3" d="M198.15,22.1c-.6,1.8-1.2,3.3-1.9,5.2-1.2-3.1-.7-4.5,1.9-5.2Z"/>
                <path class="cls-3" d="M275.65,441.2c-1.4-.8-2.7-1.7-4.2-2.6,2-1.3,3.3-.6,4.2,2.6Z"/>
                <path class="cls-3" d="M77.25,403.2c1.2-1.7,2.4-3.4,3.6-5.2.3.2.6.5,1,.7-1.2,1.7-2.5,3.4-3.7,5.1-.3-.2-.5-.4-.8-.6h-.1Z"/>
                <path class="cls-3" d="M81.75,263.7c-.8-.7-1.6-1.4-2.4-2.2,0-.2.2-.5.3-.7.8,0,1.9-.4,2.4,0s.4,1.5.6,2.3c-.3.2-.6.4-.8.7h0l-.1-.1Z"/>
                <path class="cls-3" d="M378.85,15.3c.7.5,1.3.7,1.8,1.2s.8,1.1,1.2,1.7c-3.1.8-3.7.3-3-2.8h0v-.1Z"/>
                <path class="cls-3" d="M447.85,270c-.8-.5-1.6-1-2.3-1.5.5-.5,1-1.1,1.4-1.6.6.7,1.2,1.4,1.8,2.1l-.9,1Z"/>
                <path class="cls-3" d="M80.55,141.4c.6,1.5.4,2.6-1.2,3.2-.5.2-1,0-1.6,0,.2-.5.4-1.1.7-1.5.6-.6,1.3-1,2.1-1.6h0v-.1Z"/>
                <path class="cls-3" d="M101.25,243.3c2.1-.3,4.2-.5,6.7-.8-1.3,1.6-3.9,2-6.7.8Z"/>
                <path class="cls-3" d="M157.05,377.8c-1.6-.2-3.2-.5-5.1-.8,1.5-1.6,3.5-1.4,5.2,0v.8h-.1Z"/>
                <path class="cls-3" d="M303.35,199.6c-1,1.1-.7,3.9-4,2.8,1.3-1.3,2.3-2.4,3.3-3.5.2.2.4.5.7.7Z"/>
                <path class="cls-3" d="M252.75,116.8c-.6,2-1,3.3-1.4,4.6h-.7c0-1.3-.3-2.6-.2-3.9,0-.3,1.2-.4,2.3-.8h0v.1Z"/>
                <path class="cls-3" d="M218.15,206.8c.2-2.3.6-3.3,2.1-2.7.5.2.7.9,1.1,1.4-.9.4-1.8.8-3.2,1.3h0Z"/>
                <path class="cls-3" d="M408.95,330.7h-5.7c1.7-1.9,3.6-1.9,5.7,0Z"/>
                <path class="cls-3" d="M45.95,376.6c.3.9.7,1.7,1.3,3.3-1.3-.3-2.1-.5-2.9-.7.3-.9.5-1.8.8-2.7.3,0,.5,0,.8.1h0Z"/>
                <path class="cls-3" d="M187.95,411.9c1.2-.4,2.3-.7,3.5-1.1.2.1.4.3.5.4-.6.8-1,1.9-1.8,2.2-.6.2-1.6-.6-2.5-1,0-.2,0-.4.2-.5h.1Z"/>
                <path class="cls-3" d="M162.05,135c-.8-.6-1.6-1.3-2.8-2.2,1.1-.5,1.9-.9,3.1-1.5.2,1.4.3,2.4.4,3.4l-.7.3Z"/>
                <path class="cls-3" d="M160.95,135.5c1.3.3,2.2.5,3.6.9-.9,1.3-1.5,2.1-2.3,3.2-.5-1.4-.8-2.4-1.3-4h0v-.1Z"/>
                <path class="cls-3" d="M139.75,260.9h4.5c-1.5,2-3,1.3-4.5.8v-.8Z"/>
                <path class="cls-3" d="M178.05,375c-1.1,1.3-2.1,2.6-3.3,4.1-.2-.4-.7-1.1-.6-1.2,1.1-1.2,2.3-2.3,3.4-3.5l.6.6h-.1Z"/>
                <path class="cls-3" d="M207.25,268.6c-1.3-1.1-2.3-2-3.7-3.1,3.7-.2,4.4.3,3.7,3.1Z"/>
                <path class="cls-3" d="M207.55,252.4c-.3,1.5-.5,2.5-.8,3.9-1.1-.7-1.8-1.3-2.9-2,1.3-.7,2.3-1.1,3.7-1.9Z"/>
                <path class="cls-3" d="M180.85,102.9c-1.2-.2-2-.4-3.4-.6,1.4-1.1,2.4-1.9,3.5-2.8v3.4h-.1Z"/>
                <path class="cls-3" d="M76.35,96.9c-1.4-1.4-2.6-2.6-3.9-3.9,4.7,1.7,5,2.1,3.9,3.9Z"/>
                <path class="cls-3" d="M164.25,400.2c1.7.5,2.6.8,3.6,1.1v.7c-.8.4-1.7.9-2.5,1.3-.3-.8-.6-1.6-1.2-3.1h.1Z"/>
                <path class="cls-3" d="M326.65,104.6c-1.5.3-3.1.7-4.9,1.1,1-1.9,2.3-2.2,4.9-1.1Z"/>
                <path class="cls-3" d="M123.55,60.2l-5,.7c1.5-1.6,3.2-2.3,5-1.3v.6Z"/>
                <path class="cls-3" d="M252.55,457.4c2.3-1.8,2.6.8,4,1.5-2.6,2.3-2.3-2.1-4-1.5Z"/>
                <path class="cls-3" d="M218.95,265.3c2.3,2.7,2.3,3.2.3,4.3,0-1.5-.2-2.9-.3-4.3Z"/>
                <path class="cls-3" d="M64.45,14.3c.4-.9.7-2,1.4-2.7.3-.3,1.3-.1,1.9-.1,0,.2,0,.4.2.6-.9.9-1.7,1.8-2.6,2.6-.3-.1-.6-.3-.9-.4h0Z"/>
                <path class="cls-3" d="M69.35,33.4c1-1.2,2.1-2.5,3.2-3.8.5,1.1-.5,2.4-3.2,3.8Z"/>
                <path class="cls-3" d="M64.95,224c1,.2,2,.3,3,.5.2,0,0,.9,0,1.4-1.1-.2-2.2-.4-3.2-.6,0-.5,0-.9.1-1.4h.1v.1Z"/>
                <path class="cls-3" d="M415.65,480.1c-1.4-.6-2.7-1.1-4.1-1.7,0-.2.2-.4.3-.6,1.6-.1,3.3-.4,3.8,2.3h0Z"/>
                <path class="cls-3" d="M69.85,158.7c.7-1.3,1.4-2.6,2.1-3.9.3.1.6.3,1,.4-.6,1.3-1.3,2.6-1.9,3.9-.4-.2-.7-.3-1.1-.5h0l-.1.1Z"/>
                <path class="cls-3" d="M76.65,379.6c-1.3,1.1-2.5,2.2-3.8,3.3-.2-.2-.4-.4-.7-.7l3.7-3.4.8.8h0Z"/>
                <path class="cls-3" d="M437.45,376.5c-1.8-.2-3.6-.5-5.4-.7v-1c1.8.2,3.6.4,5.5.6,0,.4,0,.7-.2,1.1h.1Z"/>
                <path class="cls-3" d="M383.25,315c-.9.7-1.7,1.4-2.8,2.2-.6-1.1-1-1.9-1.4-2.8h4c0,.3.2.4.3.6h-.1Z"/>
                <path class="cls-3" d="M309.15,457.3l5.3-.2v.7c-1.8.2-3.5.5-5.3.7v-1.2Z"/>
                <path class="cls-3" d="M56.85,387.9c-1.7,2.2-2.9,2.9-4.6.3,1.6,0,2.8-.2,4.6-.3Z"/>
                <path class="cls-3" d="M446.05,231c-1.2,1.3-2.3,2.5-3.4,3.7-.5-2.6.7-4,3.4-3.7Z"/>
                <path class="cls-3" d="M198.05,196.2c-.6.4-1.3.8-2.2,1.3-.4-1-.8-1.7-1.1-2.5,0-.2.3-.5.4-.7,1,.4,2,.7,3,1.1v.8h-.1Z"/>
                <path class="cls-3" d="M305.95,247.2c0-1.3.3-2.5.4-3.8,2.8,1.5,1.1,2.6.5,3.9h-1l.1-.1Z"/>
                <path class="cls-3" d="M108.95,296.9c-.2,1.5.4,3.5-2.9,3.7.8-1.6,1.5-2.8,2.2-4.1.2.1.5.2.7.4Z"/>
                <path class="cls-3" d="M44.45,336.6c.5-1,1.1-2,1.8-3.4l1.5,3c-1,.4-1.8.7-2.5,1-.2-.2-.5-.4-.7-.6h-.1Z"/>
                <path class="cls-3" d="M106.85,345.3c1.7.6,3.4,1.2,5.1,1.7,0,.3-.3.7-.4,1-1.7-.7-3.4-1.3-5.1-2,0-.3.3-.5.4-.8h0v.1Z"/>
                <path class="cls-3" d="M364.95,118.8c-1.6-.3-2.8-.5-3.9-.7v-.6c.9-.4,1.7-.8,2.8-1.2.3.7.6,1.4,1,2.5h.1Z"/>
                <path class="cls-3" d="M129.35,58.6c-.9.5-1.9,1.1-2.9,1.6-.4.2-1,0-1.4-.2.2-.4.3-1.2.6-1.3,1.2-.3,2.4-.5,3.6-.7v.6h.1Z"/>
                <path class="cls-3" d="M164.45,498c0,1.2.2,2.3.2,3.6-2.5-.4-2.5-.7-.9-3.6h.7Z"/>
                <path class="cls-3" d="M174.65,308.1c1.1-.5,1.7-.9,2.2-.9s.9.6,1.4,1c-.5.5-1,1.2-1.6,1.4-.4,0-1-.7-1.9-1.5h-.1Z"/>
                <path class="cls-3" d="M48.75,435.6c-1,2.8-1.9,3-4.4,1.5,1.6-.5,2.7-.9,4.4-1.5Z"/>
                <path class="cls-3" d="M361.85,101.2c-.8.5-1.5.8-2.3,1.3-.6-1.3-1.1-2.5-1.7-4,1.5,1,2.7,1.7,4.1,2.7h-.1Z"/>
                <path class="cls-3" d="M273.65,290.3c-1.9.8-3.8,1.2-5.2-1.3,1.7.5,3.5.9,5.2,1.4h0v-.1Z"/>
                <path class="cls-3" d="M97.85,400.4c.7,1,1.2,1.7,2,2.9-1.4.3-2.4.4-3.8.7.7-1.4,1.2-2.3,1.8-3.6Z"/>
                <path class="cls-3" d="M445.45,524.4c-.2,1.4-.3,3-3.2,2.5,1-1.3,1.7-2.2,2.5-3.1.3.2.5.4.8.6h-.1Z"/>
                <path class="cls-3" d="M285.35,258.4c-1.3-1-2.3-1.7-3.2-2.4.2-.2.4-.5.5-.7,1.4,0,2.9,0,2.6,3.1h.1Z"/>
                <path class="cls-3" d="M176.45,203c-2.8,1.1-3.7.4-3.3-2.3,1,.7,2,1.4,3.3,2.3Z"/>
                <path class="cls-3" d="M359.65,179.4c2.2.5,4.4,1,6.6,1.5,0,.3,0,.5-.2.8-2.2-.6-4.4-1.2-6.6-1.8,0-.2,0-.4.2-.5Z"/>
                <path class="cls-3" d="M312.65,38.4c-.8.5-1.6.9-3.1,1.8.2-1.1,0-2.3.5-2.4.7-.4,1.7-.2,2.6-.2v.9h0v-.1Z"/>
                <path class="cls-3" d="M140.75,246.9c.7-.8,1.4-1.6,2.7-2.9-.2,1.6-.2,2.6-.6,3.5-.2.3-1.4.1-2.1.2v-.7h0v-.1Z"/>
                <path class="cls-3" d="M342.25,277.8c-1.8.5-3.5,1.1-5.5,1.7,1.3-2,1.7-2.2,5.5-1.7Z"/>
                <path class="cls-3" d="M275.35,269.6c1-.7,2-1.4,3.1-2,.2.1.3.3.5.4-.4.7-.7,1.7-1.3,2.1-.5.3-1.4,0-2.2,0v-.5h-.1Z"/>
                <path class="cls-3" d="M83.25,302.2c-2-1.3-2-2.3,0-4.3v4.3Z"/>
                <path class="cls-3" d="M222.05,189.1l-3.4-3.3c.2-.2.4-.5.6-.7,1.2,1,2.4,2.1,3.6,3.1-.3.3-.5.6-.8.8h0v.1Z"/>
                <path class="cls-3" d="M443.05,426.1c1.7-.6,3.5-1.3,5.2-1.9l.3.8-5.2,2c0-.3-.2-.6-.3-.9Z"/>
                <path class="cls-3" d="M28.95,194.8c-.4-1.1-.8-2.2-1.4-3.9,1.3.2,2,.3,2.6.4-.3,1.3-.6,2.3-.8,3.3-.1,0-.3.1-.4.2h0Z"/>
                <path class="cls-3" d="M180.95,430c1.2.7,2.2,1.3,3.7,2.2-3,.9-3.6.5-3.7-2.2Z"/>
                <path class="cls-3" d="M244.55,295.2c-1.1,0-2.1.1-3.2.2,0-.4,0-1.2.2-1.2,1-.2,2-.2,3-.3v1.3Z"/>
                <path class="cls-3" d="M244.65,276.5c2.6-.5,2.9-.1,2.8,3.2-1-1.1-1.8-2-2.8-3.2Z"/>
                <path class="cls-3" d="M54.95,314c-2.5.9-2.7.8-3-1.5,1.1.3,2.1.5,3.1.8,0,.2-.1.5-.2.7h.1Z"/>
                <path class="cls-3" d="M172.45,257.2c1.3-.7,2.5-1.3,3.7-2-.2,2.3-1.5,3.1-3.7,2Z"/>
                <path class="cls-3" d="M144.45,331.3v3.7h-1v-3.6h1v-.1Z"/>
                <path class="cls-3" d="M83.35,184.7c-.9-.4-1.9-.9-2.8-1.3.2-.4.5-1.1.6-1.1.9.3,1.8.7,2.7,1.1-.2.4-.4.8-.5,1.2h0v.1Z"/>
                <path class="cls-3" d="M66.75,115.6c.8,0,1.6,0,2.6-.2,0,.8,0,1.4.2,2.7-1.3-.8-2.2-1.3-3.1-1.8,0-.3.2-.5.3-.8h0v.1Z"/>
                <path class="cls-3" d="M97.05,168c.8,1,1.6,2.1,2.6,3.2-2,.3-2.5-.2-3.1-2.7l.5-.5Z"/>
                <path class="cls-3" d="M-.25,298.9c-.6-1.2-1.1-2.5-1.9-4.3,1.1.3,1.9.2,2.1.5.2.5-.2,1.2,0,1.8,0,.6.5,1.1.7,1.6-.2.1-.5.3-.7.4h-.2Z"/>
                <path class="cls-3" d="M409.65,351.5c-.4,2.7-2.3,1-3.8,1.6.6-3,3-.2,3.8-1.6Z"/>
                <path class="cls-3" d="M243.45,212.5c-1.2.1-2.3.3-3.5.4v-1c1.1-.3,2.3-.4,3.4-.6v1.2h.1Z"/>
                <path class="cls-3" d="M81.05,121.1c1.5.5,2.2.7,3,1v2.8s-.3.2-.4.2c-.8-1.2-1.6-2.3-2.7-4h.1Z"/>
                <path class="cls-3" d="M335.45,324c.5,1.2,1.1,2.3,1.6,3.5l-.5.5c-.6-.6-1.5-1.2-1.9-1.9-.3-.5,0-1.4.2-2.1h.6Z"/>
                <path class="cls-3" d="M268.15,270.5c1.8-.5,3.6-1,5.5-1.5,0,.2,0,.5.2.7-1.8.6-3.6,1.1-5.4,1.7,0-.3-.2-.6-.3-.9h0Z"/>
                <path class="cls-3" d="M328.95,215.2c1.5-.3,3.1-.6,4.7-.9,0,.8-1.6,1.1-4.7.9Z"/>
                <path class="cls-3" d="M100.25,297.7c1.4.1,2.2.2,3.2.3-.2,1.1-.4,1.9-.7,3.4-.9-1.4-1.5-2.3-2.5-3.7h0Z"/>
                <path class="cls-3" d="M341.25,145.5c-.3-1-.5-2-.8-3.2,1.1.2,1.7.3,2.7.5-.4,1-.7,1.8-1.1,2.7h-.8Z"/>
                <path class="cls-3" d="M251.75,211.5c-.9.4-1.8.8-3.1,1.3,0-.9,0-1.6.2-2.3,1,0,2,.1,3,.2v.8h-.1Z"/>
                <path class="cls-3" d="M325.55,414.7c.8,0,1.7,0,2.4.1v1.6c-.9-.1-1.8-.3-2.7-.4v-1.2h.3v-.1Z"/>
                <path class="cls-3" d="M244.15,287.4c-1.1,0-2.7,1.3-3.4-1.6,1.5.3,2.6.5,3.7.7l-.3.9Z"/>
                <path class="cls-3" d="M137.15,303.8c2.2-2.3,3.4-.9,5.2.7-2-.3-3.3-.4-5.2-.7Z"/>
                <path class="cls-3" d="M117.85,254.3h-3.5c.8-.8,1.2-1.6,1.7-1.6s1.4.5,2.1.9c0,.3-.2.5-.3.8h0v-.1Z"/>
                <path class="cls-3" d="M375.15,388.3c2-.3,2.2,0,2.8,2.6-.2.1-.4.3-.5.4-.7-1-1.4-1.9-2.2-3h-.1Z"/>
                <path class="cls-3" d="M159.65,361.4c-1.6,1-2.5-.8-3.9-.8,0-.3,0-.6.2-1,1.3.3,2.5.5,3.8.8v.9h0l-.1.1Z"/>
                <path class="cls-3" d="M302.55,273.5c-.2,1.6-1.6,2.5-4.1,2.8,1.4-1,2.6-1.8,4.1-2.8Z"/>
                <path class="cls-3" d="M251.75,311c2.2-.8,3.2.3,3.5,2.5l-3.5-2.5Z"/>
                <path class="cls-3" d="M124.05,254.9c-1-.1-2-.3-2.9-.4.2-.5.6-1.5.7-1.5.9.2,1.7.6,2.5.9,0,.3-.2.6-.3.9h0v.1Z"/>
                <path class="cls-3" d="M375.95,375.4c.9-.2,1.9-.5,3.3-.8-.4,1.2-.6,1.8-.8,2.5-.8-.3-1.6-.5-2.3-.8,0-.3,0-.6-.2-.9h0Z"/>
                <path class="cls-3" d="M216.85,241.4v-3.6c.2,0,.4-.1.6-.2.5.7,1.1,1.3,1.7,2.1-.8.6-1.3,1-2.3,1.7Z"/>
                <path class="cls-3" d="M324.55,273.1l3.5.8c0,.3,0,.6-.2.9-1.2-.2-2.4-.4-3.5-.5l.2-1.2h0Z"/>
                <path class="cls-3" d="M155.05,126.3c-1,.7-1.9,1.3-3.3,2.3v-1.7c.9-.6,1.9-1,2.8-1.4.2.3.3.6.5.9h0v-.1Z"/>
                <path class="cls-3" d="M296.35,389.4c-.8-.5-1.7-.9-2.5-1.4.4-.4.9-1.1,1-1,.8.3,1.5.9,2.2,1.4l-.7,1.1h0v-.1Z"/>
                <path class="cls-3" d="M12.75,396.5c.2-1.2.3-2.2.5-3.1h.8l.4,3.2h-1.7v-.1Z"/>
                <path class="cls-3" d="M122.15,167.9c2.1,1.7,2.1,2.7.3,4.1,0-1.3-.2-2.4-.3-4.1Z"/>
                <path class="cls-3" d="M295.95,272.3c-1.1-1.7-2.1-3.3-3.2-5,.2-.1.4-.2.5-.3,1.1,1.6,2.3,3.3,3.4,4.9-.2.1-.5.3-.7.4Z"/>
                <path class="cls-3" d="M43.95,94.2l1.6,5.3c-.3,0-.5.2-.8.2-.6-1.8-1.1-3.7-1.7-5.5h.9Z"/>
                <path class="cls-3" d="M263.55,418.7c-.7,1.1-1.4,2.2-2,3.3-.3-.2-.6-.4-1-.6l2-3.5,1,.7h0v.1Z"/>
                <path class="cls-3" d="M382.05,288.5c1.3.9,2.5,1.9,3.8,2.8-.2.3-.4.6-.7.9-1.2-1-2.4-2-3.6-3,.2-.2.3-.4.5-.6h0v-.1Z"/>
                <path class="cls-3" d="M246.35,438.7l-1.5-3c.3-.2.6-.4.9-.6.6.9,1.2,1.9,1.7,2.8-.4.2-.7.5-1.1.7h0v.1Z"/>
                <path class="cls-3" d="M420.15,259.9c0-1.6-.3-3.3-.4-4.9h.8c0,1.6.3,3.3.4,4.9h-.8Z"/>
              </g>
            </g>
          </g>
        </g>
        <g>
          <path class="cls-1" d="M293.95,455.4c.3.2.6.5,1,.7,1.1.9,2.8,0,2.8-1.4v-75.2c0-1.4-1.6-2.3-2.8-1.4s-.6.5-1,.7-.7.8-.7,1.4v73.8c0,.5.2,1.1.7,1.4Z"/>
          <path class="cls-1" d="M363.55,444.5v-54.8c0-.4,0-.7-.3-1s-.6-.8-.9-1.3c-1-1.3-3.1-.6-3.1,1.1v57.2c0,1.7,2.1,2.4,3.1,1.1s.6-.8.9-1.3.3-.7.3-1h0Z"/>
          <path class="cls-1" d="M372.45,417.2c0-2,0-4-.4-5.9s-3.5-2-3.5.2v11.4c0,2.2,3.2,2.4,3.5.2s.4-3.9.4-5.9h0Z"/>
          <path class="cls-1" d="M275.25,417.2v3.2c0,2.2,3.5,2.1,3.5-.1v-6.2c0-2.2-3.4-2.4-3.5-.1s0,2.1,0,3.2Z"/>
          <path class="cls-1" d="M354.15,454.2v-74.2c0-.5-.2-1.1-.7-1.4s-.6-.5-1-.7c-1.2-.8-2.8,0-2.8,1.4v75.6c0,1.4,1.6,2.3,2.8,1.4s.6-.5,1-.7.7-.9.7-1.4h0Z"/>
          <path class="cls-1" d="M283.85,390.1v54.1c0,.4,0,.7.3,1,.3.4.6.9.9,1.3,1,1.3,3.1.6,3.1-1.1v-56.5c0-1.7-2.1-2.4-3.1-1.1s-.6.9-.9,1.3-.3.7-.3,1h0Z"/>
          <path class="cls-1" d="M316.45,463.1v-91.9c0-1.1-1-1.9-2.1-1.7s-.6.1-1,.2c-.8.2-1.4.9-1.4,1.7v91.5c0,.8.6,1.5,1.4,1.7s.6.1,1,.2c1.1.2,2.1-.6,2.1-1.7h0Z"/>
          <path class="cls-1" d="M344.75,459.9v-85.5c0-.7-.4-1.3-1-1.6s-.6-.3-1-.4c-1.2-.5-2.4.4-2.4,1.6v86.3c0,1.3,1.3,2.1,2.4,1.6s.6-.3,1-.4c.6-.3,1-.9,1-1.6Z"/>
          <path class="cls-1" d="M307.05,460.2v-86.1c0-1.3-1.3-2.1-2.4-1.6s-.6.3-1,.4c-.6.3-1,.9-1,1.6v85.3c0,.7.4,1.3,1,1.6s.6.3,1,.4c1.2.5,2.4-.4,2.4-1.6h0Z"/>
          <path class="cls-1" d="M335.35,463v-91.6c0-.8-.6-1.5-1.4-1.7s-.6-.1-1-.2c-1.1-.2-2.1.6-2.1,1.7v92c0,1.1,1,1.9,2.1,1.7s.6-.1,1-.2c.8-.2,1.4-.9,1.4-1.7h0Z"/>
          <path class="cls-1" d="M323.85,465.7h.4c1,0,1.7-.8,1.7-1.8v-93.7c0-1-.8-1.7-1.7-1.8s-.2,0-.4,0h-.6c-1,0-1.7.8-1.7,1.8v93.7c0,1,.8,1.7,1.7,1.8s.4,0,.6,0Z"/>
          <path d="M278.85,399.1v36.7c.5,1.1,1,2.2,1.5,3.3.8,1.6,3.3,1,3.3-.8v-42.5c0-1.8-2.5-2.4-3.3-.8s-1.1,2.2-1.5,3.3,0,.5,0,.7h0v.1Z"/>
          <path d="M288.25,384.8v64.8c0,.5.2.9.5,1.2l1.5,1.5c1.1,1.1,3,.3,3-1.3v-67.7c0-1.5-1.9-2.3-3-1.3s-1,1-1.5,1.5-.5.8-.5,1.2h0v.1Z"/>
          <path d="M302.65,458v-81.7c0-1.4-1.5-2.2-2.6-1.5s-1,.6-1.5.9-.8.9-.8,1.5v79.9c0,.6.3,1.2.8,1.5s1,.6,1.5.9c1.2.7,2.6-.2,2.6-1.5h0Z"/>
          <path d="M312.05,462v-89.7c0-1.2-1.1-2-2.3-1.7s-1,.3-1.6.5-1.2.9-1.2,1.7v88.8c0,.7.5,1.4,1.2,1.7s1,.3,1.6.5c1.1.3,2.3-.5,2.3-1.7h0v-.1Z"/>
          <path d="M321.45,463.8v-93.3c0-1-.9-1.8-1.9-1.7s-1,0-1.6.2c-.9.1-1.5.9-1.5,1.7v93c0,.9.6,1.6,1.5,1.7s1,.1,1.6.2c1,0,1.9-.7,1.9-1.7h0v-.1Z"/>
          <path d="M330.95,463.7v-93.1c0-.9-.7-1.6-1.5-1.7s-1-.1-1.6-.2c-1,0-1.9.7-1.9,1.8v93.3c0,1,.9,1.8,1.9,1.8s1,0,1.6-.2c.9,0,1.5-.9,1.5-1.7h0Z"/>
          <path d="M340.35,461.6v-88.9c0-.8-.5-1.4-1.2-1.7s-1-.3-1.6-.5c-1.1-.3-2.3.5-2.3,1.7v89.8c0,1.2,1.1,2,2.3,1.7s1-.3,1.6-.5,1.2-.9,1.2-1.7h0v.1Z"/>
          <path d="M349.75,457.3v-80.2c0-.6-.3-1.2-.8-1.5s-1-.6-1.5-.9c-1.2-.7-2.6.2-2.6,1.5v82c0,1.3,1.5,2.2,2.6,1.5s1-.6,1.5-.9.8-.9.8-1.5Z"/>
          <path d="M359.15,449.8v-65.3c0-.5-.2-.9-.5-1.2l-1.5-1.5c-1.1-1.1-3-.3-3,1.3v68.2c0,1.5,1.8,2.3,3,1.3s1-1,1.5-1.5.5-.8.5-1.2h0v-.1Z"/>
          <path d="M368.55,435.8v-38c-.5-1.1-1-2.2-1.5-3.2-.9-1.6-3.3-1-3.3.8v43.5c0,1.8,2.5,2.4,3.3.8s1.1-2.1,1.5-3.2,0-.5,0-.7h0Z"/>
        </g>
      </g>
    </g>
  </g>
</svg>