<?xml version="1.0" encoding="UTF-8"?>
<svg id="Layer_2" data-name="Layer 2" xmlns="http://www.w3.org/2000/svg" viewBox="0 0 1079 3601">
  <defs>
    <style>
      .cls-1 {
        opacity: .3;
      }

      .cls-2 {
        fill: none;
        stroke: #000;
        stroke-miterlimit: 10;
        stroke-width: 10px;
      }
    </style>
  </defs>
  <g id="Layer_1-2" data-name="Layer 1">
    <g class="cls-1">
      <line class="cls-2" x1="0" y1="5" x2="1079" y2="5"/>
      <line class="cls-2" y1="40.55" x2="1079" y2="40.55"/>
      <line class="cls-2" x1="0" y1="76.11" x2="1079" y2="76.11"/>
      <line class="cls-2" y1="111.66" x2="1079" y2="111.66"/>
      <line class="cls-2" x1="0" y1="147.22" x2="1079" y2="147.22"/>
      <line class="cls-2" x1="0" y1="182.77" x2="1079" y2="182.77"/>
      <line class="cls-2" x1="0" y1="218.33" x2="1079" y2="218.33"/>
      <line class="cls-2" x1="0" y1="253.88" x2="1079" y2="253.88"/>
      <line class="cls-2" x1="0" y1="289.44" x2="1079" y2="289.44"/>
      <line class="cls-2" x1="0" y1="324.99" x2="1079" y2="324.99"/>
      <line class="cls-2" x1="0" y1="360.54" x2="1079" y2="360.54"/>
      <line class="cls-2" x1="0" y1="396.1" x2="1079" y2="396.1"/>
      <line class="cls-2" x1="0" y1="431.65" x2="1079" y2="431.65"/>
      <line class="cls-2" x1="0" y1="467.21" x2="1079" y2="467.21"/>
      <line class="cls-2" x1="0" y1="502.76" x2="1079" y2="502.76"/>
      <line class="cls-2" x1="0" y1="538.32" x2="1079" y2="538.32"/>
      <line class="cls-2" x1="0" y1="573.87" x2="1079" y2="573.87"/>
      <line class="cls-2" x1="0" y1="609.43" x2="1079" y2="609.43"/>
      <line class="cls-2" x1="0" y1="644.98" x2="1079" y2="644.98"/>
      <line class="cls-2" x1="0" y1="680.53" x2="1079" y2="680.53"/>
      <line class="cls-2" x1="0" y1="716.09" x2="1079" y2="716.09"/>
      <line class="cls-2" x1="0" y1="751.64" x2="1079" y2="751.64"/>
      <line class="cls-2" x1="0" y1="787.2" x2="1079" y2="787.2"/>
      <line class="cls-2" x1="0" y1="822.75" x2="1079" y2="822.75"/>
      <line class="cls-2" x1="0" y1="858.31" x2="1079" y2="858.31"/>
      <line class="cls-2" x1="0" y1="893.86" x2="1079" y2="893.86"/>
      <line class="cls-2" x1="0" y1="929.42" x2="1079" y2="929.42"/>
      <line class="cls-2" x1="0" y1="964.97" x2="1079" y2="964.97"/>
      <line class="cls-2" x1="0" y1="1000.52" x2="1079" y2="1000.52"/>
      <line class="cls-2" x1="0" y1="1036.08" x2="1079" y2="1036.08"/>
      <line class="cls-2" x1="0" y1="1071.63" x2="1079" y2="1071.63"/>
      <line class="cls-2" x1="0" y1="1107.19" x2="1079" y2="1107.19"/>
      <line class="cls-2" x1="0" y1="1142.74" x2="1079" y2="1142.74"/>
      <line class="cls-2" x1="0" y1="1178.3" x2="1079" y2="1178.3"/>
      <line class="cls-2" x1="0" y1="1213.85" x2="1079" y2="1213.85"/>
      <line class="cls-2" x1="0" y1="1249.41" x2="1079" y2="1249.41"/>
      <line class="cls-2" x1="0" y1="1284.96" x2="1079" y2="1284.96"/>
      <line class="cls-2" x1="0" y1="1320.51" x2="1079" y2="1320.51"/>
      <line class="cls-2" x1="0" y1="1356.07" x2="1079" y2="1356.07"/>
      <line class="cls-2" x1="0" y1="1391.62" x2="1079" y2="1391.62"/>
      <line class="cls-2" x1="0" y1="1427.18" x2="1079" y2="1427.18"/>
      <line class="cls-2" x1="0" y1="1462.73" x2="1079" y2="1462.73"/>
      <line class="cls-2" x1="0" y1="1498.29" x2="1079" y2="1498.29"/>
      <line class="cls-2" x1="0" y1="1533.84" x2="1079" y2="1533.84"/>
      <line class="cls-2" x1="0" y1="1569.4" x2="1079" y2="1569.4"/>
      <line class="cls-2" x1="0" y1="1604.95" x2="1079" y2="1604.95"/>
      <line class="cls-2" x1="0" y1="1640.5" x2="1079" y2="1640.5"/>
      <line class="cls-2" x1="0" y1="1676.06" x2="1079" y2="1676.06"/>
      <line class="cls-2" x1="0" y1="1711.61" x2="1079" y2="1711.61"/>
      <line class="cls-2" x1="0" y1="1747.17" x2="1079" y2="1747.17"/>
      <line class="cls-2" x1="0" y1="1782.72" x2="1079" y2="1782.72"/>
      <line class="cls-2" x1="0" y1="1818.28" x2="1079" y2="1818.28"/>
      <line class="cls-2" x1="0" y1="1853.83" x2="1079" y2="1853.83"/>
      <line class="cls-2" x1="0" y1="1889.39" x2="1079" y2="1889.39"/>
      <line class="cls-2" x1="0" y1="1924.94" x2="1079" y2="1924.94"/>
      <line class="cls-2" x1="0" y1="1960.5" x2="1079" y2="1960.5"/>
      <line class="cls-2" x1="0" y1="1996.05" x2="1079" y2="1996.05"/>
      <line class="cls-2" x1="0" y1="2031.6" x2="1079" y2="2031.6"/>
      <line class="cls-2" x1="0" y1="2067.16" x2="1079" y2="2067.16"/>
      <line class="cls-2" x1="0" y1="2102.71" x2="1079" y2="2102.71"/>
      <line class="cls-2" x1="0" y1="2138.27" x2="1079" y2="2138.27"/>
      <line class="cls-2" x1="0" y1="2173.82" x2="1079" y2="2173.82"/>
      <line class="cls-2" x1="0" y1="2209.38" x2="1079" y2="2209.38"/>
      <line class="cls-2" x1="0" y1="2244.93" x2="1079" y2="2244.93"/>
      <line class="cls-2" x1="0" y1="2280.49" x2="1079" y2="2280.49"/>
      <line class="cls-2" x1="0" y1="2316.04" x2="1079" y2="2316.04"/>
      <line class="cls-2" x1="0" y1="2351.59" x2="1079" y2="2351.59"/>
      <line class="cls-2" x1="0" y1="2387.15" x2="1079" y2="2387.15"/>
      <line class="cls-2" x1="0" y1="2422.7" x2="1079" y2="2422.7"/>
      <line class="cls-2" x1="0" y1="2458.26" x2="1079" y2="2458.26"/>
      <line class="cls-2" x1="0" y1="2493.81" x2="1079" y2="2493.81"/>
      <line class="cls-2" x1="0" y1="2529.37" x2="1079" y2="2529.37"/>
      <line class="cls-2" x1="0" y1="2564.92" x2="1079" y2="2564.92"/>
      <line class="cls-2" x1="0" y1="2600.48" x2="1079" y2="2600.48"/>
      <line class="cls-2" x1="0" y1="2636.03" x2="1079" y2="2636.03"/>
      <line class="cls-2" x1="0" y1="2671.58" x2="1079" y2="2671.58"/>
      <line class="cls-2" x1="0" y1="2707.14" x2="1079" y2="2707.14"/>
      <line class="cls-2" x1="0" y1="2742.69" x2="1079" y2="2742.69"/>
      <line class="cls-2" x1="0" y1="2778.25" x2="1079" y2="2778.25"/>
      <line class="cls-2" x1="0" y1="2813.8" x2="1079" y2="2813.8"/>
      <line class="cls-2" x1="0" y1="2849.36" x2="1079" y2="2849.36"/>
      <line class="cls-2" x1="0" y1="2884.91" x2="1079" y2="2884.91"/>
      <line class="cls-2" x1="0" y1="2920.47" x2="1079" y2="2920.47"/>
      <line class="cls-2" x1="0" y1="2956.02" x2="1079" y2="2956.02"/>
      <line class="cls-2" x1="0" y1="2991.57" x2="1079" y2="2991.57"/>
      <line class="cls-2" x1="0" y1="3027.13" x2="1079" y2="3027.13"/>
      <line class="cls-2" x1="0" y1="3062.68" x2="1079" y2="3062.68"/>
      <line class="cls-2" x1="0" y1="3098.24" x2="1079" y2="3098.24"/>
      <line class="cls-2" x1="0" y1="3133.79" x2="1079" y2="3133.79"/>
      <line class="cls-2" x1="0" y1="3169.35" x2="1079" y2="3169.35"/>
      <line class="cls-2" x1="0" y1="3204.9" x2="1079" y2="3204.9"/>
      <line class="cls-2" x1="0" y1="3240.46" x2="1079" y2="3240.46"/>
      <line class="cls-2" x1="0" y1="3276.01" x2="1079" y2="3276.01"/>
      <line class="cls-2" x1="0" y1="3311.56" x2="1079" y2="3311.56"/>
      <line class="cls-2" x1="0" y1="3347.12" x2="1079" y2="3347.12"/>
      <line class="cls-2" x1="0" y1="3382.67" x2="1079" y2="3382.67"/>
      <line class="cls-2" x1="0" y1="3418.23" x2="1079" y2="3418.23"/>
      <line class="cls-2" x1="0" y1="3453.78" x2="1079" y2="3453.78"/>
      <line class="cls-2" x1="0" y1="3489.34" x2="1079" y2="3489.34"/>
      <line class="cls-2" x1="0" y1="3524.89" x2="1079" y2="3524.89"/>
      <line class="cls-2" x1="0" y1="3560.45" x2="1079" y2="3560.45"/>
      <line class="cls-2" x1="0" y1="3596" x2="1079" y2="3596"/>
    </g>
  </g>
</svg>