<?xml version="1.0" encoding="UTF-8"?>
<svg id="Layer_2" xmlns="http://www.w3.org/2000/svg" xmlns:xlink="http://www.w3.org/1999/xlink" version="1.1" viewBox="0 0 446.2 526.9">
  <!-- Generator: Adobe Illustrator 29.1.0, SVG Export Plug-In . SVG Version: 2.1.0 Build 142)  -->
  <defs>
    <style>
      .st0 {
        fill: none;
      }

      .st1 {
        clip-path: url(#clippath-1);
      }

      .st2 {
        fill: #9e1b38;
      }

      .st3 {
        fill: #f62c50;
      }

      .st4 {
        opacity: .5;
      }

      .st5 {
        stroke: #000;
        stroke-miterlimit: 10;
        stroke-width: 3px;
      }

      .st6 {
        clip-path: url(#clippath);
      }
    </style>
    <clipPath id="clippath">
      <rect class="st0" width="446.2" height="526.9"/>
    </clipPath>
    <clipPath id="clippath-1">
      <polygon class="st0" points="0 72.2 141.4 68 259 2.5 631.2 2.5 743.3 74.6 892.5 76.1 888.7 526.9 5.1 526.3 0 72.2"/>
    </clipPath>
  </defs>
  <g id="Layer_1-2">
    <g class="st6">
      <g>
        <path class="st3" d="M743.3,74.6L635,3.6c-1.1-.8-2.5-1.1-3.8-1.1h-370.6c-1.4,0-2.7.4-3.8,1.1l-108.4,71c-1.1.8-2.5,1.1-3.8,1.1H9.6c-3.9,0-7,3.1-7,7l1,434.6c0,3.9,3.1,7,7,7h872.5c3.9,0,7-3.1,7-7l-1-434.6c0-3.9-3.1-7-7-7h-134.8c-1.4,0-2.7-.4-3.8-1.1h-.1Z"/>
        <path class="st2" d="M273.2,32.7l174.2-.4V2.5h-155.4c-.3-.2-.6-.3-1-.3l-32,.3c-.4,0-.7,0-1,.3l-111.3,75.2c-.3.2-.7.3-1,.3l-141.2.6c-1.1,0-1.9.9-1.9,2v22c0,1.1.9,2,2,2l155.8.4c.4,0,.7,0,1.1-.3"/>
        <path class="st5" d="M883,526.9H10.6c-5.2,0-9.5-4.3-9.5-9.5L0,82.8c0-5.2,4.3-9.5,9.5-9.5h134.8c.9,0,1.7-.3,2.5-.7L255.2,1.5c1.6-1,3.4-1.5,5.2-1.5h370.6c1.9,0,3.7.5,5.2,1.6l106.7,69.9h0l1.7,1.1c.7.5,1.6.7,2.5.7h134.8c5.2,0,9.5,4.3,9.5,9.5l1,434.6c0,5.2-4.3,9.5-9.5,9.5h0,0ZM9.6,78.3c-2.5,0-4.5,2-4.5,4.5l1,434.6c0,2.5,2,4.5,4.5,4.5h872.5c2.5,0,4.5-2,4.5-4.5l-1-434.6c0-2.5-2-4.5-4.5-4.5h-134.8c-1.1,0-2.3-.2-3.3-.6l-.2.2-1.7-1.1L633.5,5.7c-.7-.5-1.6-.7-2.5-.7h-370.6c-.9,0-1.7.3-2.5.7l-108.4,71c-1.5,1-3.3,1.5-5.2,1.5H9.6Z"/>
        <path d="M869,511.8H24.5c-5.1,0-9.2-4-9.2-8.9l-.9-405.9c0-5,4.1-9,9.2-9l126.8.2c.9,0,1.7-.2,2.4-.7l108.7-69.5c1.5-.9,3.3-1.5,5-1.5h358.7c1.8,0,3.5.5,5,1.5l103.3,65.7h0l1.6,1c.7.4,1.5.7,2.4.7h130.5c5.1,0,9.2,4,9.2,8.9l.9,408.5c0,5-4.1,9-9.2,9h0ZM23.5,92.7c-2.4,0-4.4,1.9-4.4,4.2l.9,405.9c0,2.4,2,4.2,4.4,4.2h844.5c2.4,0,4.4-1.9,4.4-4.2l-.9-408.5c0-2.4-2-4.2-4.4-4.2h-130.5c-1.1,0-2.2-.2-3.2-.5l-.2.2-1.7-1-105-66.7c-.7-.4-1.5-.7-2.4-.7h-358.7c-.8,0-1.7.2-2.4.7l-108.7,69.5c-1.5.9-3.2,1.4-5,1.4l-126.7-.2v-2.6,2.5Z"/>
        <rect class="st2" x="57.2" y="141.2" width="352.2" height="210" rx="24.3" ry="24.3"/>
        <g class="st4">
          <g class="st1">
            <g id="EKzZlK">
              <g>
                <path class="st2" d="M270,365.8c-2.1,1.5-5.4.2-6.8,3.1-.2.4-1.4.7-1.5.5-2-2-4.2-1-6.3-.3-.3.1-.8,0-1.1,0,0-.2-.2-.5-.3-.7,1.3-.6,2.7-1.8,4-1.6,3.5.3,6.2-1.7,9.4-2.3,1.7-.3,2.2-2.4,1.4-4.3,2.6-1.5,2.7-2.3.9-5.5h3.4c0,1.9,0,3.9-.1,5.9.2.1.5.2.7.4.6-.8,1.1-1.6,1.8-2.6,1.8,0,3.8-.4,5.3-2.5,1.1-1.6,2.6-2.8,4.2-4.5.6,1.4.8,2,1.2,2.8-1,.5-1.8,1-2.7,1.5,2.3,2.6,4.8,2.6,5.9-.1,1,.7,2,1.4,3.4,2.3-3.7.2-4.6.2-4.2,2.4-4,.8-8.2.8-11.4,3.8-2.9,2.6-6.5,4.7-8,8.4-1.9,2.1-3.7,4.1-6,6.7,2.6.3,4.4,1.8,6.3-1.3.8,1.7,1.4,3.1,2.1,4.5.4-.3.8-.5,1.2-.8.5-1.2,1.1-2.4,1.6-3.7,1.3,1.9.6,3.6-2.1,5.5.4,2.1.8,4.2,1.1,6-3.4-.9-6.6-1.8-10.3-2.8,1.1-.7,2.1-1.4,3.7-2.4-.4-.5-1-1.6-1.7-1.7-.9,0-2.1.5-2.7,1.2-.8.8-1.3,2-2,3-.2.3-.5.6-.7.6-3.9-.5-5.2,3.4-7.9,4.8-.1,0-.3,0-1.3.3,1.9-2.8,3.3-5.4,5.2-7.6,1.5-1.7,3.4-3,2.8-5.7,0-.2,0-.7.1-.7,2.5-.8,3.1-3.3,4.7-4.9,1.1-1.2,3.4-1.3,3-3.7,0,0,.2-.3.3-.3.8-.4,1.7-.7,2.3-1.3.6-.5.9-1.4,1.3-2.1l-.2-.3h0Z"/>
                <path class="st2" d="M290.5,242.9c-2.2,2.1-5.4,3.2-6.9,6.2-.2.4-1.3.4-2,.6.4-2.2,1.4-4.2.9-5.7-.5-1.3-2.6-2-4.1-3,.3-.1.7-.3,1.1-.5s1-.4,1.2-.7c.3-.8,0-2.1.5-2.5,1.6-1,.4-1.8,0-2.6-.2-.4-.6-.9-.6-1.2.6-1.9,1.3-3.8,1.9-5.7h.6c.2.8.4,1.6.7,2.4h.7c.5-2.8.9-5.6,1.4-8.4v-.2c3-1.3.7-3.9,1.5-5.8.9-2.1,1.4-4.3,2-6.4.5-1.8.7-3.5-2-3.4-.3,0-.5-.4-1-.8,3-1,5.2-2.6,6.7-5.2.2-.4,1.2-.6,1.9-.6s1.7.3,2.7.5c0,.2.3.6.1.8-2.3,2.8-1.6,6.3-1.9,9.5-.1,1.3.9,2.8,0,4.2-.1.2.4,1.2.9,1.4,1.5.7,3.1,1.4,4.7,1.7.8.2,1.8-.2,2.7-.4,1.5-.4,3-.9,3.5,1.7-4.6,1.8-9.2.3-14,0v3.1c-.7-.7-1.1-1.4-1.4-1.4-.7,0-2,.2-2.1.6-.5,2.5-.5,5.2-1.3,7.7-.6,1.9.5,4.1-1.4,5.7-.5.4-.6,1.3-.9,2-1.2,3.3-.7,4.3,2.8,4.9,1.2.2,1.6.5,1.2,1.6h-.1q0-.1,0-.1ZM294.5,204.1c-2.5,1.9-2.9,6.7-.7,7.9.2-2.8.5-5.4.7-7.9ZM283.9,242.8c.6.8,1.1,1.6,1.7,2.4,1.2-.9,2.2-1.6,3.4-2.5-1.8-.8-3.3-1.5-5.1.1Z"/>
                <path class="st2" d="M312,292.2c-2.5,2.8-5.7,1.2-8.5,2.7,1,.4,1.6.7,2.3,1-.3.4-.7.9-1.3,1.8,3.2,1.3,6.3,2.6,9.5,3.9-2.8-.6-5.9-.4-7.9-1.7-3.4-2.3-3.8-.7-4.4,2-.1.6-1.3,1-2,1.5-1.4,1-2.6,2-1.2,4.1.8-.6,1.5-1.1,2.7-1.9-.3,1.9-.5,3.3-.8,4.7l.5.4c.9-1.2,1.8-2.3,2.8-3.6.8,3.7-2.3,5.4-4.2,8.2-1.1-2.6-2.2-5.1-3.5-8.1-1.8,2-3.5,3.9-5.2,5.7l-.3-.3c.3-.8.5-1.7.9-2.5.4-.7,1.2-1.2,1.6-1.9,1-1.6,2.4-3.2,2.8-5,.3-1.6,0-3.7-2.2-4.6-1.3-.5-2.3-1.5-3.4-2.3.1-.2.3-.4.4-.6.2.1.4.4.6.4h2.6c-.4-.8-.6-1.6-1.1-2.3-.3-.6-.8-1-1.3-1.5.5-.3.9-.7,1.5-1.1-.5-.6-1.1-1.2-1.6-1.8h.5c0-.9.1-2-.2-2.8-.8-2.1-2.3-3.9-2.7-6-.5-2.5-.2-5.2-.2-7.8s.2-3.6,0-5.4c-.4-2.5.7-5.4,2.9-6.1,0,1.8,0,3.4-.1,5.1-.1,2.9.3,5.9-.6,8.5-1.2,3.3.6,5.9,1.1,8.8.2,1.2,1.4,3.4,1.7,3.3,1.7-.4,4-.9,4.8-2.2,2.4-3.7,6.4-3.2,9.6-4.7-1.7,2.9-6.1,2.6-6.9,5.5-1.8.6-3.3.9-4.6,1.6-.4.2-.2,1.6-.4,2.8-.3.2-.9.7-2,1.5,1.1.5,2.1,1.4,2.8,1.2.7-.2,1.2-1.4,1.8-2.2,3.7,3.1,8.4,1.4,13.3,2.1v-.4h-.1,0ZM297.1,303.7c2.4-1.5,2.4-3.2.9-4.9,1.3-.3,2.5-.6,3.7-.9,0-.3,0-.6-.1-.9-2-.2-4-.4-6.4-.7.6,2.3,1.3,4.6,2,7.3h-.1Z"/>
                <path class="st2" d="M285.5,335.9c-.7-1.2-1.5-2.3-2.1-3.4-.7.4-1.5.8-2.4,1.2-.2-.2-.3-.5-.5-.7.4-.5.9-.9,1.1-1.4.4-.7,1-1.8.7-2.3-.5-.7-1.5-1-2.4-1.3-.6-.2-1.2-.3-1.8-.5.3-.5.6-1,1-1.4,1-1,1.2-4.6.2-5.5-.3-.3-1-.6-1.5-.6s-.8.6-.8,1c-.3,1.9-.2,4-1.9,5.4-.3.2-.3,1-.2,1.4,1.5,4.8-.2,9.6-.4,14.4,0,1.3-.2,2.5,1.7,2.2-.7.8-1.2,1.7-1.9,2.3-.5.5-1.3.8-1.9,1.2-.2-.7-.5-1.4-.4-2,.4-3.7.9-7.3,1.5-11.6-2.5,1.9-4.4,3.4-6.2,4.8-.2-.2-.4-.5-.6-.7.2-.3.4-.8.7-1,1.9-.9,2.7-2.6,4-4.1,1.7-2.2,1.9-4.5,2.5-7,0-.4.1-.9,0-1.3-1-1.9-.2-3,1.3-4.3,1.4-1.3,2.7-2,4.9-1.4-.3-1.3-.4-2.2-.6-3.1-2.1,0-3.2-.7-3.2-2.3.8.3,1.5.6,2.4,1,0-1.1-.2-2.1-.2-3.1.3,0,.7-.1,1-.2,2,8.2,3.9,16.4,5.9,24.7h0v-.4h.1,0Z"/>
                <path class="st2" d="M354,177c.1,1.9.2,3,.3,4.9-1.6-.3-2.8-.6-4.1-.8-.5,0-1.1-.1-1.6-.1-2.2,0-4.4-.1-6.4-.1.5-1.2,1.4-2.4,1.2-3-.3-.7-1.7-1-2.6-1.4-.9-.3-1.8-.4-3.2-.7,1.2-1.4,2.1-2.4,3.1-3.7-.6-.4-1.2-.8-1.9-1.3.4-.2.6-.3.8-.3,3.8-.2,7.6-.4,11.5-.6.6,0,1.1-.4,1.7-.5.8-.1,1.6-.2,2.3-.2s.5.4.8.5c1,.1,2.8-.4,2.4,1.3-.3,1.1-1.9,2-2.9,2.9-.4.4-1,.7-1.5,1-1.1.7-2.2,1.7-3.4,1.8-1.6.2-1.9.8-1.6,2.1,2,1.6,3.3.2,5-1.7h.1q0-.1,0,0ZM354.5,171.7l-9.9-.2c-.2,1.1-.4,1.8-.7,3,1.5-.6,2.5-1,3.7-1.5,2.6,2.8,4.5-.5,6.9-1.2h0Z"/>
                <path class="st2" d="M304,332c.9.8,1.4,1.2,1.9,1.7-.3.1-.5.3-.7.3-1.9-1-3,0-4.1,1.5-.9,1.3-2.3,2-4.4,1.4,4.7-2.4,6.9-6.5,10.1-9.7s3.4-3.4,4.9-5.2c1.9-2.1,3.6-4.4,5.4-6.5,1.5-1.8,3.2-3.4,4.7-5.1,1-1.1,1.9-2.3,2.7-3.4-3-1.5-5.6-2.9-8.2-4.2,0-.1,0-.3.1-.4,2.5.9,4.9,1.9,7.4,2.7.6.2,1.6.3,2.1,0,1.2-.8,2.3-1.8,3.3-2.8s1.4-1.4.4-2.6c-.6-.7-.6-2-.9-3.3,4.4-2,9.3-4.1,14.7-6.5-1.6,2.1-2.8,3.7-4.2,5.5-2.7-.9-1.3,2-2.2,3.5-2.3-1.4-3.4.6-4.8,2s-2.6,2.5-4,3.7c-1.2,1.1-1.5,2.1.6,3.1-3-.5-5.9,1.6-6.8,4.5-.1.4-.3,1.1-.7,1.2-3.8,1.5-5.4,5.2-7.8,8,0,.1,0,.3-.1.5-3.1,3.3-6.3,6.6-9.7,10.2h.3q0-.1,0-.1Z"/>
                <path class="st2" d="M435.8,291.5c-1.9-.3-4-.6-6-1.1-1.2-.3-2.2-1.2-3.4-1.7-.8-.3-1.7-.2-2.5-.6-.9-.4-1.7-1.1-2.3-1.8-.2-.2.2-1,.3-1.6.5.1,1.1,0,1.4.4.9.9,1.4.9,2.6.3.9-.4,2.5.4,3.7.9.7.3,1.2,1.1,2,1.7.7-.9,1.2-1.5,1.7-2.2-1.9-1.5-3.7-3-5.5-4.4v-.4c.6.2,1.3.2,1.9.5,1.4.9,2.7,1.9,4.5,3.1,1.8,3,4.3,6,9.1,5.4v4.5c-.7-.2-1.5-.6-2.3-.6-2.4,0-4.9,0-7.3.1-1,0-1.9.8-3.1,1.3-.2-.2-.6-.7-.9-1.1-.3,0-.5,0-.6.1-.8,1.6-1.6,1.7-3.4.9-1.8-.8-4.1-.2-6.2-.2s-1.8.1-2.7.2c0-.3,0-.6-.1-.8,1.6-.6,3.2-1.2,4.8-1.9.4-.1.9-.4,1.2-.3,2,.9,3.9,2,5.6-.5h.7c2.7,3,5.9,0,8.8.7.2,0,.6-.9,1-1.3-.6-.3-1.1-.9-1.7-1-.3,0-.7.7-1.2,1.3h-.1Z"/>
                <path class="st2" d="M377,387.4c-1.2,1.1-1.9,1.6-3,2.6.8.2,1.4.4,2.1.6-.2.3-.4.5-.6.8-.6,0-1.2-.2-1.8-.3-.3,2.2-.7,4.4-1,6.6,0,0-.6,0-.4,0-.4-1.9-.8-3.5-1.2-5.3-3.5,1.9-4.1,3.6-3.1,7.1.2.7-.1,1.7-.4,2.5,0,.3-.8.3-1.2.5-.1-.5-.4-1-.4-1.4.3-2.1.4-4.2,1.3-6.1.8-1.6,2.3-2.9,3.6-4.3.6-.6,1.5-1,2.2-1.6.6-.5,1.1-1.2,1.7-1.7,4.1-3.1,7.4-6.9,10.3-11.2.1-.2,0-.4.2-1-.8.4-1.3.7-1.9,1-.1-.2-.3-.4-.4-.6.9-.6,1.7-1.2,2.7-1.7,1.1-.6,2.3-.9,3.3-1.5.3-.2.6-1.2.4-1.4-1.9-2.4-3.8-4.7-5.8-7-.3-.3-.9-.3-1.4-.5,0,.5-.2.9-.2,1.3h-.7v-2.9h.6c-.8-1.2-1.7-2.4-2.5-3.6,3.5,2.2,4.9,6.9,10,7.2-.8,1.4-1.3,2.8.6,3.6.4.2.9,0,1.3,0s.2-.7,0-1c-.7-1.3-.2-2.2,1.1-2.3.9,0,1.9.5,2.9.7-.4,1-.5,2.6-1.2,2.8-1.5.5-2,1.4-2.3,2.7-.1.5-.7,1-1.1,1.4-1.4,1-3.2,1.7-4.4,3-2.4,2.6-4.5,5.4-6.6,8.2-.5.7-.5,1.8-.6,2.7,0,.6.4,1.3.2,1.9-.2,1-.7,1.9-1.1,2.8l-1.5-3c-.1-.3,0-.7.3-1.8v.2h0Z"/>
                <path class="st2" d="M429.5,465.3c-1.4,1.2-2.8,2.4-4.2,3.7,0,.2.2.4.2.7,2.1-.3,3.4.4,3.2,2.5-.3,2.1-2.3,1.7-3.7,2.2-1.5-4.4-1.9-4.4-4.9-.9,1.3.6,2.6,1.1,4.2,1.8-1.2.7-2.1,1.3-3,1.8-1.9-1.9-2.5-2-3.7.3-1.2,2.2-3.1,2.5-5.1,3-1.4.3-1.9-.2-1.7-1.7.1-1.1-.1-2.3-.3-3.6.7-1.6,1.6-3.7,2.4-5.7.3-.3.5-.6.8-.9.4.8.7,1.6,1.1,2.3.3.6.8,1,1.2,1.6.4-.5.8-1.1,1.2-1.6.2-.2.4-.5.6-.9.6.5,1.1,1,1.4,1.2,2.6-1.8,5.1-3.6,7.7-5.4-1.4-.2-3.5,1.4-4.3-2,2.4.2,4.6.4,6.9.7v.9h0Z"/>
                <path class="st2" d="M369,414.1c-1.2-1.1-2.5-2.2-3.9-3.5-.5-.7-1.1-1.8-1.9-2.8-2.5-3.1-4.9-6.5-7.8-9.3-2.5-2.3-4.3-5-6.2-7.7-1-1.4-3.3-1.5-4.2-3.6-1-2.4-2.8-4.4-4.4-6.9-2.2-.2-4.9-.4-7.5-.6v-1.2c2-.3,4-.6,6.1-.8-.3-1.4-.3-1.3-2.4-1.7-1.2-.2-2.4-.7-3.4-1,.9-1.7,1.6-3.2,2.7-5.3,1.2,1.6,2.5,3.3,3.7,5.1.7,1.1,1.1,2.5,1.9,3.7,1.6,2.5,3.3,5,5.2,7.3.9,1,2.5,1.6,3.8,2,1.1.4,2.4.2,3.7.9-1.4.4-2.7.7-4.7,1.3,3.3,3.8,6.2,7.2,9.2,10.5.9,1,2.2,1.5,2.8,1.9.7,1.4,1.1,2.5,1.8,3.4,1.6,2.1,3.4,4,5,6.1.4.6.5,1.4.7,2.1h-.2q0,.1,0,.1Z"/>
                <path class="st2" d="M65.2,524c1.6-.9,3.3-1.7,4.6-2.4,1.3,1.5,2.3,2.8,3.2,3.8-.8,1.1-1.6,2.2-2.5,3.5,0-.5.2-1.2,0-1.7-.3-.8-.7-1.6-1.3-2.1-.4-.4-1.4-.6-1.9-.3-1,.6-1.9,1.5-2.7,2.4-.9,1-1.2,2,0,3.1.4.3.6.9,1,1.6-2.5.8-1.7,2.5-.7,3.6.6.7,2.1.7,3.3.9.3,0,.9-.2,1.1-.4,2.1-2.3,2.9-.3,4.3,1.6-3.9,0-7.3,0-10.6-.4-.7,0-1.5-2.3-1.6-3.6,0-2-.2-3.7-2.5-4.5.9-1.8,1.6-3.4,2.6-5.3,1,0,2.4,0,3.7-.2v.5h0q0,0,0,0Z"/>
                <path class="st2" d="M345,157.2c1.8,2,4.8,2.1,4.9,5.3,0,.3,2.5.9,3.7.7,1.5-.3,2.8-1.5,4.3-2.2,2.2-1.1,2.8-.7,3,1.7.1,1.1.6,2.1,1,3.1.3.8.6,1.6,1,2.4-.3.1-.5.3-.8.4-.5-.7-1.1-1.4-1.5-2.1-1.7-3-3.1-3.3-5.9-1.3-1.6,1.2-8.1,1-9.4-.5-1-1.2-1.7-2.8-1.9-4.3-.1-.9,1-2,1.6-3.2h0Z"/>
                <path class="st2" d="M267,250.3c-.6.1-1.2.3-1.8.4-.7.2-1.7.6-2,.4-.5-.6-.7-1.5-.9-2.3-.2-1.2-.4-2.5-.4-3.8-.2-3-.3-6.1-.3-9.1s.8-1.2,1.4-1.4c.3,0,1.2.7,1.3,1.3.3.9.5,2.1.2,2.9-1.2,3.4-.4,5.4,2.9,6.6,1.8.7,2.6,2,2.1,3.8-.2.8-1.4,1.3-2.1,1.9-.1-.2-.3-.4-.4-.6h0q0-.1,0,0Z"/>
                <path class="st2" d="M350.4,451.4c.9.1,1.7.2,2.6.3.6,0,1.2.3,1.7.4,4.1.2,8.5-.2,12.3.8,2.5.7,4.7,1.4,7.3,1.3,1.4,0,2.9.6,4.5,1.3-1.2.1-2.4.3-3.6.3-3.1,0-6.2-.2-9.4-.3-.5,0-1.1,0-1.4.4-2.1,2.3-4,1.1-6.2-.1-1.8-1-4-1.4-6-2.1-.8-.3-1.5-.7-2.3-1.1.1-.4.2-.8.4-1.2h.1Z"/>
                <path class="st2" d="M399.1,270.3c-.8.4-1.6.8-2.3,1.2-.4.2-1.1.5-1.1.8-.3,3.3-3,2.7-5,3.3-.7-1.3.1-3.8-2.7-2.9-3.3,1-.9,3.1-1,4.9-1.4.5-2.7,2-3.8-.6-.2-.4-1.3-.5-2.2-.9,1.5-.8,2.8-1.5,4.7-2.5-1.5-.4-2.2-.7-3.2-.9.2-.6.3-1,.4-1.3-1.3-.5-2.5-1.1-3.8-1.6,1.4-.9,2.4-1.5,3.4-2.1,2.5,1.3,4.4,3.5,7.5,4.3,3.5.8,5.2-2.9,8.3-2.6.3.3.5.6.8.9h0Z"/>
                <path class="st2" d="M106.2,384.7c-.9,1.5-1.5,2.5-2.3,3.7.8,1.5,1.8,3.4,2.9,5.6-1.9.4-2.8.4-3.5-1.4-1-2.6-2.7-4.9-4.1-7.4-1.3-2.4-2.7-4.8-3.9-7.3-.2-.4.4-1.2.6-1.8.7.2,1.6.3,1.9.8.8,1.2,1.3,2.7,2.1,4,1.3,2.1,2.6,4.2,6.2,3.9h0q0-.1,0-.1Z"/>
                <path class="st2" d="M187.4,320c-2.7,1.7-5.4,3.4-8,5.1-2.7,1.8-5.6,3.3-8.1,5.3-2.4,1.9-5.8,2.7-7.8,5.6-2.6,1.4-5.4,3.3-8.5,4.4-3.7,1.4-3.7,5.3-5.7,7.8-.2-.1-.4-.2-.6-.3.8-2.1,1.2-4.6,2.5-6.2,1.4-1.7,3.8-2.5,5.7-3.7,4.9-3.3,9.8-6.7,14.8-9.9,4.4-2.8,9-5.5,13.5-8.2.6-.3,1.3-.3,1.9-.5,0,.2.1.3.2.5h.1q0,.1,0,.1Z"/>
                <path class="st2" d="M319.4,113.4c1.4.7,2.8,1.4,4.4,2.1,1.2-1.4,2.4-2.8,3.7-4.1.4-.4,1.3-.3,1.9-.5,0,.6,0,1.3-.3,1.9-.5,1.2-1.2,2.3-1.7,3.4-.6,1.3,0,2.1,1.5,2.4v-1.8c1.2.9,2.2,1.7,3.2,2.4,0,.2-.1.4-.2.6h-1.4c-.7,0-1.6,0-2.2.4-2.2,1.6-4.3,1.1-5.8-1.2-.5-.8-1.7-1.2-2.6-1.9-.4-.4-1-.9-1.1-1.4,0-.8.3-1.6.5-2.4h.1Z"/>
                <path class="st2" d="M449.8,155.4c.2,1.3.3,1.9.4,2.9,1.2-.9,2.2-1.7,3.4-2.6v-.7c.2-.7.4-1.4.7-2.1,0-.1,1.2,0,1.2.3.2.7.5,1.9.2,2.2-2.1,2-2,4.6-2.1,7.2,0,.2-.2.4-.4.7-3.8-.5-1.2-3-1.3-5.4-1.4,1-2.4,1.7-3.4,2.5-.8.6-1.5,1.3-2.2,1.9-.6-.7-1.2-1.5-1.9-2.3.8-.3,1.2-.5,1.7-.7-.4-3.4-4.6-.8-5.5-3.8,3.1-2,5.9,2.4,9.1,0h.1q0-.1,0,0Z"/>
                <path class="st2" d="M253.4,365.2c-.7.1-1.4.5-2.1.4-1.6,0-3.2-.4-4.8-.5-2.8-.1-5.2,2-5.8,4.8-.1.6-.7,1.2-1.2,1.4-.3.1-1.2-.3-1.3-.6-.2-.6-.2-1.6.2-1.9,1-1,2.2-1.7,3.4-2.6v-.7c-2.5-.2-5.1-1-7.2-.4-2.2.7-2.4,3.4-1.9,5.8h-.8c0-1.9,0-3.7-.2-6.2-.9,0-2.3.3-3.7.3s-1.2-.3-1.7-.5c0-.4.1-.8.2-1.3,3.3,0,6.6.2,9.9.2s5.1.3,7.6,0c1.1-.2,1.7,0,2.6.4,1.1.5,2.5.4,3.7.4s1.9,0,2.8-.1c0,.3.1.6.2.9v.2h.1Z"/>
                <path class="st2" d="M318.2,219.9c.5.8.9,1.5,1.5,2.4,1.1-1.4,2.3-3.1,3.7-4.6.3-.4,1.1-.3,1.7-.4.1.8.5,1.6.3,2.2-.5,1.2-1.4,2.2-1.9,3.4-.3.8-.2,1.8-.4,2.8-.7-.2-1.8-1.2-2,1.1,0,1.1-2,1.9-2.7,3-1,1.8-2.1,1.7-3.6.4,4.2-2.4,2.1-6.2,2.2-9.5.4-.3.8-.6,1.2-.9h0q0,.1,0,.1Z"/>
                <path class="st2" d="M330.5,252.4c2-1.3,3.6-2.2,5.2-3.2.2.3.5.6.7.9-1.2,1.4-2.5,2.7-4,4.5,1.3,1.6,2.9,3.8,4.6,5.9-1.5-.2-2.2-.8-3.1-1.9-2.6-3.3-4.2-8.1-9.6-8.6,1.1-2.2-.1-3.4-1.8-4.6-.8-.6-.7-2.2-1.1-3.5,1.1-.5,2.1-.9,3.2-1.3,0,.2.2.3.3.5-.5.6-1,1.1-1.4,1.7,2.5,3.4,4.9,6.7,7.1,9.8v-.2h-.1Z"/>
                <path class="st2" d="M224.8,64.7c.2-1,0-2.2.6-3,.5-.7,1.6-1.4,2.4-1.5h9.7c3.2,0,6,0,9,.3.3,0,.8.7.9,1.1,0,.3-.4.8-.7.9-.3.2-.8,0-1.2,0-4.7,0-9.5,0-14.2-.2-1.1,0-2.3-.4-2.7,1.2,0,.3-.9.3-1.4.4-.7.2-1.4.3-2.3.5v.3h-.1Z"/>
                <path class="st2" d="M214.9,363.5l-14.4-.3c.7-1.1,1-1.5,1.2-1.9-3.3-4-6.6-8-9.8-12,1.7.5,3.4.6,4.7,2.6,2.1,3.3,4.8,6.3,7.6,8.9,3,2.7,6.6,1.1,10,0,.4-.1.7-.2,1.1-.3-.2,1-.3,1.8-.5,3h.1,0Z"/>
                <path class="st2" d="M367.1,127.8c.6-1.5,2.5-3.1,1.2-5.4,0,0,.5-.9.8-.9.5,0,1.1.3,1.3.7.8,1.4,1.5,2.8,2.1,4.2.8,1.8,1.3,3.7,2.1,5.5.3.7,1,1.3,1.4,2s.7,1.5.7,2.5c-1.7-2.4-6-1.4-6.3-5.6,0-1-1.9-1.8-3.2-3h-.1Z"/>
                <path class="st2" d="M312.6,143.8c.7,1.4-.8,8.2-1.9,9-2.7,1.8-3.8,1.9-6.6.4-.7-.4-1.4-.9-2.4-1.6,1.1-.7,1.8-1.2,2.6-1.8.8.9,1.4,1.6,2.3,2.7.8-1.8,1.5-3.3,2.2-4.8-.9-.5-1.6-.8-2.7-1.4,1.6,0,2.8.4,3.8,0s1.7-1.5,2.7-2.4h0q0-.1,0,0Z"/>
                <path class="st2" d="M357,293.9v-2.5c1.4.3,2.6.6,3.8.8v.7c-.8.4-1.7.9-2.8,1.4.1,1.8-.6,2.8-2.9,3.1-1.2.1-3.3,2.1-3.2,3,.3,1.7,1.8,3.2,2.9,4.7.3.4,1,.4,1.9.7-4.2,0-6.4-1.9-8.1-6.8,1.3-1.4,2.4-3.1,3.9-4,1.2-.8,3-.7,4.7-1.1h-.2,0Z"/>
                <path class="st2" d="M318.2,155.6c.5-2.8,1-5.1,1.4-7.4h-.6c1.9-2.8,3.7-5.6,5.6-8.4.2,0,.4.2.6.2-.2.7-.4,1.5-.8,2.2-1.9,4.1-1.3,5.9,2.6,8.2,1.1.6,2.4,1,3.5,1.7.4.2.6.8,1,1.4-3.7,0-6.6-.3-7.7-4.3-.8.6-1.3,1-1.9,1.5-.4-.3-.7-.6-1-.9,1.4,3.2-1.6,3.9-2.8,6v-.2h.1,0Z"/>
                <path class="st2" d="M393.2,240.1c.8.9,1.4,2.1,2.4,2.7.8.6,2,.7,2.9,1v2.8c0,.7,0,1.9-.3,2-3.1,1.2-2.4,4.6-4.1,6.6-.2.2-.3.5-.4.8-1-.9-2.1-1.6-2.9-2.7-.2-.3.3-1.6.9-2,1.1-.7,3.9-4.2,3.7-5.3,0-.5-.6-.9-.9-1.4-.8-1.3-1.5-2.7-2.2-4,.3-.2.6-.4,1-.7v.2h-.1Z"/>
                <path class="st2" d="M133.8,187.3c1-1.3,1.6-2,2.4-3.1.7,1,1.5,2.1,2.2,3.3-.1.2-.3.5-.4.7-1.1-.2-2.3-.4-3.8-.7.6,1.1,1.1,2.1,1.6,3.1,0,.2-.2.4-.3.6-.8-.3-1.9-.4-2.4-.9-.8-.9-1.4-2-1.8-3.1-1-3-2-6.1-2.9-9.1-.2-.6.1-1.3.2-1.9.6.2,1.3.2,1.7.6.9.8,1.6,1.5,1.5,3.1-.1,2.1,1.1,4.3,2,7.4h0Z"/>
                <path class="st2" d="M319.9,100.2c-1.3,1.7-2.5,2.1-4.3,1.7-1.1-.2-2.4.3-3.4.8-1.8.9-3.5,1.7-5.2,0-.5-.6-1.2-1.7-.9-2.2.3-.7,1.3-1.5,2.1-1.7,3.5-.9,7,.2,10.5.5.4,0,.7.5,1.3.9,0,0-.1,0-.1,0Z"/>
                <path class="st2" d="M158.9,171.5c3.1-1,5.7-1.8,8.3-2.6.4,1.7.7,3.1,1.1,4.6-1.7-.9-3.3-1.7-4.8-2.5-.2.3-.4.6-.6,1,2.2.2,1.9,3.5,4.9,3.1.6,0,1.5,1.6,2.5,2.8-.7.2-1.2.4-1.3.3-1.5-2-3.6-1.5-5.6-1.6-3.1-.1-3.1-2.9-4.5-5.1h0Z"/>
                <path class="st2" d="M28.9,527.1c-1.1-3-1.2-5.7-2.8-7.9-.4-.5,0-1.7.2-2.6.8.3,1.6.5,2.5.8.7-.8,1.5-1.8,2.5-3,1.3,4.8.9,8.8-2.5,12.7,0,0,.1,0,0,0Z"/>
                <path class="st2" d="M353.6,43c1.7-1.1,3-2.6,4.7-3,1.6-.4,3.4.3,5,.4.2-1.3.4-2.4.7-3.4h1.3c0,1.4.5,3,0,4.2-1.3,3.1-8.9,4.5-11.5,1.7h-.2Z"/>
                <path class="st2" d="M354,127.6c-1.9.8-3.1.7-3.3-1.2,1-.8,1.7-1.4,2.5-2-.7-.7-1.6-1.4-2.1-2.2-.7-1.1-1.2-2.4-1.9-3.9,2.2-.2,3.8-1,5.2,1.4.5.9,2.6.9,4,1.3.7.2,1.4.4,2,.9-3.8.9-6.6,3.4-6.3,5.8h-.1q0,0,0-.1Z"/>
                <path class="st2" d="M404.9,183.9c-.5-1.1-.9-1.6-.8-1.9.8-2.6,1.6-5.1,2.7-7.6.8-1.9,2.3-3.4,1.6-5.8-.2-.7.9-1.8,1.6-2.6.2-.2,1.3,0,1.4.2.2,1,.5,2.2.2,3.1-1.1,3.1-2.3,6.1-3.7,9.2-.8,1.7-1.8,3.3-2.9,5.4h-.1Z"/>
                <path class="st2" d="M61.5,344.7c5-1.9,10.4-2.4,15.6-3.6,5.3-1.1,10.7-1.5,16.2-2.2-.8,1.1-6.9,2.1-10.3,2.4-3.6.3-7.1,1.1-10.6,1.9s-7,1.8-10.5,2.7c0-.4-.2-.9-.4-1.3h0s0,.1,0,.1Z"/>
                <path class="st2" d="M-.2,251.2c.6-1.5,1-3.1,1.7-4.6,1.5-3.3,3.1-6.5,4.7-9.8.9-1.7,1.7-3.5,2.7-5.1,1.2-2,2.9-3.8,1.6-6.4-.1-.3.4-.8.6-1.3.4.2,1,.4,1,.7.1,1.2.4,2.5,0,3.5-2.1,4.7-4.3,9.2-6.5,13.8-1.6,3.1-3.3,6.2-5,9.3-.2,0-.5-.1-.7-.2h0s0,.1,0,.1Z"/>
                <path class="st2" d="M417,488.3c-2.2-1.4,0-7.5,3.3-10.7.1,1.5.3,3,.4,4.8,1.7.9,4.1-1.8,6.8.5-4.2.1-4.8,2.3-4,5.4h-.9c-.2-.6-.5-1.3-.7-2-.1-.7,0-1.3-.1-2-.7,0-1.5,0-2.2.2-1.7.5-3.3,1.1-2.7,3.8h.1Z"/>
                <path class="st2" d="M409.5,395.2c2.9-.4,5.7-.8,8.5-1.2,1.8,3.3-1.4,2.8-3,3.8,2.8,1.2,5.9-.8,8.2,2.5-1.2,0-1.9-.2-2.5,0-1.6.3-3.1.8-4.7,1.1-.6.1-1.7.4-1.9.2-.4-.5-.4-1.4-.3-2.1,0-.9.5-1.7.7-2.5-1-.3-1.9-.6-2.9-.8-.6-.1-1.3,0-2,.1l-.2-1h.1q0-.1,0-.1Z"/>
                <path class="st2" d="M361,426.6c.6,2.1,1.2,4,1.7,6-1.1-.3-2.5-.4-2.2,2,0,.6-.7,1.2-.9,1.9-.5,1.7-.8,3.4-1.3,5.1-.2.6-.7,1-1,1.5-.3-.5-1-1.2-.9-1.6.4-1.7,1.1-3.4,1.9-5.6-1.7.2-3.3.4-4.8.6,0-.2-.2-.3-.3-.5.7-.4,1.4-.9,2.2-1.1,3.1-.7,3.7-1.4,4.1-4.6.2-1.4,0-3.1,1.5-3.6h0q0-.1,0,0Z"/>
                <path class="st2" d="M180.9,353.4c-3.2.6-5.9,1.3-8.6,1.6-1.1.1-2.4-.4-3.5-.6v-1.1c1.3-.3,2.6-.9,3.9-.8,1.9.1,3-.3,3.5-2.3.1-.7.8-1.2,1.3-1.8.6.5,1.4.8,1.7,1.4.8,1.2,1.3,2.4,1.9,3.5h-.2q0,.1,0,0Z"/>
                <path class="st2" d="M258.6,77.5c2.3,2.3,4.6,4.6,7.3,7.3-.3.2-.9.5-1.6.8.3.9.7,1.7,1,2.7-2.3.6-2.5-1.2-3.4-2.2-.5-.6-1.1-1.4-1.8-1.7-1.4-.5-2.2-.9-1.7-2.7.3-1.1-.3-2.5-.5-3.8l.6-.4s.1,0,.1,0Z"/>
                <path class="st2" d="M438,337.9c8.2,4.1,16.3,8.3,24.7,12.6-1.3.6-8.9-2.9-12.6-5-4.1-2.4-8.4-4.4-12.7-6.6.2-.3.4-.6.6-.9h0Z"/>
                <path class="st2" d="M112.8,256c1.9-.5,3.6-.5,3,2.4-.8-.3-1.5-.6-2.5-1.1.2,1.1.3,1.9.4,2.9-2.1.3-3.4-.7-4.1-2.4-.8-2-1.3-4.1-1.9-6.2,1.5-.5,3.2.9,5.1,4.4h0Z"/>
                <path class="st2" d="M257.1,166.8c-.7-3-1.4-5.6-2-8.2.3,0,.5-.2.8-.3.4.9.7,1.8,1.3,2.6.4.6.9,1.3,1.5,1.4.4,0,.9-.8,1.4-1.3.7-.8,1.2-1.8,2-2.3.6-.4,1.6,0,2.4,0-.2.8-.1,1.8-.6,2.4-1.3,1.6-2.9,3-4.4,4.4-.7.6-1.5,1-2.3,1.5v-.2h-.1Z"/>
                <path class="st2" d="M327,215c1.3,1.1,2.6,2.2,3.9,3.3,2.2,2,3.9,4.8,7.4,4.8h1.8c-2.1,3.1-3.4,3.3-6,.9-2.1-1.9-4.3-3.7-6.4-5.6-.7-.6-1.1-1.6-1.6-2.5.3-.3.6-.5.8-.8h.1q0-.1,0,0Z"/>
                <path class="st2" d="M132.1,206.6c3.3-.6,5.3,1.3,5,4.8-1-.8-1.9-1.6-3.1-2.7v3c-.2,0-.4.1-.6.2-1.9-3.4-3.8-6.8-5.7-10.2-.2-.3.2-1,.3-1.5.5.2,1.4.3,1.6.7.9,1.8,1.6,3.7,2.5,5.6h0q0,.1,0,0Z"/>
                <path class="st2" d="M385.8,38.2c.7,1.7,1.4,3.3,2.3,5.2-2.4-.2-4.8-.4-7.2-.6-.5,0-1.1-.5-1.3-.4-2.1,1.4-2.6-.8-3.8-2,1,0,2.1-.4,3.1-.2,4.3.8,4.3.9,7-2h-.1Z"/>
                <path class="st2" d="M298.5,251.7c1.9-.5,3.1.1,4.3,1.5,1,1.2,2.5,1.9,3.7,3,.6.6,1,1.4,1.5,2.2l-.8.8c-.8-.4-1.5-.8-2.3-1.2-.8-.4-1.5-.9-2.3-1.1-3.5-.9-3.7-1.1-4.1-5.1h0q0-.1,0,0Z"/>
                <path class="st2" d="M55.2,424.9c-.8-.2-1.6-.4-2.3-.6v-.6c4.2-1.1,8.3-2.6,12.9-.9-1.1,1.2-2.1,2-4.1,2.1-2.4,0-4.8,1.1-7.5,1.7.4-.6.7-1.1,1-1.6h0Z"/>
                <path class="st2" d="M276.2,216.3c0-1.7,2.5-4.4,4.9-4.7,1.8-.2,4-.7,5.6,2.2-4-.3-6.4,3.8-10.4,2.5h-.1Z"/>
                <path class="st2" d="M311.6,69.7h-2.2c-3.6-.3-7.2-.6-10.8-.9-1.3,0-2.5-.3-3.8-.6-1.5-.3-2.9-1.5-4.4,0-.2.2-1.7-.7-2.6-1.1,0-.3.2-.7.3-1,7.8.8,15.6,1.6,23.4,2.4v1.1h.1Z"/>
                <path class="st2" d="M345.2,287.4c-1.1-1.2-1.8-2.3-2.7-3-1-.7-2.2-1.1-3-1.5-.3-1-.5-2-.8-3.3.8-1.2,2.3-.8,3.5,0,3.2,2,4.2,4.5,3.1,7.8h-.1Z"/>
                <path class="st2" d="M340.5,437.3c-1.5-2-3.3-2.1-5.3-1.3-.5.2-1.4-.9-2-1.3,4.8-3.3,9.2-6.4,13.5-9.4-.1.2-.3.6-.6.9-1.8,1.6-3.6,3.2-5.3,4.9-1.6,1.5-2.5,3-.3,4.8.3.2.3.7.5,1l-.4.5h-.1q0-.1,0-.1Z"/>
                <path class="st2" d="M358.6,105.5c-1.5-1.2-3-2.3-4.3-3.5-.5-.5-.6-1.4-1-2.4,2.1-.2,3.2-1,2.7-3.1,3.5,1.8,4.2,4.6,2.5,8.9h.1q0,0,0,0Z"/>
                <path class="st2" d="M279.8,405.8c-3.8-1.1-7.4-2.1-11.1-3.1-.1.2-.2.4-.4.7-.2-.7-.5-1.4-.9-2.5,1.9.6,3.7-1,5,1.2.1.2,1.3-.2,2-.3,3.7-.6,5.2.5,5.4,4.1h0Z"/>
                <path class="st2" d="M290.4,243c.7.2,1.4.6,2,.6s1.5-.1,1.9-.2c1.7,1.2,3.4,2.5,4.8,3.5,1-1.5,1.7-2.4,2.4-3.3.8.8,1.6,1.5,2.5,2.4-1.2.5-1.9.8-2.6,1.1.6.5,1.1,1,1.7,1.4.9.6,1.9,1.1,2.9,1.6-.1.2-.2.4-.3.7-3.5-1.6-7-3.2-10.5-4.8-.7-.3-1.5-.8-2.2-.6-2.1.5-2.5-.7-2.6-2.3h0q0-.1,0,0Z"/>
                <path class="st2" d="M375.2,375.4c-.3-1.5-.7-3.1-.9-4.6-.3-1.5-.8-3.2-.5-4.6.4-1.7,1.5-3.2,2.4-4.8.3.1.6.3.9.4-.1.4-.3.8-.4,1.3-.2.9-.7,1.9-.5,2.7.5,2-.2,4.1,1,6.1.5.8-.3,2.3-.4,3.5h-1.6Z"/>
                <path class="st2" d="M291.5,141.1c2.9,3.1,1.6,8.4,5.5,10.5-.6,1.9-1.1,3.5-1.8,5.9-.6-1.6-1.1-2.8-1.4-3.9-.4-1.4-.5-3-.8-4.4-.5-2.7-1-5.4-1.5-8.1h0Z"/>
                <path class="st2" d="M154.1,383.4c-1.9-1-3.4-1.7-2.4-3.4-1.4-2.1-2.7-4-4-6.1,3.5-.5,4.8.5,5.4,3.6.2,1,.8,1.9,1.1,2.9.2.8,0,1.7,0,2.9h-.1Z"/>
                <path class="st2" d="M311.4,138c-.8-1-.9-1.8.7-2.9,1.7-1.1,3.1-2.8,4.8-4,.5-.4,1.4-.7,1.9-.4.4.2.7,1.3.5,1.8-.4.9-.9,1.9-1.7,2.4-1.8,1.2-3.9,2-6.1,3.2h-.1q0-.1,0-.1Z"/>
                <path class="st2" d="M290.8,522c-.7-3.3-3.8-2.1-6.6-3.1,1.3-.5,2-.9,2.7-.9h7.7c.6,0,1.1.6,1.6,1-.5.4-.9.9-1.5,1.2-1.2.7-2.4,1.2-3.9,2v-.2h0Z"/>
                <path class="st2" d="M342.2,273.5c-.8,1.7-2,2.8-3.9,2-.4-.2,0-2.3.2-3.5.3,0,.6-.2.9-.3-1-.7-1.9-1.5-3.4-2.6.9-.6,1.8-1.6,2.7-1.6s1.3,1.4,1.7,2.2c.5,1.1.8,2.4,1.2,3.6.2,0,.4.1.6.2h0Z"/>
                <path class="st2" d="M206.6,490.7c2.8.7,4.3,4.4,7.7,2.8.5,1.4,1,2.9,1.5,4.3-3.1.3-9.1-4.2-9.2-7.1h0Z"/>
                <path class="st2" d="M369,414.1c.7.3,1.6.5,2.2,1.1,2.5,2.3,5.1,4.5,7.5,7,2.8,3,5.4,6.3,8.1,9.5-.2.1-.3.3-.5.4-1.1-1.1-2.3-2.2-3.4-3.3-2.5-2.7-4.9-5.5-7.4-8.1-2.1-2.2-4.3-4.3-6.5-6.4h0v-.2h0Z"/>
                <path class="st2" d="M339.6,179c-1.2.9-1.9,1.4-2.7,2-1.9-1.6-4-.4-6.1.2-.9.3-2,0-3.1,0s-1.8-.3-2.7-.4c-.5,0-1-.3-1.5-.4v-1c5.2,0,10.3-.1,16-.2v-.2h.1Z"/>
                <path class="st2" d="M99.2,361.6c5.6-4.2,11.3-8.3,18.2-10.5-5.9,3.7-11.9,7.4-17.8,11.1l-.4-.6Z"/>
                <path class="st2" d="M160.6,369.6c1.7-4.6,6.3-5.7,10.4-2.4-3.5.8-7,1.6-10.4,2.4Z"/>
                <path class="st2" d="M412.4,154.5c.8.4,2,.7,2.2,1.3.7,2.5,3.1,3.7,4.2,5.8.6,1.1,1,2.4,1.1,3.8-4.4-2.1-4.3-7.6-8.3-10,.2-.3.4-.6.7-.9h.1,0Z"/>
                <path class="st2" d="M387.5,229.5c-1.5.3-2.1,0-2.5-1.6-.3-1.4-.9-3.1-2-4-1.8-1.8-.7-2.8.2-4.1,1.5,1.4.4,4.8,3.8,4.2.1,1.8.3,3.6.4,5.5h.1Z"/>
                <path class="st2" d="M61,326.3c6.8-1.4,13.2-4.4,20.4-3.8-6.8,1.6-13.5,3.1-20.3,4.7v-.8h0Z"/>
                <path class="st2" d="M232.1,505.8c-4.7-2.6-9.4-5.2-14.1-7.7.1-.3.3-.5.4-.8,4.8,2.5,10.6,3.2,13.6,8.5h.1Z"/>
                <path class="st2" d="M349,117.4c-1.6.6-2.9,1.3-3.6-1.3-.3-1-1.9-2.2-3-2.3-2.2-.2-1.3-1.4-1.6-2.4,3.5-.6,3.7-.4,4.3,2.5.1.5,1.1,1.1,1.6,1.1,1.8,0,2.2.8,2.3,2.4h0Z"/>
                <path class="st2" d="M446.6,246.7c-.6-.2-1.6-.6-2.9-1,2.3-2.9,2.4-6.9,6.5-7.7-1.2,2.9-2.3,5.6-3.6,8.7Z"/>
                <path class="st2" d="M259.5,396.5c.8,1.1,2,2,2.4,3.2.8,2.5,3.5,4,3.4,6.9,0,.7-.2,1.4-.8,2.1-1.8-3.9-3.6-7.9-5.4-11.8l.4-.4h0Z"/>
                <path class="st2" d="M104.2,167.7c-.4-3.2,5.3-7.9,9.2-7.8-3.2,2.7-6,5.1-9.2,7.8Z"/>
                <path class="st2" d="M89.8,236c.8-.7,1.4-1.2,1.9-1.6.4.6.8,1.6,1.4,2,2.1,1.2,1.3,3,1.1,4.6,0,.3-.6.9-.9.8-.4,0-1-.4-1.2-.8-.8-1.6-1.6-3.3-2.4-5.1h0Z"/>
                <path class="st2" d="M341.5,125.4c-2.2,1.2-4,2.3-5.8,3.2-.2.1-1-.5-1.2-.9-.2-.5-.2-1.3,0-1.7,1.4-2.2,3.8-2.6,6.9-.6,0,0,.1,0,.1,0Z"/>
                <path class="st2" d="M325.2,230.9c.6,1.5,1,2.6,1.5,3.7.5,1.2,1.3,2.3-.7,3.1-1.6-3.1-3.2-6.1-4.7-9.1l.6-.4c1.2,1,2.4,2,3.4,2.7h-.1,0Z"/>
                <path class="st2" d="M137.1,173.6c-6.9-1.9-14.4-2.3-19.9-8.7h1.1c4.3,4.8,10,6.1,16,6.8,1.1.1,2.1.6,3.1.9-.1.3-.2.7-.4,1h.1,0Z"/>
                <path class="st2" d="M342.8,149.6c-.9-2.1-1.5-3.7-2.2-5.2-.4-.9-1.2-1.6-1.7-2.5-.2-.5-.2-1.1-.3-1.6.6,0,1.5-.5,1.9-.2,1.9,1.2,3.3,6.2,2.3,9.5h0Z"/>
                <path class="st2" d="M202.9,105.2c-1.5.2-2.3.3-3.1.5-2.5.4-1.7-1.3-1.7-1.8,2.8-1.5,5.1-2.7,7.6-4.1-1.1,2.1-2.1,4.1-2.8,5.3h0Z"/>
                <path class="st2" d="M285.5,335.9c1.1,2.2,3,4,3,6.8s1,3.3,1.7,4.9c.3.6.9,1,1.5,1.4s1.3.7,1.8,1.3c-2.7-.3-4.5-1.3-5-4.4-.5-3.4-1.9-6.7-2.9-10.1h-.1Z"/>
                <path class="st2" d="M103.6,269.3c.6.7,1.4,1.1,1.6,1.7.4,1.2.5,2.6.8,3.9-.7.1-1.7.5-1.9.3-1-1.4-1.8-2.9-2.4-4.5,0-.1,1.1-.8,2-1.4h0Z"/>
                <path class="st2" d="M393.5,267.7c-1.7,1.1-3,2-4.3,2.7-.3.2-1.1.1-1.2-.1-.7-1-1.3-2.1-1.7-3.4,2.6,0,5.1-1,7.3.8h-.1,0Z"/>
                <path class="st2" d="M229.9,237.8c-1.4-1-2.5-1.9-3.4-2.5.9-1.7,1.7-3,2.4-4.4,2.4.5,2.4,3,1,6.9Z"/>
                <path class="st2" d="M359.5,250.8c-.9,4.6-1.9,9.1-2.9,14.1-.3-1.5-.5-2.8-.7-4,.9-3.3,1.8-6.8,2.7-10.3.3,0,.6.2,1,.2h-.1Z"/>
                <path class="st2" d="M12.1,191.6c-.9-2,.3-5.8,2.3-6.4.4-.1,1.4.7,1.4,1.1,0,2.1-1.6,4.3-3.7,5.4h0Z"/>
                <path class="st2" d="M151.4,125c3.6-.3,7.3-.5,11.3-.8-.4.7-.8,1.7-1.4,2.4-.6.8-1.5,1.4-2.2,2.1-.5.4-1.2.8-2,.9.8-1.1,1.6-2.1,2.4-3.2-.1-.3-.3-.6-.4-.8-2.5,0-5.1,0-7.6.2v-.7h-.1s0,0,0,0Z"/>
                <path class="st2" d="M367.5,278c1.4-.2,2.9-.3,4.5-.5v-3.3c1.1,1.4,1.9,2.3,2.4,3.4.2.4-.4,1.6-.7,1.6-2,.2-4.1.3-6.1.4,0-.5,0-1.1-.1-1.6h0Z"/>
                <path class="st2" d="M247.9,291.5c2,.3,3.6.6,5.1.8v.4c-2.4,0-4.8-.1-7.8-.2,2.1-2.5,3.8-4.5,5.4-6.5.3.2.6.4.8.6-1.1,1.5-2.2,3-3.5,4.8h0Z"/>
                <path class="st2" d="M7.1,188.8c-1.3,1.1-2.1,1.7-2.8,2.4-.2-.2-.4-.3-.7-.5.9-1.4,1.8-2.7,2.7-4.2,1.5,2.2,3,4.1,4.3,6.1.3.5-.1,1.5-.2,2.3-.4-.6-1-1.1-1.3-1.8-.7-1.4-1.3-2.8-2-4.3Z"/>
                <path class="st2" d="M294.5,120.3c1.1-.9,1.8-1.7,2.7-2,.7-.3,1.7.2,2.5.3-.2.8-.3,1.7-.8,2.3-.7.8-1.6,1.3-2.8,2.1-.5-.8-1.1-1.8-1.7-2.7h.1,0Z"/>
                <path class="st2" d="M76.3,193.6c3,3.6,6.1,7.1,9,10.5-2.7-.3-8.3-6.7-9-10.5Z"/>
                <path class="st2" d="M433.6,463.8c-2.2-.7-4.4-1.3-6.8-2.1.4-.7,1.1-1.8,2.1-3.2,1.6,1.5,3.3,3.1,5,4.8-.1.2-.2.4-.3.6h0q0-.1,0,0Z"/>
                <path class="st2" d="M427.9,176.8c-1.2-3.1-5.4-4.4-5.1-8.3,1.3,1.1,2.5,2.1,3.6,3.1,1.4,1.4,3,2.7,1.5,5.2Z"/>
                <path class="st2" d="M156.1,265.5c2.3,3.4,4.4,6.9,4.5,11.2-2.5-3.3-3.2-7.4-4.5-11.2Z"/>
                <path class="st2" d="M292,388.2c.3,1.3.6,2.4,1,3.8h-2c-1.2,3.1-2.3,6.1-3.5,9.4-.3-3.1,1.8-9.2,4.4-13.2h.1Z"/>
                <path class="st2" d="M187.2,115.6c-3.2.4-8.1-3.2-9.2-6.5,3.2,2.3,6,4.2,9.2,6.5Z"/>
                <path class="st2" d="M184.8,95.4c.6-2.4,1.1-4.8,1.8-7.6,1,1.2,1.7,2.1,2.4,3-1.6,3.6-2.5,4.6-4.2,4.6Z"/>
                <path class="st2" d="M415.6,392.2c2.2-1.7,8.1-.1,10.7,2.7-3.6-.9-7-1.8-10.7-2.7Z"/>
                <path class="st2" d="M254.4,271.7c1.5-5,4.7-6.9,9-6.9-2.7,2.1-5.7,4.3-9,6.9h0Z"/>
                <path class="st2" d="M274,187.3c-1-1.1-2-2,.3-2.9.6-.2.9-1.3,1.4-1.8s1-.5,1.6-.7c.2.6.8,1.3.7,1.8-.4,2.1-1.8,3.3-4,3.5h0q0,.1,0,0Z"/>
                <path class="st2" d="M162.9,87.5c-2.2-2.9-2.7-6.4-3.1-9.8.3,0,.7-.2,1-.3,1,3.3,1.9,6.6,2.9,9.9-.3,0-.6.2-.8.2h0Z"/>
                <path class="st2" d="M314.5,343.5c2.2-2.2,6.2-.8,6.4-5h.7c1.1,1.2,2.3,2.4,3.4,3.6-.1.3-.2.6-.4.9-3.4-2.3-6.5,0-10.1.5Z"/>
                <path class="st2" d="M45.2,76.1c-1.6-.3-2.9-.5-4.3-.8,2.9-4,6.7-2.3,10.2-2v.7c-1.2,0-2.3,0-3.5-.3-1.7-.2-3.2-.2-2.4,2.3h0Z"/>
                <path class="st2" d="M397.5,402.3c3.8-1.8,8-2.1,12.3-1.5-4,.8-8.1,1.5-12.1,2.3,0-.2-.1-.5-.2-.7h0q0-.1,0,0Z"/>
                <path class="st2" d="M317.6,297.9c1.7.1,3,0,4.2.4.9.3,1.7,1.3,2.3,2.1.2.2-.2,1.2-.2,1.2-.9,0-2,0-2.7-.4-1.2-.8-2.2-2-3.6-3.3h0Z"/>
                <path class="st2" d="M198.4,425.9c-2.1,1.4-4,2.7-5.9,3.8-.3.2-.9.2-1.3,0-.2,0-.4-.9-.2-1,1.8-1.3,3.7-2.5,5.6-3.6.3-.2,1,.5,1.8.8h0Z"/>
                <path class="st2" d="M315.8,215c2.6-5.1,5.1-10.1,7.7-15.2l.7.2c-.1.6,0,1.3-.4,1.7-1.6,1.6-2.3,3.5-3.1,5.7-.9,2.8-3,5.2-4.5,7.8-.1,0-.3-.2-.4-.2h0Z"/>
                <path class="st2" d="M384,148.5c-.8.4-1.6,1.2-2.1,1-.6-.2-.9-1.1-1.3-1.7-.5-.6-1.1-1.1-1.6-1.8-.3-.5-.5-1.2-.7-1.8.7,0,1.7-.3,2.1,0,1.2,1.2,2.3,2.7,3.6,4.3Z"/>
                <path class="st2" d="M382,8.9c1-1.9,1.7-2.8,3.6-1.9,1.6.7,3.5.6,5.3,1.2-2.7.8-5.5,1.1-8.9.7Z"/>
                <path class="st2" d="M49.8,27c-2.8-.2-5.7,1.5-8.8.2,2.6-2.1,6.2-2.2,8.8-.2Z"/>
                <path class="st2" d="M183.6,354.2v2.3h2.3c-.2,1.3-.3,2.6-.5,3.9-3.8-1-4.5-3.1-1.8-6.3h0Z"/>
                <path class="st2" d="M299.5,227.2c1.1-.3,1.9.7,1.2,2.1-.9,2.1-2.3,3.9-3.8,6.2-.7-2.3-.3-3.6.9-4.9.7-.8,1-1.9,1.7-3.4h0Z"/>
                <path class="st2" d="M340.6,78.8c.5-.2,1.1-.7,1.6-.6,2.6,0,5.2.3,7.8.6.2,0,.5.9.4,1.4,0,.2-.7.6-1.1.6-.9,0-1.9-.3-2.8-.5-1.9-.3-3.8-.7-5.8-1,0-.2-.1-.3-.2-.5h.1Z"/>
                <path class="st2" d="M141.6,127.8c.7,1.3,1.4,2.5,2.1,3.8-.3.2-.6.4-.8.6-1.7-1.9-3.4-3.8-5.2-5.7,2.5-1.4,3.1-1.1,3.9,1.4h0Z"/>
                <path class="st2" d="M171.4,370.2c3.7-.6,5.6,1.4,4.7,4,0,.3-1.4.5-1.5.3-1-1.3-1.9-2.6-3.1-4.4h-.1q0,.1,0,.1Z"/>
                <path class="st2" d="M154.2,461.7c2.3,1.4,4.3,2.7,6.7,4.2-3.9.9-6.8-.9-6.7-4.2Z"/>
                <path class="st2" d="M17,345.9l-9.9-.2v-.7c3.3-1.5,6.6.9,9.9,0v.9h0Z"/>
                <path class="st2" d="M14.2,365.4c1.1-1.5,1.9-2.7,3.1-4.3.7,2.4,1.6,4-.2,5.2-1.4.9-2.3-.1-2.8-.9h-.1,0Z"/>
                <path class="st2" d="M140.4,198.6c-.7.4-1.6.8-2,1.1-.5-1.4-1-2.6-1.4-3.9-.1-.4,0-1.1.1-1.3.4-.4,1.1-.6,1.7-.7.3,0,.7.6.8,1,.3,1.2.5,2.4.8,3.8h0Z"/>
                <path class="st2" d="M277.5,371.8c2.5-2.1,4.7-.4,7,0-1.1,2.3-2.6,2.3-7,0Z"/>
                <path class="st2" d="M391.2,238.3c-1.5-2.5-3.7-4.1-4.2-7,2.7.6,4.9,4.1,4.2,7Z"/>
                <path class="st2" d="M270.4,410c-1.1,0-2-.2-3-.2.7-2,1.4-3.8,2-5.5,1.5,1.3,2.6,2.2,3.9,3.4h-4.8c.9,1,1.3,1.5,2,2.3h-.1Z"/>
                <path class="st2" d="M34.7,226.4c.7,1.1,1.6,2,1.5,2.3-.5.9-1.4,1.6-2.2,2.4-.6-.8-1.7-1.6-1.8-2.4,0-.6,1.3-1.3,2.5-2.3Z"/>
                <path class="st2" d="M434.5,148.7c-2.4-.4-3.2-1.3-3.7-4.5h3.2c.2,1.6.4,2.9.6,4.5h-.1Z"/>
                <path class="st2" d="M409.4,512.7c1.6,2.8-.5,3.6-2.6,5.2,0-1.7-.2-3.1-.3-4.6,1.1-.2,2.1-.4,2.9-.6h0Z"/>
                <path class="st2" d="M419.4,228.7c4.6-.1,4.9,3.8,7.2,5.6-.5.4-1,.9-1.5,1.3-.9-1.4-1.5-2.6-2.3-3.7-.8-1-1.9-1.8-3.4-3.2h0Z"/>
                <path class="st2" d="M292.2,465.2c-2.5-.6-6.8-4.1-6.5-6.1,2.5,2,4.7,3.7,7,5.4-.2.2-.3.4-.5.6h0Z"/>
                <path class="st2" d="M322.8,209.6c1.1.7,2,1.3,3.3,2.1-.2.6-.4,1.6-1,2.3-.2.3-1.6,0-1.8-.3-.7-1.2-2-2.5-.5-4h0Z"/>
                <path class="st2" d="M285.1,175.2c-1.3,2.1-2,3.4-2.7,4.4-1.8-1.8-3.8-3.9-5.9-6.1,2.6,1.1,4.7,4.2,8.6,1.6h0Z"/>
                <path class="st2" d="M127.8,322.2c-1.8.2-3.5.5-5.2.7-.4,0-.8-.3-1.1-.6s0-.7,0-.9c1.1-1.5,5.4-1.1,6.3.8Z"/>
                <path class="st2" d="M359.6,123.6c2.2,1.6,3.8,2.8,5.7,4.2-3.1,1.8-3.8-1.1-5.4-1.9-1.9-1-1.3-1.8-.3-2.2h0q0,0,0,0Z"/>
                <path class="st2" d="M314.1,143.4c3.5-1,4.6-2,3.7,4.2-1.4-1.6-2.5-2.9-3.7-4.2Z"/>
                <path class="st2" d="M241.1,373.9c-2.1.7-4.1,1.5-6.2,2-.6.2-1.4-.3-2-.8,2.9-.5,5.2-4.3,8.2-1.2Z"/>
                <path class="st2" d="M81.8,308.4c-1.7,1-3.3,1.7-2.9,4.1,0,.1-.9.4-1.4.6-.3-.9-.8-1.8-.8-2.6s.8-1.8,1.4-2c1.1-.3,2.4-.2,3.7-.2h0s0,.1,0,.1Z"/>
                <path class="st2" d="M51.7,189c.8-1,1.5-2.2,2.5-3,1.1-.8,2.3-1.3,2.4-3,0-.3,1-.5,1.5-.7,0,.5.5,1.3.3,1.6-2,1.9-4,3.8-6.1,5.6-.2-.2-.4-.3-.5-.5h-.1Z"/>
                <path class="st2" d="M360.5,110.5c1.6,0,3.1-.3,4.7-.3s.8.6.9,1c0,.4-.3,1.1-.6,1.2-1.7.2-3.6.5-5.1-.7v-1.2h.1Z"/>
                <path class="st2" d="M158.6,155.7c-2.7,0-3.2-.6-3.5-4,2.5-.4,3.9,1,3.5,4Z"/>
                <path class="st2" d="M130.9,330c2.4-.3,3.1.5,2.4,2.5-.2.4-.2.9-.3,1.3-.3.6-.7,1.1-1,1.6-.3-.5-.8-1.1-.9-1.6-.2-1.2-.1-2.5-.2-3.7h0q0-.1,0,0Z"/>
                <path class="st2" d="M421.4,451c-1.3,1.3-2.5,2.6-3.8,3.9-1.2-1-1.9-1.6-2.5-2.2,2-.9,3.9-1.7,5.8-2.5.2.2.3.5.5.7h0Z"/>
                <path class="st2" d="M31.6,174.6c-2.4.9-4.8,1.8-7.3.3v-.9c2.4-.2,4.8-.4,7.3-.5v1.1h0Z"/>
                <path class="st2" d="M323.5,466.1c-2.4-.8-4.7-1.7-7.1-2.5v-.6c.5-.2,1.3-.8,1.4-.6,1.7,1.7,4.9.7,6.3,3-.2.3-.4.5-.5.8h-.1q0-.1,0,0Z"/>
                <path class="st2" d="M90.8,329.4c-3.5.7-7.1,1.4-10.6,2v-.9c3.4-1.6,7-1.5,10.8-1.1h-.2Z"/>
                <path class="st2" d="M45.5,12.6c-3.4-.1-4.4,1.7-5.1,3.9,0,.3-.8.5-1.2.7,0-.5-.2-1,0-1.4.5-1.1,1.2-2,1.7-3.1.9-2,2.2-2.3,4.7-.1h-.1Z"/>
                <path class="st2" d="M253.4,345.3c-1.1-2.6-2.2-5.1-3.6-8.2,1,.3,1.8.2,1.9.5.9,2.4,1.8,4.9,2.6,7.4l-.9.3h0Z"/>
                <path class="st2" d="M357.2,146.1c1.8.1,3,.2,4.2.3.1.2.2.5.3.7-1,1.1-2,2.1-3,3.2-.5-1.2-.9-2.5-1.6-4.2h.1Z"/>
                <path class="st2" d="M186.8,7.6c-.5-3.1,1.7-4.5,4.9-3-1.6,1-3.2,1.9-4.9,3Z"/>
                <path class="st2" d="M312,407.6c.5,2.3.4,3.2-1.4,3.4-.8.1-1.5,1.1-2.2,1.6-.8.5-1.6,1-2.7,1,2-1.9,3.9-3.8,6.2-6h.1Z"/>
                <path class="st2" d="M82.2,61.4c1.2-2.9,2.4-5.7,3.7-8.8.4,2.9-1.3,7.7-3.7,8.8Z"/>
                <path class="st2" d="M299.6,392.2c-.4,1.5.9,3.5-1.5,4-1.5.3-1.3-1-1.3-1.9,0-1.8.4-2.9,2.9-2.1h-.1Z"/>
                <path class="st2" d="M111.8,400.2c.9,1.7,1.8,3.5,3,5.8-1.4-.3-3.1-.3-3.2-.8-.4-1.6-.4-3.3-.5-5h.7Z"/>
                <path class="st2" d="M3.3,410.9c-1.3,1.3-2.2,2.2-3.6,3.7-.3-2-.6-3.3-.8-4.7,1.4.3,2.7.6,4.4,1Z"/>
                <path class="st2" d="M346,363.2c.7,1.7.3,3.1-1.1,4-.8.6-2.7,1.1-2.9.8-.7-1.1-1-2.5-1.5-3.8,1.3,1,2.4,1.8,3.5,2.6.6-1.2,1.3-2.3,1.9-3.6h.1Z"/>
                <path class="st2" d="M290.4,457.2c-1.3-.9-2.6-1.7-4.4-2.9,2.4-.6,4.1,0,5.5,1,.3.2-.3,1.5-.4,2.4-.2-.1-.4-.3-.7-.4h0Z"/>
                <path class="st2" d="M261.4,390.7c1.6-3.1,3.3-3.2,5.5.1h-5.5Z"/>
                <path class="st2" d="M14.4,441c-1.2-.1-2.4,0-3.5-.4-.4-.1-.6-1.2-.8-1.8.8-.2,1.8-.7,2.4-.5.8.3,1.4,1.2,2.1,1.8,0,.3-.1.6-.2.9Z"/>
                <path class="st2" d="M282.9,162.7c1.6.3,3.3.7,4.9,1v1c-1,.4-2.2,1.2-3,.9-.9-.3-1.6-1.5-2.4-2.3.2-.2.3-.4.5-.6h0Z"/>
                <path class="st2" d="M5.1,526.3c-1.2-3,1.1-6.6,3.4-6.5-1.1,2-2.2,4.1-3.4,6.5Z"/>
                <path class="st2" d="M165.8,424.6c1-1.5,1.7-2.6,2.8-4.2-.2,4.3,3.3.1,3.9,2.8-2,.4-4,.9-6.7,1.4h0Z"/>
                <path class="st2" d="M9.1,46c.7,1.5.3,2.5-1.3,2.6-1.1,0-1.9,2.2-3.1.5,0,0,1.7-1.6,2.6-2.3.5-.4,1.1-.5,1.8-.7h0Z"/>
                <path class="st2" d="M26.4,57.6c1.6-1,2.7-1.8,3.9-2.4,0,0,1,1.1,1,1.2-.9.9-1.9,1.8-2.9,2.4-.2,0-.9-.5-2-1.2Z"/>
                <path class="st2" d="M369.2,443.1c-3.3,0-6.5-2.3-7.1-5.3,2.4,1.8,4.8,3.6,7.1,5.3Z"/>
                <path class="st2" d="M266.9,225.5c-.7-1.9,2-7.1,4-7.3-1.4,2.5-2.7,4.9-4,7.3Z"/>
                <path class="st2" d="M315.4,331.7c3,1.5,3.7,2.6,3.5,4.6-2.2-.6-3.7-2.5-3.5-4.6Z"/>
                <path class="st2" d="M50.3,268.1c-.7-1.7-1-2.5-1.5-3.8.7-.2,1.6-.6,2.6-.7.3,0,1,1.1.9,1.4-.4,1-1.1,1.9-1.9,3.1h0Z"/>
                <path class="st2" d="M196.8,136.8c-1.4,2.1-4.1,3-6.4,1.6,2.3-.9,4.2-1.6,6.1-2.3.1.3.2.5.3.8h0q0-.1,0-.1Z"/>
                <path class="st2" d="M416.2,489.5c1.4,1.3,2.5,2.5,3.8,3.7-1.7,1.4-2.7.6-3.6-.3s-1.5-2.1-.2-3.4h0Z"/>
                <path class="st2" d="M83.8,293.1c-1.8.5-3.5,1.1-5.3,1.6-.3-1,0-1.8,1.8-2.5,1-.4,2.3,0,3.4,0v1h0Z"/>
                <path class="st2" d="M144.1,397.4c-1.5.9-2.4,1.5-3.7,2.3v-5.4c1.6,1.3,2.6,2.2,3.7,3.2h0Z"/>
                <path class="st2" d="M430.2,499.5c-.8-1.3-1.7-2.1-1.6-2.6.2-.8,1.2-1.4,1.8-2,.4.6,1.2,1.3,1.2,1.9s-.7,1.5-1.4,2.8h0q0-.1,0,0Z"/>
                <path class="st2" d="M245.4,239.1c-1.5-1.7-2.9-3.4-4.4-5,2.6.5,4.1,2.1,5,4.4-.2.2-.4.4-.6.7h0q0-.1,0,0Z"/>
                <path class="st2" d="M439.1,46.5c-.2-3.3-.4-6.6-.6-9.8h.8c.2,3.3.4,6.6.6,9.9h-.8Z"/>
                <path class="st2" d="M245.4,325.8c1.4,2.9,2.8,5.8,4.2,8.8-.3.1-.6.3-.9.4-1.4-3-2.7-5.9-4.1-8.9.2,0,.5-.2.7-.3h.1Z"/>
                <path class="st2" d="M373.2,110.4c-1.4.4-2.6.7-4.1,1.1-.2-.9-.3-1.7-.4-2.5,2-.7,3.6-1.1,4.5,1.4Z"/>
                <path class="st2" d="M440.4,23.3c0,2.6,0,5.1-.2,7.7,0,.5-.7.9-1.1,1.3-.2-.4-.6-.9-.6-1.3.3-2.2.7-4.3,1.1-6.5,0-.4.3-.9.4-1.3h.4q0,.1,0,0Z"/>
                <path class="st2" d="M345.2,218.7c.9-.8,1.8-1.5,2.8-2.4.8,1.7,1.3,3.1-.6,3.8-.6.3-1.6-.3-2.4-.5,0-.3.1-.6.2-.9h0Z"/>
                <path class="st2" d="M398.8,519.7c-2.5-.7-4.7-4.5-4.3-6.7,1.5,2.4,2.9,4.6,4.3,6.7Z"/>
                <path class="st2" d="M279.5,71c1,1.5,2,3,3.1,4.5l-.7.7c-1.1-.6-2.3-1.1-4-1.9,1.2-.3,1.7-.4,2.4-.5-.5-.8-.9-1.5-1.3-2.3.2-.2.4-.3.6-.5,0,0-.1,0-.1,0Z"/>
                <path class="st2" d="M184.6,335.2c2.1-.1,4.1-.2,6.2-.3v1.1c-2,.2-4.1.4-6.1.6,0-.5-.1-.9-.2-1.4h.1Z"/>
                <path class="st2" d="M54.5,84.5c1,.6,2.1,1.1,3,1.9.2.2-.2,1.2-.3,1.8-.5-.2-1.2-.2-1.6-.5-.7-.7-1.2-1.6-1.7-2.5.2-.3.4-.5.6-.8h0Z"/>
                <path class="st2" d="M344.9,362.7c-1.3-.1-2.4-.1-3.4-.4-.5-.1-.9-.6-1.4-1,.5-.4,1-1.1,1.6-1.1,1.4,0,2.9.2,3.3,2.4h-.1Z"/>
                <path class="st2" d="M281.4,225.9c-1.1,1.2-2.3,2.4-3.5,3.7-.4-.5-.8-1-1.4-1.8,1.6-1,3-1.8,4.4-2.7.2.3.4.5.5.8Z"/>
                <path class="st2" d="M260.5,257.5c.9,1.4,1,2.5-.7,3-.7.2-2.1-.1-2.1-.4-.5-2.3,1.5-2.1,2.8-2.6h0Z"/>
                <path class="st2" d="M152.9,410.1c-1,1.5-1.9,2.9-3,4.6-1.3-2,0-4.1,3-4.6Z"/>
                <path class="st2" d="M280.9,441c-1.5-.3-2.9-.6-4.4-.9l-.2-.7c.6-.4,1.4-1.2,1.9-1.1,1.1.4,2.1,1.2,3.1,1.8l-.4.9h0Z"/>
                <path class="st2" d="M182.1,191.1c-2.6.4-5.1.7-7.7,1.1,0-.3,0-.6-.1-.9,2.6-.4,5.1-.9,7.7-1.3,0,.4,0,.8.1,1.1h0Z"/>
                <path class="st2" d="M11.4,180.2c1-1.2.4-3.8,3.1-3.8.2,2.7-.4,3.6-3.1,3.8Z"/>
                <path class="st2" d="M179.6,382.8c-.6-1.7-1-2.9-1.4-4.1.2-.1.5-.3.7-.4,1,1.3,2.1,2.5,3.5,4.2-1.4.2-2.1.3-2.7.3h-.1Z"/>
                <path class="st2" d="M424,.3c2.4-1.7,4.8-3.4,7.2-5.2.2.2.3.5.5.7-2.4,1.7-4.7,3.5-7.1,5.2-.2-.2-.4-.5-.5-.7h-.1Z"/>
                <path class="st2" d="M423.1,257.8c-.4.7-.8,1.3-1.4,2.2-1.2-.5-2.4-.9-3.6-1.4v-.5c1.6-.3,3.2-.7,4.8-1,0,.3.2.5.3.8h-.1q0-.1,0-.1Z"/>
                <path class="st2" d="M289.8,288.7c-1.9-2.1-3.8-4.2-5.7-6.3.2-.1.3-.3.5-.4,2,2,4,3.9,6,5.9l-.8.8Z"/>
                <path class="st2" d="M272,186.6c.5.7,1,1.3.9,1.5-.6.8-1.4,1.6-2.2,2.3l-1.4-1.4c.8-.7,1.6-1.4,2.6-2.4h.1Z"/>
                <path class="st2" d="M343.8,438.4l7.4-2.8c.1.3.2.6.3.9l-7.4,2.8c-.1-.3-.2-.6-.3-.9Z"/>
                <path class="st2" d="M121.2,524.4c2.1-1,4.3-2,6.4-3,0,.3.3.5.4.8-2.1,1.1-4.2,2.2-6.3,3.3l-.5-1.1Z"/>
                <path class="st2" d="M359,134.7c.5,1,1,1.9,1.5,2.9,0,.2-.2.4-.3.7-1-.2-2-.5-3-.7.3-1,.7-2,1-2.9.3,0,.5,0,.8.1h0Z"/>
                <path class="st2" d="M146.4,252.3c1.2-.7,2.3-1.3,3.5-1.9l.6.6c-.8,1.2-1.7,2.4-2.7,3.9-.6-1.1-.9-1.8-1.4-2.7h0q0,.1,0,0Z"/>
                <path class="st2" d="M188.1,198.5h-6.3v-.9h6.4c0,.4,0,.7-.1.9h0Z"/>
                <path class="st2" d="M265.5,279.8c-1.7.1-3.5.3-5.5.4,1.2-2.2,3.5-2.5,5.5-.4Z"/>
                <path class="st2" d="M329.8,332.8c1.6.8,3.3,1.6,5.5,2.6,0,0-.1.8-.2,1.6-.6-.4-1.3-.8-1.9-1.3-1.2-.8-2.3-1.6-3.5-2.4,0-.2,0-.3.1-.5h0Z"/>
                <path class="st2" d="M136.1,349.8c.8.6,1.5,1.1,2.3,1.7-.6.7-1.1,1.5-1.7,2.2-.5-1-1-2-1.6-3,.3-.3.7-.6,1-.9h0Z"/>
                <path class="st2" d="M437.2,227.6c-1.9.5-3.5.9-5.1,1.3,1.5-2.8,2.8-3,5.1-1.3Z"/>
                <path class="st2" d="M371.6,222.9c-2.3,1.8-4,1.5-6.2-.9,2.2.3,3.9.6,6.2.9Z"/>
                <path class="st2" d="M302.5,427c.1,2.4.3,4.7.4,7.1h-.7c-.2-2.3-.4-4.7-.6-7h.9q0-.1,0-.1Z"/>
                <path class="st2" d="M143.9,477.5c-1,0-1.5.1-1.9,0-.3-.2-.7-.8-.6-1,.2-.4,1-1.1,1-1,.9.8,1.8,1.1,3,.4,0,0,.5.4.5.7s-.2.7-.4.8c-.6.2-1.3.3-1.5.4v-.3h-.1Z"/>
                <path class="st2" d="M113.2,86.9h6.2v.7c-2,0-4.1.3-6.1.4v-1.1h0Z"/>
                <path class="st2" d="M185.1,121.5c.7,1.9,1.3,3.4,1.9,5-2.5,0-3.2-1.7-1.9-5Z"/>
                <path class="st2" d="M11.6,203.7c-.2,1.6-.3,2.8-.4,4.1-.5-.3-1.2-.5-1.4-.9-.5-1.2-.8-2.5,1.8-3.2h0Z"/>
                <path class="st2" d="M411.5,320.3c-1.7,1.9-3.4,2.2-5.3,1,1.8-.6,3.4-1.2,5-1.8,0,.3.2.5.3.8Z"/>
                <path class="st2" d="M158.8,203.7c1.2,1.9,2.2,3.2,3.1,4.6-.3.2-.5.4-.8.5-1.3-1.2-3.2-2-2.3-5.2h0q0,.1,0,0Z"/>
                <path class="st2" d="M208.9,432.5c-1.9,1.3-3.8,2.7-5.7,4-.2-.3-.4-.5-.5-.8,1.4-2,3.7-2.7,6.2-3.2Z"/>
                <path class="st2" d="M131.6,476.6c-.8.8-1.5,1.8-2.5,2.3-.6.3-1.6,0-2.5-.1v-.8c1.5-.6,3-1.2,4.5-1.8.2.1.3.3.5.4Z"/>
                <path class="st2" d="M191.6,116.5c.4,1.3.7,2.6,1.1,3.8-.2.2-.4.3-.7.5-.7-.7-1.8-1.4-2.1-2.3-.2-.6.6-1.6,1-2.4.2,0,.5.2.7.3h0Z"/>
                <path class="st2" d="M242.8,67.1c-3.1,1.6-5.2,1.1-6.2-1.2,2,.4,3.9.7,6.2,1.2Z"/>
                <path class="st2" d="M135.9,40.3l3.3-.8c0,.5.3,1.5.2,1.6-1,.4-2.1.6-3.2.8-.1-.5-.2-1.1-.3-1.6Z"/>
                <path class="st2" d="M271.6,258.3c.2,1.8.4,3.6.5,5.4-2.1-1.5-2.2-3-.5-5.4Z"/>
                <path class="st2" d="M359.6,113.3h-1.4c-1-.2-2-.6-3-.9.3-.3.5-.9.8-.9,1.3,0,3.2-.9,3.6,1.7h0Z"/>
                <path class="st2" d="M274.4,139c.4,1.1.8,2.1,1.2,3.2-.5.2-1.3.6-1.6.4-1.2-.9-1.4-2,.4-3.6h0Z"/>
                <path class="st2" d="M254.2,158c-.6-2.1-1-3.6-1.4-5.1l.8-.4c.7,1.2,1.5,2.3,2,3.6.1.3-.6.9-1.3,1.9h-.1Z"/>
                <path class="st2" d="M218.9,386c.4-.5.5-1,.8-1.1,1-.3,2.1-.5,3.1-.6,0,0,.3.8.4,1.2-.9.3-1.8.6-2.8.8-.4,0-.9-.1-1.6-.2h.1q0-.1,0,0Z"/>
                <path class="st2" d="M33.5,51.1c.8-.7,1.3-1.2,1.9-1.7.4.8.9,1.5,1.1,2.4,0,.4-.6,1-1,1.5-.6-.6-1.1-1.3-1.9-2.2h0Z"/>
                <path class="st2" d="M328.5,338.4c.2-2.2.9-2.5,3.4-1.7-.3,1.3-1.4,1.9-3.4,1.7Z"/>
                <path class="st2" d="M163.9,146.1c-.2-1.5-.3-2.9-.5-4.4,2.4.4,2.6,1.1,1.4,4.4h-.9Z"/>
                <path class="st2" d="M103.2,406.3c1,1.2,2,2.4,3.1,3.6-.2.2-.4.3-.6.5-2-.4-3.1-1.5-3.2-3.6.3-.2.5-.4.8-.6h0s0,.1,0,.1Z"/>
                <path class="st2" d="M224.1,74.3c-.6,2.1-1.3,4.3-1.9,6.4-.3,0-.7-.2-1-.3.7-2.1,1.4-4.2,2-6.3.3,0,.6,0,.9.2Z"/>
                <path class="st2" d="M112.2,204.7c.9-.7,1.7-1.5,2.7-2,.4-.2,1.2.4,1.9.6v.7c-1.3.5-2.7,1-4,1.6-.2-.3-.4-.5-.5-.8h0Z"/>
                <path class="st2" d="M343,253.4h-2.6c-.5,0-1-.5-1.2-.9s.2-1,.5-1.1c.4-.2,1.1-.2,1.5,0,.7.4,1.3,1,2,1.6,0,.2-.1.3-.2.5h0q0-.1,0-.1Z"/>
                <path class="st2" d="M388.2,254.1c-1.5-.6-2.7-1-3.9-1.5.3-.4.6-.8.9-1.2.9.7,3.2-1,3,2.7Z"/>
                <path class="st2" d="M423.5,376.9c-.5-.8-.8-1.3-1.2-1.9-.4.7-.8,1.3-1.2,2-1.5-3,1.3-2.6,2.5-4v3.9h-.1,0Z"/>
                <path class="st2" d="M80.8,395.5c.8.6,1.7,1.2,2.5,1.8-.6.4-1.4,1.4-1.6,1.2-.8-.4-1.3-1.2-1.9-1.9l1-1.1Z"/>
                <path class="st2" d="M186.9,127.8c.6,1.7,1.2,3.3,1.8,5-.3.1-.6.3-.9.4-.7-1.6-1.4-3.2-2.2-4.9.4-.2.8-.3,1.2-.5h.1,0Z"/>
                <path class="st2" d="M95.4,373c-2.4,1.1-3.1,0-3.5-1.4,0-.2,1-1.1,1-1,.9.8,1.7,1.6,2.6,2.4h0Z"/>
                <path class="st2" d="M428.5,184.1c1.5-.7,3-1.4,4.5-2l.5,1.3c-1.5.6-3,1.2-4.6,1.9-.2-.4-.3-.7-.5-1.1h.1q0-.1,0,0Z"/>
                <path class="st2" d="M328.4,229.4c-.7-.6-1.1-1-2.1-1.8.3,1.3.5,2.1.7,2.8-.2,0-.4.2-.6.3-.5-1.1-1-2.3-1.7-3.7,1.8.2,4-.9,3.7,2.4Z"/>
                <path class="st2" d="M435.8,337.6c-2.1-1.1-4.2-2.2-6.3-3.3.2-.3.3-.6.5-.9,2.1,1.1,4.1,2.2,6.2,3.4-.1.3-.3.5-.4.8h0Z"/>
                <path class="st2" d="M391.9,180.7h6.1c-1.9,1.7-4,.8-6.1,0Z"/>
                <path class="st2" d="M414,391.7c-.8-1.8-1.5-3.6-2.3-5.4,1.8.6,3.2,3.1,2.3,5.4Z"/>
                <path class="st2" d="M144.1,212.4l-4.7-4.1c2.2.7,4.5,1.2,5.3,3.5l-.6.6Z"/>
                <path class="st2" d="M140.1,204.1c1.4,1.1,2.8,2.2,4.2,3.3-.2.3-.5.6-.7.9-1.4-1.1-2.7-2.2-4.1-3.4.2-.3.4-.6.6-.9h0q0,.1,0,0Z"/>
                <path class="st2" d="M187.1,112.5c-.5-1.3-1.1-2.6-1.6-4,.4-.2.8-.3,1.1-.5.6,1.3,1.2,2.6,1.8,3.9l-1.3.5h0Z"/>
                <path class="st2" d="M178.1,355.1c.7.6,1.1,1,1.6,1.4-.5.3-1,1-1.5.9-.7,0-1.3-.6-1.9-1,.5-.4,1.1-.8,1.8-1.4h0q0,.1,0,.1Z"/>
                <path class="st2" d="M80.7,66.6c-1.2,1.2-2.4,2.4-3.7,3.6l-.7-.7,3.4-3.8s1,.9,1,.9Z"/>
                <path class="st2" d="M375.4,377.7c.6-.7.9-1.1,1.2-1.6.5.9,1,1.8,1.4,2.7,0,.3-.5.8-.8,1.1-.6-.7-1.1-1.4-1.8-2.3h0q0,.1,0,0Z"/>
                <path class="st2" d="M157.1,401.6c-.9-1.9.6-4.4,3.1-4.9-1.1,1.7-2,3.2-3.1,4.9Z"/>
                <path class="st2" d="M221.6,509.5c-1,1.5-1.8,2.6-2.7,3.9-1.2-2.2-.5-3.2,2.7-3.9h0Z"/>
                <path class="st2" d="M82.9,254.1c1,1.3,2.1,2.6,3.1,3.9-.3.2-.5.5-.8.7-1.1-1.3-2.2-2.5-3.2-3.8.3-.3.6-.6,1-.8h0Z"/>
                <path class="st2" d="M230.8,402.7c.7.5,1.6,1,2.2,1.6.1.1-.5,1-.7,1.5-.8-.7-1.5-1.3-2.3-2l.8-1h0Z"/>
                <path class="st2" d="M165.2,340.2c-.4-1-.7-1.6-1.2-2.8,1.6.3,2.9.6,4.1.9,0,.2.1.4.2.6-1,.4-1.9.8-3.1,1.3Z"/>
                <path class="st2" d="M396.2,34.5c.6-.9,1.1-1.8,1.7-2.7l1.5.9c-.8.8-1.6,1.7-2.3,2.5-.3-.2-.6-.5-.9-.7h0Z"/>
                <path class="st2" d="M101.8,235.8c.6.9,1.4,1.5,1.3,1.8-.2.6-.9,1.3-1.5,1.4-.5,0-1.1-.7-1.6-1,.5-.6,1-1.2,1.8-2.2Z"/>
                <path class="st2" d="M99.3,181.9c-1.4-.4-2.3-.7-2.9-.8-.2-1.2-.5-2.4-.7-3.6.2,0,.4-.2.6-.3.9,1.4,1.8,2.9,3,4.7h0Z"/>
                <path class="st2" d="M283.4,3.7c.5.7.9,1.1,1.2,1.5-.8.4-1.5,1-2.3,1.1-.4,0-.9-.6-1.3-.9.7-.5,1.4-1,2.4-1.7h0Z"/>
                <path class="st2" d="M352.6,346c-2.2-1.3-4.5-2.6-6.7-3.9,0-.1.1-.3.2-.4,2.3,1.2,4.6,2.3,7,3.5-.2.3-.3.5-.5.8Z"/>
                <path class="st2" d="M421.9,454.2c-.1,1.1-.2,2.2-.3,3.3-.5-.2-1.3-.3-1.3-.5,0-1,.2-2,.3-3,.5,0,.9.1,1.4.2h-.1Z"/>
                <path class="st2" d="M226.1,192.6c-2.2-.8-4-1.5-5.9-2.2,1.3-1.2,3.4-.5,5.9,2.2Z"/>
                <path class="st2" d="M65.3,249.7c1.6.7,3.1,1.4,4.7,2.1l-.4,1c-1.6-.7-3.1-1.5-4.7-2.2,0-.3.3-.6.4-.9h0Z"/>
                <path class="st2" d="M213.6,23.4c1.7-.6,2.8-1,4.1-1.5.1,2.4-1.1,2.9-4.1,1.5Z"/>
                <path class="st2" d="M382.5,131.1c-.8-1-1.4-1.7-2-2.4.4-.3.9-.9,1.2-.8.8.3,1.4.8,2.1,1.2-.3.5-.7,1.1-1.3,2h0Z"/>
                <path class="st2" d="M405.8,381.3c.6,1.6,1.3,3.2,1.9,4.8-.3.1-.6.3-.9.4-.7-1.6-1.5-3.1-2.2-4.7.4-.2.7-.3,1.1-.5h.1Z"/>
                <path class="st2" d="M311.1,355.9c1.6-.5,2.9-1,3.5,1.2-1.4.5-2.9,1.5-3.5-1.2Z"/>
                <path class="st2" d="M402.4,527h-4.6v-.7h4.6v.7Z"/>
                <path class="st2" d="M275.6,283.2c.1,1.6.2,3.3.3,4.9h-.6c-.5-1.6-2-3.1-.6-4.9h.9Z"/>
                <path class="st2" d="M296.5,510.2c.3-.7.4-1.8.8-1.9.6-.3,1.5.2,2.3.3-.7.7-1.3,1.4-2,2.2-.4-.2-.7-.4-1.1-.6h0Z"/>
                <path class="st2" d="M446.4,446.6c-1.5-.3-3-.7-4.7-1.1,2-1.5,2.7-1.4,4.7,1.1Z"/>
                <path class="st2" d="M16.5,8.7c-2.1-1.7-1.2-2.9,0-4h.8c-.2,1.3-.5,2.6-.7,3.9h0s-.1.1,0,0Z"/>
                <path class="st2" d="M193.9,120.3h4c-1.3,1.4-2.6,3-4,0Z"/>
                <path class="st2" d="M444.5,162.9c1.3,3.4-1,3.4-2.8,3.7.9-1.1,1.7-2.2,2.8-3.7Z"/>
                <path class="st2" d="M230.6,21.4c1,0,2-.2,2.9-.3v1.8h-3v-1.5h.1Z"/>
                <path class="st2" d="M119.8,326.5c-1.8.1-3,.2-4.2.3,1.5-2.5,1.7-2.5,4.2-.3Z"/>
                <path class="st2" d="M123.1,326.5c0-1.2-.2-2-.3-3.1,1.4.7,2.3,1.2,3.7,1.8-1.2.4-2.1.8-3.4,1.3h0Z"/>
                <path class="st2" d="M293.4,181.2c1.1-.8,2-2.4,4.3-.4-1.7.6-2.9,1-4.1,1.4,0-.3-.2-.6-.3-.9h.1Z"/>
                <path class="st2" d="M391.2,130.3c-1.2-.3-2.3-.6-3.5-.9,0-.3.1-.5.2-.8,1.3-.3,2.7-1,3.3,1.7Z"/>
                <path class="st2" d="M336.5,356.6c.2,1.1.3,1.9.5,3.5-1.3-1.3-2.2-2.1-3.6-3.4h3.1Z"/>
                <path class="st2" d="M436.1,264.4c-.9.4-1.9.9-2.8,1.3,0,0-.4-.9-.6-1.3,1-.4,2-.8,3-1.2.2.4.3.8.5,1.2h-.1Z"/>
                <path class="st2" d="M138.8,381.7c1-1.3,1.6-2.2,2.2-3,.2,0,.3,0,.5.1,0,1.1-.2,2.3-.3,3.4-.7-.1-1.4-.3-2.4-.5Z"/>
                <path class="st2" d="M369.5,145.9c.8,1.8,2.1,3.5,1.4,5.3h-.9c-.2-1.8-.3-3.6-.5-5.4h0q0,.1,0,0Z"/>
                <path class="st2" d="M69.1,318.7v-5h1.1c0,1.7-.2,3.3-.4,5h-.8.1Z"/>
                <path class="st2" d="M407.8,27.6c1,.6,1.9,1.1,3.4,1.9-3.1.8-3.2.8-3.8-1.3.1-.2.3-.5.4-.7h0Z"/>
                <path class="st2" d="M436.5,511.4c-1.2-1.1-2.5-2.3-3.7-3.4.2-.2.4-.5.6-.7,1.3,1.1,2.5,2.2,3.8,3.3-.2.3-.5.5-.7.8h0Z"/>
                <path class="st2" d="M439.5,178.3c-2,1.7-3.3,2-4.8-.1h4.8Z"/>
                <path class="st2" d="M398.6,230.4c1.6-.5,3-.9,4.7-1.5-1.8,2.5-3.7,3.1-4.7,1.5Z"/>
                <path class="st2" d="M214.4,429.1c-1.8,1.1-3.1,1.8-4.6,2.7.2-2,2-3.1,4.6-2.7Z"/>
                <path class="st2" d="M88.1,484.6c-1.3-.5-2.5-1-3.9-1.6.6-.8.7-.7,4.1.9l-.2.7Z"/>
                <path class="st2" d="M169.9,425.6c1.2-.7,2.5-1.5,3.7-2.2.2.4.4.7.6,1.1-1.3.7-2.5,1.4-3.8,2.1-.2-.3-.4-.7-.6-1h.1Z"/>
                <path class="st2" d="M271.8,409.6h3.6c-.9,1-1.6,1.7-2.5,2.6-.3-.8-.6-1.5-1.1-2.6Z"/>
                <path class="st2" d="M201.2,261.9c1,1.8,1.8,3,2.8,4.8-2.8-.7-3.4-2.1-2.8-4.8Z"/>
                <path class="st2" d="M404,10.9c.5,1.3.9,2.5,1.4,3.8l-1,.4c-.5-1.2-1-2.5-1.5-3.7.4-.2.8-.3,1.1-.5Z"/>
                <path class="st2" d="M250.4,120.9c1-.4,2.1-.8,3.1-1.1.2,0,.7.4.7.7s-.3.8-.6.8c-1,.2-2,.3-3,.4,0-.3-.2-.5-.3-.8h.1Z"/>
                <path class="st2" d="M426.4,278.2c-.5-.8-1-1.5-1.4-2.3,0-.1.7-.6,1-.9.5.8,1,1.7,1.6,2.5-.4.2-.8.5-1.2.7h0Z"/>
                <path class="st2" d="M11.9,21c.1-1.2.3-2.3.4-3.5h1c.8,1.2.9,2.4-.5,3.5-.3,0-.6,0-.9-.1h0Z"/>
                <path class="st2" d="M264.2,315.6c2.9.3,5.7.5,8.8.8l-8.8-.2v-.6h0Z"/>
                <path class="st2" d="M335,348.8c1.6,1.3,2.8,2.3,4,3.2-1.9.8-2.8.2-4-3.2Z"/>
                <path class="st2" d="M168.1,220.1c1.3,0,2.8-1.2,4,1.5-1.7-.3-2.9-.5-4.1-.6v-.8h.1q0-.1,0,0Z"/>
                <path class="st2" d="M421,333.8c-.3-1.4-.6-2.8-.9-4.2.3,0,.6-.2,1-.3.4,1.4.8,2.7,1.2,4.1l-1.3.4h0Z"/>
                <path class="st2" d="M352,245.3c-.7.6-1.4,1.2-2.1,1.8-.5-.5-.9-1.1-1.6-1.9,1.4-.3,2.3-.5,3.1-.6.2.2.4.5.6.7Z"/>
                <path class="st2" d="M446.1,298.9c-.6-1.2-1.1-2.5-1.9-4.3,1.1.3,1.9.2,2.1.5.2.5-.2,1.2,0,1.8,0,.6.5,1.1.7,1.6-.2.1-.5.3-.7.4h-.2Z"/>
                <path class="st2" d="M383,78.7c-1.9,1.4-3.8,2.8-5.7,4.2-.1-.2-.2-.3-.4-.5,1.9-1.4,3.8-2.9,5.7-4.3.1.2.2.4.4.6Z"/>
                <path class="st2" d="M369.9,42.2c.2-.9.3-1.5.5-2.2,1.4.6,2.5,1,3.6,1.5v.4c-1.2,0-2.4.2-4.1.3Z"/>
                <path class="st2" d="M394.1,424.3c1-.5,1.7-1,1.9-.9.7.5,1.2,1.3,1.8,2-.2.2-.4.4-.6.7-.9-.5-1.7-1-3.1-1.8h0Z"/>
                <path class="st2" d="M399.6,182c.4-.9.8-1.8,1.2-2.8h.6c.2.8.7,1.7.5,2.4,0,.4-1.1.7-1.7,1-.2-.2-.3-.4-.5-.6h-.1Z"/>
                <path class="st2" d="M356.6,279.7c1.1,2.5.9,3.7-1.9,4.2.6-1.4,1.1-2.5,1.9-4.2Z"/>
                <path class="st2" d="M186.6,309.8c-1.2.9-2.4,1.5-3.3-1.2,1.4.1,2.4.2,3.4.3,0,.3,0,.6-.1.9h0Z"/>
                <path class="st2" d="M158.6,369.8c-.7.4-1.3,1.1-2,1.1s-1.1-.7-2-1.4c1.2-.3,1.8-.4,2.5-.5h1.1c.2.3.3.5.5.8h-.1Z"/>
                <path class="st2" d="M236.6,245.2c.5-1.1,1.1-2.2,1.6-3.3.3.2.7.3,1,.5-.5,1.2-1,2.3-1.4,3.5-.4-.2-.8-.4-1.3-.6h.1q0-.1,0,0Z"/>
                <path class="st2" d="M-.9,86v-3.7H0v3.7h-1Z"/>
                <path class="st2" d="M341,287.7c-.9-.6-1.8-1.2-2.8-1.9,2.1-1.4,2.5-1.2,2.8,1.9Z"/>
                <path class="st2" d="M333,312.9h-5.5v-.7h5.5v.7Z"/>
                <path class="st2" d="M73.8,368.4c0-1.6.2-2.7.3-4,1.9,1.1,1.9,2.5-.3,4Z"/>
                <path class="st2" d="M389.1,214.1v3.9h-1c0-1.3-.1-2.6-.2-3.9h1.2Z"/>
                <path class="st2" d="M328.2,26.3c1.6-.4,3.2-.9,4.8-1.3,0,.3.2.6.3,1-1.6.4-3.2.8-4.8,1.2,0-.3-.2-.6-.2-.9h-.1,0Z"/>
                <path class="st2" d="M412.4,442.6c2.2-1.5,2.7-1.1,3.1,2.3-1.1-.9-2-1.5-3.1-2.3Z"/>
                <path class="st2" d="M275.6,294c0-1-.1-1.9-.2-3.4,1.2.5,2,.8,3.2,1.3-1.3.9-2.1,1.5-3,2.2h0Z"/>
                <path class="st2" d="M209.6,112.9v3.2c-.8-.6-2-1-1.9-1.4,0-.7.8-1.4,1.2-2.1.2,0,.5.2.7.3Z"/>
                <path class="st2" d="M255.6,355.9c.7-1.1,2.2-1.2,4.6-.4-1.5.1-3,.3-4.6.4h0Z"/>
                <path class="st2" d="M198.1,379.2c.6,1.5,1.2,3.1,1.8,4.6-.3.1-.6.2-.9.3-.6-1.6-1.1-3.1-1.7-4.7.3,0,.5-.2.8-.3h0q0,.1,0,.1Z"/>
                <path class="st2" d="M196.8,366.4c1.6.7,3.3,1.4,4.9,2.1,0,.2-.2.4-.3.7-1.7-.7-3.3-1.3-5-2,.1-.3.2-.5.3-.8h.1Z"/>
                <path class="st2" d="M95.8,176.3c-1.2-1.4-2.2-2.4-3.2-3.6,2-.5,2.7.3,3.2,3.6Z"/>
                <path class="st2" d="M8.2,41.8c-2-2-2-2.4.4-3.3-.1,1.3-.3,2.3-.4,3.3Z"/>
                <path class="st2" d="M64.2,322c-1,.7-2,1.3-3.2,2.1v-2.4c1.1,0,2.1,0,3.2-.1l.2.4h-.2Z"/>
                <path class="st2" d="M301.8,346.3c1.6-.2,3.2-.5,5-.7v1.8c-1.6-.4-3.2-.7-5-1.1h0Z"/>
                <path class="st2" d="M144.8,314.7c-2.5.4-2.7,0-1.7-3.2.6,1.1,1.1,2.1,1.7,3.2Z"/>
                <path class="st2" d="M285.4,162.1c-.7-.9-1.2-1.3-1.5-1.9,0-.2.8-1,.9-1,.6.3,1.1.7,1.4,1.3.1.2-.4.8-.9,1.6h.1Z"/>
                <path class="st2" d="M10.4,179.3c-.8.5-1.3.8-2,1.3-.3-1.1-.6-2.1-.9-3.1.2-.2.4-.3.6-.5.7.7,1.4,1.4,2.3,2.3Z"/>
                <path class="st2" d="M330.6,511.6c-.8-.9-1.3-1.5-2.2-2.6h3.6c-.5,1-.8,1.6-1.4,2.6Z"/>
                <path class="st2" d="M242.2,150.5c1,.7,2.1,1.5,3.1,2.2-.2.3-.5.6-.7.9-1-.8-2-1.6-3-2.3.2-.3.4-.5.6-.8h0Z"/>
                <path class="st2" d="M147.2,0c.9,0,1.7.2,2.6.3,0,.5-.1,1-.2,1.5-.9-.2-1.7-.5-2.6-.7,0-.4.1-.7.2-1.1Z"/>
                <path class="st2" d="M351.4,417.6l-4.4,3.5c-.1-.2-.3-.4-.4-.5,1.5-1.2,2.9-2.5,4.4-3.7.2.3.3.5.5.8h-.1q0-.1,0,0Z"/>
                <path class="st2" d="M184.2,329.5c-.6-.5-1.4-1-1.7-1.6s.4-1.2.8-2.1c.5,1.4.8,2.3,1.1,3.1,0,.2-.2.4-.2.6h0Z"/>
              </g>
            </g>
          </g>
        </g>
      </g>
    </g>
  </g>
</svg>