<?xml version="1.0" encoding="UTF-8"?>
<svg id="Layer_2" data-name="Layer 2" xmlns="http://www.w3.org/2000/svg" viewBox="0 0 1079 3596">
  <defs>
    <style>
      .cls-1 {
        opacity: .3;
      }

      .cls-2 {
        fill: none;
        stroke: #000;
        stroke-miterlimit: 10;
        stroke-width: 5px;
      }
    </style>
  </defs>
  <g id="Layer_1-2" data-name="Layer 1">
    <g class="cls-1">
      <line class="cls-2" x1="0" y1="2.5" x2="1079" y2="2.5"/>
      <line class="cls-2" y1="12.45" x2="1079" y2="12.45"/>
      <line class="cls-2" x1="0" y1="22.39" x2="1079" y2="22.39"/>
      <line class="cls-2" x1="0" y1="32.34" x2="1079" y2="32.34"/>
      <line class="cls-2" x1="0" y1="42.29" x2="1079" y2="42.29"/>
      <line class="cls-2" x1="0" y1="52.24" x2="1079" y2="52.24"/>
      <line class="cls-2" x1="0" y1="62.18" x2="1079" y2="62.18"/>
      <line class="cls-2" y1="72.13" x2="1079" y2="72.13"/>
      <line class="cls-2" y1="82.08" x2="1079" y2="82.08"/>
      <line class="cls-2" y1="92.03" x2="1079" y2="92.03"/>
      <line class="cls-2" x1="0" y1="101.97" x2="1079" y2="101.97"/>
      <line class="cls-2" x1="0" y1="111.92" x2="1079" y2="111.92"/>
      <line class="cls-2" x1="0" y1="121.87" x2="1079" y2="121.87"/>
      <line class="cls-2" x1="0" y1="131.82" x2="1079" y2="131.82"/>
      <line class="cls-2" x1="0" y1="141.76" x2="1079" y2="141.76"/>
      <line class="cls-2" y1="151.71" x2="1079" y2="151.71"/>
      <line class="cls-2" x1="0" y1="161.66" x2="1079" y2="161.66"/>
      <line class="cls-2" x1="0" y1="171.61" x2="1079" y2="171.61"/>
      <line class="cls-2" x1="0" y1="181.55" x2="1079" y2="181.55"/>
      <line class="cls-2" x1="0" y1="191.5" x2="1079" y2="191.5"/>
      <line class="cls-2" x1="0" y1="201.45" x2="1079" y2="201.45"/>
      <line class="cls-2" x1="0" y1="211.39" x2="1079" y2="211.39"/>
      <line class="cls-2" x1="0" y1="221.34" x2="1079" y2="221.34"/>
      <line class="cls-2" x1="0" y1="231.29" x2="1079" y2="231.29"/>
      <line class="cls-2" x1="0" y1="241.24" x2="1079" y2="241.24"/>
      <line class="cls-2" x1="0" y1="251.18" x2="1079" y2="251.18"/>
      <line class="cls-2" x1="0" y1="261.13" x2="1079" y2="261.13"/>
      <line class="cls-2" x1="0" y1="271.08" x2="1079" y2="271.08"/>
      <line class="cls-2" x1="0" y1="281.03" x2="1079" y2="281.03"/>
      <line class="cls-2" x1="0" y1="290.97" x2="1079" y2="290.97"/>
      <line class="cls-2" x1="0" y1="300.92" x2="1079" y2="300.92"/>
      <line class="cls-2" x1="0" y1="310.87" x2="1079" y2="310.87"/>
      <line class="cls-2" x1="0" y1="320.82" x2="1079" y2="320.82"/>
      <line class="cls-2" x1="0" y1="330.76" x2="1079" y2="330.76"/>
      <line class="cls-2" x1="0" y1="340.71" x2="1079" y2="340.71"/>
      <line class="cls-2" x1="0" y1="350.66" x2="1079" y2="350.66"/>
      <line class="cls-2" x1="0" y1="360.61" x2="1079" y2="360.61"/>
      <line class="cls-2" x1="0" y1="370.55" x2="1079" y2="370.55"/>
      <line class="cls-2" x1="0" y1="380.5" x2="1079" y2="380.5"/>
      <line class="cls-2" x1="0" y1="390.45" x2="1079" y2="390.45"/>
      <line class="cls-2" x1="0" y1="400.39" x2="1079" y2="400.39"/>
      <line class="cls-2" x1="0" y1="410.34" x2="1079" y2="410.34"/>
      <line class="cls-2" x1="0" y1="420.29" x2="1079" y2="420.29"/>
      <line class="cls-2" x1="0" y1="430.24" x2="1079" y2="430.24"/>
      <line class="cls-2" x1="0" y1="440.18" x2="1079" y2="440.18"/>
      <line class="cls-2" x1="0" y1="450.13" x2="1079" y2="450.13"/>
      <line class="cls-2" x1="0" y1="460.08" x2="1079" y2="460.08"/>
      <line class="cls-2" x1="0" y1="470.03" x2="1079" y2="470.03"/>
      <line class="cls-2" x1="0" y1="479.97" x2="1079" y2="479.97"/>
      <line class="cls-2" x1="0" y1="489.92" x2="1079" y2="489.92"/>
      <line class="cls-2" x1="0" y1="499.87" x2="1079" y2="499.87"/>
      <line class="cls-2" x1="0" y1="509.82" x2="1079" y2="509.82"/>
      <line class="cls-2" x1="0" y1="519.76" x2="1079" y2="519.76"/>
      <line class="cls-2" x1="0" y1="529.71" x2="1079" y2="529.71"/>
      <line class="cls-2" x1="0" y1="539.66" x2="1079" y2="539.66"/>
      <line class="cls-2" x1="0" y1="549.61" x2="1079" y2="549.61"/>
      <line class="cls-2" x1="0" y1="559.55" x2="1079" y2="559.55"/>
      <line class="cls-2" x1="0" y1="569.5" x2="1079" y2="569.5"/>
      <line class="cls-2" x1="0" y1="579.45" x2="1079" y2="579.45"/>
      <line class="cls-2" x1="0" y1="589.39" x2="1079" y2="589.39"/>
      <line class="cls-2" x1="0" y1="599.34" x2="1079" y2="599.34"/>
      <line class="cls-2" x1="0" y1="609.29" x2="1079" y2="609.29"/>
      <line class="cls-2" x1="0" y1="619.24" x2="1079" y2="619.24"/>
      <line class="cls-2" x1="0" y1="629.18" x2="1079" y2="629.18"/>
      <line class="cls-2" x1="0" y1="639.13" x2="1079" y2="639.13"/>
      <line class="cls-2" x1="0" y1="649.08" x2="1079" y2="649.08"/>
      <line class="cls-2" x1="0" y1="659.03" x2="1079" y2="659.03"/>
      <line class="cls-2" x1="0" y1="668.97" x2="1079" y2="668.97"/>
      <line class="cls-2" x1="0" y1="678.92" x2="1079" y2="678.92"/>
      <line class="cls-2" x1="0" y1="688.87" x2="1079" y2="688.87"/>
      <line class="cls-2" x1="0" y1="698.82" x2="1079" y2="698.82"/>
      <line class="cls-2" x1="0" y1="708.76" x2="1079" y2="708.76"/>
      <line class="cls-2" x1="0" y1="718.71" x2="1079" y2="718.71"/>
      <line class="cls-2" x1="0" y1="728.66" x2="1079" y2="728.66"/>
      <line class="cls-2" x1="0" y1="738.61" x2="1079" y2="738.61"/>
      <line class="cls-2" x1="0" y1="748.55" x2="1079" y2="748.55"/>
      <line class="cls-2" x1="0" y1="758.5" x2="1079" y2="758.5"/>
      <line class="cls-2" x1="0" y1="768.45" x2="1079" y2="768.45"/>
      <line class="cls-2" x1="0" y1="778.39" x2="1079" y2="778.39"/>
      <line class="cls-2" x1="0" y1="788.34" x2="1079" y2="788.34"/>
      <line class="cls-2" x1="0" y1="798.29" x2="1079" y2="798.29"/>
      <line class="cls-2" x1="0" y1="808.24" x2="1079" y2="808.24"/>
      <line class="cls-2" x1="0" y1="818.18" x2="1079" y2="818.18"/>
      <line class="cls-2" x1="0" y1="828.13" x2="1079" y2="828.13"/>
      <line class="cls-2" x1="0" y1="838.08" x2="1079" y2="838.08"/>
      <line class="cls-2" x1="0" y1="848.03" x2="1079" y2="848.03"/>
      <line class="cls-2" x1="0" y1="857.97" x2="1079" y2="857.97"/>
      <line class="cls-2" x1="0" y1="867.92" x2="1079" y2="867.92"/>
      <line class="cls-2" x1="0" y1="877.87" x2="1079" y2="877.87"/>
      <line class="cls-2" x1="0" y1="887.82" x2="1079" y2="887.82"/>
      <line class="cls-2" x1="0" y1="897.76" x2="1079" y2="897.76"/>
      <line class="cls-2" x1="0" y1="907.71" x2="1079" y2="907.71"/>
      <line class="cls-2" x1="0" y1="917.66" x2="1079" y2="917.66"/>
      <line class="cls-2" x1="0" y1="927.61" x2="1079" y2="927.61"/>
      <line class="cls-2" x1="0" y1="937.55" x2="1079" y2="937.55"/>
      <line class="cls-2" x1="0" y1="947.5" x2="1079" y2="947.5"/>
      <line class="cls-2" x1="0" y1="957.45" x2="1079" y2="957.45"/>
      <line class="cls-2" x1="0" y1="967.39" x2="1079" y2="967.39"/>
      <line class="cls-2" x1="0" y1="977.34" x2="1079" y2="977.34"/>
      <line class="cls-2" x1="0" y1="987.29" x2="1079" y2="987.29"/>
      <line class="cls-2" x1="0" y1="997.24" x2="1079" y2="997.24"/>
      <line class="cls-2" x1="0" y1="1007.18" x2="1079" y2="1007.18"/>
      <line class="cls-2" x1="0" y1="1017.13" x2="1079" y2="1017.13"/>
      <line class="cls-2" x1="0" y1="1027.08" x2="1079" y2="1027.08"/>
      <line class="cls-2" x1="0" y1="1037.03" x2="1079" y2="1037.03"/>
      <line class="cls-2" x1="0" y1="1046.97" x2="1079" y2="1046.97"/>
      <line class="cls-2" x1="0" y1="1056.92" x2="1079" y2="1056.92"/>
      <line class="cls-2" x1="0" y1="1066.87" x2="1079" y2="1066.87"/>
      <line class="cls-2" x1="0" y1="1076.82" x2="1079" y2="1076.82"/>
      <line class="cls-2" x1="0" y1="1086.76" x2="1079" y2="1086.76"/>
      <line class="cls-2" x1="0" y1="1096.71" x2="1079" y2="1096.71"/>
      <line class="cls-2" x1="0" y1="1106.66" x2="1079" y2="1106.66"/>
      <line class="cls-2" x1="0" y1="1116.61" x2="1079" y2="1116.61"/>
      <line class="cls-2" x1="0" y1="1126.55" x2="1079" y2="1126.55"/>
      <line class="cls-2" x1="0" y1="1136.5" x2="1079" y2="1136.5"/>
      <line class="cls-2" x1="0" y1="1146.45" x2="1079" y2="1146.45"/>
      <line class="cls-2" x1="0" y1="1156.39" x2="1079" y2="1156.39"/>
      <line class="cls-2" x1="0" y1="1166.34" x2="1079" y2="1166.34"/>
      <line class="cls-2" x1="0" y1="1176.29" x2="1079" y2="1176.29"/>
      <line class="cls-2" x1="0" y1="1186.24" x2="1079" y2="1186.24"/>
      <line class="cls-2" x1="0" y1="1196.18" x2="1079" y2="1196.18"/>
      <line class="cls-2" x1="0" y1="1206.13" x2="1079" y2="1206.13"/>
      <line class="cls-2" x1="0" y1="1216.08" x2="1079" y2="1216.08"/>
      <line class="cls-2" x1="0" y1="1226.03" x2="1079" y2="1226.03"/>
      <line class="cls-2" x1="0" y1="1235.97" x2="1079" y2="1235.97"/>
      <line class="cls-2" x1="0" y1="1245.92" x2="1079" y2="1245.92"/>
      <line class="cls-2" x1="0" y1="1255.87" x2="1079" y2="1255.87"/>
      <line class="cls-2" x1="0" y1="1265.82" x2="1079" y2="1265.82"/>
      <line class="cls-2" x1="0" y1="1275.76" x2="1079" y2="1275.76"/>
      <line class="cls-2" x1="0" y1="1285.71" x2="1079" y2="1285.71"/>
      <line class="cls-2" x1="0" y1="1295.66" x2="1079" y2="1295.66"/>
      <line class="cls-2" x1="0" y1="1305.61" x2="1079" y2="1305.61"/>
      <line class="cls-2" x1="0" y1="1315.55" x2="1079" y2="1315.55"/>
      <line class="cls-2" x1="0" y1="1325.5" x2="1079" y2="1325.5"/>
      <line class="cls-2" x1="0" y1="1335.45" x2="1079" y2="1335.45"/>
      <line class="cls-2" x1="0" y1="1345.39" x2="1079" y2="1345.39"/>
      <line class="cls-2" x1="0" y1="1355.34" x2="1079" y2="1355.34"/>
      <line class="cls-2" x1="0" y1="1365.29" x2="1079" y2="1365.29"/>
      <line class="cls-2" x1="0" y1="1375.24" x2="1079" y2="1375.24"/>
      <line class="cls-2" x1="0" y1="1385.18" x2="1079" y2="1385.18"/>
      <line class="cls-2" x1="0" y1="1395.13" x2="1079" y2="1395.13"/>
      <line class="cls-2" x1="0" y1="1405.08" x2="1079" y2="1405.08"/>
      <line class="cls-2" x1="0" y1="1415.03" x2="1079" y2="1415.03"/>
      <line class="cls-2" x1="0" y1="1424.97" x2="1079" y2="1424.97"/>
      <line class="cls-2" x1="0" y1="1434.92" x2="1079" y2="1434.92"/>
      <line class="cls-2" x1="0" y1="1444.87" x2="1079" y2="1444.87"/>
      <line class="cls-2" x1="0" y1="1454.82" x2="1079" y2="1454.82"/>
      <line class="cls-2" x1="0" y1="1464.76" x2="1079" y2="1464.76"/>
      <line class="cls-2" x1="0" y1="1474.71" x2="1079" y2="1474.71"/>
      <line class="cls-2" x1="0" y1="1484.66" x2="1079" y2="1484.66"/>
      <line class="cls-2" x1="0" y1="1494.61" x2="1079" y2="1494.61"/>
      <line class="cls-2" x1="0" y1="1504.55" x2="1079" y2="1504.55"/>
      <line class="cls-2" x1="0" y1="1514.5" x2="1079" y2="1514.5"/>
      <line class="cls-2" x1="0" y1="1524.45" x2="1079" y2="1524.45"/>
      <line class="cls-2" x1="0" y1="1534.39" x2="1079" y2="1534.39"/>
      <line class="cls-2" x1="0" y1="1544.34" x2="1079" y2="1544.34"/>
      <line class="cls-2" x1="0" y1="1554.29" x2="1079" y2="1554.29"/>
      <line class="cls-2" x1="0" y1="1564.24" x2="1079" y2="1564.24"/>
      <line class="cls-2" x1="0" y1="1574.18" x2="1079" y2="1574.18"/>
      <line class="cls-2" x1="0" y1="1584.13" x2="1079" y2="1584.13"/>
      <line class="cls-2" x1="0" y1="1594.08" x2="1079" y2="1594.08"/>
      <line class="cls-2" x1="0" y1="1604.03" x2="1079" y2="1604.03"/>
      <line class="cls-2" x1="0" y1="1613.97" x2="1079" y2="1613.97"/>
      <line class="cls-2" x1="0" y1="1623.92" x2="1079" y2="1623.92"/>
      <line class="cls-2" x1="0" y1="1633.87" x2="1079" y2="1633.87"/>
      <line class="cls-2" x1="0" y1="1643.82" x2="1079" y2="1643.82"/>
      <line class="cls-2" x1="0" y1="1653.76" x2="1079" y2="1653.76"/>
      <line class="cls-2" x1="0" y1="1663.71" x2="1079" y2="1663.71"/>
      <line class="cls-2" x1="0" y1="1673.66" x2="1079" y2="1673.66"/>
      <line class="cls-2" x1="0" y1="1683.61" x2="1079" y2="1683.61"/>
      <line class="cls-2" x1="0" y1="1693.55" x2="1079" y2="1693.55"/>
      <line class="cls-2" x1="0" y1="1703.5" x2="1079" y2="1703.5"/>
      <line class="cls-2" x1="0" y1="1713.45" x2="1079" y2="1713.45"/>
      <line class="cls-2" x1="0" y1="1723.39" x2="1079" y2="1723.39"/>
      <line class="cls-2" x1="0" y1="1733.34" x2="1079" y2="1733.34"/>
      <line class="cls-2" x1="0" y1="1743.29" x2="1079" y2="1743.29"/>
      <line class="cls-2" x1="0" y1="1753.24" x2="1079" y2="1753.24"/>
      <line class="cls-2" x1="0" y1="1763.18" x2="1079" y2="1763.18"/>
      <line class="cls-2" x1="0" y1="1773.13" x2="1079" y2="1773.13"/>
      <line class="cls-2" x1="0" y1="1783.08" x2="1079" y2="1783.08"/>
      <line class="cls-2" x1="0" y1="1793.03" x2="1079" y2="1793.03"/>
      <line class="cls-2" x1="0" y1="1802.97" x2="1079" y2="1802.97"/>
      <line class="cls-2" x1="0" y1="1812.92" x2="1079" y2="1812.92"/>
      <line class="cls-2" x1="0" y1="1822.87" x2="1079" y2="1822.87"/>
      <line class="cls-2" x1="0" y1="1832.82" x2="1079" y2="1832.82"/>
      <line class="cls-2" x1="0" y1="1842.76" x2="1079" y2="1842.76"/>
      <line class="cls-2" x1="0" y1="1852.71" x2="1079" y2="1852.71"/>
      <line class="cls-2" x1="0" y1="1862.66" x2="1079" y2="1862.66"/>
      <line class="cls-2" x1="0" y1="1872.61" x2="1079" y2="1872.61"/>
      <line class="cls-2" x1="0" y1="1882.55" x2="1079" y2="1882.55"/>
      <line class="cls-2" x1="0" y1="1892.5" x2="1079" y2="1892.5"/>
      <line class="cls-2" x1="0" y1="1902.45" x2="1079" y2="1902.45"/>
      <line class="cls-2" x1="0" y1="1912.39" x2="1079" y2="1912.39"/>
      <line class="cls-2" x1="0" y1="1922.34" x2="1079" y2="1922.34"/>
      <line class="cls-2" x1="0" y1="1932.29" x2="1079" y2="1932.29"/>
      <line class="cls-2" x1="0" y1="1942.24" x2="1079" y2="1942.24"/>
      <line class="cls-2" x1="0" y1="1952.18" x2="1079" y2="1952.18"/>
      <line class="cls-2" x1="0" y1="1962.13" x2="1079" y2="1962.13"/>
      <line class="cls-2" x1="0" y1="1972.08" x2="1079" y2="1972.08"/>
      <line class="cls-2" x1="0" y1="1982.03" x2="1079" y2="1982.03"/>
      <line class="cls-2" x1="0" y1="1991.97" x2="1079" y2="1991.97"/>
      <line class="cls-2" x1="0" y1="2001.92" x2="1079" y2="2001.92"/>
      <line class="cls-2" x1="0" y1="2011.87" x2="1079" y2="2011.87"/>
      <line class="cls-2" x1="0" y1="2021.82" x2="1079" y2="2021.82"/>
      <line class="cls-2" x1="0" y1="2031.76" x2="1079" y2="2031.76"/>
      <line class="cls-2" x1="0" y1="2041.71" x2="1079" y2="2041.71"/>
      <line class="cls-2" x1="0" y1="2051.66" x2="1079" y2="2051.66"/>
      <line class="cls-2" x1="0" y1="2061.61" x2="1079" y2="2061.61"/>
      <line class="cls-2" x1="0" y1="2071.55" x2="1079" y2="2071.55"/>
      <line class="cls-2" x1="0" y1="2081.5" x2="1079" y2="2081.5"/>
      <line class="cls-2" x1="0" y1="2091.45" x2="1079" y2="2091.45"/>
      <line class="cls-2" x1="0" y1="2101.39" x2="1079" y2="2101.39"/>
      <line class="cls-2" x1="0" y1="2111.34" x2="1079" y2="2111.34"/>
      <line class="cls-2" x1="0" y1="2121.29" x2="1079" y2="2121.29"/>
      <line class="cls-2" x1="0" y1="2131.24" x2="1079" y2="2131.24"/>
      <line class="cls-2" x1="0" y1="2141.18" x2="1079" y2="2141.18"/>
      <line class="cls-2" x1="0" y1="2151.13" x2="1079" y2="2151.13"/>
      <line class="cls-2" x1="0" y1="2161.08" x2="1079" y2="2161.08"/>
      <line class="cls-2" x1="0" y1="2171.03" x2="1079" y2="2171.03"/>
      <line class="cls-2" x1="0" y1="2180.97" x2="1079" y2="2180.97"/>
      <line class="cls-2" x1="0" y1="2190.92" x2="1079" y2="2190.92"/>
      <line class="cls-2" x1="0" y1="2200.87" x2="1079" y2="2200.87"/>
      <line class="cls-2" x1="0" y1="2210.82" x2="1079" y2="2210.82"/>
      <line class="cls-2" x1="0" y1="2220.76" x2="1079" y2="2220.76"/>
      <line class="cls-2" x1="0" y1="2230.71" x2="1079" y2="2230.71"/>
      <line class="cls-2" x1="0" y1="2240.66" x2="1079" y2="2240.66"/>
      <line class="cls-2" x1="0" y1="2250.61" x2="1079" y2="2250.61"/>
      <line class="cls-2" x1="0" y1="2260.55" x2="1079" y2="2260.55"/>
      <line class="cls-2" x1="0" y1="2270.5" x2="1079" y2="2270.5"/>
      <line class="cls-2" x1="0" y1="2280.45" x2="1079" y2="2280.45"/>
      <line class="cls-2" x1="0" y1="2290.39" x2="1079" y2="2290.39"/>
      <line class="cls-2" x1="0" y1="2300.34" x2="1079" y2="2300.34"/>
      <line class="cls-2" x1="0" y1="2310.29" x2="1079" y2="2310.29"/>
      <line class="cls-2" x1="0" y1="2320.24" x2="1079" y2="2320.24"/>
      <line class="cls-2" x1="0" y1="2330.18" x2="1079" y2="2330.18"/>
      <line class="cls-2" x1="0" y1="2340.13" x2="1079" y2="2340.13"/>
      <line class="cls-2" x1="0" y1="2350.08" x2="1079" y2="2350.08"/>
      <line class="cls-2" x1="0" y1="2360.03" x2="1079" y2="2360.03"/>
      <line class="cls-2" x1="0" y1="2369.97" x2="1079" y2="2369.97"/>
      <line class="cls-2" x1="0" y1="2379.92" x2="1079" y2="2379.92"/>
      <line class="cls-2" x1="0" y1="2389.87" x2="1079" y2="2389.87"/>
      <line class="cls-2" x1="0" y1="2399.82" x2="1079" y2="2399.82"/>
      <line class="cls-2" x1="0" y1="2409.76" x2="1079" y2="2409.76"/>
      <line class="cls-2" x1="0" y1="2419.71" x2="1079" y2="2419.71"/>
      <line class="cls-2" x1="0" y1="2429.66" x2="1079" y2="2429.66"/>
      <line class="cls-2" x1="0" y1="2439.61" x2="1079" y2="2439.61"/>
      <line class="cls-2" x1="0" y1="2449.55" x2="1079" y2="2449.55"/>
      <line class="cls-2" x1="0" y1="2459.5" x2="1079" y2="2459.5"/>
      <line class="cls-2" x1="0" y1="2469.45" x2="1079" y2="2469.45"/>
      <line class="cls-2" x1="0" y1="2479.39" x2="1079" y2="2479.39"/>
      <line class="cls-2" x1="0" y1="2489.34" x2="1079" y2="2489.34"/>
      <line class="cls-2" x1="0" y1="2499.29" x2="1079" y2="2499.29"/>
      <line class="cls-2" x1="0" y1="2509.24" x2="1079" y2="2509.24"/>
      <line class="cls-2" x1="0" y1="2519.18" x2="1079" y2="2519.18"/>
      <line class="cls-2" x1="0" y1="2529.13" x2="1079" y2="2529.13"/>
      <line class="cls-2" x1="0" y1="2539.08" x2="1079" y2="2539.08"/>
      <line class="cls-2" x1="0" y1="2549.03" x2="1079" y2="2549.03"/>
      <line class="cls-2" x1="0" y1="2558.97" x2="1079" y2="2558.97"/>
      <line class="cls-2" x1="0" y1="2568.92" x2="1079" y2="2568.92"/>
      <line class="cls-2" x1="0" y1="2578.87" x2="1079" y2="2578.87"/>
      <line class="cls-2" x1="0" y1="2588.82" x2="1079" y2="2588.82"/>
      <line class="cls-2" x1="0" y1="2598.76" x2="1079" y2="2598.76"/>
      <line class="cls-2" x1="0" y1="2608.71" x2="1079" y2="2608.71"/>
      <line class="cls-2" x1="0" y1="2618.66" x2="1079" y2="2618.66"/>
      <line class="cls-2" x1="0" y1="2628.61" x2="1079" y2="2628.61"/>
      <line class="cls-2" x1="0" y1="2638.55" x2="1079" y2="2638.55"/>
      <line class="cls-2" x1="0" y1="2648.5" x2="1079" y2="2648.5"/>
      <line class="cls-2" x1="0" y1="2658.45" x2="1079" y2="2658.45"/>
      <line class="cls-2" x1="0" y1="2668.39" x2="1079" y2="2668.39"/>
      <line class="cls-2" x1="0" y1="2678.34" x2="1079" y2="2678.34"/>
      <line class="cls-2" x1="0" y1="2688.29" x2="1079" y2="2688.29"/>
      <line class="cls-2" x1="0" y1="2698.24" x2="1079" y2="2698.24"/>
      <line class="cls-2" x1="0" y1="2708.18" x2="1079" y2="2708.18"/>
      <line class="cls-2" x1="0" y1="2718.13" x2="1079" y2="2718.13"/>
      <line class="cls-2" x1="0" y1="2728.08" x2="1079" y2="2728.08"/>
      <line class="cls-2" x1="0" y1="2738.03" x2="1079" y2="2738.03"/>
      <line class="cls-2" x1="0" y1="2747.97" x2="1079" y2="2747.97"/>
      <line class="cls-2" x1="0" y1="2757.92" x2="1079" y2="2757.92"/>
      <line class="cls-2" x1="0" y1="2767.87" x2="1079" y2="2767.87"/>
      <line class="cls-2" x1="0" y1="2777.82" x2="1079" y2="2777.82"/>
      <line class="cls-2" x1="0" y1="2787.76" x2="1079" y2="2787.76"/>
      <line class="cls-2" x1="0" y1="2797.71" x2="1079" y2="2797.71"/>
      <line class="cls-2" x1="0" y1="2807.66" x2="1079" y2="2807.66"/>
      <line class="cls-2" x1="0" y1="2817.61" x2="1079" y2="2817.61"/>
      <line class="cls-2" x1="0" y1="2827.55" x2="1079" y2="2827.55"/>
      <line class="cls-2" x1="0" y1="2837.5" x2="1079" y2="2837.5"/>
      <line class="cls-2" x1="0" y1="2847.45" x2="1079" y2="2847.45"/>
      <line class="cls-2" x1="0" y1="2857.39" x2="1079" y2="2857.39"/>
      <line class="cls-2" x1="0" y1="2867.34" x2="1079" y2="2867.34"/>
      <line class="cls-2" x1="0" y1="2877.29" x2="1079" y2="2877.29"/>
      <line class="cls-2" x1="0" y1="2887.24" x2="1079" y2="2887.24"/>
      <line class="cls-2" x1="0" y1="2897.18" x2="1079" y2="2897.18"/>
      <line class="cls-2" x1="0" y1="2907.13" x2="1079" y2="2907.13"/>
      <line class="cls-2" x1="0" y1="2917.08" x2="1079" y2="2917.08"/>
      <line class="cls-2" x1="0" y1="2927.03" x2="1079" y2="2927.03"/>
      <line class="cls-2" x1="0" y1="2936.97" x2="1079" y2="2936.97"/>
      <line class="cls-2" x1="0" y1="2946.92" x2="1079" y2="2946.92"/>
      <line class="cls-2" x1="0" y1="2956.87" x2="1079" y2="2956.87"/>
      <line class="cls-2" x1="0" y1="2966.82" x2="1079" y2="2966.82"/>
      <line class="cls-2" x1="0" y1="2976.76" x2="1079" y2="2976.76"/>
      <line class="cls-2" x1="0" y1="2986.71" x2="1079" y2="2986.71"/>
      <line class="cls-2" x1="0" y1="2996.66" x2="1079" y2="2996.66"/>
      <line class="cls-2" x1="0" y1="3006.61" x2="1079" y2="3006.61"/>
      <line class="cls-2" x1="0" y1="3016.55" x2="1079" y2="3016.55"/>
      <line class="cls-2" x1="0" y1="3026.5" x2="1079" y2="3026.5"/>
      <line class="cls-2" x1="0" y1="3036.45" x2="1079" y2="3036.45"/>
      <line class="cls-2" x1="0" y1="3046.39" x2="1079" y2="3046.39"/>
      <line class="cls-2" x1="0" y1="3056.34" x2="1079" y2="3056.34"/>
      <line class="cls-2" x1="0" y1="3066.29" x2="1079" y2="3066.29"/>
      <line class="cls-2" x1="0" y1="3076.24" x2="1079" y2="3076.24"/>
      <line class="cls-2" x1="0" y1="3086.18" x2="1079" y2="3086.18"/>
      <line class="cls-2" x1="0" y1="3096.13" x2="1079" y2="3096.13"/>
      <line class="cls-2" x1="0" y1="3106.08" x2="1079" y2="3106.08"/>
      <line class="cls-2" x1="0" y1="3116.03" x2="1079" y2="3116.03"/>
      <line class="cls-2" x1="0" y1="3125.97" x2="1079" y2="3125.97"/>
      <line class="cls-2" x1="0" y1="3135.92" x2="1079" y2="3135.92"/>
      <line class="cls-2" x1="0" y1="3145.87" x2="1079" y2="3145.87"/>
      <line class="cls-2" x1="0" y1="3155.82" x2="1079" y2="3155.82"/>
      <line class="cls-2" x1="0" y1="3165.76" x2="1079" y2="3165.76"/>
      <line class="cls-2" x1="0" y1="3175.71" x2="1079" y2="3175.71"/>
      <line class="cls-2" x1="0" y1="3185.66" x2="1079" y2="3185.66"/>
      <line class="cls-2" x1="0" y1="3195.61" x2="1079" y2="3195.61"/>
      <line class="cls-2" x1="0" y1="3205.55" x2="1079" y2="3205.55"/>
      <line class="cls-2" x1="0" y1="3215.5" x2="1079" y2="3215.5"/>
      <line class="cls-2" x1="0" y1="3225.45" x2="1079" y2="3225.45"/>
      <line class="cls-2" x1="0" y1="3235.39" x2="1079" y2="3235.39"/>
      <line class="cls-2" x1="0" y1="3245.34" x2="1079" y2="3245.34"/>
      <line class="cls-2" x1="0" y1="3255.29" x2="1079" y2="3255.29"/>
      <line class="cls-2" x1="0" y1="3265.24" x2="1079" y2="3265.24"/>
      <line class="cls-2" x1="0" y1="3275.18" x2="1079" y2="3275.18"/>
      <line class="cls-2" x1="0" y1="3285.13" x2="1079" y2="3285.13"/>
      <line class="cls-2" x1="0" y1="3295.08" x2="1079" y2="3295.08"/>
      <line class="cls-2" x1="0" y1="3305.03" x2="1079" y2="3305.03"/>
      <line class="cls-2" x1="0" y1="3314.97" x2="1079" y2="3314.97"/>
      <line class="cls-2" x1="0" y1="3324.92" x2="1079" y2="3324.92"/>
      <line class="cls-2" x1="0" y1="3334.87" x2="1079" y2="3334.87"/>
      <line class="cls-2" x1="0" y1="3344.82" x2="1079" y2="3344.82"/>
      <line class="cls-2" x1="0" y1="3354.76" x2="1079" y2="3354.76"/>
      <line class="cls-2" x1="0" y1="3364.71" x2="1079" y2="3364.71"/>
      <line class="cls-2" x1="0" y1="3374.66" x2="1079" y2="3374.66"/>
      <line class="cls-2" x1="0" y1="3384.61" x2="1079" y2="3384.61"/>
      <line class="cls-2" x1="0" y1="3394.55" x2="1079" y2="3394.55"/>
      <line class="cls-2" x1="0" y1="3404.5" x2="1079" y2="3404.5"/>
      <line class="cls-2" x1="0" y1="3414.45" x2="1079" y2="3414.45"/>
      <line class="cls-2" x1="0" y1="3424.39" x2="1079" y2="3424.39"/>
      <line class="cls-2" x1="0" y1="3434.34" x2="1079" y2="3434.34"/>
      <line class="cls-2" x1="0" y1="3444.29" x2="1079" y2="3444.29"/>
      <line class="cls-2" x1="0" y1="3454.24" x2="1079" y2="3454.24"/>
      <line class="cls-2" x1="0" y1="3464.18" x2="1079" y2="3464.18"/>
      <line class="cls-2" x1="0" y1="3474.13" x2="1079" y2="3474.13"/>
      <line class="cls-2" x1="0" y1="3484.08" x2="1079" y2="3484.08"/>
      <line class="cls-2" x1="0" y1="3494.03" x2="1079" y2="3494.03"/>
      <line class="cls-2" x1="0" y1="3503.97" x2="1079" y2="3503.97"/>
      <line class="cls-2" x1="0" y1="3513.92" x2="1079" y2="3513.92"/>
      <line class="cls-2" x1="0" y1="3523.87" x2="1079" y2="3523.87"/>
      <line class="cls-2" x1="0" y1="3533.82" x2="1079" y2="3533.82"/>
      <line class="cls-2" x1="0" y1="3543.76" x2="1079" y2="3543.76"/>
      <line class="cls-2" x1="0" y1="3553.71" x2="1079" y2="3553.71"/>
      <line class="cls-2" x1="0" y1="3563.66" x2="1079" y2="3563.66"/>
      <line class="cls-2" x1="0" y1="3573.61" x2="1079" y2="3573.61"/>
      <line class="cls-2" x1="0" y1="3583.55" x2="1079" y2="3583.55"/>
      <line class="cls-2" x1="0" y1="3593.5" x2="1079" y2="3593.5"/>
    </g>
  </g>
</svg>